<svg width="48" height="52" viewBox="0 0 48 52" fill="none" xmlns="http://www.w3.org/2000/svg">
<path d="M53.8332 24.744C53.8332 39.6925 41.9719 51.8048 27.3332 51.8048C26.347 51.8048 25.3742 51.75 24.4215 51.6404C19.3161 51.0718 14.6467 49.0234 10.8361 45.9199C7.19319 42.9535 4.3285 39.0348 2.61103 34.5133C1.46382 31.4852 0.833191 28.1899 0.833191 24.744C0.833191 24.0794 0.853322 23.4149 0.900284 22.7572C1.8932 8.74038 13.3452 -2.31689 27.3332 -2.31689C31.1707 -2.31689 34.8136 -1.48795 38.1076 0.0123894C40.0532 0.896149 41.878 2.01969 43.5418 3.33505C45.4538 4.84224 47.1579 6.60975 48.6003 8.5965C51.1832 12.1384 52.9409 16.3517 53.5715 20.928C53.746 22.1749 53.8332 23.4491 53.8332 24.744Z" fill="#315D93"/>
<path d="M46.534 6.77408C45.8699 8.10315 45.1185 9.32943 44.461 10.1378C41.4018 13.9058 27.3131 28.183 1.57795 31.4851C0.880228 28.32 0.725925 24.9631 1.22238 21.5582C1.3163 20.9005 1.43706 20.2497 1.57795 19.6057C10.494 17.6601 30.2986 12.563 40.1271 3.95152C40.6638 3.47881 41.1736 3.05407 41.6433 2.66357C43.4412 3.82822 45.0849 5.21208 46.5407 6.76722L46.534 6.77408Z" fill="#06A5FF"/>
<path d="M53.5716 20.9277C48.6876 27.2442 41.8513 33.2661 38.1547 35.0953C29.1044 39.5757 18.4373 37.3287 29.8357 30.101C43.8237 21.2292 47.6947 13.3575 48.6004 8.59619C51.1833 12.1381 52.941 16.3514 53.5716 20.9277Z" fill="#06A5FF"/>
<path d="M31.533 49.0779C30.1644 50.2152 25.6493 51.2702 20.6914 51.695C15.7202 50.3659 11.3997 47.6393 8.07208 44.0015C11.9163 44.7345 20.8256 45.9266 28.3999 43.0835C34.6928 40.7199 35.4644 45.8101 31.5263 49.0848L31.533 49.0779Z" fill="#06A5FF"/>
</svg>
