<svg width="809" height="793" viewBox="0 0 809 793" fill="none" xmlns="http://www.w3.org/2000/svg">
<rect x="73" y="706" width="666" height="126" fill="#2C3D5B"/>
<path d="M734 708C734 710.521 732.689 713.608 728.804 717.251C724.922 720.892 718.918 724.642 710.726 728.358C694.374 735.778 670.397 742.584 640.378 748.344C580.421 759.85 497.376 767 405.5 767C313.624 767 230.579 759.85 170.622 748.344C140.603 742.584 116.626 735.778 100.274 728.358C92.0823 724.642 86.0783 720.892 82.1958 717.251C78.3111 713.608 77 710.521 77 708C77 705.479 78.3111 702.392 82.1958 698.749C86.0783 695.108 92.0823 691.358 100.274 687.642C116.626 680.222 140.603 673.416 170.622 667.656C230.579 656.15 313.624 649 405.5 649C497.376 649 580.421 656.15 640.378 667.656C670.397 673.416 694.374 680.222 710.726 687.642C718.918 691.358 724.922 695.108 728.804 698.749C732.689 702.392 734 705.479 734 708Z" fill="#2C3D5B" stroke="#06A5FF" stroke-width="10"/>
<circle cx="404.5" cy="404.5" r="404.5" fill="url(#paint0_radial_2793_12925)"/>
<circle cx="406" cy="402" r="292" fill="url(#paint1_linear_2793_12925)" stroke="white" stroke-width="6"/>
<circle cx="406.5" cy="402.5" r="260.5" fill="white"/>
<defs>
<radialGradient id="paint0_radial_2793_12925" cx="0" cy="0" r="1" gradientUnits="userSpaceOnUse" gradientTransform="translate(405 405) rotate(90) scale(360 365.211)">
<stop offset="0.0989583" stop-color="#27B1FF"/>
<stop offset="1" stop-color="#27B1FF" stop-opacity="0"/>
</radialGradient>
<linearGradient id="paint1_linear_2793_12925" x1="230.056" y1="608.441" x2="582.531" y2="193.213" gradientUnits="userSpaceOnUse">
<stop offset="0.0208333" stop-color="#315D93"/>
<stop offset="1" stop-color="#27B1FF"/>
</linearGradient>
</defs>
</svg>
