<svg width="105" height="90" viewBox="0 0 105 90" fill="none" xmlns="http://www.w3.org/2000/svg">
<g clip-path="url(#clip0_1001_5404)">
<path d="M9.98182 89.3901C9.97476 89.4805 9.94856 89.5684 9.90496 89.6479C9.86136 89.7274 9.80136 89.7967 9.72893 89.8513C9.62271 89.9468 9.48499 89.9997 9.34215 90C9.25282 89.9973 9.1655 89.9728 9.08775 89.9287C9.00999 89.8847 8.94413 89.8223 8.89587 89.7471L2.94545 82.3091L1.19008 84.0942V89.3455C1.20279 89.4265 1.19617 89.5094 1.17076 89.5874C1.14536 89.6654 1.10188 89.7363 1.04387 89.7943C0.985866 89.8523 0.914976 89.8958 0.836978 89.9212C0.758981 89.9466 0.676083 89.9532 0.595042 89.9405C0.514 89.9532 0.431103 89.9466 0.353105 89.9212C0.275107 89.8958 0.204217 89.8523 0.146212 89.7943C0.0882063 89.7363 0.0447275 89.6654 0.0193189 89.5874C-0.00608966 89.5094 -0.012709 89.4265 3.54368e-07 89.3455V75.7339C-0.012069 75.6523 -0.00513247 75.5691 0.0202692 75.4906C0.0456709 75.4121 0.0888513 75.3406 0.146444 75.2816C0.204037 75.2225 0.274485 75.1776 0.352298 75.1503C0.43011 75.1229 0.513184 75.1139 0.595042 75.124C0.6769 75.1139 0.759973 75.1229 0.837786 75.1503C0.915598 75.1776 0.986047 75.2225 1.04364 75.2816C1.10123 75.3406 1.14441 75.4121 1.16981 75.4906C1.19522 75.5691 1.20215 75.6523 1.19008 75.7339V82.3686L8.04793 75.3323C8.15475 75.2117 8.30397 75.1371 8.46446 75.124C8.62414 75.14 8.77237 75.2141 8.88099 75.3323C9.0017 75.4497 9.07119 75.6101 9.07438 75.7785C9.06178 75.9287 8.99888 76.0702 8.89587 76.1802L3.74876 81.4761L9.81818 88.9141C9.87623 88.9782 9.92067 89.0535 9.94879 89.1353C9.97692 89.2171 9.98815 89.3038 9.98182 89.3901Z" fill="#2C3D5B"/>
<path d="M33.4116 75.6892C33.4065 75.8217 33.3653 75.9503 33.2926 76.0611L28.1009 84.1983V89.3305C28.1009 89.4883 28.0382 89.6397 27.9266 89.7513C27.815 89.8629 27.6636 89.9256 27.5058 89.9256C27.348 89.9256 27.1966 89.8629 27.0851 89.7513C26.9735 89.6397 26.9108 89.4883 26.9108 89.3305V84.1983L21.7488 76.0611C21.6822 75.9593 21.6461 75.8406 21.6447 75.7189C21.6503 75.6172 21.6821 75.5187 21.7368 75.4327C21.7915 75.3467 21.8673 75.2763 21.9571 75.228C22.0645 75.1617 22.1878 75.1257 22.3141 75.1239C22.4136 75.1307 22.5097 75.163 22.593 75.2177C22.6764 75.2724 22.7443 75.3477 22.7901 75.4363L27.5058 82.8743L32.281 75.4363C32.3271 75.3535 32.3937 75.2839 32.4745 75.2344C32.5553 75.1849 32.6475 75.1571 32.7422 75.1537C32.8747 75.1588 33.0032 75.1999 33.1141 75.2727C33.1972 75.308 33.2689 75.3656 33.3214 75.4391C33.3739 75.5126 33.4051 75.5991 33.4116 75.6892Z" fill="#2C3D5B"/>
<path d="M46.2198 88.795C45.7985 88.2927 45.4805 87.7122 45.284 87.0868C45.0874 86.4614 45.0162 85.8034 45.0744 85.1504V79.914C44.961 78.5911 45.3725 77.2767 46.2198 76.2545C46.7179 75.8368 47.2938 75.5218 47.9142 75.3278C48.5346 75.1337 49.1873 75.0644 49.8347 75.1239H52.6165C53.2706 75.0653 53.9299 75.1377 54.5557 75.337C55.1815 75.5362 55.7613 75.8582 56.2611 76.2843C57.1028 77.2973 57.5093 78.6022 57.3917 79.914V85.1504C57.4519 85.8024 57.3831 86.4598 57.1891 87.0852C56.9951 87.7106 56.6798 88.2916 56.2611 88.795C55.2458 89.6444 53.9351 90.0563 52.6165 89.9405H49.8644C49.2115 89.9986 48.5534 89.9274 47.928 89.7309C47.3026 89.5343 46.7221 89.2163 46.2198 88.795ZM52.6165 88.795C53.6128 88.8975 54.61 88.6096 55.3983 87.9917C56.0162 87.2034 56.3041 86.2062 56.2016 85.2099V79.914C56.3041 78.9177 56.0162 77.9205 55.3983 77.1322C54.61 76.5144 53.6128 76.2264 52.6165 76.3289H49.8347C49.1213 76.285 48.4067 76.3914 47.7372 76.6413C47.2332 76.86 46.8334 77.2651 46.6215 77.7719C46.3545 78.4532 46.2329 79.1829 46.2644 79.914V85.1504C46.158 86.1494 46.4523 87.1499 47.0826 87.9322C47.8709 88.5501 48.8681 88.838 49.8644 88.7355L52.6165 88.795Z" fill="#2C3D5B"/>
<path d="M80.9554 75.719V89.3305C80.9654 89.4124 80.9564 89.4955 80.9291 89.5733C80.9018 89.6511 80.8568 89.7215 80.7978 89.7791C80.7388 89.8367 80.6672 89.8799 80.5888 89.9053C80.5103 89.9307 80.427 89.9377 80.3454 89.9256C80.2261 89.9205 80.1097 89.8868 80.0061 89.8273C79.9025 89.7677 79.8148 89.6841 79.7504 89.5834L70.2595 77.3553V89.2562C70.2369 89.3997 70.1637 89.5304 70.0533 89.6248C69.9428 89.7192 69.8023 89.7711 69.657 89.7711C69.5117 89.7711 69.3712 89.7192 69.2607 89.6248C69.1503 89.5304 69.0772 89.3997 69.0545 89.2562V75.719C69.0445 75.6371 69.0535 75.554 69.0808 75.4762C69.1081 75.3984 69.1531 75.328 69.2121 75.2704C69.2711 75.2128 69.3427 75.1696 69.4211 75.1442C69.4996 75.1188 69.5829 75.1119 69.6645 75.1239C69.7856 75.1302 69.9036 75.1643 70.0094 75.2237C70.1152 75.283 70.2059 75.366 70.2744 75.4661L79.7504 87.6495V75.7487C79.7377 75.6677 79.7443 75.5848 79.7697 75.5068C79.7951 75.4288 79.8386 75.3579 79.8966 75.2999C79.9546 75.2419 80.0255 75.1984 80.1035 75.173C80.1815 75.1476 80.2644 75.141 80.3454 75.1537C80.4243 75.1424 80.5047 75.149 80.5807 75.1727C80.6568 75.1965 80.7266 75.2369 80.785 75.2911C80.8434 75.3452 80.8891 75.4118 80.9185 75.4858C80.948 75.5598 80.9606 75.6395 80.9554 75.719Z" fill="#2C3D5B"/>
<path d="M93.719 89.0033C93.3562 88.6222 93.0754 88.1708 92.8937 87.6771C92.7121 87.1833 92.6335 86.6575 92.6628 86.1322C92.6507 86.0491 92.6579 85.9643 92.6837 85.8844C92.7095 85.8044 92.7532 85.7315 92.8115 85.6711C92.8712 85.6153 92.9414 85.5721 93.0181 85.544C93.0947 85.5159 93.1763 85.5034 93.2578 85.5074C93.3348 85.504 93.4117 85.5168 93.4835 85.545C93.5552 85.5732 93.6203 85.6161 93.6743 85.6711C93.7837 85.7888 93.8471 85.9419 93.8529 86.1025C93.8029 86.85 94.0486 87.5873 94.5372 88.1553C95.1893 88.5925 95.9719 88.7921 96.7537 88.7206H100.056C100.469 88.8374 100.905 88.842 101.32 88.734C101.735 88.6259 102.113 88.4091 102.417 88.1059C102.72 87.8027 102.937 87.4241 103.045 87.0092C103.153 86.5943 103.148 86.158 103.031 85.7454C103.115 84.9353 102.88 84.1245 102.377 83.4843C101.724 82.9962 100.911 82.773 100.101 82.8595H96.8727C96.3322 82.9067 95.7879 82.8411 95.2741 82.6667C94.7604 82.4923 94.2886 82.213 93.8886 81.8464C93.4886 81.4799 93.1693 81.0342 92.9508 80.5376C92.7323 80.0411 92.6194 79.5045 92.6194 78.962C92.6194 78.4194 92.7323 77.8829 92.9508 77.3863C93.1693 76.8897 93.4886 76.444 93.8886 76.0775C94.2886 75.711 94.7604 75.4316 95.2741 75.2572C95.7879 75.0828 96.3322 75.0172 96.8727 75.0644H100.116C101.143 74.9762 102.165 75.2849 102.972 75.9272C103.312 76.2919 103.576 76.7201 103.75 77.1873C103.923 77.6546 104.003 78.1515 103.983 78.6496C103.992 78.728 103.983 78.8073 103.957 78.8819C103.932 78.9565 103.89 79.0245 103.835 79.081C103.707 79.1918 103.542 79.2502 103.374 79.2446C103.299 79.246 103.225 79.2321 103.156 79.204C103.087 79.1759 103.024 79.134 102.972 79.081C102.913 79.0284 102.865 78.9643 102.832 78.8927C102.799 78.821 102.781 78.7434 102.778 78.6644C102.805 78.3261 102.764 77.9857 102.657 77.6637C102.549 77.3417 102.378 77.0446 102.154 76.7901C101.558 76.3786 100.837 76.1891 100.116 76.2545H96.8429C96.4592 76.2051 96.0694 76.238 95.6994 76.3511C95.3295 76.4642 94.9878 76.6548 94.6973 76.9103C94.4068 77.1658 94.1741 77.4802 94.0147 77.8327C93.8552 78.1852 93.7728 78.5677 93.7728 78.9545C93.7728 79.3414 93.8552 79.7238 94.0147 80.0763C94.1741 80.4288 94.4068 80.7433 94.6973 80.9988C94.9878 81.2543 95.3295 81.4449 95.6994 81.558C96.0694 81.671 96.4592 81.704 96.8429 81.6545H99.9818C101.118 81.5619 102.246 81.9199 103.121 82.6512C103.76 83.559 104.104 84.6424 104.104 85.7529C104.104 86.8634 103.76 87.9467 103.121 88.8545C102.246 89.5859 101.118 89.9439 99.9818 89.8512H96.6942C95.6319 89.9447 94.5724 89.6428 93.719 89.0033Z" fill="#2C3D5B"/>
<path d="M57.4066 36.8182C56.1588 36.8064 54.9423 36.4257 53.9105 35.7239C52.8786 35.0221 52.0776 34.0306 51.6082 32.8744C51.1387 31.7181 51.022 30.4488 51.2726 29.2264C51.5233 28.0039 52.13 26.883 53.0166 26.0047C53.9031 25.1265 55.0297 24.5302 56.2544 24.291C57.4792 24.0519 58.7473 24.1805 59.8991 24.6607C61.0509 25.1409 62.0348 25.9513 62.7269 26.9896C63.419 28.028 63.7884 29.248 63.7884 30.4959C63.7845 31.33 63.6164 32.1553 63.2935 32.9244C62.9707 33.6936 62.4995 34.3917 61.9069 34.9788C61.3143 35.5658 60.6119 36.0304 59.8397 36.3461C59.0676 36.6617 58.2408 36.8221 57.4066 36.8182ZM57.4066 25.6612C56.453 25.6729 55.5242 25.9664 54.737 26.5047C53.9498 27.043 53.3394 27.8022 52.9826 28.6866C52.6258 29.571 52.5385 30.5411 52.7317 31.475C52.9249 32.4089 53.39 33.2648 54.0684 33.935C54.7469 34.6052 55.6084 35.0598 56.5446 35.2416C57.4808 35.4233 58.4498 35.3242 59.3298 34.9566C60.2097 34.589 60.9613 33.9693 61.49 33.1756C62.0186 32.3819 62.3008 31.4495 62.3008 30.4959C62.289 29.207 61.7677 27.9751 60.8507 27.0692C59.9337 26.1634 58.6956 25.6572 57.4066 25.6612Z" fill="#2C3D5B"/>
<path d="M68.4297 42.4562C67.528 42.4554 66.6345 42.2837 65.7967 41.9504C64.9182 41.6198 64.1146 41.1171 63.4329 40.4718C62.7513 39.8265 62.2053 39.0517 61.8271 38.1926C61.4488 37.3336 61.2459 36.4077 61.2302 35.4692C61.2144 34.5307 61.3862 33.5985 61.7355 32.7273L63.119 33.2777C62.8449 33.9609 62.7091 34.6918 62.7195 35.428C62.7299 36.1641 62.8863 36.8908 63.1797 37.5661C63.473 38.2413 63.8974 38.8516 64.4284 39.3616C64.9593 39.8717 65.5862 40.2712 66.2727 40.5372C67.6601 41.0924 69.2106 41.0772 70.5869 40.495C71.9632 39.9127 73.0538 38.8104 73.6215 37.4281C74.5566 34.7398 74.9396 31.8904 74.7475 29.0506C74.5555 26.2108 73.7923 23.439 72.5037 20.9011C71.2151 18.3633 69.4275 16.1115 67.2481 14.2808C65.0688 12.4501 62.5423 11.078 59.8201 10.2467C57.0979 9.41541 54.236 9.14204 51.4057 9.44295C48.5753 9.74385 45.8348 10.6129 43.3483 11.9979C40.8617 13.383 38.6802 15.2556 36.9345 17.5036C35.1887 19.7517 33.9146 22.3289 33.1884 25.081L31.7008 24.6942C32.4962 21.7636 33.8729 19.0229 35.7492 16.6352C37.6254 14.2475 39.9628 12.2617 42.6222 10.7958C45.2816 9.32997 48.2087 8.41405 51.2293 8.10258C54.25 7.7911 57.3024 8.09044 60.205 8.98277C63.1075 9.8751 65.8009 11.3422 68.1249 13.2968C70.4489 15.2513 72.356 17.6534 73.7327 20.36C75.1093 23.0667 75.9274 26.0226 76.1383 29.052C76.3492 32.0813 75.9486 35.1221 74.9603 37.9934C74.4278 39.2946 73.5252 40.411 72.3644 41.2043C71.2036 41.9976 69.8355 42.4328 68.4297 42.4562Z" fill="#2C3D5B"/>
<path d="M70.0364 30.4958H68.5488C68.5282 27.2624 67.3063 24.152 65.1203 21.7693C62.9344 19.3865 59.9407 17.9016 56.721 17.603C53.5013 17.3044 50.2856 18.2135 47.6988 20.1536C45.112 22.0937 43.3388 24.9263 42.724 28.1008L41.2364 27.7884C41.9254 24.2475 43.9066 21.0894 46.7947 18.9282C49.6829 16.7669 53.2715 15.7568 56.863 16.0945C60.4544 16.4321 63.792 18.0932 66.2267 20.7549C68.6614 23.4166 70.0193 26.8886 70.0364 30.4958Z" fill="#2C3D5B"/>
<path d="M52.0661 60.9918C50.2815 60.9829 48.5395 60.4455 47.0601 59.4473C45.5808 58.4491 44.4304 57.0349 43.7542 55.3833C43.078 53.7317 42.9064 51.9168 43.2611 50.1677C43.6157 48.4187 44.4807 46.8139 45.7468 45.5562C47.0129 44.2984 48.6233 43.444 50.3746 43.1009C52.126 42.7577 53.9397 42.9412 55.5868 43.6283C57.2339 44.3153 58.6405 45.475 59.629 46.9609C60.6174 48.4468 61.1434 50.1923 61.1405 51.9769C61.1366 53.1647 60.8988 54.34 60.4406 55.4359C59.9825 56.5317 59.313 57.5266 58.4704 58.3637C57.6277 59.2008 56.6285 59.8638 55.5296 60.3147C54.4308 60.7656 53.2539 60.9957 52.0661 60.9918ZM52.0661 44.4347C50.5763 44.4436 49.1226 44.8934 47.8881 45.7275C46.6537 46.5615 45.694 47.7425 45.13 49.1214C44.566 50.5003 44.423 52.0154 44.719 53.4755C45.015 54.9355 45.7368 56.2752 46.7934 57.3256C47.8499 58.3759 49.1939 59.0898 50.6557 59.3772C52.1175 59.6646 53.6317 59.5127 55.0072 58.9406C56.3828 58.3684 57.5581 57.4017 58.3848 56.1624C59.2116 54.9231 59.6529 53.4667 59.6529 51.9769C59.6509 50.9832 59.453 49.9997 59.0705 49.0826C58.688 48.1655 58.1284 47.3329 57.4237 46.6324C56.719 45.9318 55.8831 45.3771 54.9638 45C54.0444 44.6229 53.0598 44.4308 52.0661 44.4347Z" fill="#2C3D5B"/>
<path d="M46.9339 34.4083C46.6268 34.43 46.3186 34.43 46.0115 34.4083C44.5065 34.1649 43.1588 33.336 42.2628 32.1025C41.822 31.501 41.5066 30.8171 41.3354 30.0913C41.1642 29.3655 41.1406 28.6127 41.2661 27.8777L42.7537 28.1157C42.666 28.6574 42.6866 29.2111 42.8142 29.7447C42.9419 30.2784 43.1741 30.7815 43.4975 31.2248C43.99 31.9037 44.6716 32.4225 45.4571 32.7164C46.2426 33.0103 47.0973 33.0664 47.9145 32.8775C48.7317 32.6887 49.4751 32.2634 50.0521 31.6546C50.629 31.0459 51.0139 30.2807 51.1587 29.4545L52.6463 29.6926C52.4096 31.0291 51.7047 32.2377 50.658 33.1018C49.6113 33.9659 48.291 34.4291 46.9339 34.4083Z" fill="#2C3D5B"/>
<path d="M77.1769 43.0215C76.6391 43.0222 76.1071 42.9107 75.6149 42.6942C75.1416 42.4919 74.7132 42.1978 74.3542 41.829C73.9952 41.4602 73.7128 41.0239 73.5233 40.5453C73.3338 40.0668 73.241 39.5555 73.2502 39.0409C73.2594 38.5263 73.3704 38.0186 73.5769 37.5471L74.9455 38.1421C74.8202 38.4335 74.7556 38.7473 74.7556 39.0645C74.7556 39.3816 74.8202 39.6954 74.9455 39.9868C75.0611 40.2873 75.2368 40.561 75.4619 40.7912C75.687 41.0215 75.9567 41.2033 76.2546 41.3256C76.849 41.5821 77.5204 41.5948 78.1242 41.3611C78.728 41.1274 79.2158 40.6659 79.4827 40.076C80.5655 36.998 81.1188 33.7588 81.119 30.4959C81.0285 23.3807 78.3562 16.5408 73.5994 11.2487C68.8426 5.95659 62.3252 2.57281 55.26 1.72694C48.1947 0.881074 41.0627 2.63073 35.1911 6.65036C29.3195 10.67 25.1081 16.6858 23.3405 23.5785C22.792 25.9173 23.1932 28.3781 24.4562 30.4215C25.4206 31.965 26.8181 33.1905 28.4745 33.9449C30.1308 34.6993 31.9726 34.9493 33.7702 34.6638C35.5677 34.3782 37.2413 33.5697 38.5823 32.3391C39.9233 31.1084 40.8722 29.5102 41.3108 27.7438L42.7984 28.0859C42.3057 30.1588 41.2093 32.0389 39.6479 33.4885C38.0865 34.9381 36.1303 35.8921 34.0266 36.2297C31.923 36.5673 29.7665 36.2734 27.8299 35.3851C25.8933 34.4969 24.2636 33.0542 23.1471 31.2397C22.4092 30.0619 21.9145 28.7483 21.6923 27.3763C21.47 26.0043 21.5246 24.6018 21.8529 23.2512C22.8363 19.2004 24.6322 15.3915 27.1318 12.0557C29.6314 8.71979 32.7826 5.92642 36.3942 3.84499C40.0058 1.76356 44.0026 0.437451 48.1422 -0.052904C52.2817 -0.543259 56.4777 -0.18764 60.4756 0.992384C64.4736 2.17241 68.1902 4.15224 71.4 6.8118C74.6098 9.47136 77.2459 12.7552 79.1485 16.4642C81.051 20.1732 82.1804 24.2299 82.4679 28.3885C82.7555 32.547 82.1954 36.7206 80.8215 40.6562C80.5063 41.3596 79.9947 41.957 79.3482 42.3766C78.7016 42.7962 77.9476 43.0201 77.1769 43.0215Z" fill="#2C3D5B"/>
</g>
<defs>
<clipPath id="clip0_1001_5404">
<rect width="104.132" height="90" fill="white"/>
</clipPath>
</defs>
</svg>
