<svg width="60" height="60" viewBox="0 0 60 60" fill="none" xmlns="http://www.w3.org/2000/svg">
<path d="M45.3331 14.4348H18.8037V49.2473H45.3331V14.4348Z" fill="#27B1FF"/>
<path d="M42.986 10.6667H14.6665V46.6807H42.986V10.6667Z" fill="#FFEDD5"/>
<path d="M23.0536 37.805C24.8046 31.453 26.5557 25.1057 28.3067 18.7537H25.574C27.4619 25.2753 29.3498 31.797 31.2377 38.3186C31.7427 40.0621 34.4754 39.3223 33.9704 37.5647C32.0825 31.043 30.1946 24.5214 28.3067 17.9997C27.9197 16.6662 25.9515 16.6426 25.574 17.9997C23.8229 24.3517 22.0719 30.699 20.3209 37.051C19.8347 38.8087 22.5675 39.5579 23.0536 37.805Z" fill="#FB7200"/>
<path d="M18.9 35.3877C25.0168 31.7735 31.8841 29.4315 38.9543 28.6399C39.7141 28.5551 40.3702 28.0509 40.3702 27.2263C40.3702 26.5289 39.7189 25.7278 38.9543 25.8126C31.3743 26.6608 24.0445 29.064 17.4699 32.9468C15.903 33.8751 17.3236 36.316 18.9 35.3877V35.3877Z" fill="#FB7200"/>
<path d="M33.6918 15.229C33.7296 16.9631 33.7673 18.6971 33.8051 20.4359C33.8192 21.1757 34.447 21.8826 35.221 21.8496C35.995 21.8166 36.6558 21.2276 36.6369 20.4359C36.5992 18.7018 36.5614 16.9678 36.5237 15.229C36.5095 14.4892 35.8818 13.7823 35.1077 13.8153C34.3337 13.8483 33.6729 14.4373 33.6918 15.229Z" fill="#FB7200"/>
<path d="M32.9793 19.4416C35.0984 19.1118 37.2082 18.7159 39.3321 18.3814C40.0683 18.2683 40.5403 17.3117 40.3232 16.6426C40.0636 15.8462 39.3698 15.5305 38.5816 15.653C36.4624 15.9829 34.3527 16.3787 32.2288 16.7133C31.4925 16.8263 31.0206 17.7829 31.2377 18.452C31.4973 19.2484 32.1911 19.5641 32.9793 19.4416V19.4416Z" fill="#FB7200"/>
<path d="M54.7136 13.306L54.6747 15.4262L55.9833 17.0949L53.9548 17.7132L52.7721 19.4733L51.5573 17.7352L49.5178 17.1543L50.7955 15.4618L50.7177 13.3426L52.7222 14.0348L54.7136 13.306Z" stroke="#27B1FF" stroke-linecap="round" stroke-linejoin="round" stroke-dasharray="2 2"/>
<path d="M54.0254 32.7443L55.8717 35.4592L59.0175 36.3988L57.006 38.9937L57.0845 42.2759L53.9951 41.1647L50.8977 42.2536L50.9998 38.972L49.0072 36.3627L52.1596 35.4458L54.0254 32.7443Z" fill="#5BC3FE"/>
<path d="M8.27086 6.34233L8.74836 8.78866L10.6632 10.3843L8.48412 11.5944L7.5583 13.9086L5.73408 12.2101L3.24707 12.0447L4.29869 9.78491L3.68746 7.36851L6.16162 7.67035L8.27086 6.34233Z" fill="#5BC3FE"/>
<circle cx="5.6665" cy="52.3333" r="3" stroke="#27B1FF" stroke-linecap="round" stroke-dasharray="1 3"/>
<path d="M8.13213 34.1282L9.87126 35.0529L11.8037 34.672L11.4617 36.6117L12.4212 38.3319L10.4707 38.6061L9.1312 40.0501L8.26773 38.2798L6.48041 37.4521L7.89726 36.0839L8.13213 34.1282Z" fill="#6EE7B7"/>
<ellipse cx="49.0002" cy="50.9999" rx="1.66667" ry="1.66667" fill="#34D399"/>
<ellipse cx="25.3332" cy="5.33341" rx="2.66667" ry="2.66667" fill="#6EE7B7"/>
</svg>
