<svg width="398" height="374" viewBox="0 0 398 374" fill="none" xmlns="http://www.w3.org/2000/svg">
<g opacity="0.4">
<path d="M219.376 231.049C217.942 231.541 216.471 230.439 216.09 228.59C215.71 226.741 216.564 224.844 217.998 224.353C219.431 223.862 220.903 224.963 221.283 226.813C221.663 228.662 220.809 230.559 219.376 231.049Z" fill="#98D6FA"/>
<path d="M301.006 79.1447C299.572 79.6361 298.102 78.5347 297.721 76.6849C297.34 74.8361 298.194 72.9385 299.628 72.4482C301.062 71.9568 302.533 73.0581 302.913 74.9079C303.293 76.7567 302.44 78.6543 301.006 79.1447Z" fill="#98D6FA"/>
<path d="M383.313 121.733C381.879 122.223 380.408 121.123 380.027 119.273C379.647 117.424 380.5 115.528 381.935 115.036C383.368 114.546 384.839 115.646 385.22 117.496C385.601 119.346 384.746 121.242 383.313 121.733Z" fill="#98D6FA"/>
<path d="M299.997 75.524L217.439 229.155L218.026 229.679L300.583 76.0479L299.997 75.524Z" fill="#98D6FA"/>
<path d="M300.483 75.3031L300.218 76.1559L383.762 119.388L384.027 118.535L300.483 75.3031Z" fill="#98D6FA"/>
<path d="M376.458 -9.55829L375.746 -9.48654L383.549 119.134L384.26 119.062L376.458 -9.55829Z" fill="#98D6FA"/>
<path d="M37.2468 252.736C39.1608 252.552 40.8288 254.404 40.9718 256.873C41.1148 259.342 39.6788 261.493 37.7648 261.677C35.8508 261.862 34.1828 260.01 34.0398 257.541C33.8968 255.07 35.3328 252.92 37.2468 252.736Z" fill="#5BC3FE"/>
<path d="M95.6458 193.7C97.5598 193.515 99.2278 195.367 99.3708 197.835C99.5138 200.304 98.0778 202.455 96.1638 202.639C94.2498 202.824 92.5818 200.972 92.4388 198.503C92.2958 196.035 93.7318 193.884 95.6458 193.7Z" fill="#5BC3FE"/>
<path d="M81.2038 331.098C83.1178 330.914 84.7858 332.766 84.9288 335.234C85.0718 337.702 83.6358 339.854 81.7218 340.038C79.8078 340.222 78.1398 338.37 77.9968 335.902C77.8528 333.432 79.2888 331.283 81.2038 331.098Z" fill="#5BC3FE"/>
<path d="M-10.4656 127.687L-10.8838 128.747L95.7091 198.715L96.1273 197.655L-10.4656 127.687Z" fill="#5BC3FE"/>
<path d="M95.614 197.697L37.2197 256.745L37.7892 257.682L96.1835 198.633L95.614 197.697Z" fill="#5BC3FE"/>
<path d="M37.8712 256.857L37.125 257.554L81.3076 336.321L82.0538 335.625L37.8712 256.857Z" fill="#5BC3FE"/>
<path d="M219.97 634.864C205.757 622.976 191.733 610.711 177.909 598.083C85.7494 513.898 2.47285 413.566 -68.9178 300.71C-76.5895 288.582 -84.4034 276.411 -92.8291 268.009C-98.1148 262.739 -100.925 270.016 -103.985 254.062C-107.605 235.19 -100.4 218.527 -88.9998 207.323C-67.3741 186.071 -29.7626 180.088 -4.49641 190.613C27.2071 203.819 53.616 231.96 82.5136 253.34C111.414 274.724 146.883 289.534 177.744 273.318C210.128 256.301 231.392 208.171 266.197 203.819C299.511 199.653 330.212 238.707 363.106 230.721C406.989 220.071 419.808 136.51 462.919 121.496C480.849 115.249 500.314 123.042 515.577 136.684C530.839 150.326 542.666 169.301 554.268 188.002C432.618 323.446 320.567 473.226 219.97 634.864Z" fill="url(#paint0_linear_6776_20410)"/>
</g>
<defs>
<linearGradient id="paint0_linear_6776_20410" x1="-292.171" y1="-468.708" x2="481.31" y2="131.05" gradientUnits="userSpaceOnUse">
<stop stop-color="#06A5FF"/>
<stop offset="1" stop-color="#06A5FF" stop-opacity="0"/>
</linearGradient>
</defs>
</svg>
