<svg width="24" height="25" viewBox="0 0 24 25" fill="none" xmlns="http://www.w3.org/2000/svg">
<path d="M12.2279 24.2501C18.7293 24.2501 23.9998 19.0194 23.9998 12.5671C23.9998 6.1147 18.7293 0.884033 12.2279 0.884033C5.7265 0.884033 0.456055 6.1147 0.456055 12.5671C0.456055 19.0194 5.7265 24.2501 12.2279 24.2501Z" fill="#FF8500"/>
<path d="M23.3611 11.8425C23.3611 15.264 21.8681 18.3378 19.4955 20.4607L18.05 19.3069L17.0024 18.4701L2.96745 7.26887L1.52197 6.11687C3.52958 2.61196 7.3276 0.25 11.6805 0.25C18.1322 0.25 23.3611 5.43943 23.3611 11.8425Z" fill="#FFE000"/>
<path d="M21.2895 7.07142C21.1891 7.07142 21.0924 7.01708 21.045 6.92108C20.2091 5.25466 18.9406 3.82191 17.382 2.77859C17.2561 2.69526 17.2232 2.525 17.3072 2.40183C17.3911 2.27685 17.5627 2.24425 17.6868 2.32757C19.3257 3.42342 20.6562 4.92862 21.5341 6.67836C21.6016 6.8124 21.5469 6.97542 21.4118 7.04243C21.3735 7.06236 21.3315 7.07142 21.2895 7.07142Z" fill="#FB923C"/>
<path d="M21.536 11.8425C21.536 14.833 20.1818 17.5119 18.05 19.3069L17.0024 18.4701C19.5448 16.445 21.171 13.3368 21.171 9.85002C21.171 9.60006 21.1618 9.35372 21.1454 9.10919C21.3991 9.97681 21.536 10.8933 21.536 11.8425Z" fill="#FFAA00"/>
<path d="M21.1713 9.85008C21.1713 13.3369 19.5451 16.4451 17.0028 18.4702L2.96777 7.26895C4.62131 4.17159 7.90283 2.0614 11.6808 2.0614C16.1669 2.0614 19.9539 5.0374 21.1457 9.10925C21.1621 9.35378 21.1713 9.60012 21.1713 9.85008Z" fill="#EE8F00"/>
<path d="M19.4957 20.4607C17.426 22.31 14.6865 23.4349 11.6806 23.4349C5.2289 23.4349 0 18.2454 0 11.8424C0 9.75939 0.553004 7.80497 1.52213 6.11682L2.9676 7.26882C2.23757 8.63275 1.8251 10.1905 1.8251 11.8424C1.8251 15.6118 3.97506 18.883 7.12335 20.5168C8.48669 21.2232 10.0362 21.6235 11.6806 21.6235C14.1098 21.6235 16.3328 20.7523 18.0502 19.3069L19.4957 20.4607Z" fill="#FFCE00"/>
<path d="M17.0027 18.4701C15.0973 19.9898 12.6736 20.8991 10.0381 20.8991C9.02885 20.8991 8.05242 20.7651 7.12345 20.5169C3.97516 18.8831 1.8252 15.6119 1.8252 11.8425C1.8252 10.1906 2.23767 8.63285 2.9677 7.26892L17.0027 18.4701Z" fill="#FFAA00"/>
<path d="M18.0504 19.3069C16.333 20.7524 14.11 21.6236 11.6808 21.6236C10.0364 21.6236 8.48688 21.2233 7.12354 20.5169C8.05251 20.765 9.02893 20.8991 10.0382 20.8991C12.6736 20.8991 15.0974 19.9898 17.0028 18.4701L18.0504 19.3069Z" fill="#FF8500"/>
<path d="M13.2572 13.4003C12.3976 13.4003 11.6968 12.712 11.6968 11.8661C11.6968 11.0202 12.3958 10.3319 13.2572 10.3319C14.1187 10.3319 14.8177 11.0202 14.8177 11.8661C14.8177 12.712 14.1187 13.4003 13.2572 13.4003ZM13.2572 10.6924C12.5984 10.6924 12.0618 11.2195 12.0618 11.8661C12.0618 12.5127 12.5984 13.0398 13.2572 13.0398C13.9161 13.0398 14.4527 12.5127 14.4527 11.8661C14.4527 11.2195 13.9161 10.6924 13.2572 10.6924Z" fill="#FF8500"/>
<path d="M15.9382 14.7696C15.7228 14.7696 15.5038 14.7298 15.2921 14.6464C14.8559 14.4762 14.5164 14.1465 14.3321 13.7227C14.1514 13.3024 14.1459 12.8369 14.3193 12.4131L14.6569 12.5489C14.5201 12.884 14.5237 13.2499 14.6679 13.5814C14.8121 13.9165 15.0822 14.1755 15.4271 14.3113C16.1371 14.5903 16.942 14.2516 17.2249 13.556C17.5278 12.8116 17.5169 11.8769 17.5169 11.8679C17.5169 9.06032 15.1935 6.77987 12.3391 6.77987C9.99383 6.77987 7.93512 8.33398 7.33467 10.5583L6.98242 10.4641C7.62668 8.08221 9.82957 6.4176 12.3391 6.4176C15.3943 6.4176 17.8801 8.86107 17.8801 11.8642C17.8801 11.9023 17.8928 12.8768 17.5607 13.6901C17.2869 14.3602 16.6299 14.7696 15.9382 14.7696Z" fill="#FF8500"/>
<path d="M16.3491 11.866H15.9859C15.9859 10.1398 14.5568 8.73604 12.7993 8.73604C11.2552 8.73604 9.99593 9.75944 9.66742 11.2828L9.31152 11.2067C9.67837 9.5131 11.0782 8.37378 12.7993 8.37378C14.7576 8.37378 16.3509 9.94057 16.3509 11.8642L16.3491 11.866Z" fill="#FF8500"/>
<path d="M11.9484 19.2689C10.7256 19.2689 9.73096 18.2871 9.73096 17.079C9.73096 15.8708 10.7256 14.8891 11.9484 14.8891C13.1713 14.8891 14.1659 15.8708 14.1659 17.079C14.1659 18.2871 13.1713 19.2689 11.9484 19.2689ZM11.9484 15.2496C10.9264 15.2496 10.0942 16.0701 10.0942 17.079C10.0942 18.0879 10.9264 18.9084 11.9484 18.9084C12.9705 18.9084 13.8027 18.0879 13.8027 17.079C13.8027 16.0701 12.9705 15.2496 11.9484 15.2496Z" fill="#FF8500"/>
<path d="M10.6968 12.8169C10.6238 12.8169 10.5489 12.8115 10.4741 12.7988C10.1018 12.739 9.7751 12.5416 9.55609 12.2391C9.33891 11.9402 9.2513 11.578 9.31153 11.2157L9.67107 11.2737C9.62727 11.5399 9.69115 11.808 9.85176 12.029C10.0142 12.2518 10.2569 12.3985 10.5325 12.4438C11.1001 12.5343 11.633 12.154 11.7243 11.5979L12.0838 11.6558C11.9725 12.3333 11.3757 12.8187 10.6986 12.8187L10.6968 12.8169Z" fill="#FF8500"/>
<path d="M18.0938 14.9054C17.966 14.9054 17.8364 14.88 17.7123 14.8275C17.4751 14.7261 17.2925 14.5395 17.1995 14.3022C17.1064 14.0667 17.1119 13.8095 17.2141 13.5777L17.5481 13.7226C17.4842 13.8657 17.4824 14.0233 17.5389 14.1682C17.5973 14.3149 17.7105 14.4308 17.8583 14.4942C18.1613 14.6228 18.5154 14.487 18.6468 14.1899C18.9771 13.2698 19.0483 12.4166 19.0483 11.8642C19.0483 7.9807 15.8325 4.82176 11.8793 4.82176C8.57954 4.82176 5.71597 7.02795 4.91475 10.1851C4.77787 10.7556 4.8746 11.3461 5.18852 11.8479C5.50608 12.3569 6.00616 12.7101 6.59566 12.8477C7.80753 13.1285 9.02487 12.3876 9.30958 11.1976L9.66365 11.2809C9.33331 12.6648 7.91886 13.5233 6.51171 13.1991C5.82547 13.0415 5.24509 12.6285 4.87643 12.0381C4.51323 11.4548 4.40008 10.7665 4.55886 10.0999C5.40023 6.77979 8.40981 4.4613 11.8757 4.4613C16.0296 4.4613 19.4078 7.78327 19.4078 11.8642C19.4078 12.4438 19.3348 13.3422 18.9808 14.3221C18.8202 14.688 18.4624 14.9036 18.0901 14.9036L18.0938 14.9054Z" fill="#FF8500"/>
<path d="M13.0292 13.1737C12.1696 13.1737 11.4688 12.4854 11.4688 11.6395C11.4688 10.7936 12.1678 10.1053 13.0292 10.1053C13.8907 10.1053 14.5897 10.7936 14.5897 11.6395C14.5897 12.4854 13.8907 13.1737 13.0292 13.1737ZM13.0292 10.4658C12.3703 10.4658 11.8338 10.9929 11.8338 11.6395C11.8338 12.2862 12.3703 12.8133 13.0292 12.8133C13.6881 12.8133 14.2246 12.2862 14.2246 11.6395C14.2246 10.9929 13.6881 10.4658 13.0292 10.4658Z" fill="white"/>
<path d="M15.7101 14.5432C15.4948 14.5432 15.2758 14.5033 15.0641 14.42C14.6279 14.2497 14.2884 13.9201 14.1041 13.4962C13.9234 13.076 13.9179 12.6105 14.0913 12.1866L14.4289 12.3225C14.292 12.6576 14.2957 13.0235 14.4399 13.3549C14.5841 13.69 14.8542 13.949 15.1991 14.0849C15.9091 14.3638 16.7139 14.0251 16.9968 13.3296C17.2998 12.5851 17.2888 11.6505 17.2888 11.6414C17.2888 8.83388 14.9655 6.55343 12.111 6.55343C9.7658 6.55343 7.70709 8.10754 7.10664 10.3318L6.75439 10.2377C7.39865 7.85577 9.60154 6.19116 12.111 6.19116C15.1663 6.19116 17.652 8.63463 17.652 11.6378C17.652 11.6758 17.6648 12.6503 17.3326 13.4636C17.0589 14.1338 16.4018 14.5432 15.7101 14.5432Z" fill="white"/>
<path d="M16.1211 11.6379H15.7579C15.7579 9.91167 14.3288 8.50789 12.5713 8.50789C11.0272 8.50789 9.76791 9.53129 9.43939 11.0546L9.0835 10.9785C9.45034 9.28495 10.8502 8.14563 12.5713 8.14563C14.5296 8.14563 16.1229 9.71242 16.1229 11.636L16.1211 11.6379Z" fill="white"/>
<path d="M11.7204 19.0425C10.4976 19.0425 9.50293 18.0608 9.50293 16.8526C9.50293 15.6445 10.4976 14.6627 11.7204 14.6627C12.9432 14.6627 13.9379 15.6445 13.9379 16.8526C13.9379 18.0608 12.9432 19.0425 11.7204 19.0425ZM11.7204 15.0232C10.6984 15.0232 9.86612 15.8437 9.86612 16.8526C9.86612 17.8615 10.6984 18.682 11.7204 18.682C12.7425 18.682 13.5747 17.8615 13.5747 16.8526C13.5747 15.8437 12.7425 15.0232 11.7204 15.0232Z" fill="white"/>
<path d="M10.4668 12.5906C10.3938 12.5906 10.319 12.5852 10.2441 12.5725C9.87182 12.5127 9.54512 12.3153 9.32611 12.0128C9.10893 11.7139 9.02132 11.3516 9.08155 10.9894L9.44109 11.0473C9.39729 11.3136 9.46117 11.5817 9.62178 11.8027C9.78421 12.0255 10.0269 12.1722 10.3025 12.2175C10.8701 12.308 11.4031 11.9276 11.4943 11.3716L11.8539 11.4295C11.7425 12.107 11.1457 12.5924 10.4686 12.5924L10.4668 12.5906Z" fill="white"/>
<path d="M17.8657 14.6772C17.738 14.6772 17.6084 14.6518 17.4843 14.5993C17.247 14.4978 17.0645 14.3113 16.9714 14.074C16.8784 13.8385 16.8838 13.5813 16.986 13.3495L17.32 13.4944C17.2562 13.6375 17.2543 13.7951 17.3109 13.94C17.3693 14.0867 17.4825 14.2026 17.6303 14.266C17.9333 14.3946 18.2873 14.2588 18.4187 13.9617C18.7491 13.0415 18.8203 12.1884 18.8203 11.636C18.8203 7.75249 15.6044 4.59355 11.6513 4.59355C8.35152 4.59355 5.48794 6.79973 4.68672 9.95687C4.54984 10.5274 4.64657 11.1179 4.96049 11.6197C5.27806 12.1286 5.77813 12.4818 6.36764 12.6195C7.5795 12.9003 8.79684 12.1594 9.08155 10.9694L9.43562 11.0527C9.10528 12.4366 7.69083 13.2951 6.28368 12.9709C5.59745 12.8133 5.01707 12.4003 4.6484 11.8098C4.2852 11.2266 4.17205 10.5383 4.33083 9.87173C5.1722 6.55158 8.18178 4.23309 11.6476 4.23309C15.8016 4.23309 19.1798 7.55506 19.1798 11.636C19.1798 12.2156 19.1068 13.114 18.7527 14.0939C18.5921 14.4598 18.2344 14.6754 17.8621 14.6754L17.8657 14.6772Z" fill="white"/>
</svg>
