<svg width="30" height="31" viewBox="0 0 30 31" fill="none" xmlns="http://www.w3.org/2000/svg">
<rect width="30" height="31" fill="#F5F5F5"/>
<g id="Nhi&#225;&#187;&#135;m v&#225;&#187;&#165;">
<path d="M-1089 -614C-1089 -615.105 -1088.1 -616 -1087 -616H1196C1197.1 -616 1198 -615.105 1198 -614V2565C1198 2566.1 1197.1 2567 1196 2567H-1087C-1088.1 2567 -1089 2566.1 -1089 2565V-614Z" fill="#64748B"/>
<path d="M-1087 -615H1196V-617H-1087V-615ZM1197 -614V2565H1199V-614H1197ZM1196 2566H-1087V2568H1196V2566ZM-1088 2565V-614H-1090V2565H-1088ZM-1087 2566C-1087.55 2566 -1088 2565.55 -1088 2565H-1090C-1090 2566.66 -1088.66 2568 -1087 2568V2566ZM1197 2565C1197 2565.55 1196.55 2566 1196 2566V2568C1197.66 2568 1199 2566.66 1199 2565H1197ZM1196 -615C1196.55 -615 1197 -614.552 1197 -614H1199C1199 -615.657 1197.66 -617 1196 -617V-615ZM-1087 -617C-1088.66 -617 -1090 -615.657 -1090 -614H-1088C-1088 -614.552 -1087.55 -615 -1087 -615V-617Z" fill="black" fill-opacity="0.1"/>
<g id="Mission">
<g id="Content">
<g id="Task Page">
<rect width="1102" height="1026.29" transform="translate(-179 -255)" fill="url(#paint0_linear_6973_13624)"/>
<g id="Content_2">
<g id="Daily checkin">
<g clip-path="url(#clip0_6973_13624)">
<rect x="-65" y="-223" width="874" height="364.036" rx="16" fill="url(#paint1_linear_6973_13624)"/>
<g id="Background">
<g id="Stars" opacity="0.4" clip-path="url(#clip1_6973_13624)">
</g>
<g id="Planet">
<g id="Group">
<g id="Group_2">
<path id="Vector" d="M14.1544 -13.5328C27.7924 4.65321 24.1054 30.4512 5.9194 44.0882C-12.2656 57.7262 -38.0636 54.0392 -51.7016 35.8532C-65.3396 17.6682 -61.6526 -8.12981 -43.4676 -21.7678C-25.2806 -35.4048 0.51638 -31.7178 14.1544 -13.5328Z" fill="url(#paint2_linear_6973_13624)"/>
</g>
</g>
<path id="Vector_2" d="M-38.0921 -25.1858C-39.9411 -24.2008 -41.7381 -23.0628 -43.4661 -21.7668C-61.6511 -8.12878 -65.3381 17.6682 -51.7001 35.8542C-44.3441 45.6642 -33.4491 51.2452 -22.1191 52.1742C-20.2711 51.1892 -18.4731 50.0512 -16.7451 48.7552C1.4409 35.1172 5.12688 9.31921 -8.51012 -8.86578C-15.8681 -18.6748 -26.7631 -24.2568 -38.0921 -25.1858Z" fill="url(#paint3_linear_6973_13624)"/>
<path id="Vector_3" d="M16.1687 -10.6988C16.4937 -10.0428 17.0806 -9.02079 17.7406 -7.78679C39.0436 -13.5098 54.1027 -15.7548 55.1087 -12.8168C56.6317 -8.36979 25.9237 6.17222 -13.4783 19.6622C-52.8803 33.1532 -86.0563 40.4842 -87.5793 36.0362C-88.5153 33.3022 -77.2593 26.7512 -59.3013 18.9762L-59.3073 18.9632L-59.7503 15.6332C-89.4233 28.3352 -108.766 40.2972 -106.872 45.8272C-104.224 53.5602 -61.0613 45.7862 -10.4643 28.4632C40.1327 11.1402 79.0027 -9.17281 76.3557 -16.9058C74.3727 -22.6938 49.6837 -19.7918 16.1687 -10.6988Z" fill="url(#paint4_linear_6973_13624)"/>
</g>
</g>
<g id="Check-in Card">
<g id="Check-in Card_2" filter="url(#filter0_d_6973_13624)">
<g clip-path="url(#clip2_6973_13624)">
<rect x="-33" y="-76.964" width="810" height="186" rx="8" fill="white"/>
<g id="Daily Check">
<g id="Ng&#195;&#160;y">
<g id="Line">
<g id="Check-in">
<rect x="-17" y="-7.96399" width="64" height="64" rx="4" fill="#94A3B8"/>
<g id="Frame 1">
<g id="Coins">
<path id="Vector_4" d="M15.2851 30.036C23.4119 30.036 30 23.4977 30 15.4323C30 7.36682 23.4119 0.828491 15.2851 0.828491C7.15837 0.828491 0.570312 7.36682 0.570312 15.4323C0.570312 23.4977 7.15837 30.036 15.2851 30.036Z" fill="#64748B"/>
<path id="Vector_5" d="M29.2017 14.5266C29.2017 18.8036 27.3355 22.6458 24.3698 25.2994L22.5629 23.8571L21.2534 22.8111L3.70968 8.8096L1.90283 7.3696C4.41234 2.98846 9.15987 0.0360107 14.6009 0.0360107C22.6656 0.0360107 29.2017 6.5228 29.2017 14.5266Z" fill="#F1F5F9"/>
<path id="Vector_6" d="M26.6121 8.56278C26.4867 8.56278 26.3658 8.49486 26.3064 8.37486C25.2616 6.29184 23.676 4.50089 21.7277 3.19674C21.5703 3.09259 21.5293 2.87976 21.6342 2.7258C21.7391 2.56957 21.9536 2.52882 22.1087 2.63297C24.1574 4.00278 25.8205 5.88429 26.9179 8.07146C27.0023 8.23901 26.9338 8.44278 26.765 8.52655C26.7171 8.55146 26.6646 8.56278 26.6121 8.56278Z" fill="#E2E8F0"/>
<path id="Vector_7" d="M26.9203 14.5266C26.9203 18.2647 25.2276 21.6134 22.5629 23.8572L21.2534 22.8111C24.4314 20.2798 26.4641 16.3945 26.4641 12.036C26.4641 11.7236 26.4527 11.4156 26.4321 11.11C26.7492 12.1945 26.9203 13.3402 26.9203 14.5266Z" fill="#94A3B8"/>
<path id="Vector_8" d="M26.4638 12.036C26.4638 16.3945 24.4311 20.2798 21.2532 22.8111L3.70947 8.8096C5.77639 4.93791 9.87829 2.30017 14.6007 2.30017C20.2083 2.30017 24.9422 6.02017 26.4319 11.11C26.4524 11.4156 26.4638 11.7236 26.4638 12.036Z" fill="#CBD5E1"/>
<path id="Vector_9" d="M24.3696 25.2994C21.7825 27.6111 18.3582 29.0171 14.6008 29.0171C6.53612 29.0171 0 22.5303 0 14.5265C0 11.9228 0.691255 9.47976 1.90266 7.36957L3.70951 8.80957C2.79696 10.5145 2.28137 12.4616 2.28137 14.5265C2.28137 19.2382 4.96882 23.3273 8.90418 25.3696C10.6084 26.2526 12.5452 26.753 14.6008 26.753C17.6373 26.753 20.416 25.6639 22.5627 23.8571L24.3696 25.2994Z" fill="#E2E8F0"/>
<path id="Vector_10" d="M21.2531 22.8111C18.8714 24.7107 15.8417 25.8473 12.5474 25.8473C11.2858 25.8473 10.0653 25.6798 8.90406 25.3696C4.9687 23.3273 2.28125 19.2383 2.28125 14.5266C2.28125 12.4616 2.79684 10.5145 3.70939 8.80957L21.2531 22.8111Z" fill="#94A3B8"/>
<path id="Vector_11" d="M22.5629 23.8571C20.4161 25.6639 17.6374 26.753 14.6009 26.753C12.5454 26.753 10.6085 26.2526 8.9043 25.3696C10.0655 25.6798 11.286 25.8473 12.5476 25.8473C15.8419 25.8473 18.8716 24.7107 21.2533 22.8111L22.5629 23.8571Z" fill="#64748B"/>
<g id="Group_3">
<path id="Vector_12" d="M16.5722 16.4738C15.4976 16.4738 14.6216 15.6134 14.6216 14.556C14.6216 13.4987 15.4953 12.6383 16.5722 12.6383C17.649 12.6383 18.5227 13.4987 18.5227 14.556C18.5227 15.6134 17.649 16.4738 16.5722 16.4738ZM16.5722 13.0889C15.7486 13.0889 15.0779 13.7477 15.0779 14.556C15.0779 15.3643 15.7486 16.0232 16.5722 16.0232C17.3957 16.0232 18.0665 15.3643 18.0665 14.556C18.0665 13.7477 17.3957 13.0889 16.5722 13.0889Z" fill="#64748B"/>
<path id="Vector_13" d="M19.9232 18.1855C19.654 18.1855 19.3802 18.1357 19.1156 18.0315C18.5703 17.8187 18.146 17.4066 17.9156 16.8768C17.6897 16.3515 17.6829 15.7696 17.8996 15.2398L18.3217 15.4096C18.1506 15.8285 18.1551 16.2859 18.3354 16.7002C18.5156 17.1191 18.8532 17.4428 19.2844 17.6127C20.1719 17.9613 21.1779 17.5379 21.5316 16.6685C21.9103 15.7379 21.8966 14.5696 21.8966 14.5583C21.8966 11.0489 18.9924 8.19831 15.4243 8.19831C12.4928 8.19831 9.91939 10.141 9.16882 12.9213L8.72852 12.8036C9.53384 9.82624 12.2875 7.74548 15.4243 7.74548C19.2433 7.74548 22.3506 10.7998 22.3506 14.5538C22.3506 14.6013 22.3665 15.8194 21.9513 16.836C21.6091 17.6738 20.7878 18.1855 19.9232 18.1855Z" fill="#64748B"/>
<path id="Vector_14" d="M20.4366 14.556H19.9826C19.9826 12.3983 18.1963 10.6436 15.9993 10.6436C14.0693 10.6436 12.4952 11.9228 12.0845 13.827L11.6396 13.7319C12.0982 11.6149 13.848 10.1907 15.9993 10.1907C18.4473 10.1907 20.4389 12.1492 20.4389 14.5538L20.4366 14.556Z" fill="#64748B"/>
<path id="Vector_15" d="M14.9364 23.8096C13.4079 23.8096 12.1646 22.5824 12.1646 21.0723C12.1646 19.5621 13.4079 18.3349 14.9364 18.3349C16.4649 18.3349 17.7083 19.5621 17.7083 21.0723C17.7083 22.5824 16.4649 23.8096 14.9364 23.8096ZM14.9364 18.7855C13.6588 18.7855 12.6185 19.8111 12.6185 21.0723C12.6185 22.3334 13.6588 23.3591 14.9364 23.3591C16.214 23.3591 17.2543 22.3334 17.2543 21.0723C17.2543 19.8111 16.214 18.7855 14.9364 18.7855Z" fill="#64748B"/>
<path id="Vector_16" d="M13.371 15.7447C13.2797 15.7447 13.1862 15.7379 13.0926 15.722C12.6272 15.6473 12.2189 15.4005 11.9451 15.0224C11.6736 14.6488 11.5641 14.196 11.6394 13.7432L12.0888 13.8156C12.0341 14.1484 12.1139 14.4835 12.3147 14.7598C12.5177 15.0383 12.8212 15.2217 13.1656 15.2783C13.8752 15.3915 14.5413 14.916 14.6554 14.2209L15.1048 14.2934C14.9656 15.1401 14.2196 15.7469 13.3733 15.7469L13.371 15.7447Z" fill="#64748B"/>
<path id="Vector_17" d="M22.6176 18.3553C22.4579 18.3553 22.2959 18.3236 22.1408 18.2579C21.8442 18.1311 21.616 17.8979 21.4997 17.6013C21.3833 17.307 21.3902 16.9855 21.518 16.6956L21.9354 16.8768C21.8556 17.0556 21.8533 17.2526 21.924 17.4338C21.997 17.6172 22.1385 17.7621 22.3233 17.8413C22.702 18.0021 23.1446 17.8322 23.3088 17.4609C23.7218 16.3107 23.8107 15.2443 23.8107 14.5538C23.8107 9.69942 19.791 5.75074 14.8495 5.75074C10.7248 5.75074 7.14533 8.50847 6.14381 12.4549C5.9727 13.1681 6.09362 13.9062 6.48601 14.5334C6.88297 15.1696 7.50806 15.6111 8.24495 15.7832C9.75978 16.1341 11.2814 15.2081 11.6373 13.7205L12.0799 13.8247C11.667 15.5545 9.89894 16.6277 8.14 16.2224C7.28221 16.0255 6.55673 15.5092 6.0959 14.7711C5.64191 14.0421 5.50046 13.1817 5.69894 12.3485C6.75065 8.19828 10.5126 5.30017 14.8449 5.30017C20.0373 5.30017 24.2602 9.45262 24.2602 14.5538C24.2602 15.2783 24.1689 16.4013 23.7263 17.6262C23.5256 18.0836 23.0784 18.353 22.613 18.353L22.6176 18.3553Z" fill="#64748B"/>
</g>
<g id="Group_4">
<path id="Vector_18" d="M16.287 16.1908C15.2125 16.1908 14.3364 15.3304 14.3364 14.273C14.3364 13.2157 15.2102 12.3553 16.287 12.3553C17.3638 12.3553 18.2376 13.2157 18.2376 14.273C18.2376 15.3304 17.3638 16.1908 16.287 16.1908ZM16.287 12.8059C15.4634 12.8059 14.7927 13.4647 14.7927 14.273C14.7927 15.0813 15.4634 15.7402 16.287 15.7402C17.1106 15.7402 17.7813 15.0813 17.7813 14.273C17.7813 13.4647 17.1106 12.8059 16.287 12.8059Z" fill="white"/>
<path id="Vector_19" d="M19.638 17.9025C19.3688 17.9025 19.0951 17.8527 18.8304 17.7485C18.2852 17.5357 17.8609 17.1236 17.6304 16.5938C17.4046 16.0685 17.3977 15.4866 17.6145 14.9568L18.0365 15.1266C17.8654 15.5455 17.87 16.0028 18.0502 16.4172C18.2304 16.836 18.5681 17.1598 18.9993 17.3296C19.8867 17.6783 20.8928 17.2549 21.2464 16.3855C21.6251 15.4549 21.6114 14.2866 21.6114 14.2753C21.6114 10.7659 18.7072 7.91529 15.1392 7.91529C12.2076 7.91529 9.63423 9.85794 8.88366 12.6383L8.44336 12.5206C9.24868 9.54322 12.0023 7.46246 15.1392 7.46246C18.9582 7.46246 22.0654 10.5168 22.0654 14.2708C22.0654 14.3183 22.0814 15.5364 21.6662 16.553C21.324 17.3908 20.5027 17.9025 19.638 17.9025Z" fill="white"/>
<path id="Vector_20" d="M20.1515 14.2707H19.6975C19.6975 12.113 17.9111 10.3583 15.7142 10.3583C13.7841 10.3583 12.21 11.6375 11.7994 13.5417L11.3545 13.4466C11.813 11.3296 13.5629 9.90546 15.7142 9.90546C18.1621 9.90546 20.1537 11.8639 20.1537 14.2685L20.1515 14.2707Z" fill="white"/>
<path id="Vector_21" d="M14.6513 23.5266C13.1227 23.5266 11.8794 22.2994 11.8794 20.7892C11.8794 19.2791 13.1227 18.0519 14.6513 18.0519C16.1798 18.0519 17.4231 19.2791 17.4231 20.7892C17.4231 22.2994 16.1798 23.5266 14.6513 23.5266ZM14.6513 18.5024C13.3737 18.5024 12.3334 19.5281 12.3334 20.7892C12.3334 22.0504 13.3737 23.076 14.6513 23.076C15.9288 23.076 16.9691 22.0504 16.9691 20.7892C16.9691 19.5281 15.9288 18.5024 14.6513 18.5024Z" fill="white"/>
<path id="Vector_22" d="M13.0839 15.4617C12.9926 15.4617 12.8991 15.4549 12.8055 15.4391C12.3401 15.3644 11.9318 15.1176 11.658 14.7395C11.3865 14.3659 11.277 13.913 11.3523 13.4602L11.8017 13.5327C11.747 13.8655 11.8268 14.2006 12.0276 14.4768C12.2306 14.7553 12.5341 14.9387 12.8785 14.9953C13.588 15.1085 14.2542 14.633 14.3683 13.9379L14.8177 14.0104C14.6785 14.8572 13.9325 15.464 13.0861 15.464L13.0839 15.4617Z" fill="white"/>
<path id="Vector_23" d="M22.3324 18.07C22.1727 18.07 22.0107 18.0383 21.8556 17.9726C21.559 17.8458 21.3309 17.6126 21.2145 17.316C21.0982 17.0217 21.105 16.7002 21.2328 16.4104L21.6503 16.5915C21.5704 16.7704 21.5682 16.9673 21.6389 17.1485C21.7119 17.3319 21.8533 17.4768 22.0381 17.556C22.4168 17.7168 22.8594 17.547 23.0237 17.1756C23.4366 16.0255 23.5256 14.959 23.5256 14.2685C23.5256 9.41414 19.5058 5.46546 14.5644 5.46546C10.4396 5.46546 6.86017 8.22319 5.85865 12.1696C5.68755 12.8828 5.80846 13.6209 6.20086 14.2481C6.59781 14.8843 7.22291 15.3258 7.95979 15.4979C9.47462 15.8489 10.9963 14.9228 11.3522 13.4353L11.7948 13.5394C11.3818 15.2692 9.61378 16.3424 7.85485 15.9372C6.99705 15.7402 6.27158 15.2239 5.81074 14.4858C5.35675 13.7568 5.2153 12.8964 5.41378 12.0632C6.46549 7.91301 10.2275 5.01489 14.5598 5.01489C19.7522 5.01489 23.975 9.16735 23.975 14.2685C23.975 14.993 23.8837 16.116 23.4412 17.3409C23.2404 17.7983 22.7933 18.0677 22.3279 18.0677L22.3324 18.07Z" fill="white"/>
</g>
</g>
</g>
</g>
</g>
</g>
</g>
</g>
</g>
</g>
</g>
</g>
</g>
</g>
</g>
</g>
</g>
<defs>
<filter id="filter0_d_6973_13624" x="-53" y="-87.964" width="850" height="226" filterUnits="userSpaceOnUse" color-interpolation-filters="sRGB">
<feFlood flood-opacity="0" result="BackgroundImageFix"/>
<feColorMatrix in="SourceAlpha" type="matrix" values="0 0 0 0 0 0 0 0 0 0 0 0 0 0 0 0 0 0 127 0" result="hardAlpha"/>
<feMorphology radius="1" operator="dilate" in="SourceAlpha" result="effect1_dropShadow_6973_13624"/>
<feOffset dy="9"/>
<feGaussianBlur stdDeviation="9.5"/>
<feComposite in2="hardAlpha" operator="out"/>
<feColorMatrix type="matrix" values="0 0 0 0 0.192157 0 0 0 0 0.364706 0 0 0 0 0.576471 0 0 0 0.1 0"/>
<feBlend mode="normal" in2="BackgroundImageFix" result="effect1_dropShadow_6973_13624"/>
<feBlend mode="normal" in="SourceGraphic" in2="effect1_dropShadow_6973_13624" result="shape"/>
</filter>
<linearGradient id="paint0_linear_6973_13624" x1="542.965" y1="894.799" x2="565.525" y2="1499.13" gradientUnits="userSpaceOnUse">
<stop stop-color="#F1F5F9"/>
<stop offset="1" stop-color="#98D7FA"/>
</linearGradient>
<linearGradient id="paint1_linear_6973_13624" x1="381.298" y1="-162.122" x2="383.616" y2="-324.451" gradientUnits="userSpaceOnUse">
<stop stop-color="#0F172A"/>
<stop offset="1" stop-color="#315D93"/>
</linearGradient>
<linearGradient id="paint2_linear_6973_13624" x1="-16.4067" y1="-123.313" x2="-16.4067" y2="35.7166" gradientUnits="userSpaceOnUse">
<stop stop-color="#06A5FF"/>
<stop offset="1" stop-color="#06A5FF" stop-opacity="0"/>
</linearGradient>
<linearGradient id="paint3_linear_6973_13624" x1="-28.3902" y1="-112.875" x2="-28.3902" y2="36.5704" gradientUnits="userSpaceOnUse">
<stop stop-color="#06A5FF"/>
<stop offset="1" stop-color="#06A5FF" stop-opacity="0"/>
</linearGradient>
<linearGradient id="paint4_linear_6973_13624" x1="-9.98288" y1="-97.7878" x2="-9.98288" y2="34.9588" gradientUnits="userSpaceOnUse">
<stop stop-color="#06A5FF"/>
<stop offset="1" stop-color="#06A5FF" stop-opacity="0"/>
</linearGradient>
<clipPath id="clip0_6973_13624">
<rect x="-65" y="-223" width="874" height="364.036" rx="16" fill="white"/>
</clipPath>
<clipPath id="clip1_6973_13624">
<rect width="865" height="364" fill="white" transform="translate(-45 -228)"/>
</clipPath>
<clipPath id="clip2_6973_13624">
<rect x="-33" y="-76.964" width="810" height="186" rx="8" fill="white"/>
</clipPath>
</defs>
</svg>
