<svg width="60" height="60" viewBox="0 0 60 60" fill="none" xmlns="http://www.w3.org/2000/svg">
<path d="M17.7991 15.3333H12.053C11.2102 15.3333 10.5269 16.0165 10.5269 16.8594V43.1404C10.5269 43.9833 11.2102 44.6666 12.053 44.6666H17.7991C18.642 44.6666 19.3253 43.9833 19.3253 43.1404V16.8594C19.3253 16.0165 18.642 15.3333 17.7991 15.3333Z" fill="#FB923C"/>
<path d="M6.19269 19.9495H10.5347V40.0494H6.19269C5.35329 40.0494 4.6665 39.3626 4.6665 38.5232V21.4757C4.6665 20.6362 5.35329 19.9495 6.19269 19.9495Z" fill="#FDBA74"/>
<path d="M42.8591 44.6665H48.6052C49.4481 44.6665 50.1313 43.9832 50.1313 43.1403V16.8594C50.1313 16.0165 49.4481 15.3332 48.6052 15.3332H42.8591C42.0162 15.3332 41.3329 16.0165 41.3329 16.8594V43.1403C41.3329 43.9832 42.0162 44.6665 42.8591 44.6665Z" fill="#FB923C"/>
<path d="M54.466 40.05H50.124V19.9502H54.466C55.3054 19.9502 55.9922 20.6369 55.9922 21.4763V38.5239C55.9922 39.3633 55.3054 40.05 54.466 40.05Z" fill="#FDBA74"/>
<path d="M41.333 26.3369H19.333V33.6702H41.333V26.3369Z" fill="#06A5FF"/>
<path d="M26.7986 17.4615L28.5378 18.3862L30.4702 18.0052L30.1282 19.945L31.0877 21.6652L29.1372 21.9393L27.7977 23.3834L26.9342 21.6131L25.1469 20.7854L26.5638 19.4171L26.7986 17.4615Z" fill="#6EE7B7"/>
<path d="M7.59049 2.96784L10.9812 5.37614L15.1312 5.10297L13.8885 9.07194L15.4307 12.9344L11.272 12.979L8.0752 15.6393L6.74762 11.698L3.22966 9.47966L6.56788 6.99911L7.59049 2.96784Z" fill="#5BC3FE"/>
<path d="M24.5471 48.9931L24.018 50.7883L24.7411 52.5145L22.8703 52.566L21.4521 53.7872L20.8249 52.0239L19.2253 51.0524L20.7085 49.911L21.1381 48.0895L22.6819 49.1474L24.5471 48.9931Z" fill="#5BC3FE"/>
<ellipse cx="9.66683" cy="51.6666" rx="4.33333" ry="4.33333" stroke="#27B1FF" stroke-linecap="round" stroke-dasharray="1 3"/>
<ellipse cx="49.9998" cy="9.33333" rx="3.33333" ry="3.33333" stroke="#27B1FF" stroke-linecap="round" stroke-dasharray="1 3"/>
<path d="M40.6008 47.3945L40.8843 50.0829L42.8016 51.9887L40.3324 53.0891L39.1124 55.5015L37.3028 53.4932L34.6315 53.0784L35.9823 50.7367L35.5513 48.068L38.1958 48.629L40.6008 47.3945Z" stroke="#27B1FF" stroke-linecap="round" stroke-linejoin="round" stroke-dasharray="2 2"/>
<path d="M26.6008 4.72799L26.8843 7.41639L28.8016 9.32216L26.3324 10.4226L25.1124 12.835L23.3028 10.8267L20.6315 10.4119L21.9823 8.07021L21.5513 5.40145L24.1958 5.96251L26.6008 4.72799Z" stroke="#27B1FF" stroke-linecap="round" stroke-linejoin="round" stroke-dasharray="2 2"/>
<ellipse cx="49" cy="50.3333" rx="3" ry="3" fill="#34D399"/>
<ellipse cx="30" cy="39.3333" rx="4" ry="4" fill="#5BC3FE"/>
<ellipse cx="35.6668" cy="11.0001" rx="2.33333" ry="2.33333" fill="#34D399"/>
</svg>
