<svg width="150" height="150" viewBox="0 0 150 150" fill="none" xmlns="http://www.w3.org/2000/svg">
<path d="M80.4336 55.6334H69.5669V91.0834H80.4336V55.6334Z" fill="#FDBA74"/>
<path d="M75.0002 73.35C91.5227 73.35 104.917 59.9559 104.917 43.4333C104.917 26.9108 91.5227 13.5167 75.0002 13.5167C58.4776 13.5167 45.0835 26.9108 45.0835 43.4333C45.0835 59.9559 58.4776 73.35 75.0002 73.35Z" fill="#FB7200"/>
<path d="M40.1333 82.2C42.4333 79.9333 44.8666 78.9167 47.4 78.6833C49.9 78.5333 52.5333 79.1 55.4666 80.4333C54.2666 82.7 52.1833 84.6167 49.35 85.2833C47.9833 85.5667 46.4166 85.55 44.8166 85.0833C43.25 84.5667 41.5833 83.6833 40.15 82.2H40.1333Z" fill="#FED7AA"/>
<path d="M51.5668 67.3667C49.8334 70.0334 49.2001 72.6 49.9001 74.85C50.5334 77.1667 52.5168 79.1 55.4668 80.4167C56.2501 77.95 56.3334 75.1167 55.7501 72.8167C55.1834 70.4 53.9668 68.5667 51.5834 67.35L51.5668 67.3667Z" fill="#FED7AA"/>
<path d="M30.5503 72.65C33.317 71.0667 36.0336 70.6167 38.467 71.1C39.7336 71.3 40.9503 71.7334 42.1503 72.3834C43.4003 72.9667 44.567 73.85 45.867 74.7834C44.1336 76.6667 41.567 78.0667 38.717 77.9334C35.8503 77.8834 32.717 76.2 30.567 72.65H30.5503Z" fill="#FED7AA"/>
<path d="M45.3503 61.1833C42.967 63.3667 41.817 65.5834 41.8337 68.0167C41.9003 69.1834 42.2503 70.3834 42.9003 71.55C43.617 72.65 44.5337 73.8334 45.8503 74.7834C47.2337 72.6 47.967 69.95 48.0337 67.5167C48.0337 65.1167 47.417 62.9167 45.3503 61.2V61.1833Z" fill="#FED7AA"/>
<path d="M23.7002 60.9667C26.8335 60.1 29.4169 60.45 31.7669 61.4667C32.9002 62 33.9502 62.7333 35.0002 63.6333C35.9835 64.5667 37.0002 65.6167 37.9502 66.9167C35.8002 68.3 33.0002 68.9667 30.2335 68.15C27.5502 67.3333 24.8002 64.9833 23.7002 60.95V60.9667Z" fill="#FED7AA"/>
<path d="M40.9504 53.6334C38.1504 55.1 36.3171 57.05 35.8337 59.35C35.5504 60.5167 35.5837 61.7667 35.9671 63.0334C36.2837 64.35 37.0171 65.6167 37.9671 66.9167C39.8671 65.15 41.2837 62.7334 41.9171 60.4334C42.6004 58.05 42.4171 55.8667 40.9504 53.6334Z" fill="#FED7AA"/>
<path d="M20.0503 47.9167C23.2336 47.9 25.8336 48.85 27.7003 50.4667C28.6836 51.2667 29.567 52.2333 30.267 53.3833C31.1003 54.5 31.6503 55.85 32.3336 57.3C29.867 58.1 26.9836 58.05 24.5503 56.5333C22.0836 55.0833 20.167 52.0667 20.0503 47.9167Z" fill="#FED7AA"/>
<path d="M38.5834 45.2333C35.4334 45.95 33.3501 47.3167 32.1668 49.45C31.6334 50.5 31.3834 51.7 31.3501 53.05C31.4501 54.35 31.6501 55.85 32.3334 57.3C34.5834 56.0833 36.5668 54.1167 37.8168 52.0333C39.0001 49.9333 39.5334 47.75 38.5834 45.2333Z" fill="#FED7AA"/>
<path d="M19.8168 34.4C22.9501 35.1834 25.1167 36.75 26.5834 38.7834C27.3167 39.8167 27.9001 40.9667 28.3501 42.25C28.7334 43.55 29.1334 44.9667 29.3001 46.5667C26.7501 46.7167 24.0001 45.9167 21.9668 43.85C21.0168 42.8167 20.2167 41.4834 19.7667 39.8834C19.3667 38.2834 19.3001 36.4167 19.8001 34.4H19.8168Z" fill="#FED7AA"/>
<path d="M38.4334 36.45C35.2334 36.3667 32.7834 37.15 31.1667 38.9167C30.3501 39.8 29.8001 40.9 29.4834 42.2C29.1001 43.5 29.1334 44.9667 29.3167 46.5667C31.8334 45.9667 34.2667 44.5667 35.9501 42.8667C36.8501 42 37.5167 41.0667 37.9167 40.0167C38.3667 38.9667 38.5334 37.8 38.4334 36.45Z" fill="#FED7AA"/>
<path d="M23.0334 21.2167C25.8501 22.7667 27.5501 24.8333 28.4667 27.1833C29.3834 29.55 29.4834 32.2167 29.1334 35.4167C26.6167 34.9167 24.1334 33.45 22.7334 30.9333C21.3334 28.4667 21.0501 24.8833 23.0501 21.2167H23.0334Z" fill="#FED7AA"/>
<path d="M40.5 27.9667C37.4333 27.0667 34.85 27.2 32.85 28.5C30.8666 29.7833 29.4666 32.2167 29.1333 35.4167C31.7 35.4667 34.4 34.7167 36.4833 33.5167C38.5833 32.2833 40.05 30.6 40.5 27.9667Z" fill="#FED7AA"/>
<path d="M29.4834 9.31668C31.8334 11.55 32.9501 13.9667 33.2167 16.4667C33.4834 18.9833 32.9334 21.6 31.7667 24.6C29.4667 23.4667 27.4334 21.4167 26.7167 18.6333C25.9834 15.8833 26.6667 12.3667 29.4834 9.31668Z" fill="#FED7AA"/>
<path d="M44.6666 20.2834C41.9333 18.6334 39.3999 18.1167 37.1333 18.85C34.8666 19.5834 32.9333 21.5834 31.7666 24.6C34.2499 25.3 37.0333 25.2667 39.3666 24.6334C41.6999 23.9667 43.5833 22.7334 44.6666 20.2834Z" fill="#FED7AA"/>
<path d="M98.4335 67.3667C100.167 70.0334 100.8 72.6 100.1 74.85C99.4668 77.1667 97.4835 79.1 94.5335 80.4167C93.7502 77.95 93.6668 75.1167 94.2502 72.8167C94.8168 70.4 96.0335 68.5667 98.4168 67.35L98.4335 67.3667Z" fill="#FED7AA"/>
<path d="M109.867 82.2C107.567 79.9333 105.134 78.9167 102.6 78.6833C100.1 78.5333 97.467 79.1 94.5337 80.4333C95.7337 82.7 97.817 84.6167 100.65 85.2833C102.017 85.5667 103.584 85.55 105.184 85.0833C106.75 84.5667 108.417 83.6833 109.85 82.2H109.867Z" fill="#FED7AA"/>
<path d="M104.65 61.1833C107.033 63.3667 108.183 65.5834 108.167 68.0167C108.1 69.1834 107.75 70.3834 107.1 71.55C106.383 72.65 105.467 73.8334 104.15 74.7834C102.767 72.6 102.033 69.95 101.967 67.5167C101.967 65.1167 102.583 62.9167 104.65 61.2V61.1833Z" fill="#FED7AA"/>
<path d="M119.45 72.65C116.683 71.0667 113.967 70.6167 111.533 71.1C110.267 71.3 109.05 71.7334 107.85 72.3834C106.6 72.9667 105.433 73.85 104.133 74.7834C105.867 76.6667 108.433 78.0667 111.283 77.9334C114.15 77.8834 117.283 76.2 119.433 72.65H119.45Z" fill="#FED7AA"/>
<path d="M109.05 53.6334C111.85 55.1 113.683 57.05 114.167 59.35C114.45 60.5167 114.417 61.7667 114.033 63.0334C113.717 64.35 112.983 65.6167 112.033 66.9167C110.133 65.15 108.717 62.7334 108.083 60.4334C107.4 58.05 107.583 55.8667 109.05 53.6334Z" fill="#FED7AA"/>
<path d="M126.3 60.9667C123.166 60.1 120.583 60.45 118.233 61.4667C117.1 62 116.05 62.7333 115 63.6333C114.016 64.5667 113 65.6167 112.05 66.9167C114.2 68.3 117 68.9667 119.766 68.15C122.45 67.3333 125.2 64.9833 126.3 60.95V60.9667Z" fill="#FED7AA"/>
<path d="M111.417 45.2333C114.567 45.95 116.65 47.3167 117.834 49.45C118.367 50.5 118.617 51.7 118.65 53.05C118.55 54.35 118.35 55.85 117.667 57.3C115.417 56.0833 113.434 54.1167 112.184 52.0333C111 49.9333 110.467 47.75 111.417 45.2333Z" fill="#FED7AA"/>
<path d="M129.95 47.9167C126.767 47.9 124.167 48.85 122.3 50.4667C121.317 51.2667 120.434 52.2333 119.734 53.3833C118.9 54.5 118.35 55.85 117.667 57.3C120.134 58.1 123.017 58.05 125.45 56.5333C127.917 55.0833 129.834 52.0667 129.95 47.9167Z" fill="#FED7AA"/>
<path d="M111.567 36.45C114.767 36.3667 117.217 37.15 118.834 38.9167C119.65 39.8 120.2 40.9 120.517 42.2C120.9 43.5 120.867 44.9667 120.684 46.5667C118.167 45.9667 115.734 44.5667 114.05 42.8667C113.15 42 112.484 41.0667 112.084 40.0167C111.634 38.9667 111.467 37.8 111.567 36.45Z" fill="#FED7AA"/>
<path d="M130.184 34.4C127.05 35.1834 124.884 36.75 123.4 38.7834C122.667 39.8167 122.084 40.9667 121.634 42.25C121.25 43.55 120.85 44.9667 120.684 46.5667C123.234 46.7167 125.984 45.9167 128.017 43.85C128.967 42.8167 129.767 41.4834 130.217 39.8834C130.617 38.2834 130.684 36.4167 130.184 34.4Z" fill="#FED7AA"/>
<path d="M109.5 27.9667C112.567 27.0667 115.15 27.2 117.15 28.5C119.133 29.7833 120.533 32.2167 120.867 35.4167C118.3 35.4667 115.6 34.7167 113.517 33.5167C111.417 32.2833 109.95 30.6 109.5 27.9667Z" fill="#FED7AA"/>
<path d="M126.967 21.2167C124.15 22.7667 122.45 24.8333 121.533 27.1833C120.617 29.55 120.517 32.2167 120.867 35.4167C123.383 34.9167 125.867 33.45 127.267 30.9333C128.667 28.4667 128.95 24.8833 126.95 21.2167H126.967Z" fill="#FED7AA"/>
<path d="M105.333 20.2834C108.067 18.6334 110.6 18.1167 112.867 18.85C115.133 19.5834 117.067 21.5834 118.233 24.6C115.75 25.3 112.967 25.2667 110.633 24.6334C108.283 23.9667 106.417 22.7334 105.333 20.2834Z" fill="#FED7AA"/>
<path d="M120.517 9.31668C118.167 11.55 117.05 13.9667 116.783 16.4667C116.517 18.9833 117.067 21.6 118.233 24.6C120.533 23.4667 122.567 21.4167 123.283 18.6333C124.017 15.8833 123.333 12.3667 120.517 9.31668Z" fill="#FED7AA"/>
<path d="M75.0001 28.2L79.9501 38.2333L91.0335 39.8333L83.0168 47.65L84.9168 58.6833L75.0001 53.4833L65.0835 58.6833L66.9835 47.65L58.9668 39.8333L70.0501 38.2333L75.0001 28.2Z" fill="#FFEDD5"/>
<path d="M101.666 101.1H48.333V131.1H101.666V101.1Z" fill="#27B1FF"/>
<path d="M103.333 91.0833H46.6665C43.9051 91.0833 41.6665 93.3219 41.6665 96.0833C41.6665 98.8447 43.9051 101.083 46.6665 101.083H103.333C106.095 101.083 108.333 98.8447 108.333 96.0833C108.333 93.3219 106.095 91.0833 103.333 91.0833Z" fill="#98D6FA"/>
<path d="M103.333 131.117H46.6665C43.9051 131.117 41.6665 133.355 41.6665 136.117C41.6665 138.878 43.9051 141.117 46.6665 141.117H103.333C106.095 141.117 108.333 138.878 108.333 136.117C108.333 133.355 106.095 131.117 103.333 131.117Z" fill="#98D6FA"/>
<path d="M21.1335 109.86L26.9925 114.885L34.7087 115.083L31.74 122.208L33.9363 129.608L26.2426 128.986L19.8837 133.361L18.0975 125.852L11.9712 121.157L18.5609 117.137L21.1335 109.86Z" stroke="#27B1FF" stroke-linecap="round" stroke-linejoin="round" stroke-dasharray="2 2"/>
<path d="M134.859 80.7435L137.27 87.7121L143.54 91.5934L137.658 96.0406L135.904 103.203L129.857 98.983L122.503 99.5283L124.648 92.473L121.857 85.6475L129.23 85.5072L134.859 80.7435Z" fill="#6EE7B7"/>
<path d="M17.1284 68.5087L19.4284 72.0583L23.4532 73.3589L20.7881 76.6433L20.7949 80.8729L16.8477 79.3532L12.8272 80.6667L13.0528 76.4431L10.5611 73.0252L14.6478 71.9346L17.1284 68.5087Z" fill="#5BC3FE"/>
<ellipse cx="30.8332" cy="94.1667" rx="4.16667" ry="4.16667" fill="#34D399"/>
<ellipse cx="116.667" cy="121.667" rx="6.66667" ry="6.66666" fill="#5BC3FE"/>
</svg>
