<svg width="550" height="550" viewBox="0 0 550 550" fill="none" xmlns="http://www.w3.org/2000/svg">
<path d="M116.589 275C116.589 243.298 125.906 213.763 141.955 189.002L17.875 226.402V366.696L127.776 333.564C120.56 315.447 116.589 295.68 116.589 275Z" fill="#2C3D5B"/>
<path d="M279.4 28.248H270.6V275H279.4V28.248Z" fill="#B6E5FF"/>
<path d="M215.38 35.5173L206.879 37.7949L270.744 276.139L279.244 273.861L215.38 35.5173Z" fill="#B6E5FF"/>
<path d="M155.44 59.1098L147.819 63.5098L271.195 277.203L278.816 272.803L155.44 59.1098Z" fill="#B6E5FF"/>
<path d="M103.633 97.4073L97.4102 103.63L271.89 278.11L278.113 271.887L103.633 97.4073Z" fill="#B6E5FF"/>
<path d="M63.5044 147.815L59.1044 155.436L272.798 278.812L277.198 271.191L63.5044 147.815Z" fill="#B6E5FF"/>
<path d="M100.98 223.819L98.7023 232.319L273.858 279.252L276.136 270.752L100.98 223.819Z" fill="#B6E5FF"/>
<path d="M275 270.6H28.248V279.4H275V270.6Z" fill="#B6E5FF"/>
<path d="M273.861 270.749L35.5166 334.613L37.7942 343.113L276.138 279.249L273.861 270.749Z" fill="#B6E5FF"/>
<path d="M272.792 271.198L59.0985 394.574L63.4985 402.195L277.192 278.819L272.792 271.198Z" fill="#B6E5FF"/>
<path d="M271.881 271.924L97.4005 446.404L103.623 452.627L278.103 278.147L271.881 271.924Z" fill="#B6E5FF"/>
<path d="M271.182 272.78L147.806 486.474L155.427 490.874L278.803 277.18L271.182 272.78Z" fill="#B6E5FF"/>
<path d="M270.761 273.879L206.897 512.224L215.397 514.501L279.261 276.157L270.761 273.879Z" fill="#B6E5FF"/>
<path d="M279.4 275H270.6V521.752H279.4V275Z" fill="#B6E5FF"/>
<path d="M279.248 273.865L270.748 276.143L334.612 514.487L343.112 512.209L279.248 273.865Z" fill="#B6E5FF"/>
<path d="M278.808 272.8L271.187 277.2L394.563 490.894L402.184 486.494L278.808 272.8Z" fill="#B6E5FF"/>
<path d="M278.117 271.89L271.895 278.112L446.375 452.592L452.597 446.37L278.117 271.89Z" fill="#B6E5FF"/>
<path d="M277.194 271.196L272.794 278.817L486.488 402.193L490.888 394.572L277.194 271.196Z" fill="#B6E5FF"/>
<path d="M276.138 270.749L273.86 279.249L512.204 343.113L514.482 334.613L276.138 270.749Z" fill="#B6E5FF"/>
<path d="M521.752 270.6H275V279.4H521.752V270.6Z" fill="#B6E5FF"/>
<path d="M512.209 206.88L273.864 270.744L276.142 279.244L514.486 215.38L512.209 206.88Z" fill="#B6E5FF"/>
<path d="M486.494 147.83L272.8 271.206L277.2 278.827L490.894 155.451L486.494 147.83Z" fill="#B6E5FF"/>
<path d="M446.373 97.4282L271.893 271.908L278.116 278.131L452.596 103.651L446.373 97.4282Z" fill="#B6E5FF"/>
<path d="M394.565 59.1014L271.189 272.795L278.81 277.195L402.186 63.5014L394.565 59.1014Z" fill="#B6E5FF"/>
<path d="M334.617 35.5172L270.752 273.861L279.253 276.139L343.117 37.7948L334.617 35.5172Z" fill="#B6E5FF"/>
<path d="M275 482.13C389.395 482.13 482.13 389.395 482.13 275C482.13 160.605 389.395 67.8701 275 67.8701C160.605 67.8701 67.87 160.605 67.87 275C67.87 389.395 160.605 482.13 275 482.13Z" fill="white"/>
<path d="M419.947 211.002C428.604 230.571 433.411 252.219 433.411 275C433.411 304.821 425.161 332.717 410.839 356.532L532.125 318.67V175.989L419.947 211.002Z" fill="#2C3D5B"/>
<path d="M183.81 152.68C182.347 152.878 180.95 152.68 179.619 152.108C178.288 151.536 177.177 150.612 176.264 149.336C175.351 148.06 174.845 146.696 174.735 145.255C174.625 143.814 174.9 142.428 175.56 141.108C176.22 139.788 177.221 138.644 178.552 137.687C179.718 136.851 180.917 136.312 182.149 136.059C183.381 135.806 184.58 135.85 185.757 136.18L184.943 139.898C183.403 139.491 182.05 139.711 180.873 140.547C180.18 141.042 179.674 141.636 179.344 142.318C179.025 143.011 178.904 143.737 179.003 144.496C179.102 145.266 179.399 146.003 179.916 146.718C180.433 147.433 181.027 147.961 181.72 148.302C182.413 148.643 183.139 148.775 183.898 148.687C184.657 148.599 185.383 148.313 186.076 147.818C187.253 146.982 187.902 145.761 188.012 144.177L191.796 144.617C191.73 145.838 191.378 146.982 190.74 148.071C190.102 149.149 189.2 150.106 188.034 150.942C186.703 151.899 185.295 152.471 183.832 152.669L183.81 152.68Z" fill="black"/>
<path d="M200.035 125.026L207.669 138.71L203.797 140.866L200.816 135.531L195.536 138.479L198.517 143.814L194.645 145.97L187.011 132.286L190.883 130.13L193.754 135.267L199.034 132.319L196.163 127.182L200.035 125.026Z" fill="black"/>
<path d="M211.2 135.367C209.517 134.696 208.23 133.277 207.339 131.132L204.006 123.113L208.098 121.408L211.376 129.306C212.333 131.616 213.73 132.397 215.567 131.638C217.382 130.879 217.811 129.35 216.854 127.029L213.576 119.131L217.613 117.459L220.946 125.478C221.837 127.634 221.936 129.537 221.232 131.209C220.528 132.881 219.098 134.157 216.953 135.048C214.797 135.939 212.883 136.049 211.211 135.367H211.2ZM209.803 115.633L213.73 114.005L211.145 118.768L208.329 119.934L209.792 115.644L209.803 115.633Z" fill="black"/>
<path d="M229.119 129.459C227.667 129.162 226.413 128.513 225.357 127.534C224.301 126.555 223.542 125.312 223.102 123.805C222.662 122.298 222.629 120.846 223.003 119.449C223.377 118.052 224.092 116.831 225.148 115.808C226.204 114.774 227.524 114.037 229.097 113.575C230.472 113.179 231.781 113.058 233.024 113.223C234.267 113.388 235.389 113.828 236.39 114.532L234.399 117.766C233.079 116.875 231.726 116.633 230.34 117.04C229.526 117.282 228.844 117.667 228.316 118.217C227.777 118.767 227.436 119.405 227.271 120.164C227.106 120.923 227.15 121.715 227.403 122.562C227.645 123.409 228.041 124.102 228.58 124.652C229.119 125.202 229.757 125.565 230.505 125.741C231.242 125.917 232.023 125.884 232.848 125.642C234.234 125.235 235.246 124.311 235.884 122.848L239.305 124.509C238.843 125.642 238.128 126.61 237.171 127.413C236.214 128.216 235.037 128.821 233.662 129.228C232.089 129.69 230.571 129.767 229.13 129.459H229.119Z" fill="black"/>
<path d="M261.833 123.684L260.799 115.445L257.598 122.639L255.64 122.87L250.888 116.853L251.845 124.883L247.775 125.367L245.916 109.802L249.535 109.373L256.08 117.7L260.348 108.086L263.967 107.657L265.87 123.211L261.822 123.695L261.833 123.684Z" fill="black"/>
<path d="M270.325 121.528C269.049 120.241 268.433 118.426 268.477 116.105L268.62 107.415L273.053 107.492L272.91 116.039C272.866 118.547 273.845 119.812 275.825 119.845C277.794 119.878 278.806 118.635 278.839 116.127L278.982 107.58L283.349 107.646L283.206 116.336C283.173 118.668 282.491 120.45 281.182 121.704C279.873 122.958 278.047 123.552 275.726 123.519C273.405 123.486 271.601 122.815 270.325 121.528ZM271.04 102.773L275.297 102.839L278.245 106.293L275.198 106.249L271.04 102.773ZM281.039 107.613H281.798C282.161 107.635 282.458 107.503 282.711 107.239C282.964 106.975 283.085 106.645 283.096 106.238C283.096 105.996 283.063 105.765 282.986 105.534C282.909 105.303 282.799 105.105 282.667 104.94L285.142 104.104C285.648 104.753 285.901 105.545 285.89 106.469C285.868 107.712 285.483 108.669 284.724 109.34C283.965 110.011 282.92 110.341 281.6 110.319H280.995L281.039 107.624V107.613Z" fill="black"/>
<path d="M302.797 109.659L300.905 125.213L297.286 124.773L291.423 115.654L290.411 123.948L286.099 123.42L287.991 107.866L291.61 108.306L297.473 117.425L298.485 109.131L302.797 109.659Z" fill="black"/>
<path d="M315.711 120.219L319.517 121.132L318.01 127.446C316.987 127.864 315.876 128.106 314.666 128.161C313.456 128.227 312.279 128.117 311.146 127.853C309.551 127.468 308.198 126.786 307.076 125.807C305.965 124.828 305.184 123.651 304.744 122.265C304.304 120.89 304.271 119.438 304.634 117.909C304.997 116.38 305.69 115.104 306.702 114.081C307.714 113.058 308.946 112.354 310.409 111.98C311.861 111.617 313.401 111.628 315.029 112.013C316.448 112.354 317.669 112.893 318.692 113.652C319.704 114.4 320.485 115.313 321.024 116.402L317.691 118.228C316.932 116.853 315.832 115.984 314.391 115.643C313.082 115.335 311.938 115.478 310.948 116.072C309.958 116.666 309.309 117.634 308.99 118.954C308.792 119.801 308.792 120.593 308.99 121.341C309.199 122.089 309.584 122.727 310.145 123.255C310.706 123.783 311.41 124.146 312.257 124.344C313.082 124.542 313.896 124.564 314.71 124.399L315.711 120.219Z" fill="black"/>
<path d="M341.605 130.955C341.825 131.758 341.759 132.605 341.396 133.474C340.879 134.75 339.966 135.52 338.657 135.784C337.348 136.059 335.731 135.795 333.795 135.003L325.963 131.791L331.903 117.282L339.317 120.318C341.165 121.077 342.441 121.99 343.123 123.079C343.805 124.168 343.915 125.279 343.442 126.434C343.156 127.127 342.738 127.677 342.177 128.084C341.616 128.491 340.956 128.722 340.208 128.788C340.923 129.415 341.385 130.13 341.605 130.944V130.955ZM337.436 131.318C337.843 130.339 337.315 129.558 335.885 128.964L332.442 127.556L331.243 130.493L334.686 131.901C336.127 132.495 337.04 132.297 337.447 131.307L337.436 131.318ZM334.752 121.924L333.608 124.718L336.424 125.873C337.81 126.434 338.69 126.247 339.075 125.312C339.449 124.388 338.954 123.64 337.568 123.079L334.752 121.924Z" fill="black"/>
<path d="M352.132 140.669L346.324 137.49L343.783 139.569L339.812 137.402L353.408 126.974L357.236 129.075L355.795 146.158L351.747 143.947L352.132 140.691V140.669ZM344.575 145.025C344.432 144.585 344.487 144.145 344.74 143.683C344.993 143.221 345.345 142.935 345.796 142.803C346.247 142.671 346.698 142.737 347.138 142.979C347.589 143.221 347.875 143.573 348.007 144.024C348.139 144.475 348.084 144.926 347.831 145.388C347.578 145.85 347.237 146.136 346.786 146.246C346.335 146.356 345.895 146.29 345.455 146.048C345.004 145.806 344.718 145.465 344.575 145.025ZM352.561 137.171L353.199 131.803L349.019 135.235L352.55 137.171H352.561Z" fill="black"/>
<path d="M377.685 142.483L368.632 155.276L365.651 153.164L364.826 142.351L360.008 149.171L356.466 146.663L365.519 133.87L368.5 135.982L369.325 146.795L374.143 139.975L377.685 142.483Z" fill="black"/>
<path d="M275 139.744L281.93 152.658L296.351 155.254L286.209 165.836L288.189 180.356L275 173.976L261.811 180.356L263.791 165.836L253.649 155.254L268.07 152.658L275 139.744Z" fill="#06A5FF"/>
<path d="M237.941 164.076L241.582 170.874L249.172 172.238L243.837 177.804L244.882 185.449L237.941 182.094L230.989 185.449L232.034 177.804L226.699 172.238L234.289 170.874L237.941 164.076Z" fill="#06A5FF"/>
<path d="M307.582 164.076L311.223 170.874L318.813 172.238L313.478 177.804L314.523 185.449L307.582 182.094L300.641 185.449L301.686 177.804L296.351 172.238L303.941 170.874L307.582 164.076Z" fill="#06A5FF"/>
<path d="M25.443 483.097L107.448 370.854L163.988 471.745L25.443 483.097Z" fill="#FDBA74"/>
<path d="M31.647 474.606L37.268 482.13L62.491 480.062L44.88 456.489L31.647 474.606ZM161.909 468.028L98.472 383.141L85.239 401.258L139.425 473.759L163.999 471.746L161.92 468.028H161.909ZM49.511 450.153L71.324 479.336L96.547 477.268L62.744 432.036L49.511 450.153ZM107.448 370.854L103.092 376.805L133.837 417.934L107.448 370.843V370.854ZM67.375 425.711L105.369 476.553L130.592 474.485L80.608 407.594L67.375 425.711Z" fill="#FED7AA"/>
<path d="M193.875 380.545C192.467 379.797 191.356 378.752 190.553 377.41C189.75 376.068 189.343 374.55 189.343 372.856C189.343 371.162 189.75 369.644 190.553 368.302C191.356 366.96 192.467 365.915 193.875 365.167C195.283 364.419 196.878 364.045 198.649 364.045C200.2 364.045 201.597 364.32 202.84 364.87C204.083 365.42 205.117 366.212 205.942 367.246L202.895 370.007C201.795 368.687 200.464 368.027 198.902 368.027C197.978 368.027 197.164 368.225 196.449 368.632C195.734 369.039 195.173 369.6 194.777 370.337C194.381 371.074 194.183 371.91 194.183 372.867C194.183 373.824 194.381 374.66 194.777 375.397C195.173 376.134 195.734 376.695 196.449 377.102C197.164 377.509 197.989 377.707 198.902 377.707C200.464 377.707 201.795 377.047 202.895 375.727L205.942 378.488C205.117 379.522 204.083 380.314 202.84 380.864C201.597 381.414 200.2 381.689 198.649 381.689C196.878 381.689 195.283 381.315 193.875 380.567V380.545Z" fill="black"/>
<path d="M210.012 379.61C208.615 378.235 207.922 376.299 207.922 373.78V364.386H212.718V373.626C212.718 376.332 213.796 377.696 215.941 377.696C218.086 377.696 219.131 376.343 219.131 373.626V364.386H223.85V373.78C223.85 376.299 223.157 378.246 221.76 379.61C220.363 380.985 218.405 381.667 215.897 381.667C213.389 381.667 211.42 380.985 210.034 379.61H210.012ZM210.463 359.326H215.061L218.306 363H215.017L210.463 359.326Z" fill="black"/>
<path d="M243.199 364.386V381.326H239.25L231.77 372.295V381.326H227.073V364.386H231.022L238.502 373.417V364.386H243.199Z" fill="black"/>
<path d="M257.939 372.493H262.174V379.511C261.206 380.204 260.095 380.743 258.83 381.106C257.576 381.48 256.311 381.667 255.057 381.667C253.286 381.667 251.68 381.293 250.261 380.545C248.842 379.797 247.731 378.752 246.917 377.41C246.114 376.068 245.707 374.55 245.707 372.856C245.707 371.162 246.114 369.644 246.917 368.302C247.72 366.96 248.842 365.915 250.283 365.167C251.724 364.419 253.341 364.045 255.145 364.045C256.729 364.045 258.148 364.309 259.402 364.848C260.656 365.376 261.712 366.146 262.548 367.147L259.501 369.908C258.357 368.654 256.982 368.016 255.387 368.016C253.935 368.016 252.769 368.456 251.878 369.336C250.987 370.216 250.547 371.393 250.547 372.856C250.547 373.791 250.745 374.627 251.152 375.364C251.559 376.101 252.12 376.673 252.846 377.08C253.572 377.487 254.408 377.696 255.343 377.696C256.278 377.696 257.125 377.509 257.928 377.135V372.493H257.939Z" fill="black"/>
<path d="M278.795 375.188L277.002 377.102V381.337H272.261V364.397H277.002V371.437L283.558 364.397H288.838L281.919 371.899L289.201 381.337H283.635L278.795 375.188Z" fill="black"/>
<path d="M299.541 375.254V381.326H294.745V375.177L288.288 364.386H293.348L297.363 371.118L301.378 364.386H306.02L299.53 375.254H299.541Z" fill="black"/>
<path d="M310.948 380.534C309.518 379.775 308.396 378.73 307.582 377.388C306.768 376.046 306.361 374.539 306.361 372.867C306.361 371.195 306.768 369.677 307.582 368.346C308.396 367.004 309.518 365.959 310.948 365.2C312.378 364.441 313.984 364.067 315.777 364.067C317.57 364.067 319.176 364.441 320.606 365.2C322.036 365.959 323.158 367.004 323.972 368.346C324.786 369.688 325.193 371.195 325.193 372.867C325.193 374.539 324.786 376.057 323.972 377.388C323.158 378.73 322.036 379.775 320.606 380.534C319.176 381.293 317.57 381.667 315.777 381.667C313.984 381.667 312.378 381.293 310.948 380.534ZM318.098 377.102C318.791 376.695 319.341 376.134 319.748 375.397C320.155 374.66 320.353 373.824 320.353 372.867C320.353 371.91 320.155 371.074 319.748 370.337C319.341 369.6 318.791 369.039 318.098 368.632C317.405 368.225 316.635 368.027 315.777 368.027C314.919 368.027 314.149 368.225 313.456 368.632C312.763 369.039 312.213 369.6 311.806 370.337C311.399 371.074 311.201 371.91 311.201 372.867C311.201 373.824 311.399 374.66 311.806 375.397C312.213 376.134 312.752 376.695 313.456 377.102C314.149 377.509 314.919 377.707 315.777 377.707C316.635 377.707 317.405 377.509 318.098 377.102Z" fill="black"/>
<path d="M343.827 364.386V381.326H339.878L332.398 372.295V381.326H327.701V364.386H331.65L339.13 373.417V364.386H343.827Z" fill="black"/>
<path d="M349.173 381.161C347.886 380.82 346.83 380.369 346.027 379.808L347.6 376.277C348.359 376.772 349.239 377.179 350.24 377.487C351.241 377.795 352.22 377.949 353.188 377.949C355.025 377.949 355.949 377.487 355.949 376.574C355.949 376.09 355.685 375.727 355.168 375.496C354.64 375.265 353.804 375.012 352.638 374.759C351.362 374.484 350.295 374.187 349.448 373.879C348.601 373.571 347.864 373.065 347.248 372.361C346.632 371.668 346.324 370.733 346.324 369.556C346.324 368.522 346.61 367.587 347.171 366.762C347.732 365.937 348.579 365.277 349.701 364.793C350.823 364.309 352.198 364.067 353.826 364.067C354.937 364.067 356.037 364.188 357.115 364.441C358.193 364.694 359.15 365.057 359.975 365.541L358.501 369.094C356.884 368.225 355.322 367.785 353.804 367.785C352.847 367.785 352.154 367.928 351.725 368.214C351.285 368.5 351.076 368.863 351.076 369.314C351.076 369.765 351.329 370.106 351.846 370.326C352.363 370.557 353.188 370.788 354.343 371.03C355.63 371.305 356.697 371.602 357.555 371.91C358.402 372.229 359.139 372.724 359.755 373.406C360.371 374.088 360.69 375.023 360.69 376.2C360.69 377.212 360.404 378.136 359.843 378.961C359.282 379.786 358.435 380.446 357.302 380.93C356.169 381.414 354.805 381.667 353.188 381.667C351.813 381.667 350.482 381.502 349.195 381.161H349.173Z" fill="black"/>
<path d="M334.4 405.702C375.32 388.597 407.11 351.989 418.495 308.946L420.475 300.201C421.113 297.682 421.509 293.931 421.938 291.335C422.422 288.805 422.719 284.977 422.895 282.381C422.95 281.6 423.28 277.453 423.335 276.76C423.346 276.001 423.368 274.142 423.379 273.372C424.347 233.739 408.309 194.381 380.545 166.067L389.719 156.585C399.52 165.671 408.276 175.945 415.734 187.143C437.371 219.604 446.776 259.974 442.112 298.716C441.98 302.225 440.231 310.387 439.714 313.951L437.239 323.95C436.579 326.92 435.05 330.858 434.17 333.795C433.191 337.106 431.805 340.252 430.518 343.453C414.744 382.195 384.318 414.062 346.544 432.476L334.389 405.702H334.4Z" fill="#98D6FA"/>
<path d="M178.277 170.027C146.938 194.711 126.764 232.914 123.618 273.229L110.418 273.075C107.778 227.381 125.345 180.851 157.509 147.543L178.266 170.027H178.277Z" fill="#98D6FA"/>
<path d="M532.125 318.67L17.875 366.575V223.894L532.125 175.989V318.67Z" fill="#06A5FF"/>
<path d="M209.891 231.935V257.807L203.808 258.445V247.841L191.873 249.106V259.71L185.79 260.348V234.476L191.873 233.838V244.035L203.808 242.77V232.573L209.891 231.935Z" fill="white"/>
<path d="M217.338 256.003C215.644 255.31 214.324 254.232 213.378 252.78C212.432 251.328 211.948 249.612 211.948 247.643C211.948 245.674 212.421 243.859 213.378 242.209C214.335 240.559 215.644 239.206 217.338 238.15C219.032 237.094 220.935 236.456 223.058 236.236C225.181 236.005 227.084 236.236 228.767 236.94C230.439 237.633 231.759 238.711 232.705 240.163C233.651 241.615 234.135 243.331 234.135 245.3C234.135 247.269 233.662 249.084 232.705 250.734C231.748 252.384 230.439 253.737 228.767 254.793C227.095 255.849 225.192 256.487 223.058 256.707C220.935 256.927 219.021 256.707 217.338 256.003ZM226.765 250.096C227.733 248.996 228.206 247.61 228.206 245.927C228.206 244.244 227.722 242.968 226.765 242.077C225.797 241.175 224.565 240.812 223.069 240.966C221.562 241.12 220.33 241.758 219.351 242.858C218.372 243.958 217.888 245.344 217.888 247.027C217.888 248.71 218.372 249.986 219.351 250.877C220.33 251.768 221.562 252.142 223.069 251.977C224.565 251.823 225.808 251.185 226.765 250.085V250.096Z" fill="white"/>
<path d="M251.559 235.422C253.231 236.709 254.078 238.832 254.078 241.791V253.132L248.6 253.715V251.24C247.5 253.209 245.443 254.342 242.44 254.661C240.889 254.826 239.547 254.705 238.403 254.309C237.259 253.913 236.401 253.286 235.796 252.439C235.191 251.592 234.894 250.591 234.894 249.425C234.894 247.577 235.598 246.048 237.017 244.838C238.436 243.628 240.614 242.869 243.573 242.561L248.226 242.066C248.226 240.812 247.841 239.888 247.06 239.283C246.279 238.689 245.124 238.469 243.573 238.634C242.495 238.744 241.439 239.03 240.405 239.47C239.371 239.91 238.48 240.46 237.754 241.098L235.653 237.292C236.753 236.412 238.073 235.686 239.613 235.103C241.153 234.52 242.737 234.146 244.365 233.97C247.489 233.64 249.898 234.124 251.57 235.411L251.559 235.422ZM236.995 227.183L243.298 226.512L248.369 231.297L243.793 231.781L236.995 227.183ZM246.565 249.656C247.346 249.117 247.896 248.391 248.215 247.467V245.432L244.2 245.861C241.802 246.114 240.592 247.016 240.592 248.567C240.592 249.304 240.889 249.865 241.472 250.228C242.055 250.602 242.869 250.723 243.892 250.624C244.893 250.514 245.784 250.195 246.554 249.656H246.565Z" fill="white"/>
<path d="M275.451 232.913C276.991 234.233 277.761 236.345 277.761 239.249V250.634L271.909 251.25V240.756C271.909 239.183 271.557 238.039 270.853 237.335C270.149 236.631 269.137 236.356 267.817 236.488C266.343 236.642 265.166 237.214 264.286 238.215C263.406 239.205 262.977 240.591 262.977 242.362V252.196L257.125 252.812V232.935L262.713 232.341V234.673C263.494 233.749 264.451 233.001 265.606 232.429C266.761 231.857 268.015 231.494 269.401 231.34C271.898 231.076 273.922 231.604 275.462 232.913H275.451Z" fill="white"/>
<path d="M306.702 246.608C306.13 247.092 305.415 247.477 304.579 247.774C303.743 248.071 302.863 248.269 301.928 248.368C299.53 248.621 297.671 248.214 296.351 247.147C295.031 246.08 294.382 244.375 294.382 242.032V233.87L291.269 234.2V229.767L294.382 229.437V224.597L300.234 223.981V228.821L305.261 228.293V232.726L300.234 233.254V241.35C300.234 242.186 300.454 242.813 300.894 243.22C301.334 243.627 301.95 243.792 302.753 243.704C303.677 243.605 304.469 243.275 305.118 242.714L306.691 246.608H306.702Z" fill="white"/>
<path d="M328.339 227.326C329.879 228.646 330.649 230.758 330.649 233.662V245.047L324.797 245.663V235.169C324.797 233.596 324.445 232.452 323.741 231.748C323.037 231.044 322.025 230.769 320.705 230.901C319.231 231.055 318.054 231.627 317.174 232.628C316.294 233.618 315.865 235.004 315.865 236.775V246.609L310.013 247.225V219.802L315.865 219.186V228.8C316.646 227.953 317.581 227.271 318.681 226.743C319.781 226.215 320.98 225.885 322.289 225.753C324.786 225.489 326.81 226.017 328.35 227.326H328.339Z" fill="white"/>
<path d="M349.789 225.038C351.461 226.325 352.308 228.448 352.308 231.407V242.748L346.83 243.331V240.856C345.73 242.825 343.673 243.958 340.67 244.277C339.119 244.442 337.777 244.321 336.633 243.925C335.489 243.529 334.62 242.902 334.026 242.055C333.421 241.208 333.124 240.207 333.124 239.041C333.124 237.193 333.828 235.664 335.247 234.454C336.666 233.244 338.844 232.485 341.803 232.177L346.456 231.682C346.456 230.428 346.071 229.504 345.29 228.91C344.509 228.316 343.354 228.096 341.803 228.261C340.725 228.371 339.669 228.657 338.635 229.097C337.59 229.537 336.71 230.087 335.984 230.725L333.883 226.919C334.983 226.039 336.303 225.313 337.843 224.73C339.383 224.147 340.967 223.773 342.595 223.597C345.719 223.267 348.128 223.74 349.8 225.038H349.789ZM335.225 216.799L341.528 216.128L346.599 220.913L342.023 221.397L335.225 216.799ZM344.795 239.272C345.576 238.733 346.126 238.007 346.445 237.083V235.048L342.43 235.477C340.032 235.73 338.822 236.632 338.822 238.183C338.822 238.92 339.119 239.481 339.702 239.844C340.285 240.218 341.099 240.339 342.122 240.24C343.123 240.13 344.014 239.811 344.784 239.272H344.795Z" fill="white"/>
<path d="M373.681 222.53C375.221 223.85 375.991 225.962 375.991 228.866V240.251L370.139 240.867V230.373C370.139 228.8 369.787 227.656 369.083 226.952C368.379 226.248 367.367 225.973 366.047 226.105C364.573 226.259 363.396 226.842 362.516 227.832C361.636 228.822 361.207 230.208 361.207 231.979V241.813L355.355 242.429V222.552L360.943 221.958V224.29C361.724 223.377 362.681 222.618 363.836 222.046C364.991 221.474 366.245 221.111 367.631 220.957C370.128 220.693 372.152 221.221 373.692 222.53H373.681Z" fill="white"/>
<path d="M397.364 220.022C398.904 221.342 399.674 223.454 399.674 226.358V237.743L393.822 238.359V227.865C393.822 226.292 393.47 225.148 392.766 224.444C392.062 223.74 391.05 223.465 389.73 223.597C388.256 223.751 387.079 224.323 386.199 225.324C385.319 226.314 384.89 227.7 384.89 229.471V239.305L379.038 239.921V212.498L384.89 211.882V221.496C385.671 220.649 386.606 219.967 387.706 219.439C388.806 218.911 390.005 218.581 391.314 218.449C393.811 218.185 395.835 218.713 397.375 220.022H397.364Z" fill="white"/>
<path d="M45.859 329.285C43.296 328.218 41.294 326.568 39.831 324.335C38.368 322.102 37.642 319.473 37.642 316.448C37.642 313.423 38.368 310.64 39.831 308.099C41.294 305.558 43.296 303.479 45.859 301.873C48.411 300.267 51.304 299.288 54.516 298.947C57.321 298.65 59.851 298.87 62.106 299.607C64.361 300.344 66.231 301.565 67.716 303.248L62.194 308.748C60.203 306.603 57.794 305.679 54.956 305.976C53.295 306.152 51.81 306.669 50.501 307.527C49.203 308.385 48.191 309.507 47.476 310.893C46.761 312.279 46.398 313.819 46.398 315.513C46.398 317.207 46.761 318.681 47.476 319.913C48.191 321.145 49.203 322.058 50.501 322.641C51.799 323.224 53.284 323.422 54.956 323.246C57.794 322.949 60.203 321.508 62.194 318.945L67.716 323.279C66.231 325.281 64.35 326.887 62.106 328.097C59.851 329.318 57.332 330.066 54.516 330.363C51.304 330.704 48.411 330.341 45.859 329.274V329.285Z" fill="white"/>
<path d="M100.771 294.668V324.885L92.0919 325.798V314.017L80.2559 315.271V327.052L71.5769 327.965V297.748L80.2559 296.835V308.187L92.0919 306.933V295.581L100.771 294.668Z" fill="white"/>
<path d="M110.44 320.793C107.91 318.615 106.645 315.282 106.645 310.794V294.052L115.324 293.139V309.628C115.324 314.457 117.271 316.679 121.154 316.261C125.015 315.854 126.94 313.236 126.94 308.396V291.907L135.487 291.005V307.747C135.487 312.235 134.222 315.843 131.692 318.549C129.162 321.266 125.62 322.861 121.066 323.345C116.501 323.829 112.959 322.982 110.429 320.804L110.44 320.793ZM130.977 291.478L132.462 291.324C133.166 291.247 133.76 290.928 134.233 290.356C134.717 289.784 134.959 289.113 134.959 288.343C134.959 287.881 134.882 287.441 134.717 287.012C134.552 286.583 134.343 286.22 134.079 285.934L138.897 283.745C139.92 284.878 140.437 286.33 140.437 288.112C140.437 290.499 139.711 292.435 138.248 293.909C136.785 295.383 134.761 296.263 132.154 296.538L130.966 296.659V291.478H130.977Z" fill="white"/>
<path d="M173.371 295.955C174.218 297.748 174.647 299.761 174.647 301.972C174.647 304.964 173.91 307.736 172.436 310.277C170.962 312.818 168.927 314.908 166.342 316.536C163.757 318.164 160.842 319.143 157.597 319.495C154.352 319.847 151.437 319.473 148.852 318.395C146.267 317.317 144.232 315.656 142.758 313.434C141.284 311.201 140.547 308.594 140.547 305.602C140.547 302.61 141.295 299.838 142.78 297.297C144.265 294.756 146.333 292.666 148.984 291.027C151.624 289.399 154.616 288.398 157.949 288.046C159.324 287.903 160.941 287.848 162.811 287.881C164.065 287.892 165.066 287.859 165.792 287.782C166.815 287.672 167.618 287.364 168.201 286.836C168.784 286.308 169.081 285.615 169.081 284.757C169.081 283.899 168.784 283.063 168.201 282.348L172.975 280.159C173.998 281.402 174.515 282.865 174.515 284.526C174.515 286.187 174.108 287.529 173.283 288.717C172.469 289.894 171.325 290.818 169.862 291.5C171.347 292.699 172.524 294.195 173.371 295.988V295.955ZM161.799 310.882C163.053 310.024 164.054 308.913 164.78 307.527C165.506 306.141 165.88 304.601 165.88 302.896C165.88 301.191 165.517 299.739 164.78 298.507C164.043 297.275 163.053 296.362 161.799 295.779C160.545 295.196 159.137 294.976 157.586 295.141C156.035 295.306 154.638 295.812 153.373 296.67C152.119 297.528 151.118 298.639 150.392 300.025C149.666 301.411 149.292 302.951 149.292 304.656C149.292 306.361 149.655 307.824 150.392 309.056C151.118 310.288 152.119 311.201 153.373 311.784C154.627 312.367 156.035 312.587 157.586 312.422C159.137 312.257 160.534 311.751 161.799 310.904V310.882Z" fill="white"/>
<path d="M208.406 283.294V313.511L201.256 314.27L187.715 299.607V315.711L179.212 316.613V286.396L186.362 285.637L199.914 300.3V284.207L208.417 283.305L208.406 283.294Z" fill="white"/>
<path d="M235.103 294.932L242.77 294.118V306.636C241.021 308.055 238.997 309.221 236.72 310.123C234.443 311.025 232.155 311.597 229.878 311.839C226.666 312.18 223.773 311.817 221.199 310.75C218.625 309.683 216.612 308.033 215.149 305.8C213.686 303.567 212.96 300.938 212.96 297.913C212.96 294.888 213.686 292.116 215.149 289.564C216.612 287.023 218.636 284.944 221.243 283.327C223.839 281.71 226.776 280.731 230.054 280.39C232.914 280.082 235.488 280.291 237.765 280.995C240.042 281.699 241.945 282.865 243.463 284.493L237.941 289.993C235.862 287.969 233.387 287.111 230.483 287.419C227.854 287.694 225.731 288.706 224.125 290.444C222.519 292.182 221.716 294.36 221.716 296.978C221.716 298.65 222.079 300.102 222.816 301.334C223.542 302.566 224.565 303.479 225.885 304.073C227.205 304.667 228.701 304.876 230.395 304.7C232.056 304.524 233.629 304.029 235.081 303.215V294.932H235.103Z" fill="white"/>
<path d="M267.586 283.811L258.159 284.812V278.036L285.648 275.132V281.908L276.265 282.898V306.339L267.586 307.252V283.811Z" fill="white"/>
<path d="M302.302 295.548L297.572 296.054V304.084L288.893 304.997V274.78L302.918 273.295C305.69 272.998 308.11 273.196 310.156 273.889C312.202 274.582 313.775 275.704 314.886 277.277C315.997 278.839 316.547 280.764 316.547 283.041C316.547 285.318 316.03 287.188 314.985 288.926C313.94 290.664 312.466 292.094 310.53 293.216L317.152 302.016L307.857 302.995L302.291 295.559L302.302 295.548ZM306.427 280.83C305.514 280.148 304.172 279.906 302.39 280.093L297.572 280.599V289.443L302.39 288.937C304.172 288.75 305.514 288.222 306.427 287.364C307.329 286.506 307.791 285.373 307.791 283.965C307.791 282.557 307.34 281.512 306.427 280.83Z" fill="white"/>
<path d="M315.766 262.911L324.093 262.031L329.967 267.971L324.005 268.598L315.766 262.911ZM321.332 271.348L330.011 270.435V300.652L321.332 301.565V271.348Z" fill="white"/>
<path d="M365.398 266.695V296.912L358.248 297.671L344.696 283.008V299.112L336.193 300.014V269.797L343.343 269.038L356.895 283.701V267.608L365.398 266.706V266.695Z" fill="white"/>
<path d="M400.73 262.955V293.172L392.051 294.085V282.304L380.215 283.558V295.339L371.536 296.252V266.035L380.215 265.122V276.474L392.051 275.22V263.868L400.73 262.955Z" fill="white"/>
<path d="M448.822 257.873V288.09L440.143 289.003V277.222L428.307 278.476V290.257L419.628 291.17V260.953L428.307 260.04V271.392L440.143 270.138V258.786L448.822 257.873Z" fill="white"/>
<path d="M461.692 285.296C459.107 284.218 457.072 282.557 455.598 280.335C454.124 278.102 453.387 275.495 453.387 272.503C453.387 269.511 454.124 266.739 455.598 264.198C457.072 261.657 459.107 259.567 461.692 257.939C464.277 256.311 467.192 255.332 470.437 254.98C473.682 254.639 476.597 255.002 479.182 256.08C481.767 257.158 483.802 258.819 485.276 261.041C486.75 263.274 487.487 265.881 487.487 268.873C487.487 271.865 486.75 274.637 485.276 277.178C483.802 279.719 481.767 281.809 479.182 283.437C476.597 285.065 473.682 286.044 470.437 286.396C467.192 286.737 464.277 286.374 461.692 285.296ZM474.65 277.794C475.904 276.936 476.894 275.825 477.631 274.439C478.368 273.053 478.731 271.513 478.731 269.808C478.731 268.103 478.368 266.651 477.631 265.419C476.894 264.187 475.904 263.274 474.65 262.691C473.396 262.108 471.988 261.888 470.437 262.053C468.886 262.218 467.489 262.724 466.224 263.582C464.97 264.44 463.969 265.551 463.243 266.937C462.517 268.323 462.143 269.863 462.143 271.568C462.143 273.273 462.506 274.736 463.243 275.968C463.98 277.2 464.97 278.113 466.224 278.696C467.478 279.279 468.886 279.499 470.437 279.334C471.988 279.169 473.385 278.663 474.65 277.816V277.794ZM467.962 294.558C467.302 294.019 466.972 293.249 466.972 292.248C466.972 291.247 467.302 290.389 467.962 289.685C468.622 288.981 469.447 288.574 470.437 288.475C471.427 288.365 472.252 288.596 472.912 289.157C473.572 289.718 473.902 290.51 473.902 291.511C473.902 292.512 473.572 293.359 472.912 294.03C472.252 294.701 471.427 295.097 470.437 295.196C469.447 295.306 468.622 295.086 467.962 294.547V294.558Z" fill="white"/>
<path d="M498.685 281.402C496.122 280.335 494.12 278.685 492.657 276.452C491.194 274.219 490.468 271.59 490.468 268.565C490.468 265.54 491.194 262.757 492.657 260.216C494.12 257.675 496.133 255.596 498.685 253.99C501.237 252.384 504.13 251.405 507.342 251.064C510.147 250.767 512.677 250.987 514.921 251.735C517.176 252.472 519.046 253.693 520.531 255.376L515.009 260.876C513.018 258.731 510.609 257.807 507.771 258.104C506.099 258.28 504.625 258.797 503.316 259.655C502.018 260.513 501.006 261.635 500.291 263.021C499.576 264.407 499.213 265.947 499.213 267.641C499.213 269.335 499.576 270.809 500.291 272.041C501.006 273.273 502.018 274.186 503.316 274.769C504.614 275.352 506.099 275.55 507.771 275.374C510.609 275.077 513.018 273.636 515.009 271.073L520.531 275.407C519.046 277.409 517.176 279.015 514.921 280.225C512.666 281.446 510.147 282.194 507.342 282.491C504.13 282.832 501.237 282.469 498.685 281.402Z" fill="white"/>
<path d="M275 413.171L281.93 426.085L296.351 428.681L286.209 439.263L288.189 453.783L275 447.403L261.811 453.783L263.791 439.263L253.649 428.681L268.07 426.085L275 413.171Z" fill="#06A5FF"/>
<path d="M316.217 416.107L319.858 422.905L327.448 424.269L322.113 429.835L323.158 437.48L316.217 434.125L309.276 437.48L310.321 429.835L304.975 424.269L312.576 422.905L316.217 416.107Z" fill="#06A5FF"/>
<path d="M233.783 416.107L237.424 422.905L245.025 424.269L239.679 429.835L240.724 437.48L233.783 434.125L226.842 437.48L227.887 429.835L222.552 424.269L230.142 422.905L233.783 416.107Z" fill="#06A5FF"/>
<path d="M163.328 440.143C165.649 437.283 172.656 439.043 175.56 440.099C180.741 441.98 185.119 445.533 189.398 448.899C196.57 454.542 203.874 459.723 213.378 459.492C215.391 459.448 217.965 457.545 219.274 456.126C219.967 455.378 221.716 453.398 219.604 453.442C204.6 453.805 196.086 438.823 183.007 434.071C173.294 430.54 162.69 434.511 156.354 442.332C155.067 443.916 155.969 444.268 157.531 444.07C159.522 443.817 162.096 441.639 163.317 440.132L163.328 440.143Z" fill="#FDBA74"/>
<path d="M235.037 453.365C243.144 473.88 266.541 478.764 284.537 468.116C285.483 467.555 289.41 465.278 288.992 463.837C288.552 462.308 285.934 463.782 285.109 464.277C269.17 473.704 249.623 463.98 243.232 447.81C242.66 446.347 234.08 450.934 235.048 453.376L235.037 453.365Z" fill="#FB7200"/>
<path d="M165.033 413.072C168.861 407.418 173.547 399.894 180.565 397.991C187.055 396.242 194.018 398.189 200.167 400.29C202.598 401.126 209.22 394.823 207.614 394.262C198.264 391.061 188.958 389.928 179.828 394.383C170.016 399.168 163.108 407.77 157.113 416.625C155.848 418.495 159.137 417.538 159.72 417.307C161.777 416.504 163.79 414.876 165.022 413.061L165.033 413.072Z" fill="#FB7200"/>
<path d="M152.548 416.317C150.7 412.148 149.336 407.539 150.194 402.941C151.316 396.957 156.222 394.394 160.512 390.874C165.836 386.496 170.83 380.699 168.443 373.406C168.003 372.075 159.412 376.387 160.259 378.972C163.548 389.004 149.886 393.657 145.013 400.4C140.25 407 141.229 414.81 144.375 421.872C145.057 423.412 153.593 418.627 152.559 416.306L152.548 416.317Z" fill="#FED7AA"/>
<path d="M123.684 365.189C130.823 366.377 138.523 368.489 139.15 377.036C139.777 385.583 135.157 394.218 130.13 400.543C127.963 403.271 134.398 400.092 135.355 398.893C140.811 392.029 145.948 382.58 145.398 373.505C144.848 364.43 136.928 361.955 129.272 360.679C127.259 360.338 122.749 365.035 123.684 365.2V365.189Z" fill="#FB923C"/>
<path d="M159.203 427.273C169.884 424.303 181.423 424.864 192.06 421.949C205.953 417.208 220.638 408.21 226.71 394.735L238.458 401.445C227.26 417.329 208.736 424.622 190.366 426.833C179.883 427.636 169.598 425.942 159.192 427.262L159.203 427.273Z" fill="#FB923C"/>
</svg>
