<svg width="42" height="42" viewBox="0 0 42 42" fill="none" xmlns="http://www.w3.org/2000/svg">
<rect width="42" height="42" rx="8" fill="url(#paint0_linear_5068_11625)"/>
<mask id="mask0_5068_11625" style="mask-type:alpha" maskUnits="userSpaceOnUse" x="11" y="11" width="20" height="20">
<rect x="11" y="11" width="20" height="20" fill="#D9D9D9"/>
</mask>
<g mask="url(#mask0_5068_11625)">
<path d="M20.9998 25.1668C21.2359 25.1668 21.4339 25.087 21.5936 24.9272C21.7533 24.7675 21.8332 24.5696 21.8332 24.3335C21.8332 24.0974 21.7533 23.8995 21.5936 23.7397C21.4339 23.58 21.2359 23.5002 20.9998 23.5002C20.7637 23.5002 20.5658 23.58 20.4061 23.7397C20.2464 23.8995 20.1665 24.0974 20.1665 24.3335C20.1665 24.5696 20.2464 24.7675 20.4061 24.9272C20.5658 25.087 20.7637 25.1668 20.9998 25.1668ZM20.9998 21.8335C21.2359 21.8335 21.4339 21.7536 21.5936 21.5939C21.7533 21.4342 21.8332 21.2363 21.8332 21.0002C21.8332 20.7641 21.7533 20.5661 21.5936 20.4064C21.4339 20.2467 21.2359 20.1668 20.9998 20.1668C20.7637 20.1668 20.5658 20.2467 20.4061 20.4064C20.2464 20.5661 20.1665 20.7641 20.1665 21.0002C20.1665 21.2363 20.2464 21.4342 20.4061 21.5939C20.5658 21.7536 20.7637 21.8335 20.9998 21.8335ZM20.9998 18.5002C21.2359 18.5002 21.4339 18.4203 21.5936 18.2606C21.7533 18.1009 21.8332 17.9029 21.8332 17.6668C21.8332 17.4307 21.7533 17.2328 21.5936 17.0731C21.4339 16.9134 21.2359 16.8335 20.9998 16.8335C20.7637 16.8335 20.5658 16.9134 20.4061 17.0731C20.2464 17.2328 20.1665 17.4307 20.1665 17.6668C20.1665 17.9029 20.2464 18.1009 20.4061 18.2606C20.5658 18.4203 20.7637 18.5002 20.9998 18.5002ZM27.6665 27.6668H14.3332C13.8748 27.6668 13.4825 27.5036 13.1561 27.1772C12.8297 26.8509 12.6665 26.4585 12.6665 26.0002V22.6668C13.1248 22.6668 13.5172 22.5036 13.8436 22.1772C14.17 21.8509 14.3332 21.4585 14.3332 21.0002C14.3332 20.5418 14.17 20.1495 13.8436 19.8231C13.5172 19.4967 13.1248 19.3335 12.6665 19.3335V16.0002C12.6665 15.5418 12.8297 15.1495 13.1561 14.8231C13.4825 14.4967 13.8748 14.3335 14.3332 14.3335H27.6665C28.1248 14.3335 28.5172 14.4967 28.8436 14.8231C29.17 15.1495 29.3332 15.5418 29.3332 16.0002V19.3335C28.8748 19.3335 28.4825 19.4967 28.1561 19.8231C27.8297 20.1495 27.6665 20.5418 27.6665 21.0002C27.6665 21.4585 27.8297 21.8509 28.1561 22.1772C28.4825 22.5036 28.8748 22.6668 29.3332 22.6668V26.0002C29.3332 26.4585 29.17 26.8509 28.8436 27.1772C28.5172 27.5036 28.1248 27.6668 27.6665 27.6668ZM27.6665 26.0002V23.8752C27.1526 23.5696 26.7464 23.1634 26.4478 22.6564C26.1491 22.1495 25.9998 21.5974 25.9998 21.0002C25.9998 20.4029 26.1491 19.8509 26.4478 19.3439C26.7464 18.837 27.1526 18.4307 27.6665 18.1252V16.0002H14.3332V18.1252C14.8471 18.4307 15.2533 18.837 15.5519 19.3439C15.8505 19.8509 15.9998 20.4029 15.9998 21.0002C15.9998 21.5974 15.8505 22.1495 15.5519 22.6564C15.2533 23.1634 14.8471 23.5696 14.3332 23.8752V26.0002H27.6665Z" fill="white"/>
</g>
<defs>
<linearGradient id="paint0_linear_5068_11625" x1="25.8125" y1="13.5625" x2="4.375" y2="40.25" gradientUnits="userSpaceOnUse">
<stop stop-color="#FF5959"/>
<stop offset="1" stop-color="#FB923C"/>
</linearGradient>
</defs>
</svg>
