<svg width="32" height="32" viewBox="0 0 32 32" fill="none" xmlns="http://www.w3.org/2000/svg">
<g id="Free 2" clip-path="url(#clip0_3268_14177)">
<path id="Vector" d="M16.0001 29.3332C23.3639 29.3332 29.3334 23.3636 29.3334 15.9998C29.3334 8.63604 23.3639 2.6665 16.0001 2.6665C8.63628 2.6665 2.66675 8.63604 2.66675 15.9998C2.66675 23.3636 8.63628 29.3332 16.0001 29.3332Z" fill="#2C3D5B"/>
<path id="Vector_2" fill-rule="evenodd" clip-rule="evenodd" d="M16.0001 16.5335C18.0267 16.5335 19.6267 14.9335 19.6267 12.9068C19.6267 10.8801 18.0267 9.28013 16.0001 9.28013C13.9734 9.28013 12.3734 10.8801 12.3734 12.9068C12.3734 14.9335 13.9734 16.5335 16.0001 16.5335ZM16.0001 18.4535C18.9867 18.4535 21.4401 16.0001 21.4401 13.0135C21.4401 9.92013 18.9867 7.4668 16.0001 7.4668C13.0134 7.4668 10.5601 9.92013 10.5601 12.9068C10.5601 16.0001 13.0134 18.4535 16.0001 18.4535Z" fill="white"/>
<path id="Vector_3" fill-rule="evenodd" clip-rule="evenodd" d="M22.4001 22.9333V28.2666L20.5868 29.3333V22.9333C20.5868 22.72 20.4801 22.5066 20.3734 22.4C19.6268 21.8666 18.1334 21.12 16.0001 21.12C13.8668 21.12 12.3734 21.8666 11.6268 22.4C11.5201 22.5066 11.4134 22.6133 11.4134 22.9333V29.3333L9.6001 28.2666V22.9333C9.6001 22.1866 9.9201 21.44 10.5601 20.9066C11.5201 20.2666 13.3334 19.3066 16.0001 19.3066C18.6668 19.3066 20.4801 20.2666 21.4401 20.9066C22.0801 21.44 22.4001 22.2933 22.4001 22.9333Z" fill="white"/>
<path id="Vector_4" d="M16 0C7.14667 0 0 7.14667 0 16C0 24.8533 7.14667 32 16 32C24.8533 32 32 24.8533 32 16C32 7.14667 24.8533 0 16 0ZM16 29.3333C8.64 29.3333 2.66667 23.36 2.66667 16C2.66667 8.64 8.64 2.66667 16 2.66667C23.36 2.66667 29.3333 8.64 29.3333 16C29.3333 23.36 23.36 29.3333 16 29.3333Z" fill="url(#paint0_linear_3268_14177)"/>
</g>
<defs>
<linearGradient id="paint0_linear_3268_14177" x1="16" y1="0" x2="16" y2="32" gradientUnits="userSpaceOnUse">
<stop stop-color="#7AA3D7"/>
<stop offset="1" stop-color="#1E293B"/>
</linearGradient>
<clipPath id="clip0_3268_14177">
<rect width="32" height="32" fill="white"/>
</clipPath>
</defs>
</svg>
