<svg width="38" height="38" viewBox="0 0 38 38" fill="none" xmlns="http://www.w3.org/2000/svg">
<g id="Group 1488">
<path id="Vector" d="M19 1.5C9.31824 1.5 1.5 9.31824 1.5 19C1.5 28.6818 9.31824 36.5 19 36.5C28.6818 36.5 36.5 28.6818 36.5 19C36.5 9.31824 28.6818 1.5 19 1.5ZM19 30.8333C12.4684 30.8333 7.16667 25.5316 7.16667 19C7.16667 12.4684 12.4684 7.16667 19 7.16667C25.5316 7.16667 30.8333 12.4684 30.8333 19C30.8333 25.5316 25.5316 30.8333 19 30.8333Z" fill="url(#paint0_linear_3318_14270)" stroke="white" stroke-width="3"/>
<path id="Vector_2" d="M18.9998 32.3332C26.3636 32.3332 32.3332 26.3636 32.3332 18.9998C32.3332 11.636 26.3636 5.6665 18.9998 5.6665C11.636 5.6665 5.6665 11.636 5.6665 18.9998C5.6665 26.3636 11.636 32.3332 18.9998 32.3332Z" fill="#06A5FF"/>
<path id="Star 6" d="M18.1672 11.7174C18.5629 11.1229 19.4363 11.1229 19.8321 11.7174L21.7584 14.6113C21.891 14.8105 22.0907 14.9556 22.3211 15.0202L25.6687 15.9579C26.3564 16.1506 26.6263 16.9813 26.1832 17.5413L24.0262 20.2677C23.8777 20.4554 23.8014 20.6901 23.8112 20.9292L23.9538 24.4027C23.9831 25.1163 23.2765 25.6297 22.6069 25.3813L19.3474 24.1723C19.123 24.0891 18.8763 24.0891 18.6519 24.1723L15.3924 25.3813C14.7228 25.6297 14.0162 25.1163 14.0455 24.4027L14.1881 20.9292C14.1979 20.6901 14.1216 20.4554 13.9731 20.2677L11.8161 17.5413C11.373 16.9812 11.6429 16.1506 12.3306 15.9579L15.6782 15.0202C15.9086 14.9556 16.1082 14.8105 16.2409 14.6113L18.1672 11.7174Z" fill="white"/>
</g>
<defs>
<linearGradient id="paint0_linear_3318_14270" x1="19" y1="3" x2="19" y2="35" gradientUnits="userSpaceOnUse">
<stop stop-color="#98D6FA"/>
<stop offset="1" stop-color="#06A5FF"/>
</linearGradient>
</defs>
</svg>
