<svg width="24" height="24" viewBox="0 0 24 24" fill="none" xmlns="http://www.w3.org/2000/svg">
<path d="M2.71503 20.7148V11.9998L12 2.71484L21.48 12.4648V20.7148C21.48 21.5398 20.805 22.2148 19.98 22.2148H4.21503C3.39003 22.2148 2.71503 21.5398 2.71503 20.7148Z" fill="#FDBA74"/>
<path d="M22.215 14.7148C21.825 14.7148 21.435 14.5648 21.135 14.2648L12 4.87482L2.86499 14.2648C2.27999 14.8648 1.33499 14.8648 0.749986 14.2948C0.164986 13.7248 0.149986 12.7648 0.719986 12.1798L10.92 1.66482C11.49 1.07982 12.51 1.07982 13.065 1.66482L23.28 12.1648C23.85 12.7648 23.85 13.7098 23.25 14.2798C22.965 14.5648 22.575 14.6998 22.2 14.6998L22.215 14.7148Z" fill="#FB7200"/>
<path d="M16.1829 12H7.81714C6.81356 12 6 12.8898 6 13.9875V17.5125C6 18.6102 6.81356 19.5 7.81714 19.5H16.1829C17.1864 19.5 18 18.6102 18 17.5125V13.9875C18 12.8898 17.1864 12 16.1829 12Z" fill="#2C3D5B"/>
<path d="M12.75 10.5H12V21H12.75V10.5Z" fill="#FDBA74"/>
<path d="M18 16.5H6V17.25H18V16.5Z" fill="#FDBA74"/>
</svg>
