<svg width="42" height="42" viewBox="0 0 42 42" fill="none" xmlns="http://www.w3.org/2000/svg">
<g id="Koins 1" clip-path="url(#clip0_5068_11594)">
<g id="Layer_1-2">
<path id="Vector" d="M21.3991 41.9999C32.7766 41.9999 41.9999 32.8463 41.9999 21.5547C41.9999 10.263 32.7766 1.10938 21.3991 1.10938C10.0216 1.10938 0.79834 10.263 0.79834 21.5547C0.79834 32.8463 10.0216 41.9999 21.3991 41.9999Z" fill="#FF8500"/>
<path id="Vector_2" d="M40.882 20.2868C40.882 26.2746 38.2694 31.6537 34.1173 35.3688L31.5877 33.3496L29.7544 31.8851L5.19316 12.283L2.66357 10.267C6.17688 4.13343 12.8234 0 20.4409 0C31.7314 0 40.882 9.08151 40.882 20.2868Z" fill="#FFB800"/>
<path id="Vector_3" d="M37.2569 11.9375C37.0812 11.9375 36.912 11.8424 36.8289 11.6744C35.3661 8.75822 33.1463 6.2509 30.4187 4.42509C30.1984 4.27927 30.1409 3.98131 30.2878 3.76577C30.4347 3.54705 30.7349 3.48999 30.9521 3.6358C33.8203 5.55354 36.1486 8.18765 37.6849 11.2497C37.8031 11.4843 37.7073 11.7695 37.4709 11.8868C37.4038 11.9217 37.3304 11.9375 37.2569 11.9375Z" fill="white"/>
<path id="Vector_4" d="M37.6881 20.2867C37.6881 25.52 35.3182 30.2082 31.5877 33.3495L29.7544 31.885C34.2035 28.3412 37.0493 22.9018 37.0493 16.7999C37.0493 16.3624 37.0333 15.9313 37.0046 15.5034C37.4485 17.0218 37.6881 18.6257 37.6881 20.2867Z" fill="#FFAA00"/>
<path id="Vector_5" d="M37.0495 16.8001C37.0495 22.902 34.2037 28.3414 29.7546 31.8852L5.19336 12.2831C8.08705 6.86275 13.8297 3.16992 20.4411 3.16992C28.2918 3.16992 34.9191 8.37792 37.0048 15.5037C37.0335 15.9316 37.0495 16.3627 37.0495 16.8001Z" fill="#EE8F00"/>
<path id="Vector_6" d="M34.1174 35.3688C30.4955 38.6052 25.7014 40.5737 20.4411 40.5737C9.15057 40.5737 0 31.4921 0 20.2869C0 16.6416 0.967757 13.2214 2.66373 10.2671L5.19331 12.2831C3.91574 14.67 3.19392 17.396 3.19392 20.2869C3.19392 26.8832 6.95635 32.6079 12.4659 35.4671C14.8517 36.7033 17.5633 37.4038 20.4411 37.4038C24.6922 37.4038 28.5824 35.8792 31.5878 33.3497L34.1174 35.3688Z" fill="#FFCE00"/>
<path id="Vector_7" d="M29.7545 31.8853C26.42 34.5448 22.1785 36.136 17.5665 36.136C15.8002 36.136 14.0915 35.9015 12.4658 35.4672C6.95628 32.608 3.19385 26.8834 3.19385 20.287C3.19385 17.3961 3.91567 14.6701 5.19324 12.2832L29.7545 31.8853Z" fill="#FFAA00"/>
<path id="Vector_8" d="M31.5878 33.3497C28.5823 35.8792 24.6921 37.4039 20.441 37.4039C17.5633 37.4039 14.8517 36.7034 12.4658 35.4671C14.0915 35.9014 15.8003 36.136 17.5665 36.136C22.1785 36.136 26.42 34.5447 29.7545 31.8853L31.5878 33.3497Z" fill="#FF8500"/>
<g id="Group">
<path id="Vector_9" d="M23.201 23.0127C21.6967 23.0127 20.4702 21.8082 20.4702 20.3279C20.4702 18.8476 21.6935 17.6431 23.201 17.6431C24.7085 17.6431 25.9318 18.8476 25.9318 20.3279C25.9318 21.8082 24.7085 23.0127 23.201 23.0127ZM23.201 18.2739C22.048 18.2739 21.109 19.1963 21.109 20.3279C21.109 21.4595 22.048 22.3819 23.201 22.3819C24.354 22.3819 25.293 21.4595 25.293 20.3279C25.293 19.1963 24.354 18.2739 23.201 18.2739Z" fill="#FF8500"/>
<path id="Vector_10" d="M27.8928 25.409C27.5159 25.409 27.1326 25.3392 26.7621 25.1934C25.9988 24.8955 25.4047 24.3186 25.0821 23.5768C24.7659 22.8414 24.7563 22.0268 25.0598 21.285L25.6506 21.5228C25.4111 22.1092 25.4175 22.7495 25.6698 23.3296C25.9221 23.916 26.3948 24.3693 26.9985 24.607C28.2409 25.0952 29.6494 24.5024 30.1445 23.2852C30.6747 21.9824 30.6555 20.3468 30.6555 20.3309C30.6555 15.4177 26.5896 11.4269 21.5944 11.4269C17.4902 11.4269 13.8874 14.1466 12.8366 18.0392L12.2202 17.8743C13.3477 13.706 17.2027 10.793 21.5944 10.793C26.941 10.793 31.2911 15.069 31.2911 20.3246C31.2911 20.3912 31.3134 22.0965 30.7322 23.5198C30.2531 24.6926 29.1033 25.409 27.8928 25.409Z" fill="#FF8500"/>
<path id="Vector_11" d="M28.6112 20.3277H27.9756C27.9756 17.3069 25.4747 14.8503 22.399 14.8503C19.6969 14.8503 17.4931 16.6412 16.9182 19.307L16.2954 19.1739C16.9374 16.2101 19.3871 14.2163 22.399 14.2163C25.8261 14.2163 28.6143 16.9582 28.6143 20.3245L28.6112 20.3277Z" fill="#FF8500"/>
<path id="Vector_12" d="M20.9109 33.2828C18.771 33.2828 17.0303 31.5647 17.0303 29.4505C17.0303 27.3362 18.771 25.6182 20.9109 25.6182C23.0508 25.6182 24.7915 27.3362 24.7915 29.4505C24.7915 31.5647 23.0508 33.2828 20.9109 33.2828ZM20.9109 26.249C19.1223 26.249 17.6659 27.6849 17.6659 29.4505C17.6659 31.2161 19.1223 32.652 20.9109 32.652C22.6995 32.652 24.1559 31.2161 24.1559 29.4505C24.1559 27.6849 22.6995 26.249 20.9109 26.249Z" fill="#FF8500"/>
<path id="Vector_13" d="M18.7198 21.9921C18.5921 21.9921 18.4611 21.9825 18.3302 21.9604C17.6786 21.8558 17.1069 21.5102 16.7236 20.9809C16.3436 20.4579 16.1903 19.8239 16.2957 19.1899L16.9249 19.2914C16.8482 19.7573 16.96 20.2265 17.2411 20.6132C17.5253 21.0031 17.9501 21.2598 18.4324 21.3391C19.4257 21.4976 20.3583 20.8319 20.518 19.8588L21.1472 19.9602C20.9524 21.1457 19.908 21.9952 18.723 21.9952L18.7198 21.9921Z" fill="#FF8500"/>
<path id="Vector_14" d="M31.6647 25.6468C31.4411 25.6468 31.2144 25.6024 30.9972 25.5105C30.582 25.333 30.2626 25.0065 30.0997 24.5912C29.9368 24.1791 29.9464 23.729 30.1252 23.3233L30.7097 23.5769C30.5979 23.8273 30.5947 24.1031 30.6937 24.3566C30.7959 24.6134 30.994 24.8163 31.2527 24.9272C31.7829 25.1523 32.4025 24.9145 32.6324 24.3947C33.2105 22.7844 33.3351 21.2914 33.3351 20.3246C33.3351 13.5286 27.7074 8.00042 20.7894 8.00042C15.0148 8.00042 10.0036 11.8613 8.60143 17.3862C8.36188 18.3847 8.53116 19.4181 9.08051 20.2961C9.63626 21.1868 10.5114 21.805 11.543 22.0459C13.6638 22.5372 15.7941 21.2407 16.2924 19.1582L16.912 19.304C16.3339 21.7257 13.8586 23.2282 11.3961 22.6608C10.1952 22.385 9.17953 21.6623 8.53435 20.629C7.89876 19.6083 7.70074 18.4037 7.97861 17.2373C9.45101 11.427 14.7178 7.36963 20.783 7.36963C28.0524 7.36963 33.9643 13.1831 33.9643 20.3246C33.9643 21.339 33.8366 22.9112 33.2169 24.6261C32.9359 25.2664 32.3099 25.6436 31.6583 25.6436L31.6647 25.6468Z" fill="#FF8500"/>
</g>
<g id="Group_2">
<path id="Vector_15" d="M22.8016 22.6162C21.2973 22.6162 20.0708 21.4117 20.0708 19.9314C20.0708 18.4511 21.2941 17.2466 22.8016 17.2466C24.3091 17.2466 25.5324 18.4511 25.5324 19.9314C25.5324 21.4117 24.3091 22.6162 22.8016 22.6162ZM22.8016 17.8774C21.6486 17.8774 20.7096 18.7998 20.7096 19.9314C20.7096 21.063 21.6486 21.9855 22.8016 21.9855C23.9546 21.9855 24.8936 21.063 24.8936 19.9314C24.8936 18.7998 23.9546 17.8774 22.8016 17.8774Z" fill="white"/>
<path id="Vector_16" d="M27.4934 25.013C27.1165 25.013 26.7332 24.9432 26.3627 24.7974C25.5994 24.4995 25.0053 23.9226 24.6827 23.1808C24.3665 22.4454 24.3569 21.6308 24.6603 20.889L25.2512 21.1268C25.0117 21.7132 25.0181 22.3535 25.2704 22.9336C25.5227 23.52 25.9954 23.9733 26.5991 24.211C27.8415 24.6992 29.25 24.1064 29.7451 22.8892C30.2753 21.5864 30.2561 19.9508 30.2561 19.9349C30.2561 15.0217 26.1902 11.0309 21.1949 11.0309C17.0908 11.0309 13.488 13.7506 12.4372 17.6432L11.8208 17.4783C12.9483 13.31 16.8033 10.397 21.1949 10.397C26.5416 10.397 30.8917 14.673 30.8917 19.9286C30.8917 19.9952 30.914 21.7005 30.3327 23.1238C29.8537 24.2966 28.7038 25.013 27.4934 25.013Z" fill="white"/>
<path id="Vector_17" d="M28.2117 19.9283H27.5761C27.5761 16.9075 25.0753 14.4509 21.9996 14.4509C19.2975 14.4509 17.0937 16.2418 16.5188 18.9076L15.896 18.7745C16.538 15.8107 18.9877 13.8169 21.9996 13.8169C25.4266 13.8169 28.2149 16.5588 28.2149 19.9251L28.2117 19.9283Z" fill="white"/>
<path id="Vector_18" d="M20.5115 32.8868C18.3715 32.8868 16.6309 31.1687 16.6309 29.0545C16.6309 26.9402 18.3715 25.2222 20.5115 25.2222C22.6514 25.2222 24.3921 26.9402 24.3921 29.0545C24.3921 31.1687 22.6514 32.8868 20.5115 32.8868ZM20.5115 25.853C18.7229 25.853 17.2664 27.2889 17.2664 29.0545C17.2664 30.8201 18.7229 32.256 20.5115 32.256C22.3001 32.256 23.7565 30.8201 23.7565 29.0545C23.7565 27.2889 22.3001 25.853 20.5115 25.853Z" fill="white"/>
<path id="Vector_19" d="M18.317 21.5956C18.1893 21.5956 18.0583 21.5861 17.9274 21.5639C17.2758 21.4593 16.7041 21.1138 16.3208 20.5844C15.9407 20.0614 15.7874 19.4274 15.8928 18.7935L16.522 18.8949C16.4454 19.3609 16.5572 19.83 16.8382 20.2167C17.1225 20.6066 17.5473 20.8633 18.0296 20.9426C19.0229 21.1011 19.9555 20.4354 20.1152 19.4623L20.7444 19.5637C20.5496 20.7492 19.5052 21.5987 18.3202 21.5987L18.317 21.5956Z" fill="white"/>
<path id="Vector_20" d="M31.2653 25.2473C31.0417 25.2473 30.8149 25.203 30.5978 25.111C30.1825 24.9335 29.8631 24.607 29.7003 24.1918C29.5374 23.7797 29.547 23.3296 29.7258 22.9239L30.3103 23.1775C30.1985 23.4279 30.1953 23.7036 30.2943 23.9572C30.3965 24.214 30.5946 24.4169 30.8533 24.5278C31.3835 24.7529 32.0031 24.5151 32.233 23.9953C32.8111 22.385 32.9357 20.892 32.9357 19.9252C32.9357 13.1292 27.308 7.60101 20.39 7.60101C14.6154 7.60101 9.60414 11.4618 8.20201 16.9868C7.96247 17.9853 8.13175 19.0187 8.6811 19.8967C9.23684 20.7874 10.112 21.4055 11.1436 21.6464C13.2644 22.1378 15.3947 20.8413 15.893 18.7587L16.5126 18.9046C15.9345 21.3263 13.4592 22.8288 10.9967 22.2614C9.79578 21.9856 8.78011 21.2629 8.13494 20.2295C7.49935 19.2089 7.30133 18.0043 7.5792 16.8378C9.05159 11.0276 14.3184 6.97021 20.3836 6.97021C27.653 6.97021 33.5649 12.7836 33.5649 19.9252C33.5649 20.9396 33.4371 22.5118 32.8175 24.2267C32.5365 24.867 31.9104 25.2442 31.2589 25.2442L31.2653 25.2473Z" fill="white"/>
</g>
</g>
</g>
<defs>
<clipPath id="clip0_5068_11594">
<rect width="42" height="42" fill="white"/>
</clipPath>
</defs>
</svg>
