<svg width="53" height="61" viewBox="0 0 53 61" fill="none" xmlns="http://www.w3.org/2000/svg">
<g clip-path="url(#clip0_7081_7365)">
<path d="M24.729 30.0332L25.4234 16.6572L25.989 29.7048L24.729 30.0332Z" fill="#2C3D5B"/>
<path d="M47.3749 0.0359619C46.8933 0.603732 46.5685 1.67248 46.3389 2.98058C45.6557 7.0496 45.9973 13.3563 45.9973 13.3563C44.9557 14.9205 40.1398 17.2917 36.2087 16.39H36.1807C35.5031 16.2286 34.848 15.9669 34.2488 15.594C30.1665 13.0335 25.4234 16.6627 25.4234 16.6627L25.373 11.6808V11.6641L25.3114 5.30176C25.3114 5.30176 27.6409 1.47765 34.0528 2.32931C34.5624 2.39611 35.0888 2.49073 35.6487 2.6132C43.2758 4.3666 47.3693 0.0303955 47.3693 0.0303955L47.3749 0.0359619Z" fill="#FB923C"/>
<path d="M34.0584 2.32936C28.6545 2.71344 25.989 5.30738 25.989 5.30738L25.3786 11.6586L25.317 5.29624C25.317 5.29624 27.6466 1.47214 34.0584 2.3238V2.32936Z" fill="#F1F5F9"/>
<path d="M46.3389 2.98059C45.6557 7.04961 45.9973 13.3563 45.9973 13.3563C44.9557 14.9205 40.1398 17.2918 36.2087 16.39H36.1807L34.2488 15.594L34.9376 5.15704L46.3389 2.98059Z" fill="url(#paint0_linear_7081_7365)"/>
<path d="M26.7057 60.0359C35.22 60.0359 42.1221 53.175 42.1221 44.7117C42.1221 36.2483 35.22 29.3875 26.7057 29.3875C18.1915 29.3875 11.2893 36.2483 11.2893 44.7117C11.2893 53.175 18.1915 60.0359 26.7057 60.0359Z" fill="url(#paint1_linear_7081_7365)"/>
<path d="M38.2471 34.5475C38.5999 34.9428 38.9303 35.3547 39.2327 35.7721C39.8599 36.6405 40.3863 37.5534 40.8063 38.5052C41.8366 40.8208 42.2566 43.3257 42.083 45.7916C42.027 46.6655 41.887 47.545 41.6686 48.3911C40.9463 51.3079 39.3615 54.0354 36.9311 56.1785C30.5529 61.795 20.8147 61.2049 15.1701 54.8704C13.6413 53.1559 12.5773 51.2021 11.9558 49.1482C11.6366 48.1072 11.435 47.0329 11.3454 45.953C11.1718 43.8712 11.435 41.7616 12.1126 39.7744C12.4822 38.6945 12.9693 37.648 13.5853 36.6683C14.3581 35.4159 15.3213 34.2637 16.4861 33.2394C22.8587 27.6285 32.6025 28.213 38.2471 34.5475Z" fill="url(#paint2_linear_7081_7365)"/>
<path opacity="0.37" d="M39.2327 35.7721C39.8599 36.6405 40.3863 37.5534 40.8062 38.5052C40.2575 38.4384 39.7591 38.4106 39.3335 38.4496C36.0968 38.7279 31.8633 44.4891 22.3659 40.6817C18.1548 38.9951 14.6773 39.1676 12.1125 39.7744C12.4821 38.6945 12.9693 37.648 13.5853 36.6683C16.346 35.9224 20.0476 35.6775 23.7043 37.687C30.9785 41.6669 32.524 35.1654 36.8359 35.5216C37.6423 35.5884 38.4431 35.6664 39.2327 35.7666V35.7721Z" fill="#1E293B"/>
<path opacity="0.37" d="M42.083 45.7916C42.027 46.6656 41.887 47.5451 41.6686 48.3912C40.5878 48.1963 39.6022 48.0794 38.8463 48.1407C35.2735 48.4468 30.5921 54.8036 20.1091 50.601C17.0068 49.3597 14.2741 49.0313 11.9557 49.1482C11.6365 48.1073 11.4349 47.033 11.3453 45.9531C14.2741 45.3241 17.9476 45.3018 21.5875 47.3001C29.6233 51.7087 31.3144 44.5169 36.0855 44.9177C38.1631 45.0959 40.2014 45.3408 42.083 45.7972V45.7916Z" fill="#1E293B"/>
<path d="M41.1758 39.2065C44.3733 38.7501 47.5484 38.11 50.7963 38.7668C51.4515 38.9171 52.2747 39.5349 52.1627 40.3532C51.8435 42.5742 46.4677 44.2831 44.5805 45.0735C32.6136 49.1982 20.2211 51.7253 7.55981 52.3599C5.96385 52.3877 4.36789 52.41 2.69913 52.1539C2.02155 52.037 1.22077 51.8867 0.610384 51.4247C-2.09995 48.8252 5.04547 46.8714 6.68623 46.3259C8.1982 45.8695 9.72136 45.4854 11.2557 45.1403L11.4181 45.6747C8.56779 46.7768 5.57186 47.8567 2.96233 49.3874C2.53674 49.6602 2.09995 49.9274 1.80315 50.2836C1.73036 50.3671 1.73596 50.4451 1.76956 50.3115C1.78635 50.2224 1.74716 50.0888 1.70236 50.0276C3.41031 50.5341 5.53266 50.3003 7.45342 50.2001C10.5109 49.9441 13.5909 49.5489 16.6484 49.0535C22.7746 48.0738 28.8785 46.8659 34.9039 45.4075C37.9279 44.7061 40.9182 43.8879 43.8637 42.9917C46.0813 42.2291 48.5396 41.6056 50.3932 40.2196C50.4884 40.1417 50.4716 40.0916 50.4716 40.2029C50.4604 40.2697 50.5052 40.3588 50.5276 40.4089C50.13 40.1417 48.9932 39.958 48.1868 39.8856C45.8797 39.6797 43.5557 39.7242 41.2262 39.7743L41.1702 39.2177L41.1758 39.2065Z" fill="#4CB0D8"/>
</g>
<defs>
<linearGradient id="paint0_linear_7081_7365" x1="30.4176" y1="19.1518" x2="47.1786" y2="2.50147" gradientUnits="userSpaceOnUse">
<stop stop-color="#DD5E00"/>
<stop offset="1" stop-color="#FF8806" stop-opacity="0"/>
</linearGradient>
<linearGradient id="paint1_linear_7081_7365" x1="26.191" y1="63.1429" x2="27.1935" y2="26.9615" gradientUnits="userSpaceOnUse">
<stop stop-color="#06A5FF"/>
<stop offset="1" stop-color="#1E293B"/>
</linearGradient>
<linearGradient id="paint2_linear_7081_7365" x1="23.5655" y1="77.8077" x2="26.5112" y2="46.4063" gradientUnits="userSpaceOnUse">
<stop stop-color="#DD5E00"/>
<stop offset="1" stop-color="#FF8806" stop-opacity="0"/>
</linearGradient>
<clipPath id="clip0_7081_7365">
<rect width="52.1739" height="60" fill="white" transform="translate(0 0.0360107)"/>
</clipPath>
</defs>
</svg>
