<svg width="137" height="160" viewBox="0 0 137 160" fill="none" xmlns="http://www.w3.org/2000/svg">
<g clip-path="url(#clip0_1843_12760)">
<path d="M60.5029 132.375C60.5029 132.375 52.7939 131.868 50.7523 132.68C48.7107 133.491 43.0349 136.533 43.0603 146.724C43.0857 156.915 48.7785 159.62 50.0238 159.89C51.2606 160.152 60.5029 159.89 60.5029 159.89V132.384V132.375Z" fill="#2C3D5B"/>
<path d="M60.5029 159.882C67.287 159.882 72.7865 153.722 72.7865 146.124C72.7865 138.527 67.287 132.367 60.5029 132.367C53.7189 132.367 48.2194 138.527 48.2194 146.124C48.2194 153.722 53.7189 159.882 60.5029 159.882Z" fill="#FB923C"/>
<path d="M61.1891 150.552C62.9529 150.552 64.3828 148.619 64.3828 146.234C64.3828 143.849 62.9529 141.916 61.1891 141.916C59.4252 141.916 57.9954 143.849 57.9954 146.234C57.9954 148.619 59.4252 150.552 61.1891 150.552Z" fill="#1E293B"/>
<path d="M26.0158 132.375C26.0158 132.375 18.3068 131.868 16.2651 132.68C14.2235 133.491 8.54767 136.533 8.57308 146.724C8.5985 156.915 14.2913 159.62 15.5366 159.89C16.7734 160.152 26.0158 159.89 26.0158 159.89V132.384V132.375Z" fill="#2C3D5B"/>
<path d="M26.0158 159.882C32.7998 159.882 38.2993 153.722 38.2993 146.124C38.2993 138.527 32.7998 132.367 26.0158 132.367C19.2317 132.367 13.7322 138.527 13.7322 146.124C13.7322 153.722 19.2317 159.882 26.0158 159.882Z" fill="#FB923C"/>
<path d="M26.7019 150.552C28.4658 150.552 29.8956 148.619 29.8956 146.234C29.8956 143.849 28.4658 141.916 26.7019 141.916C24.9381 141.916 23.5082 143.849 23.5082 146.234C23.5082 148.619 24.9381 150.552 26.7019 150.552Z" fill="#1E293B"/>
<path d="M10.0725 112.729H63.0783L71.4989 138.502H0L10.0725 112.729Z" fill="#F1F5F9"/>
<path d="M10.0725 112.729H63.0783L71.4989 138.502H0L10.0725 112.729Z" fill="url(#paint0_linear_1843_12760)"/>
<path d="M109.273 18.2444L105.317 51.9362H28.7182L24.9823 18.2444H109.273Z" fill="white"/>
<path d="M83.2234 18.2444V51.9362H28.7182L24.9823 18.2444H83.2234Z" fill="#DE6501"/>
<path d="M78.5387 81.6225H59.0035L64.1711 51.9277H75.0908L78.5387 81.6225Z" fill="#F1F5F9"/>
<path d="M78.5387 81.6225H59.0035L64.1711 51.9277H75.0908L78.5387 81.6225Z" fill="url(#paint1_linear_1843_12760)"/>
<path d="M34.97 81.6226H104.834L115.067 124.948H19.8231L34.97 81.6226Z" fill="#F1F5F9"/>
<path d="M34.97 81.6226H104.834L115.067 124.948H19.8231L34.97 81.6226Z" fill="url(#paint2_linear_1843_12760)"/>
<path d="M74.286 112.729H127.292L135.712 138.502H64.2135L74.286 112.729Z" fill="#F1F5F9"/>
<path d="M124.725 132.375C124.725 132.375 117.016 131.868 114.974 132.68C112.933 133.482 107.257 136.533 107.282 146.724C107.308 156.73 113 159.62 114.246 159.89C115.483 160.152 124.725 159.89 124.725 159.89V132.384V132.375Z" fill="#FEFFFF"/>
<path d="M124.725 159.882C131.509 159.882 137.008 153.722 137.008 146.124C137.008 138.527 131.509 132.367 124.725 132.367C117.941 132.367 112.441 138.527 112.441 146.124C112.441 153.722 117.941 159.882 124.725 159.882Z" fill="#FB923C"/>
<path d="M125.403 150.552C127.166 150.552 128.596 148.619 128.596 146.234C128.596 143.849 127.166 141.916 125.403 141.916C123.639 141.916 122.209 143.849 122.209 146.234C122.209 148.619 123.639 150.552 125.403 150.552Z" fill="#1E293B"/>
<path d="M90.2293 132.375C90.2293 132.375 82.5203 131.868 80.4786 132.68C78.437 133.482 72.7612 136.533 72.7866 146.724C72.812 156.915 78.5048 159.62 79.7501 159.89C80.9869 160.152 90.2293 159.89 90.2293 159.89V132.384V132.375Z" fill="#FEFFFF"/>
<path d="M90.2293 159.882C97.0133 159.882 102.513 153.722 102.513 146.124C102.513 138.527 97.0133 132.367 90.2293 132.367C83.4452 132.367 77.9457 138.527 77.9457 146.124C77.9457 153.722 83.4452 159.882 90.2293 159.882Z" fill="#FB923C"/>
<path d="M90.9154 150.552C92.6793 150.552 94.1091 148.619 94.1091 146.234C94.1091 143.849 92.6793 141.916 90.9154 141.916C89.1516 141.916 87.7217 143.849 87.7217 146.234C87.7217 148.619 89.1516 150.552 90.9154 150.552Z" fill="#1E293B"/>
<path d="M107.536 33.041L87.9249 51.9361H105.317L107.536 33.041Z" fill="url(#paint3_linear_1843_12760)"/>
<path d="M75.904 77.3972L73.6591 57.6401V77.3972H75.904Z" fill="#F1F5F9"/>
<path d="M72.2951 86.5237H40.0105L29.8956 116.218L43.0602 89.9461L72.2951 86.5237Z" fill="#2C3D5B"/>
<path d="M69.5165 124.948L74.2859 112.728H112.441L73.659 111.317L66.5092 124.948H69.5165Z" fill="#2C3D5B"/>
<path d="M9.18302 141.392H13.1053L8.83569 143.082L9.18302 141.392Z" fill="#F1F5F9"/>
<path d="M8.61548 148.119H12.6733L8.81032 149.995L8.61548 148.119Z" fill="#F1F5F9"/>
<path d="M43.594 141.688H47.3976L43.2805 143.378L43.594 141.688Z" fill="#F1F5F9"/>
<path d="M43.1027 148.026H46.991L43.2806 149.885L43.1027 148.026Z" fill="#F1F5F9"/>
<path d="M73.7946 140.057H77.3949L73.2778 141.874L73.7946 140.057Z" fill="#2C3D5B"/>
<path d="M72.7865 146.716H76.4377L72.7865 149.099V146.716Z" fill="#2C3D5B"/>
<path d="M108.68 139.026H112.06L107.994 140.961C107.994 140.961 107.901 139.567 108.68 139.026Z" fill="#2C3D5B"/>
<path d="M107.274 145.127H111.442L107.291 147.299C107.291 147.299 106.706 145.829 107.282 145.127H107.274Z" fill="#2C3D5B"/>
<path d="M46.4743 11.0362C45.8389 11.0362 45.5255 10.7236 45.5255 10.0898C45.5255 9.29545 45.661 8.65321 45.9406 8.17154C46.2201 7.68987 46.5505 7.3096 46.9317 7.03074C47.3129 6.75187 47.6687 6.52371 47.9991 6.3378C48.3295 6.14344 48.6091 5.95754 48.8463 5.79698C49.0835 5.63642 49.2529 5.42516 49.3715 5.18855C49.4901 4.95194 49.5494 4.61392 49.5494 4.1914C49.5494 3.29566 49.3884 2.68723 49.075 2.37456C48.7616 2.0619 48.1516 1.90134 47.2536 1.90134H45.7373C44.8478 1.90134 44.2378 2.0619 43.9244 2.38301C43.6109 2.70413 43.45 3.30411 43.45 4.18295C43.45 4.81673 43.1365 5.1294 42.5012 5.1294C41.8658 5.1294 41.5524 4.81673 41.5524 4.18295C41.5524 2.78018 41.8997 1.73233 42.5944 1.0394C43.289 0.346467 44.3395 0 45.7457 0H47.2621C48.6853 0 49.7358 0.346467 50.422 1.03095C51.1081 1.71543 51.4555 2.77173 51.4555 4.18295C51.4555 4.97729 51.3199 5.61952 51.0404 6.10119C50.7608 6.58287 50.4304 6.96313 50.0492 7.242C49.6595 7.52086 49.3122 7.74902 48.9818 7.93493C48.6514 8.12929 48.3719 8.3152 48.1347 8.47576C47.9059 8.64476 47.728 8.84757 47.6094 9.08419C47.4908 9.3208 47.4315 9.65881 47.4315 10.0813C47.4315 10.7151 47.1181 11.0278 46.4827 11.0278L46.4743 11.0362ZM46.2032 14.7882C45.6017 14.7882 45.2967 14.484 45.2967 13.884V13.3178C45.2967 12.7263 45.6017 12.439 46.2032 12.439H46.7454C47.3214 12.439 47.6094 12.7348 47.6094 13.3178V13.884C47.6094 14.484 47.3214 14.7882 46.7454 14.7882H46.2032Z" fill="#DE6501"/>
<path d="M58.0547 11.0362C57.4194 11.0362 57.1059 10.7236 57.1059 10.0898C57.1059 9.29545 57.2415 8.65321 57.521 8.17154C57.8006 7.68987 58.131 7.3096 58.5122 7.03074C58.8934 6.75187 59.2492 6.52371 59.5796 6.3378C59.91 6.14344 60.1895 5.95754 60.4267 5.79698C60.6639 5.63642 60.8333 5.42516 60.9519 5.18855C61.0705 4.95194 61.1298 4.61392 61.1298 4.1914C61.1298 3.29566 60.9689 2.68723 60.6554 2.37456C60.342 2.0619 59.7321 1.90134 58.8341 1.90134H57.3177C56.4282 1.90134 55.8183 2.0619 55.5048 2.38301C55.1914 2.70413 55.0304 3.30411 55.0304 4.18295C55.0304 4.81673 54.717 5.1294 54.0816 5.1294C53.4463 5.1294 53.1328 4.81673 53.1328 4.18295C53.1328 2.78018 53.4801 1.73233 54.1748 1.0394C54.8695 0.346467 55.9199 0 57.3262 0H58.8426C60.2658 0 61.3162 0.346467 62.0024 1.03095C62.6886 1.71543 63.0359 2.77173 63.0359 4.18295C63.0359 4.97729 62.9004 5.61952 62.6208 6.10119C62.3413 6.58287 62.0109 6.96313 61.6297 7.242C61.24 7.52086 60.8926 7.74902 60.5623 7.93493C60.2319 8.12929 59.9523 8.3152 59.7151 8.47576C59.4864 8.64476 59.3085 8.84757 59.1899 9.08419C59.0713 9.3208 59.012 9.65881 59.012 10.0813C59.012 10.7151 58.6985 11.0278 58.0632 11.0278L58.0547 11.0362ZM57.7836 14.7882C57.1822 14.7882 56.8772 14.484 56.8772 13.884V13.3178C56.8772 12.7263 57.1822 12.439 57.7836 12.439H58.3258C58.9019 12.439 59.1899 12.7348 59.1899 13.3178V13.884C59.1899 14.484 58.9019 14.7882 58.3258 14.7882H57.7836Z" fill="#DE6501"/>
<path d="M69.6352 11.0362C68.9998 11.0362 68.6864 10.7236 68.6864 10.0898C68.6864 9.29545 68.8219 8.65321 69.1015 8.17154C69.381 7.68987 69.7114 7.3096 70.0926 7.03074C70.4738 6.75187 70.8296 6.52371 71.16 6.3378C71.4904 6.14344 71.77 5.95754 72.0072 5.79698C72.2444 5.63642 72.4138 5.42516 72.5324 5.18855C72.651 4.95194 72.7103 4.61392 72.7103 4.1914C72.7103 3.29566 72.5493 2.68723 72.2359 2.37456C71.9224 2.0619 71.3125 1.90134 70.4145 1.90134H68.8981C68.0086 1.90134 67.3987 2.0619 67.0853 2.38301C66.7718 2.70413 66.6109 3.30411 66.6109 4.18295C66.6109 4.81673 66.2974 5.1294 65.6621 5.1294C65.0267 5.1294 64.7133 4.81673 64.7133 4.18295C64.7133 2.78018 65.0606 1.73233 65.7552 1.0394C66.4499 0.346467 67.5004 0 68.9066 0H70.423C71.8462 0 72.8967 0.346467 73.5828 1.03095C74.269 1.71543 74.6164 2.77173 74.6164 4.18295C74.6164 4.97729 74.4808 5.61952 74.2013 6.10119C73.9217 6.58287 73.5913 6.96313 73.2101 7.242C72.8204 7.52086 72.4731 7.74902 72.1427 7.93493C71.8123 8.12929 71.5328 8.3152 71.2956 8.47576C71.0668 8.64476 70.8889 8.84757 70.7703 9.08419C70.6517 9.3208 70.5924 9.65881 70.5924 10.0813C70.5924 10.7151 70.279 11.0278 69.6436 11.0278L69.6352 11.0362ZM69.3641 14.7882C68.7626 14.7882 68.4576 14.484 68.4576 13.884V13.3178C68.4576 12.7263 68.7626 12.439 69.3641 12.439H69.9062C70.4823 12.439 70.7703 12.7348 70.7703 13.3178V13.884C70.7703 14.484 70.4823 14.7882 69.9062 14.7882H69.3641Z" fill="#DE6501"/>
<path d="M81.2156 11.0362C80.5802 11.0362 80.2668 10.7236 80.2668 10.0898C80.2668 9.29545 80.4023 8.65321 80.6819 8.17154C80.9615 7.68987 81.2919 7.3096 81.6731 7.03074C82.0543 6.75187 82.4101 6.52371 82.7405 6.3378C83.0708 6.14344 83.3504 5.95754 83.5876 5.79698C83.8248 5.63642 83.9942 5.42516 84.1128 5.18855C84.2314 4.95194 84.2907 4.61392 84.2907 4.1914C84.2907 3.29566 84.1298 2.68723 83.8163 2.37456C83.5029 2.0619 82.8929 1.90134 81.995 1.90134H80.4786C79.5891 1.90134 78.9791 2.0619 78.6657 2.38301C78.3523 2.70413 78.1913 3.30411 78.1913 4.18295C78.1913 4.81673 77.8779 5.1294 77.2425 5.1294C76.6071 5.1294 76.2937 4.81673 76.2937 4.18295C76.2937 2.78018 76.641 1.73233 77.3357 1.0394C78.0303 0.346467 79.0808 0 80.4871 0H82.0034C83.4267 0 84.4771 0.346467 85.1633 1.03095C85.8495 1.71543 86.1968 2.77173 86.1968 4.18295C86.1968 4.97729 86.0613 5.61952 85.7817 6.10119C85.5021 6.58287 85.1718 6.96313 84.7905 7.242C84.4009 7.52086 84.0535 7.74902 83.7231 7.93493C83.3928 8.12929 83.1132 8.3152 82.876 8.47576C82.6473 8.64476 82.4694 8.84757 82.3508 9.08419C82.2322 9.3208 82.1729 9.65881 82.1729 10.0813C82.1729 10.7151 81.8594 11.0278 81.2241 11.0278L81.2156 11.0362ZM80.9445 14.7882C80.343 14.7882 80.0381 14.484 80.0381 13.884V13.3178C80.0381 12.7263 80.343 12.439 80.9445 12.439H81.4867C82.0627 12.439 82.3508 12.7348 82.3508 13.3178V13.884C82.3508 14.484 82.0627 14.7882 81.4867 14.7882H80.9445Z" fill="#DE6501"/>
<path d="M48.8971 39.4465H44.6614L43.8142 30.9961L48.8971 27.616V39.4465Z" fill="#FED7AA"/>
<path d="M59.9099 39.4465H55.6742V27.616L60.7571 30.9961L59.9099 39.4465Z" fill="#FED7AA"/>
<path d="M40.4257 45.3617V42.4885H66.6871V45.556" stroke="#FED7AA" stroke-width="3" stroke-miterlimit="10"/>
</g>
<defs>
<linearGradient id="paint0_linear_1843_12760" x1="6.19262" y1="173.766" x2="46.7136" y2="117.087" gradientUnits="userSpaceOnUse">
<stop offset="0.27" stop-color="white" stop-opacity="0"/>
<stop offset="0.67" stop-color="#F7AB00"/>
<stop offset="1" stop-color="#004794"/>
</linearGradient>
<linearGradient id="paint1_linear_1843_12760" x1="68.5085" y1="77.6592" x2="76.2913" y2="47.7522" gradientUnits="userSpaceOnUse">
<stop stop-color="#1D2E43" stop-opacity="0"/>
<stop offset="1" stop-color="#1E293B"/>
</linearGradient>
<linearGradient id="paint2_linear_1843_12760" x1="94.8122" y1="148.795" x2="6.51836" y2="24.4849" gradientUnits="userSpaceOnUse">
<stop offset="0.27" stop-color="white" stop-opacity="0"/>
<stop offset="0.67" stop-color="#F7AB00"/>
<stop offset="1" stop-color="#004794"/>
</linearGradient>
<linearGradient id="paint3_linear_1843_12760" x1="87.7301" y1="62.8963" x2="112.308" y2="32.4236" gradientUnits="userSpaceOnUse">
<stop offset="0.27" stop-color="white" stop-opacity="0"/>
<stop offset="0.67" stop-color="#F7AB00"/>
<stop offset="1" stop-color="#004794"/>
</linearGradient>
<clipPath id="clip0_1843_12760">
<rect width="137" height="160" fill="white"/>
</clipPath>
</defs>
</svg>
