<svg width="150" height="150" viewBox="0 0 150 150" fill="none" xmlns="http://www.w3.org/2000/svg">
<path d="M82.9333 57.4336H67.0667V137.184H82.9333V57.4336Z" fill="#06A5FF"/>
<path d="M134.017 78.7165H17.3501V65.2998L29.9668 60.5998L17.3501 55.0831V12.0498H134.017V25.6998L125.5 28.7498L134.017 36.7165V78.7165Z" fill="#FED7AA"/>
<path d="M134.017 75.5329H17.3501V62.1162L29.9668 57.4329L17.3501 51.9162V8.86621H134.017V22.5162L125.5 25.5829L134.017 33.5495V75.5329Z" fill="#FFEDD5"/>
<path d="M39.4019 49.1606C37.5747 49.1606 35.8111 48.9443 34.1113 48.5118C32.4328 48.0586 31.0624 47.4818 30 46.7815L32.0716 42.2704C33.0702 42.8884 34.2176 43.4033 35.5137 43.8153C36.831 44.2067 38.1377 44.4024 39.4338 44.4024C40.3049 44.4024 41.0061 44.3303 41.5373 44.1861C42.0685 44.0213 42.4509 43.8153 42.6846 43.5681C42.9396 43.3003 43.0671 42.9914 43.0671 42.6412C43.0671 42.1468 42.8334 41.7554 42.3659 41.4671C41.8985 41.1787 41.2929 40.9418 40.5493 40.7564C39.8056 40.571 38.977 40.3856 38.0633 40.2003C37.171 40.0149 36.2679 39.778 35.3543 39.4896C34.4619 39.2012 33.6439 38.8304 32.9003 38.3773C32.1566 37.9035 31.5511 37.2959 31.0836 36.5543C30.6162 35.7922 30.3825 34.8343 30.3825 33.6808C30.3825 32.3831 30.7437 31.209 31.4661 30.1585C32.2097 29.1079 33.3146 28.2634 34.7806 27.6248C36.2467 26.9863 38.074 26.667 40.2624 26.667C41.7285 26.667 43.1627 26.8318 44.565 27.1614C45.9886 27.4703 47.2528 27.9338 48.3577 28.5518L46.4135 33.0937C45.3512 32.5376 44.2994 32.1256 43.2583 31.8578C42.2172 31.5695 41.2079 31.4253 40.2306 31.4253C39.3594 31.4253 38.6583 31.518 38.1271 31.7033C37.5959 31.8681 37.2135 32.0947 36.9797 32.3831C36.746 32.6715 36.6292 33.0011 36.6292 33.3718C36.6292 33.8456 36.8522 34.2267 37.2984 34.515C37.7659 34.7828 38.3714 35.0094 39.1151 35.1948C39.88 35.3596 40.7086 35.5347 41.601 35.7201C42.5147 35.9055 43.4177 36.1423 44.31 36.4307C45.2237 36.6985 46.0523 37.0693 46.796 37.543C47.5396 37.9962 48.1346 38.6039 48.5807 39.366C49.0482 40.1076 49.2819 41.0448 49.2819 42.1777C49.2819 43.4342 48.9101 44.598 48.1664 45.6692C47.444 46.7197 46.3498 47.5642 44.8837 48.2028C43.4389 48.8414 41.6116 49.1606 39.4019 49.1606Z" fill="#FB7200"/>
<path d="M60.5789 49.0061C58.6879 49.0061 57.0094 48.6354 55.5433 47.8938C54.0772 47.1523 52.9193 46.1326 52.0694 44.8349C51.2407 43.5166 50.8264 42.0129 50.8264 40.3238C50.8264 38.6348 51.2407 37.1414 52.0694 35.8437C52.9193 34.5459 54.0772 33.5366 55.5433 32.8157C57.0094 32.0741 58.6879 31.7033 60.5789 31.7033C62.4699 31.7033 64.1484 32.0741 65.6145 32.8157C67.1018 33.5366 68.2598 34.5459 69.0884 35.8437C69.9171 37.1414 70.3314 38.6348 70.3314 40.3238C70.3314 42.0129 69.9171 43.5166 69.0884 44.8349C68.2598 46.1326 67.1018 47.1523 65.6145 47.8938C64.1484 48.6354 62.4699 49.0061 60.5789 49.0061ZM60.5789 44.3406C61.2801 44.3406 61.8962 44.1861 62.4274 43.8771C62.9799 43.5681 63.4154 43.115 63.7341 42.5176C64.0528 41.8996 64.2122 41.1684 64.2122 40.3238C64.2122 39.4793 64.0528 38.7687 63.7341 38.1919C63.4154 37.5945 62.9799 37.1414 62.4274 36.8324C61.8962 36.5234 61.2801 36.3689 60.5789 36.3689C59.899 36.3689 59.2828 36.5234 58.7304 36.8324C58.1992 37.1414 57.7636 37.5945 57.4237 38.1919C57.105 38.7687 56.9456 39.4793 56.9456 40.3238C56.9456 41.1684 57.105 41.8996 57.4237 42.5176C57.7636 43.115 58.1992 43.5681 58.7304 43.8771C59.2828 44.1861 59.899 44.3406 60.5789 44.3406Z" fill="#FB7200"/>
<path d="M73.1365 48.7281V31.9814H78.9052V36.8633L78.0447 35.4729C78.5546 34.2164 79.3832 33.2791 80.5306 32.6612C81.678 32.0226 83.0697 31.7033 84.7057 31.7033V36.9869C84.4295 36.9457 84.1851 36.9251 83.9727 36.9251C83.7814 36.9045 83.569 36.8942 83.3352 36.8942C82.1029 36.8942 81.1043 37.2238 80.3394 37.8829C79.5745 38.5215 79.192 39.572 79.192 41.0345V48.7281H73.1365Z" fill="#FB7200"/>
<path d="M87.2046 48.7281V31.9814H92.9732V36.8633L92.1127 35.4729C92.6226 34.2164 93.4513 33.2791 94.5986 32.6612C95.746 32.0226 97.1377 31.7033 98.7737 31.7033V36.9869C98.4975 36.9457 98.2532 36.9251 98.0407 36.9251C97.8495 36.9045 97.637 36.8942 97.4033 36.8942C96.1709 36.8942 95.1723 37.2238 94.4074 37.8829C93.6425 38.5215 93.26 39.572 93.26 41.0345V48.7281H87.2046Z" fill="#FB7200"/>
<path d="M104.766 55.0003C103.852 55.0003 102.928 54.8561 101.993 54.5678C101.079 54.3 100.336 53.9395 99.762 53.4863L101.865 49.3769C102.227 49.6859 102.641 49.9228 103.108 50.0876C103.597 50.273 104.075 50.3656 104.543 50.3656C105.201 50.3656 105.722 50.2215 106.104 49.9331C106.487 49.6447 106.816 49.1915 107.092 48.5736L107.889 46.627L108.367 46.0399L114.231 31.9814H120L112.542 49.4078C111.947 50.8497 111.257 51.9723 110.471 52.7757C109.706 53.5996 108.845 54.1764 107.889 54.506C106.954 54.8355 105.913 55.0003 104.766 55.0003ZM107.124 49.4387L99.507 31.9814H105.722L111.331 45.5147L107.124 49.4387Z" fill="#FB7200"/>
<path d="M60.4334 94.8005C62.2744 94.8005 63.7668 93.3081 63.7668 91.4671C63.7668 89.6262 62.2744 88.1338 60.4334 88.1338C58.5925 88.1338 57.1001 89.6262 57.1001 91.4671C57.1001 93.3081 58.5925 94.8005 60.4334 94.8005Z" fill="white"/>
<path d="M63.9833 126.134H86.3667C91.9167 126.134 96.4333 130.65 96.4333 136.2V142.917H53.9333V136.2C53.9333 130.65 58.45 126.134 64 126.134H63.9833Z" fill="#98D6FA"/>
<circle cx="140.833" cy="104.167" r="7.5" fill="#34D399"/>
<circle cx="40" cy="93.333" r="5" fill="#109867"/>
<ellipse cx="22.5" cy="124.167" rx="12.5" ry="12.5" stroke="#27B1FF" stroke-linecap="round" stroke-dasharray="1 3"/>
<ellipse cx="101.667" cy="110" rx="6.66667" ry="6.66666" stroke="#27B1FF" stroke-linecap="round" stroke-dasharray="1 3"/>
</svg>
