<svg width="24" height="24" viewBox="0 0 24 24" fill="none" xmlns="http://www.w3.org/2000/svg">
<path d="M2.25 11.7148H21.75V21.1498C21.75 21.7348 21.27 22.2148 20.685 22.2148H3.315C2.73 22.2148 2.25 21.7348 2.25 21.1498V11.7148Z" fill="#315D93"/>
<path d="M11.97 11.7148H6.72003L8.47503 1.21484H11.97V11.7148Z" fill="#EF4444"/>
<path d="M6.72003 11.7148L1.53003 11.9548L4.51503 2.62484C4.78503 1.78484 5.56503 1.21484 6.45003 1.21484H8.46003L6.70503 11.7148H6.72003Z" fill="#EF4444"/>
<path d="M7.35003 11.5347L1.53003 11.9547C1.75503 13.2747 3.01503 14.8947 4.36503 14.8947C5.62503 14.8947 6.73503 14.0397 7.03503 12.8097L7.35003 11.5347Z" fill="#EF4444"/>
<path d="M12.39 11.5347H6.51001L6.69001 12.5997C6.91501 13.9197 8.05501 14.8947 9.40501 14.8947C10.665 14.8947 11.775 14.0397 12.075 12.8097L12.39 11.5347Z" fill="#EF4444"/>
<path d="M17.43 11.5347H11.55L11.73 12.5997C11.955 13.9197 13.095 14.8947 14.445 14.8947C15.705 14.8947 16.815 14.0397 17.115 12.8097L17.43 11.5347Z" fill="#EF4444"/>
<path d="M22.47 11.6247L16.59 11.5347L16.77 12.5997C16.995 13.9197 18.135 14.8947 19.485 14.8947C20.745 14.8947 21.855 14.0397 22.155 12.8097L22.47 11.6247Z" fill="#EF4444"/>
<path d="M17.22 11.7148L22.47 11.6248L19.44 2.59484C19.155 1.76984 18.39 1.21484 17.505 1.21484H15.465L17.22 11.7148Z" fill="#EF4444"/>
<path d="M17.22 11.7148H11.97V1.21484H15.465L17.22 11.7148Z" fill="#EF4444"/>
<path d="M5.24997 11.7151C5.24997 11.7151 5.11497 11.7151 5.03997 11.6851C4.63497 11.5651 4.40997 11.1601 4.52997 10.7551L6.02997 5.50512C6.14997 5.10012 6.55497 4.87512 6.95997 4.99512C7.36497 5.11512 7.58997 5.52012 7.46997 5.92512L5.96997 11.1751C5.87997 11.5051 5.57997 11.7151 5.24997 11.7151Z" fill="#FDBA74"/>
<path d="M18.75 11.7149C18.42 11.7149 18.12 11.5049 18.03 11.1749L16.53 5.92492C16.41 5.51992 16.65 5.11492 17.04 4.99492C17.445 4.87492 17.85 5.11492 17.97 5.50492L19.47 10.7549C19.59 11.1599 19.35 11.5649 18.96 11.6849C18.885 11.6999 18.825 11.7149 18.75 11.7149Z" fill="#FDBA74"/>
<path d="M12 11.7148C11.58 11.7148 11.25 11.3848 11.25 10.9648V5.71484C11.25 5.29484 11.58 4.96484 12 4.96484C12.42 4.96484 12.75 5.29484 12.75 5.71484V10.9648C12.75 11.3848 12.42 11.7148 12 11.7148Z" fill="#FDBA74"/>
<path d="M13.38 16.2148H18.57C19.5 16.2148 20.25 16.9648 20.25 17.8948V22.2148H11.715V17.8948C11.715 16.9648 12.465 16.2148 13.395 16.2148H13.38Z" fill="#FDBA74"/>
<path d="M8.88003 16.2148H5.08503C4.60454 16.2148 4.21503 16.6044 4.21503 17.0848V18.3448C4.21503 18.8253 4.60454 19.2148 5.08503 19.2148H8.88003C9.36051 19.2148 9.75003 18.8253 9.75003 18.3448V17.0848C9.75003 16.6044 9.36051 16.2148 8.88003 16.2148Z" fill="#FDBA74"/>
</svg>
