<svg width="874" height="359" viewBox="0 0 874 359" fill="none" xmlns="http://www.w3.org/2000/svg">
<path d="M753.387 134.027L740.666 134.552L727.944 134.027C727.944 134.027 722.722 137.959 722.833 146.036H740.498H740.833H758.498C758.609 137.96 753.387 134.027 753.387 134.027Z" fill="url(#paint0_linear_6977_21090)"/>
<path d="M760.019 96.6171C760.019 96.6171 760.195 104.694 767.743 107.67C775.292 110.646 785.824 115.747 786 135.302H756.334L760.019 96.6171Z" fill="url(#paint1_linear_6977_21090)"/>
<path d="M720.981 96.6171C720.981 96.6171 720.805 104.694 713.256 107.67C705.708 110.646 695.176 115.747 695 135.302H724.666L720.981 96.6171Z" fill="url(#paint2_linear_6977_21090)"/>
<path d="M761.033 136.153C761.033 136.153 768.011 58.3142 740.5 32C712.989 58.315 719.967 136.153 719.967 136.153H761.033Z" fill="white"/>
<path d="M740.612 82.5886C746.932 82.5886 752.056 77.6874 752.056 71.6415C752.056 65.5956 746.932 60.6945 740.612 60.6945C734.291 60.6945 729.167 65.5956 729.167 71.6415C729.167 77.6874 734.291 82.5886 740.612 82.5886Z" fill="url(#paint3_linear_6977_21090)"/>
<path d="M740.612 101.825C743.864 101.825 746.501 99.3033 746.501 96.1922C746.501 93.0812 743.864 90.5591 740.612 90.5591C737.359 90.5591 734.723 93.0812 734.723 96.1922C734.723 99.3033 737.359 101.825 740.612 101.825Z" fill="url(#paint4_linear_6977_21090)"/>
<g opacity="0.4" clip-path="url(#clip0_6977_21090)">
<path d="M694.949 30.0696C695.805 30.0696 696.499 29.3755 696.499 28.5193C696.499 27.6632 695.805 26.9691 694.949 26.9691C694.092 26.9691 693.398 27.6632 693.398 28.5193C693.398 29.3755 694.092 30.0696 694.949 30.0696Z" fill="white"/>
<path d="M745.371 59.6044C746.227 59.6044 746.921 58.9103 746.921 58.0541C746.921 57.198 746.227 56.5039 745.371 56.5039C744.514 56.5039 743.82 57.198 743.82 58.0541C743.82 58.9103 744.514 59.6044 745.371 59.6044Z" fill="#009EE0"/>
<path d="M748.065 84.7894C748.922 84.7894 749.616 84.0953 749.616 83.2391C749.616 82.383 748.922 81.6889 748.065 81.6889C747.209 81.6889 746.515 82.383 746.515 83.2391C746.515 84.0953 747.209 84.7894 748.065 84.7894Z" fill="#FFFF36"/>
<path d="M656.766 73.1129C657.622 73.1129 658.316 72.4189 658.316 71.5627C658.316 70.7065 657.622 70.0125 656.766 70.0125C655.91 70.0125 655.216 70.7065 655.216 71.5627C655.216 72.4189 655.91 73.1129 656.766 73.1129Z" fill="#009EE0"/>
<path d="M649.893 32.3773C650.749 32.3773 651.443 31.6833 651.443 30.8271C651.443 29.9709 650.749 29.2769 649.893 29.2769C649.036 29.2769 648.342 29.9709 648.342 30.8271C648.342 31.6833 649.036 32.3773 649.893 32.3773Z" fill="white"/>
<path d="M839.872 54.6836C840.728 54.6836 841.422 53.9895 841.422 53.1334C841.422 52.2772 840.728 51.5831 839.872 51.5831C839.016 51.5831 838.322 52.2772 838.322 53.1334C838.322 53.9895 839.016 54.6836 839.872 54.6836Z" fill="white"/>
<path d="M802.663 58.1292C803.519 58.1292 804.213 57.4351 804.213 56.5789C804.213 55.7228 803.519 55.0287 802.663 55.0287C801.807 55.0287 801.113 55.7228 801.113 56.5789C801.113 57.4351 801.807 58.1292 802.663 58.1292Z" fill="white"/>
<path d="M787.217 37.0555C788.517 37.0555 789.571 36.0014 789.571 34.701C789.571 33.4006 788.517 32.3464 787.217 32.3464C785.916 32.3464 784.862 33.4006 784.862 34.701C784.862 36.0014 785.916 37.0555 787.217 37.0555Z" fill="white"/>
<path d="M691.134 80.8882C692.435 80.8882 693.489 79.834 693.489 78.5336C693.489 77.2332 692.435 76.1791 691.134 76.1791C689.834 76.1791 688.78 77.2332 688.78 78.5336C688.78 79.834 689.834 80.8882 691.134 80.8882Z" fill="#E1FFFF"/>
<path d="M691.134 79.4781C691.655 79.4781 692.078 79.0553 692.078 78.5337C692.078 78.0121 691.655 77.5892 691.134 77.5892C690.612 77.5892 690.189 78.0121 690.189 78.5337C690.189 79.0553 690.612 79.4781 691.134 79.4781Z" fill="#FFFF36"/>
<path d="M679.437 30.1795C679.817 30.1795 680.124 29.872 680.124 29.4926C680.124 29.1133 679.817 28.8058 679.437 28.8058C679.058 28.8058 678.75 29.1133 678.75 29.4926C678.75 29.872 679.058 30.1795 679.437 30.1795Z" fill="#E1FFFF"/>
<path d="M679.713 29.4928C679.713 29.6453 679.589 29.7683 679.438 29.7683C679.285 29.7683 679.162 29.6446 679.162 29.4928C679.162 29.341 679.286 29.2174 679.438 29.2174C679.589 29.2174 679.713 29.3404 679.713 29.4928Z" fill="#FFFF36"/>
<path d="M735.588 23.6544C736.062 23.6544 736.447 23.27 736.447 22.7958C736.447 22.3217 736.062 21.9373 735.588 21.9373C735.114 21.9373 734.729 22.3217 734.729 22.7958C734.729 23.27 735.114 23.6544 735.588 23.6544Z" fill="#E1FFFF"/>
<path d="M735.933 22.7958C735.933 22.986 735.779 23.1406 735.588 23.1406C735.398 23.1406 735.244 22.986 735.244 22.7958C735.244 22.6055 735.398 22.4517 735.588 22.4517C735.779 22.451 735.933 22.6055 735.933 22.7958Z" fill="#FFFF36"/>
<path d="M812.323 35.6742C812.323 36.3261 811.794 36.8549 811.142 36.8549C810.49 36.8549 809.961 36.3261 809.961 35.6742C809.961 35.0224 810.49 34.4935 811.142 34.4935C811.794 34.4935 812.323 35.0224 812.323 35.6742Z" fill="#E1FFFF"/>
<path d="M811.615 35.6744C811.615 35.9361 811.403 36.1477 811.142 36.1477C810.88 36.1477 810.668 35.9354 810.668 35.6744C810.668 35.4134 810.88 35.2012 811.142 35.2012C811.404 35.2005 811.615 35.4127 811.615 35.6744Z" fill="#FFFF36"/>
<path d="M592.607 0.881569C593.907 0.881569 594.962 -0.172595 594.962 -1.47297C594.962 -2.77335 593.907 -3.82751 592.607 -3.82751C591.307 -3.82751 590.252 -2.77335 590.252 -1.47297C590.252 -0.172595 591.307 0.881569 592.607 0.881569Z" fill="white"/>
<path d="M773.71 67.7436C774.215 67.7436 774.624 67.3343 774.624 66.8294C774.624 66.3245 774.215 65.9152 773.71 65.9152C773.205 65.9152 772.795 66.3245 772.795 66.8294C772.795 67.3343 773.205 67.7436 773.71 67.7436Z" fill="white"/>
<path d="M761.721 45.037C762.577 45.037 763.271 44.3429 763.271 43.4868C763.271 42.6306 762.577 41.9365 761.721 41.9365C760.865 41.9365 760.171 42.6306 760.171 43.4868C760.171 44.3429 760.865 45.037 761.721 45.037Z" fill="white"/>
<path d="M789.398 1.39679C789.842 1.39679 790.201 1.037 790.201 0.593171C790.201 0.149343 789.842 -0.210449 789.398 -0.210449C788.954 -0.210449 788.594 0.149343 788.594 0.593171C788.594 1.037 788.954 1.39679 789.398 1.39679Z" fill="#FFFF36"/>
<path d="M771.828 25.2842C771.828 25.5377 771.622 25.7437 771.368 25.7437C771.115 25.7437 770.909 25.5383 770.909 25.2842C770.909 25.0308 771.114 24.8247 771.368 24.8247C771.622 24.8247 771.828 25.0301 771.828 25.2842Z" fill="#FFFF36"/>
<path d="M671.139 45.4634C671.139 45.7169 670.934 45.9229 670.68 45.9229C670.426 45.9229 670.22 45.7175 670.22 45.4634C670.22 45.21 670.426 45.0039 670.68 45.0039C670.933 45.0039 671.139 45.21 671.139 45.4634Z" fill="#FFFF36"/>
<path d="M600.393 14.5534C600.393 14.8068 600.188 15.0129 599.934 15.0129C599.68 15.0129 599.474 14.8075 599.474 14.5534C599.474 14.2999 599.679 14.0939 599.934 14.0939C600.187 14.0939 600.393 14.2992 600.393 14.5534Z" fill="#FFFF36"/>
<path d="M622.601 20.9658C622.855 20.9658 623.061 20.76 623.061 20.5063C623.061 20.2525 622.855 20.0468 622.601 20.0468C622.347 20.0468 622.142 20.2525 622.142 20.5063C622.142 20.76 622.347 20.9658 622.601 20.9658Z" fill="#FFFF36"/>
<path d="M672.284 20.5078C672.537 20.5078 672.743 20.302 672.743 20.0483C672.743 19.7945 672.537 19.5887 672.284 19.5887C672.03 19.5887 671.824 19.7945 671.824 20.0483C671.824 20.302 672.03 20.5078 672.284 20.5078Z" fill="#FFFF36"/>
<path d="M797.29 74.5394C797.543 74.5394 797.749 74.3337 797.749 74.0799C797.749 73.8261 797.543 73.6204 797.29 73.6204C797.036 73.6204 796.83 73.8261 796.83 74.0799C796.83 74.3337 797.036 74.5394 797.29 74.5394Z" fill="#FFFF36"/>
<path d="M830.052 29.9356C830.306 29.9356 830.512 29.7299 830.512 29.4761C830.512 29.2223 830.306 29.0166 830.052 29.0166C829.799 29.0166 829.593 29.2223 829.593 29.4761C829.593 29.7299 829.799 29.9356 830.052 29.9356Z" fill="#FFFF36"/>
<path d="M735.538 54.0519C735.538 54.3054 735.332 54.5114 735.078 54.5114C734.825 54.5114 734.619 54.306 734.619 54.0519C734.619 53.7978 734.824 53.5924 735.078 53.5924C735.332 53.5931 735.538 53.7985 735.538 54.0519Z" fill="white"/>
<path d="M750.294 26.9493C750.294 27.2027 750.089 27.4088 749.835 27.4088C749.582 27.4088 749.375 27.2034 749.375 26.9493C749.375 26.6958 749.581 26.4897 749.835 26.4897C750.088 26.4897 750.294 26.6958 750.294 26.9493Z" fill="white"/>
<path d="M868.265 68.3604C868.519 68.3604 868.725 68.1547 868.725 67.9009C868.725 67.6471 868.519 67.4414 868.265 67.4414C868.011 67.4414 867.806 67.6471 867.806 67.9009C867.806 68.1547 868.011 68.3604 868.265 68.3604Z" fill="#FFFF36"/>
<path d="M761.365 133.542C762.221 133.542 762.915 132.848 762.915 131.992C762.915 131.136 762.221 130.442 761.365 130.442C760.509 130.442 759.814 131.136 759.814 131.992C759.814 132.848 760.509 133.542 761.365 133.542Z" fill="white"/>
<path d="M718.269 123.24C719.126 123.24 719.82 122.546 719.82 121.689C719.82 120.833 719.126 120.139 718.269 120.139C717.413 120.139 716.719 120.833 716.719 121.689C716.719 122.546 717.413 123.24 718.269 123.24Z" fill="#009EE0"/>
<path d="M563.55 157.812C564.406 157.812 565.1 157.118 565.1 156.261C565.1 155.405 564.406 154.711 563.55 154.711C562.694 154.711 562 155.405 562 156.261C562 157.118 562.694 157.812 563.55 157.812Z" fill="#009EE0"/>
<path d="M830.05 96.1712C830.906 96.1712 831.6 95.4771 831.6 94.6209C831.6 93.7647 830.906 93.0707 830.05 93.0707C829.194 93.0707 828.5 93.7647 828.5 94.6209C828.5 95.4771 829.194 96.1712 830.05 96.1712Z" fill="#009EE0"/>
<path d="M855.517 114.31C856.373 114.31 857.067 113.616 857.067 112.76C857.067 111.904 856.373 111.21 855.517 111.21C854.66 111.21 853.966 111.904 853.966 112.76C853.966 113.616 854.66 114.31 855.517 114.31Z" fill="white"/>
<path d="M791.586 109.556C792.443 109.556 793.137 108.861 793.137 108.005C793.137 107.149 792.443 106.455 791.586 106.455C790.73 106.455 790.036 107.149 790.036 108.005C790.036 108.861 790.73 109.556 791.586 109.556Z" fill="white"/>
<path d="M587.184 135.832C587.184 134.976 587.878 134.282 588.734 134.282C589.591 134.282 590.285 134.977 590.285 135.832C590.285 136.689 589.59 137.383 588.734 137.383C587.878 137.383 587.184 136.689 587.184 135.832Z" fill="white"/>
<path d="M638.646 102.124C639.502 102.124 640.196 101.43 640.196 100.574C640.196 99.7179 639.502 99.0238 638.646 99.0238C637.79 99.0238 637.096 99.7179 637.096 100.574C637.096 101.43 637.79 102.124 638.646 102.124Z" fill="white"/>
<path d="M673.97 149.916C675.27 149.916 676.324 148.862 676.324 147.561C676.324 146.261 675.27 145.207 673.97 145.207C672.669 145.207 671.615 146.261 671.615 147.561C671.615 148.862 672.669 149.916 673.97 149.916Z" fill="white"/>
<path d="M754.497 111.91C755.797 111.91 756.851 110.856 756.851 109.555C756.851 108.255 755.797 107.201 754.497 107.201C753.196 107.201 752.142 108.255 752.142 109.555C752.142 110.856 753.196 111.91 754.497 111.91Z" fill="#E1FFFF"/>
<path d="M754.497 110.5C755.018 110.5 755.441 110.077 755.441 109.555C755.441 109.034 755.018 108.611 754.497 108.611C753.975 108.611 753.552 109.034 753.552 109.555C753.552 110.077 753.975 110.5 754.497 110.5Z" fill="#FFFF36"/>
<path d="M637.73 211.622C638.11 211.622 638.417 211.314 638.417 210.935C638.417 210.555 638.11 210.248 637.73 210.248C637.351 210.248 637.043 210.555 637.043 210.935C637.043 211.314 637.351 211.622 637.73 211.622Z" fill="#E1FFFF"/>
<path d="M637.455 210.935C637.455 210.782 637.579 210.659 637.73 210.659C637.882 210.659 638.006 210.783 638.006 210.935C638.006 211.086 637.882 211.21 637.73 211.21C637.578 211.21 637.455 211.086 637.455 210.935Z" fill="#FFFF36"/>
<path d="M728.052 157.807C728.526 157.807 728.91 157.423 728.91 156.948C728.91 156.474 728.526 156.09 728.052 156.09C727.578 156.09 727.193 156.474 727.193 156.948C727.193 157.423 727.578 157.807 728.052 157.807Z" fill="#E1FFFF"/>
<path d="M727.708 156.948C727.708 156.758 727.862 156.604 728.052 156.604C728.242 156.604 728.396 156.759 728.396 156.948C728.396 157.139 728.242 157.293 728.052 157.293C727.862 157.293 727.708 157.139 727.708 156.948Z" fill="#FFFF36"/>
<path d="M651.317 144.07C651.317 143.418 651.846 142.889 652.498 142.889C653.15 142.889 653.679 143.418 653.679 144.07C653.679 144.722 653.15 145.251 652.498 145.251C651.846 145.25 651.317 144.722 651.317 144.07Z" fill="#E1FFFF"/>
<path d="M652.498 144.543C652.759 144.543 652.971 144.331 652.971 144.07C652.971 143.809 652.759 143.597 652.498 143.597C652.236 143.597 652.024 143.809 652.024 144.07C652.024 144.331 652.236 144.543 652.498 144.543Z" fill="#FFFF36"/>
<path d="M830.966 127.021C832.267 127.021 833.321 125.967 833.321 124.666C833.321 123.366 832.267 122.312 830.966 122.312C829.666 122.312 828.612 123.366 828.612 124.666C828.612 125.967 829.666 127.021 830.966 127.021Z" fill="white"/>
<path d="M690.847 121.917C691.352 121.917 691.762 121.507 691.762 121.002C691.762 120.497 691.352 120.088 690.847 120.088C690.342 120.088 689.933 120.497 689.933 121.002C689.933 121.507 690.342 121.917 690.847 121.917Z" fill="white"/>
<path d="M701.919 137.808C702.775 137.808 703.469 137.114 703.469 136.258C703.469 135.401 702.775 134.707 701.919 134.707C701.063 134.707 700.369 135.401 700.369 136.258C700.369 137.114 701.063 137.808 701.919 137.808Z" fill="white"/>
<path d="M654.215 179.614C654.659 179.614 655.019 179.254 655.019 178.81C655.019 178.366 654.659 178.007 654.215 178.007C653.771 178.007 653.412 178.366 653.412 178.81C653.412 179.254 653.771 179.614 654.215 179.614Z" fill="#FFFF36"/>
<path d="M689.474 149.851C689.727 149.851 689.933 149.646 689.933 149.392C689.933 149.138 689.727 148.932 689.474 148.932C689.22 148.932 689.014 149.138 689.014 149.392C689.014 149.646 689.22 149.851 689.474 149.851Z" fill="#FFFF36"/>
<path d="M792.96 134.74C793.214 134.74 793.42 134.534 793.42 134.281C793.42 134.027 793.214 133.821 792.96 133.821C792.706 133.821 792.5 134.027 792.5 134.281C792.5 134.534 792.706 134.74 792.96 134.74Z" fill="#FFFF36"/>
<path d="M840.579 159.238C840.579 158.984 840.784 158.778 841.039 158.778C841.292 158.778 841.498 158.984 841.498 159.238C841.498 159.491 841.293 159.697 841.039 159.697C840.785 159.697 840.579 159.491 840.579 159.238Z" fill="#FFFF36"/>
<path d="M803.033 151.226C803.287 151.226 803.492 151.02 803.492 150.767C803.492 150.513 803.287 150.307 803.033 150.307C802.779 150.307 802.573 150.513 802.573 150.767C802.573 151.02 802.779 151.226 803.033 151.226Z" fill="#FFFF36"/>
<path d="M666.35 106.124C666.604 106.124 666.81 105.918 666.81 105.664C666.81 105.41 666.604 105.205 666.35 105.205C666.096 105.205 665.891 105.41 665.891 105.664C665.891 105.918 666.096 106.124 666.35 106.124Z" fill="#FFFF36"/>
<path d="M633.588 150.728C633.842 150.728 634.047 150.522 634.047 150.268C634.047 150.014 633.842 149.809 633.588 149.809C633.334 149.809 633.128 150.014 633.128 150.268C633.128 150.522 633.334 150.728 633.588 150.728Z" fill="#FFFF36"/>
<path d="M728.103 125.692C728.103 125.438 728.308 125.232 728.562 125.232C728.815 125.232 729.022 125.438 729.022 125.692C729.022 125.946 728.816 126.151 728.562 126.151C728.309 126.151 728.103 125.946 728.103 125.692Z" fill="white"/>
<path d="M713.346 152.794C713.346 152.541 713.551 152.335 713.805 152.335C714.059 152.335 714.265 152.54 714.265 152.794C714.265 153.048 714.059 153.254 713.805 153.254C713.552 153.254 713.346 153.048 713.346 152.794Z" fill="white"/>
<path d="M595.375 112.303C595.628 112.303 595.834 112.097 595.834 111.843C595.834 111.59 595.628 111.384 595.375 111.384C595.121 111.384 594.915 111.59 594.915 111.843C594.915 112.097 595.121 112.303 595.375 112.303Z" fill="#FFFF36"/>
<path d="M128.739 25.4859C129.511 25.4859 130.136 24.8608 130.136 24.0897C130.136 23.3186 129.511 22.6935 128.739 22.6935C127.968 22.6935 127.343 23.3186 127.343 24.0897C127.343 24.8608 127.968 25.4859 128.739 25.4859Z" fill="white"/>
<path d="M174.152 52.0862C174.923 52.0862 175.548 51.4611 175.548 50.69C175.548 49.9189 174.923 49.2938 174.152 49.2938C173.381 49.2938 172.756 49.9189 172.756 50.69C172.756 51.4611 173.381 52.0862 174.152 52.0862Z" fill="#009EE0"/>
<path d="M176.579 74.7691C177.35 74.7691 177.975 74.144 177.975 73.3729C177.975 72.6018 177.35 71.9767 176.579 71.9767C175.808 71.9767 175.183 72.6018 175.183 73.3729C175.183 74.144 175.808 74.7691 176.579 74.7691Z" fill="#FFFF36"/>
<path d="M94.3508 64.2526C95.1219 64.2526 95.747 63.6275 95.747 62.8564C95.747 62.0853 95.1219 61.4602 94.3508 61.4602C93.5797 61.4602 92.9546 62.0853 92.9546 62.8564C92.9546 63.6275 93.5797 64.2526 94.3508 64.2526Z" fill="#009EE0"/>
<path d="M88.1599 27.5644C88.931 27.5644 89.5561 26.9393 89.5561 26.1682C89.5561 25.3971 88.931 24.772 88.1599 24.772C87.3888 24.772 86.7637 25.3971 86.7637 26.1682C86.7637 26.9393 87.3888 27.5644 88.1599 27.5644Z" fill="white"/>
<path d="M259.264 47.6545C260.035 47.6545 260.66 47.0294 260.66 46.2583C260.66 45.4872 260.035 44.8621 259.264 44.8621C258.493 44.8621 257.868 45.4872 257.868 46.2583C257.868 47.0294 258.493 47.6545 259.264 47.6545Z" fill="white"/>
<path d="M225.752 50.7576C226.523 50.7576 227.148 50.1325 227.148 49.3614C227.148 48.5903 226.523 47.9652 225.752 47.9652C224.981 47.9652 224.355 48.5903 224.355 49.3614C224.355 50.1325 224.981 50.7576 225.752 50.7576Z" fill="white"/>
<path d="M211.84 31.7777C213.012 31.7777 213.961 30.8283 213.961 29.6571C213.961 28.4859 213.012 27.5365 211.84 27.5365C210.669 27.5365 209.72 28.4859 209.72 29.6571C209.72 30.8283 210.669 31.7777 211.84 31.7777Z" fill="white"/>
<path d="M125.304 71.2554C126.475 71.2554 127.425 70.3059 127.425 69.1348C127.425 67.9636 126.475 67.0142 125.304 67.0142C124.133 67.0142 123.184 67.9636 123.184 69.1348C123.184 70.3059 124.133 71.2554 125.304 71.2554Z" fill="#E1FFFF"/>
<path d="M125.304 69.9854C125.773 69.9854 126.154 69.6045 126.154 69.1348C126.154 68.665 125.773 68.2842 125.304 68.2842C124.834 68.2842 124.453 68.665 124.453 69.1348C124.453 69.6045 124.834 69.9854 125.304 69.9854Z" fill="#FFFF36"/>
<path d="M114.769 25.5849C115.111 25.5849 115.388 25.3079 115.388 24.9663C115.388 24.6246 115.111 24.3477 114.769 24.3477C114.428 24.3477 114.151 24.6246 114.151 24.9663C114.151 25.3079 114.428 25.5849 114.769 25.5849Z" fill="#E1FFFF"/>
<path d="M115.018 24.9663C115.018 25.1037 114.906 25.2144 114.77 25.2144C114.632 25.2144 114.521 25.103 114.521 24.9663C114.521 24.8296 114.633 24.7183 114.77 24.7183C114.906 24.7183 115.018 24.829 115.018 24.9663Z" fill="#FFFF36"/>
<path d="M165.341 19.7082C165.768 19.7082 166.114 19.362 166.114 18.9349C166.114 18.5078 165.768 18.1616 165.341 18.1616C164.914 18.1616 164.568 18.5078 164.568 18.9349C164.568 19.362 164.914 19.7082 165.341 19.7082Z" fill="#E1FFFF"/>
<path d="M165.651 18.9348C165.651 19.1062 165.513 19.2454 165.341 19.2454C165.17 19.2454 165.031 19.1062 165.031 18.9348C165.031 18.7635 165.17 18.6249 165.341 18.6249C165.513 18.6243 165.651 18.7635 165.651 18.9348Z" fill="#FFFF36"/>
<path d="M234.452 30.5337C234.452 31.1208 233.976 31.5971 233.389 31.5971C232.802 31.5971 232.325 31.1208 232.325 30.5337C232.325 29.9467 232.802 29.4703 233.389 29.4703C233.976 29.4703 234.452 29.9467 234.452 30.5337Z" fill="#E1FFFF"/>
<path d="M233.814 30.5339C233.814 30.7696 233.623 30.9601 233.388 30.9601C233.153 30.9601 232.961 30.769 232.961 30.5339C232.961 30.2988 233.153 30.1077 233.388 30.1077C233.624 30.107 233.814 30.2982 233.814 30.5339Z" fill="#FFFF36"/>
<path d="M199.675 59.4168C200.13 59.4168 200.499 59.0481 200.499 58.5934C200.499 58.1387 200.13 57.77 199.675 57.77C199.221 57.77 198.852 58.1387 198.852 58.5934C198.852 59.0481 199.221 59.4168 199.675 59.4168Z" fill="white"/>
<path d="M188.878 38.9663C189.649 38.9663 190.274 38.3411 190.274 37.57C190.274 36.7989 189.649 36.1738 188.878 36.1738C188.107 36.1738 187.481 36.7989 187.481 37.57C187.481 38.3411 188.107 38.9663 188.878 38.9663Z" fill="white"/>
<path d="M197.981 21.1759C197.981 21.4042 197.796 21.5898 197.567 21.5898C197.338 21.5898 197.153 21.4048 197.153 21.1759C197.153 20.9477 197.338 20.7621 197.567 20.7621C197.795 20.7621 197.981 20.947 197.981 21.1759Z" fill="#FFFF36"/>
<path d="M107.296 39.3503C107.296 39.5785 107.111 39.7641 106.882 39.7641C106.654 39.7641 106.468 39.5791 106.468 39.3503C106.468 39.122 106.653 38.9364 106.882 38.9364C107.11 38.9364 107.296 39.122 107.296 39.3503Z" fill="#FFFF36"/>
<path d="M43.5782 11.5113C43.5782 11.7395 43.3932 11.9251 43.1643 11.9251C42.9361 11.9251 42.7505 11.7402 42.7505 11.5113C42.7505 11.283 42.9355 11.0974 43.1643 11.0974C43.3926 11.0974 43.5782 11.2824 43.5782 11.5113Z" fill="#FFFF36"/>
<path d="M63.5804 17.2867C63.8089 17.2867 63.9942 17.1014 63.9942 16.8728C63.9942 16.6443 63.8089 16.459 63.5804 16.459C63.3518 16.459 63.1665 16.6443 63.1665 16.8728C63.1665 17.1014 63.3518 17.2867 63.5804 17.2867Z" fill="#FFFF36"/>
<path d="M108.326 16.8741C108.555 16.8741 108.74 16.6888 108.74 16.4602C108.74 16.2317 108.555 16.0464 108.326 16.0464C108.098 16.0464 107.913 16.2317 107.913 16.4602C107.913 16.6888 108.098 16.8741 108.326 16.8741Z" fill="#FFFF36"/>
<path d="M220.912 65.5374C221.141 65.5374 221.326 65.3521 221.326 65.1236C221.326 64.895 221.141 64.7097 220.912 64.7097C220.684 64.7097 220.499 64.895 220.499 65.1236C220.499 65.3521 220.684 65.5374 220.912 65.5374Z" fill="#FFFF36"/>
<path d="M250.42 25.3653C250.649 25.3653 250.834 25.18 250.834 24.9515C250.834 24.7229 250.649 24.5376 250.42 24.5376C250.192 24.5376 250.006 24.7229 250.006 24.9515C250.006 25.18 250.192 25.3653 250.42 25.3653Z" fill="#FFFF36"/>
<path d="M165.296 47.0855C165.296 47.3138 165.111 47.4993 164.882 47.4993C164.654 47.4993 164.468 47.3144 164.468 47.0855C164.468 46.8566 164.653 46.6716 164.882 46.6716C165.11 46.6722 165.296 46.8572 165.296 47.0855Z" fill="white"/>
<path d="M178.586 22.6757C178.586 22.904 178.402 23.0895 178.173 23.0895C177.944 23.0895 177.759 22.9046 177.759 22.6757C177.759 22.4474 177.944 22.2618 178.173 22.2618C178.401 22.2618 178.586 22.4474 178.586 22.6757Z" fill="white"/>
<path d="M284.837 59.9724C285.065 59.9724 285.251 59.7871 285.251 59.5585C285.251 59.3299 285.065 59.1447 284.837 59.1447C284.608 59.1447 284.423 59.3299 284.423 59.5585C284.423 59.7871 284.608 59.9724 284.837 59.9724Z" fill="#FFFF36"/>
<path d="M188.557 118.678C189.328 118.678 189.953 118.053 189.953 117.282C189.953 116.511 189.328 115.886 188.557 115.886C187.786 115.886 187.161 116.511 187.161 117.282C187.161 118.053 187.786 118.678 188.557 118.678Z" fill="white"/>
<path d="M149.743 109.399C150.514 109.399 151.14 108.774 151.14 108.003C151.14 107.232 150.514 106.607 149.743 106.607C148.972 106.607 148.347 107.232 148.347 108.003C148.347 108.774 148.972 109.399 149.743 109.399Z" fill="#009EE0"/>
<path d="M250.418 85.02C251.189 85.02 251.814 84.3949 251.814 83.6238C251.814 82.8526 251.189 82.2275 250.418 82.2275C249.647 82.2275 249.022 82.8526 249.022 83.6238C249.022 84.3949 249.647 85.02 250.418 85.02Z" fill="#009EE0"/>
<path d="M273.354 101.357C274.125 101.357 274.75 100.732 274.75 99.9608C274.75 99.1897 274.125 98.5646 273.354 98.5646C272.583 98.5646 271.958 99.1897 271.958 99.9608C271.958 100.732 272.583 101.357 273.354 101.357Z" fill="white"/>
<path d="M215.776 97.0745C216.547 97.0745 217.172 96.4494 217.172 95.6783C217.172 94.9072 216.547 94.2821 215.776 94.2821C215.005 94.2821 214.38 94.9072 214.38 95.6783C214.38 96.4494 215.005 97.0745 215.776 97.0745Z" fill="white"/>
<path d="M31.6821 120.741C31.6821 119.969 32.3075 119.345 33.0783 119.345C33.8498 119.345 34.4746 119.97 34.4746 120.741C34.4746 121.512 33.8491 122.137 33.0783 122.137C32.3075 122.137 31.6821 121.512 31.6821 120.741Z" fill="white"/>
<path d="M78.031 90.3817C78.8021 90.3817 79.4272 89.7566 79.4272 88.9854C79.4272 88.2143 78.8021 87.5892 78.031 87.5892C77.2599 87.5892 76.6348 88.2143 76.6348 88.9854C76.6348 89.7566 77.2599 90.3817 78.031 90.3817Z" fill="white"/>
<path d="M109.845 133.425C111.016 133.425 111.966 132.475 111.966 131.304C111.966 130.133 111.016 129.184 109.845 129.184C108.674 129.184 107.725 130.133 107.725 131.304C107.725 132.475 108.674 133.425 109.845 133.425Z" fill="white"/>
<path d="M182.371 99.1951C183.542 99.1951 184.492 98.2456 184.492 97.0745C184.492 95.9033 183.542 94.9539 182.371 94.9539C181.2 94.9539 180.25 95.9033 180.25 97.0745C180.25 98.2456 181.2 99.1951 182.371 99.1951Z" fill="#E1FFFF"/>
<path d="M182.371 97.9249C182.841 97.9249 183.222 97.5441 183.222 97.0743C183.222 96.6046 182.841 96.2238 182.371 96.2238C181.901 96.2238 181.521 96.6046 181.521 97.0743C181.521 97.5441 181.901 97.9249 182.371 97.9249Z" fill="#FFFF36"/>
<path d="M77.2065 189C77.5482 189 77.8251 188.723 77.8251 188.381C77.8251 188.04 77.5482 187.763 77.2065 187.763C76.8649 187.763 76.5879 188.04 76.5879 188.381C76.5879 188.723 76.8649 189 77.2065 189Z" fill="#E1FFFF"/>
<path d="M76.959 188.381C76.959 188.244 77.0703 188.133 77.207 188.133C77.3438 188.133 77.4551 188.244 77.4551 188.381C77.4551 188.518 77.3438 188.629 77.207 188.629C77.0697 188.629 76.959 188.518 76.959 188.381Z" fill="#FFFF36"/>
<path d="M158.554 140.532C158.981 140.532 159.327 140.186 159.327 139.759C159.327 139.332 158.981 138.985 158.554 138.985C158.127 138.985 157.781 139.332 157.781 139.759C157.781 140.186 158.127 140.532 158.554 140.532Z" fill="#E1FFFF"/>
<path d="M158.245 139.759C158.245 139.588 158.383 139.449 158.555 139.449C158.726 139.449 158.864 139.588 158.864 139.759C158.864 139.93 158.726 140.069 158.555 140.069C158.383 140.069 158.245 139.93 158.245 139.759Z" fill="#FFFF36"/>
<path d="M89.4434 128.16C89.4434 127.573 89.9197 127.096 90.5068 127.096C91.0938 127.096 91.5702 127.573 91.5702 128.16C91.5702 128.747 91.0938 129.223 90.5068 129.223C89.9197 129.223 89.4434 128.747 89.4434 128.16Z" fill="#E1FFFF"/>
<path d="M90.5063 128.586C90.7417 128.586 90.9325 128.395 90.9325 128.16C90.9325 127.924 90.7417 127.734 90.5063 127.734C90.2709 127.734 90.0801 127.924 90.0801 128.16C90.0801 128.395 90.2709 128.586 90.5063 128.586Z" fill="#FFFF36"/>
<path d="M251.243 112.805C252.414 112.805 253.364 111.855 253.364 110.684C253.364 109.513 252.414 108.563 251.243 108.563C250.072 108.563 249.123 109.513 249.123 110.684C249.123 111.855 250.072 112.805 251.243 112.805Z" fill="white"/>
<path d="M125.046 108.207C125.5 108.207 125.869 107.839 125.869 107.384C125.869 106.929 125.5 106.561 125.046 106.561C124.591 106.561 124.222 106.929 124.222 107.384C124.222 107.839 124.591 108.207 125.046 108.207Z" fill="white"/>
<path d="M135.017 122.52C135.788 122.52 136.414 121.895 136.414 121.124C136.414 120.352 135.788 119.727 135.017 119.727C134.246 119.727 133.621 120.352 133.621 121.124C133.621 121.895 134.246 122.52 135.017 122.52Z" fill="white"/>
<path d="M92.0534 160.172C92.4531 160.172 92.7772 159.848 92.7772 159.448C92.7772 159.049 92.4531 158.725 92.0534 158.725C91.6536 158.725 91.3296 159.049 91.3296 159.448C91.3296 159.848 91.6536 160.172 92.0534 160.172Z" fill="#FFFF36"/>
<path d="M123.808 133.367C124.037 133.367 124.222 133.182 124.222 132.953C124.222 132.724 124.037 132.539 123.808 132.539C123.58 132.539 123.395 132.724 123.395 132.953C123.395 133.182 123.58 133.367 123.808 133.367Z" fill="#FFFF36"/>
<path d="M217.013 119.757C217.242 119.757 217.427 119.572 217.427 119.343C217.427 119.115 217.242 118.929 217.013 118.929C216.784 118.929 216.599 119.115 216.599 119.343C216.599 119.572 216.784 119.757 217.013 119.757Z" fill="#FFFF36"/>
<path d="M299.495 112.746C299.723 112.746 299.909 112.561 299.909 112.332C299.909 112.103 299.723 111.918 299.495 111.918C299.266 111.918 299.081 112.103 299.081 112.332C299.081 112.561 299.266 112.746 299.495 112.746Z" fill="#FFFF36"/>
<path d="M259.901 141.821C259.901 141.592 260.086 141.407 260.315 141.407C260.543 141.407 260.729 141.592 260.729 141.821C260.729 142.049 260.544 142.234 260.315 142.234C260.087 142.234 259.901 142.049 259.901 141.821Z" fill="#FFFF36"/>
<path d="M226.085 134.605C226.314 134.605 226.499 134.42 226.499 134.191C226.499 133.963 226.314 133.777 226.085 133.777C225.857 133.777 225.671 133.963 225.671 134.191C225.671 134.42 225.857 134.605 226.085 134.605Z" fill="#FFFF36"/>
<path d="M102.982 93.9837C103.211 93.9837 103.396 93.7984 103.396 93.5699C103.396 93.3413 103.211 93.156 102.982 93.156C102.754 93.156 102.568 93.3413 102.568 93.5699C102.568 93.7984 102.754 93.9837 102.982 93.9837Z" fill="#FFFF36"/>
<path d="M73.4754 134.156C73.7039 134.156 73.8892 133.971 73.8892 133.742C73.8892 133.514 73.7039 133.328 73.4754 133.328C73.2468 133.328 73.0615 133.514 73.0615 133.742C73.0615 133.971 73.2468 134.156 73.4754 134.156Z" fill="#FFFF36"/>
<path d="M158.6 111.608C158.6 111.379 158.785 111.194 159.013 111.194C159.242 111.194 159.427 111.379 159.427 111.608C159.427 111.836 159.242 112.021 159.013 112.021C158.785 112.021 158.6 111.836 158.6 111.608Z" fill="white"/>
<path d="M145.309 136.017C145.309 135.789 145.494 135.604 145.722 135.604C145.951 135.604 146.136 135.788 146.136 136.017C146.136 136.246 145.951 136.431 145.722 136.431C145.494 136.431 145.309 136.246 145.309 136.017Z" fill="white"/>
<path d="M39.0584 99.549C39.2869 99.549 39.4722 99.3637 39.4722 99.1352C39.4722 98.9066 39.2869 98.7213 39.0584 98.7213C38.8298 98.7213 38.6445 98.9066 38.6445 99.1352C38.6445 99.3637 38.8298 99.549 39.0584 99.549Z" fill="#FFFF36"/>
<path d="M471.828 78.9982C470.783 78.9982 469.937 78.1515 469.937 77.1072C469.937 76.0628 470.783 75.2162 471.828 75.2162C472.872 75.2162 473.719 76.0628 473.719 77.1072C473.719 78.1515 472.872 78.9982 471.828 78.9982Z" fill="white"/>
<path d="M410.322 115.025C409.278 115.025 408.431 114.179 408.431 113.134C408.431 112.09 409.278 111.243 410.322 111.243C411.367 111.243 412.213 112.09 412.213 113.134C412.213 114.179 411.367 115.025 410.322 115.025Z" fill="#009EE0"/>
<path d="M407.035 145.746C405.99 145.746 405.144 144.9 405.144 143.855C405.144 142.811 405.99 141.964 407.035 141.964C408.079 141.964 408.926 142.811 408.926 143.855C408.926 144.9 408.079 145.746 407.035 145.746Z" fill="#FFFF36"/>
<path d="M518.403 131.503C517.359 131.503 516.512 130.656 516.512 129.612C516.512 128.568 517.359 127.721 518.403 127.721C519.447 127.721 520.294 128.568 520.294 129.612C520.294 130.656 519.447 131.503 518.403 131.503Z" fill="#009EE0"/>
<path d="M526.788 81.8132C525.743 81.8132 524.897 80.9666 524.897 79.9222C524.897 78.8779 525.743 78.0312 526.788 78.0312C527.832 78.0312 528.679 78.8779 528.679 79.9222C528.679 80.9666 527.832 81.8132 526.788 81.8132Z" fill="white"/>
<path d="M580.188 38.782C579.144 38.782 578.297 37.9354 578.297 36.891C578.297 35.8466 579.144 35 580.188 35C581.232 35 582.079 35.8466 582.079 36.891C582.079 37.9354 581.232 38.782 580.188 38.782Z" fill="white"/>
<path d="M295.048 109.023C294.004 109.023 293.157 108.176 293.157 107.132C293.157 106.087 294.004 105.241 295.048 105.241C296.092 105.241 296.939 106.087 296.939 107.132C296.939 108.176 296.092 109.023 295.048 109.023Z" fill="white"/>
<path d="M340.436 113.226C339.392 113.226 338.545 112.379 338.545 111.335C338.545 110.29 339.392 109.444 340.436 109.444C341.481 109.444 342.327 110.29 342.327 111.335C342.327 112.379 341.481 113.226 340.436 113.226Z" fill="white"/>
<path d="M359.278 87.5197C357.692 87.5197 356.406 86.2338 356.406 84.6476C356.406 83.0614 357.692 81.7755 359.278 81.7755C360.864 81.7755 362.15 83.0614 362.15 84.6476C362.15 86.2338 360.864 87.5197 359.278 87.5197Z" fill="white"/>
<path d="M476.48 140.987C474.894 140.987 473.608 139.702 473.608 138.115C473.608 136.529 474.894 135.243 476.48 135.243C478.067 135.243 479.353 136.529 479.353 138.115C479.353 139.702 478.067 140.987 476.48 140.987Z" fill="#E1FFFF"/>
<path d="M476.481 139.267C475.845 139.267 475.329 138.752 475.329 138.115C475.329 137.479 475.845 136.963 476.481 136.963C477.117 136.963 477.633 137.479 477.633 138.115C477.633 138.752 477.117 139.267 476.481 139.267Z" fill="#FFFF36"/>
<path d="M490.749 79.1323C490.286 79.1323 489.911 78.7572 489.911 78.2945C489.911 77.8318 490.286 77.4567 490.749 77.4567C491.211 77.4567 491.586 77.8318 491.586 78.2945C491.586 78.7572 491.211 79.1323 490.749 79.1323Z" fill="#E1FFFF"/>
<path d="M490.413 78.2947C490.413 78.4807 490.563 78.6307 490.748 78.6307C490.934 78.6307 491.084 78.4799 491.084 78.2947C491.084 78.1096 490.934 77.9587 490.748 77.9587C490.563 77.9587 490.413 78.1087 490.413 78.2947Z" fill="#FFFF36"/>
<path d="M422.255 71.173C421.677 71.173 421.208 70.7041 421.208 70.1257C421.208 69.5473 421.677 69.0784 422.255 69.0784C422.834 69.0784 423.303 69.5473 423.303 70.1257C423.303 70.7041 422.834 71.173 422.255 71.173Z" fill="#E1FFFF"/>
<path d="M421.835 70.1256C421.835 70.3577 422.023 70.5462 422.255 70.5462C422.487 70.5462 422.676 70.3577 422.676 70.1256C422.676 69.8935 422.487 69.7058 422.255 69.7058C422.023 69.705 421.835 69.8935 421.835 70.1256Z" fill="#FFFF36"/>
<path d="M328.653 85.835C328.653 86.6301 329.298 87.2752 330.093 87.2752C330.889 87.2752 331.534 86.6301 331.534 85.835C331.534 85.0398 330.889 84.3947 330.093 84.3947C329.298 84.3947 328.653 85.0398 328.653 85.835Z" fill="#E1FFFF"/>
<path d="M329.517 85.8351C329.517 86.1544 329.775 86.4124 330.094 86.4124C330.413 86.4124 330.672 86.1535 330.672 85.8351C330.672 85.5168 330.413 85.2579 330.094 85.2579C329.775 85.257 329.517 85.5159 329.517 85.8351Z" fill="#FFFF36"/>
<path d="M596.665 43.3942C595.079 43.3942 593.793 42.1083 593.793 40.5221C593.793 38.9359 595.079 37.65 596.665 37.65C598.252 37.65 599.538 38.9359 599.538 40.5221C599.538 42.1083 598.252 43.3942 596.665 43.3942Z" fill="white"/>
<path d="M375.754 124.953C375.138 124.953 374.639 124.454 374.639 123.838C374.639 123.222 375.138 122.723 375.754 122.723C376.37 122.723 376.869 123.222 376.869 123.838C376.869 124.454 376.37 124.953 375.754 124.953Z" fill="white"/>
<path d="M390.378 97.2557C389.333 97.2557 388.487 96.4091 388.487 95.3647C388.487 94.3203 389.333 93.4737 390.378 93.4737C391.422 93.4737 392.269 94.3203 392.269 95.3647C392.269 96.4091 391.422 97.2557 390.378 97.2557Z" fill="white"/>
<path d="M356.617 44.0227C356.076 44.0227 355.637 43.5838 355.637 43.0424C355.637 42.501 356.076 42.0621 356.617 42.0621C357.158 42.0621 357.597 42.501 357.597 43.0424C357.597 43.5838 357.158 44.0227 356.617 44.0227Z" fill="#FFFF36"/>
<path d="M378.049 73.161C378.049 73.4701 378.3 73.7215 378.61 73.7215C378.919 73.7215 379.17 73.471 379.17 73.161C379.17 72.8518 378.92 72.6005 378.61 72.6005C378.301 72.6005 378.049 72.851 378.049 73.161Z" fill="#FFFF36"/>
<path d="M500.871 97.7758C500.871 98.085 501.121 98.3364 501.431 98.3364C501.74 98.3364 501.992 98.0858 501.992 97.7758C501.992 97.4667 501.741 97.2153 501.431 97.2153C501.122 97.2153 500.871 97.4667 500.871 97.7758Z" fill="#FFFF36"/>
<path d="M587.168 60.0714C587.168 60.3805 587.419 60.6319 587.729 60.6319C588.038 60.6319 588.289 60.3814 588.289 60.0714C588.289 59.7622 588.039 59.5109 587.729 59.5109C587.419 59.5109 587.168 59.7614 587.168 60.0714Z" fill="#FFFF36"/>
<path d="M560.078 67.8934C559.769 67.8934 559.518 67.6424 559.518 67.3329C559.518 67.0233 559.769 66.7723 560.078 66.7723C560.388 66.7723 560.639 67.0233 560.639 67.3329C560.639 67.6424 560.388 67.8934 560.078 67.8934Z" fill="#FFFF36"/>
<path d="M499.475 67.3346C499.165 67.3346 498.914 67.0837 498.914 66.7741C498.914 66.4646 499.165 66.2136 499.475 66.2136C499.784 66.2136 500.035 66.4646 500.035 66.7741C500.035 67.0837 499.784 67.3346 499.475 67.3346Z" fill="#FFFF36"/>
<path d="M346.991 133.243C346.681 133.243 346.43 132.992 346.43 132.683C346.43 132.373 346.681 132.122 346.991 132.122C347.3 132.122 347.551 132.373 347.551 132.683C347.551 132.992 347.3 133.243 346.991 133.243Z" fill="#FFFF36"/>
<path d="M307.026 78.8349C306.717 78.8349 306.466 78.5839 306.466 78.2744C306.466 77.9648 306.717 77.7139 307.026 77.7139C307.336 77.7139 307.587 77.9648 307.587 78.2744C307.587 78.5839 307.336 78.8349 307.026 78.8349Z" fill="#FFFF36"/>
<path d="M422.317 108.252C422.317 108.561 422.567 108.813 422.877 108.813C423.187 108.813 423.438 108.562 423.438 108.252C423.438 107.942 423.187 107.692 422.877 107.692C422.568 107.693 422.317 107.943 422.317 108.252Z" fill="white"/>
<path d="M404.316 75.1921C404.316 75.5013 404.566 75.7526 404.876 75.7526C405.186 75.7526 405.437 75.5021 405.437 75.1921C405.437 74.8829 405.186 74.6316 404.876 74.6316C404.567 74.6316 404.316 74.8829 404.316 75.1921Z" fill="white"/>
<path d="M260.414 125.706C260.104 125.706 259.853 125.455 259.853 125.145C259.853 124.836 260.104 124.585 260.414 124.585C260.723 124.585 260.974 124.836 260.974 125.145C260.974 125.455 260.723 125.706 260.414 125.706Z" fill="#FFFF36"/>
<path d="M390.812 205.216C389.768 205.216 388.921 204.369 388.921 203.325C388.921 202.28 389.768 201.434 390.812 201.434C391.857 201.434 392.703 202.28 392.703 203.325C392.703 204.369 391.857 205.216 390.812 205.216Z" fill="white"/>
<path d="M443.38 192.648C442.336 192.648 441.489 191.802 441.489 190.757C441.489 189.713 442.336 188.866 443.38 188.866C444.425 188.866 445.271 189.713 445.271 190.757C445.271 191.802 444.425 192.648 443.38 192.648Z" fill="#009EE0"/>
<path d="M632.109 234.82C631.065 234.82 630.218 233.973 630.218 232.929C630.218 231.884 631.065 231.038 632.109 231.038C633.153 231.038 634 231.884 634 232.929C634 233.973 633.153 234.82 632.109 234.82Z" fill="#009EE0"/>
<path d="M307.028 159.63C305.984 159.63 305.137 158.783 305.137 157.739C305.137 156.694 305.984 155.848 307.028 155.848C308.073 155.848 308.919 156.694 308.919 157.739C308.919 158.783 308.073 159.63 307.028 159.63Z" fill="#009EE0"/>
<path d="M275.964 181.756C274.92 181.756 274.073 180.91 274.073 179.865C274.073 178.821 274.92 177.974 275.964 177.974C277.009 177.974 277.855 178.821 277.855 179.865C277.855 180.91 277.009 181.756 275.964 181.756Z" fill="white"/>
<path d="M353.947 175.956C352.903 175.956 352.056 175.109 352.056 174.065C352.056 173.021 352.903 172.174 353.947 172.174C354.991 172.174 355.838 173.021 355.838 174.065C355.838 175.109 354.991 175.956 353.947 175.956Z" fill="white"/>
<path d="M603.28 208.009C603.28 206.964 602.433 206.118 601.389 206.118C600.344 206.118 599.498 206.965 599.498 208.009C599.498 209.054 600.345 209.9 601.389 209.9C602.433 209.9 603.28 209.054 603.28 208.009Z" fill="white"/>
<path d="M540.506 166.891C539.462 166.891 538.615 166.045 538.615 165C538.615 163.956 539.462 163.109 540.506 163.109C541.55 163.109 542.397 163.956 542.397 165C542.397 166.045 541.55 166.891 540.506 166.891Z" fill="white"/>
<path d="M497.418 225.188C495.832 225.188 494.546 223.902 494.546 222.316C494.546 220.73 495.832 219.444 497.418 219.444C499.004 219.444 500.29 220.73 500.29 222.316C500.29 223.902 499.004 225.188 497.418 225.188Z" fill="white"/>
<path d="M399.19 178.828C397.604 178.828 396.318 177.542 396.318 175.956C396.318 174.37 397.604 173.084 399.19 173.084C400.776 173.084 402.062 174.37 402.062 175.956C402.062 177.542 400.776 178.828 399.19 178.828Z" fill="#E1FFFF"/>
<path d="M399.19 177.108C398.554 177.108 398.038 176.592 398.038 175.956C398.038 175.32 398.554 174.804 399.19 174.804C399.826 174.804 400.342 175.32 400.342 175.956C400.342 176.592 399.826 177.108 399.19 177.108Z" fill="#FFFF36"/>
<path d="M541.623 300.458C541.16 300.458 540.785 300.083 540.785 299.62C540.785 299.157 541.16 298.782 541.623 298.782C542.086 298.782 542.461 299.157 542.461 299.62C542.461 300.083 542.086 300.458 541.623 300.458Z" fill="#E1FFFF"/>
<path d="M541.958 299.62C541.958 299.434 541.808 299.284 541.623 299.284C541.437 299.284 541.287 299.435 541.287 299.62C541.287 299.805 541.437 299.956 541.623 299.956C541.809 299.956 541.958 299.805 541.958 299.62Z" fill="#FFFF36"/>
<path d="M431.447 234.814C430.869 234.814 430.4 234.345 430.4 233.767C430.4 233.188 430.869 232.719 431.447 232.719C432.026 232.719 432.495 233.188 432.495 233.767C432.495 234.345 432.026 234.814 431.447 234.814Z" fill="#E1FFFF"/>
<path d="M431.867 233.767C431.867 233.535 431.679 233.347 431.447 233.347C431.215 233.347 431.027 233.536 431.027 233.767C431.027 233.999 431.215 234.186 431.447 234.186C431.679 234.186 431.867 233.999 431.867 233.767Z" fill="#FFFF36"/>
<path d="M525.049 218.057C525.049 217.262 524.404 216.617 523.609 216.617C522.814 216.617 522.169 217.262 522.169 218.057C522.169 218.852 522.814 219.497 523.609 219.497C524.404 219.497 525.049 218.852 525.049 218.057Z" fill="#E1FFFF"/>
<path d="M523.61 218.635C523.291 218.635 523.032 218.376 523.032 218.057C523.032 217.738 523.291 217.48 523.61 217.48C523.929 217.48 524.187 217.738 524.187 218.057C524.187 218.376 523.929 218.635 523.61 218.635Z" fill="#FFFF36"/>
<path d="M305.911 197.261C304.325 197.261 303.039 195.975 303.039 194.389C303.039 192.802 304.325 191.516 305.911 191.516C307.497 191.516 308.783 192.802 308.783 194.389C308.783 195.975 307.497 197.261 305.911 197.261Z" fill="white"/>
<path d="M476.83 191.034C476.214 191.034 475.715 190.535 475.715 189.919C475.715 189.303 476.214 188.804 476.83 188.804C477.446 188.804 477.945 189.303 477.945 189.919C477.945 190.535 477.446 191.034 476.83 191.034Z" fill="white"/>
<path d="M463.325 210.419C462.28 210.419 461.434 209.572 461.434 208.528C461.434 207.483 462.28 206.637 463.325 206.637C464.369 206.637 465.216 207.483 465.216 208.528C465.216 209.572 464.369 210.419 463.325 210.419Z" fill="white"/>
<path d="M521.515 261.414C520.973 261.414 520.535 260.975 520.535 260.434C520.535 259.893 520.973 259.454 521.515 259.454C522.056 259.454 522.495 259.893 522.495 260.434C522.495 260.975 522.056 261.414 521.515 261.414Z" fill="#FFFF36"/>
<path d="M478.506 225.11C478.196 225.11 477.945 224.859 477.945 224.549C477.945 224.239 478.196 223.989 478.506 223.989C478.815 223.989 479.066 224.239 479.066 224.549C479.066 224.859 478.815 225.11 478.506 225.11Z" fill="#FFFF36"/>
<path d="M352.272 206.677C351.962 206.677 351.711 206.426 351.711 206.116C351.711 205.807 351.962 205.556 352.272 205.556C352.582 205.556 352.833 205.807 352.833 206.116C352.833 206.426 352.582 206.677 352.272 206.677Z" fill="#FFFF36"/>
<path d="M240.561 197.181C240.251 197.181 240 196.93 240 196.621C240 196.311 240.251 196.06 240.561 196.06C240.87 196.06 241.121 196.311 241.121 196.621C241.121 196.93 240.87 197.181 240.561 197.181Z" fill="#FFFF36"/>
<path d="M294.185 236.559C294.185 236.25 293.935 235.999 293.625 235.999C293.315 235.999 293.064 236.249 293.064 236.559C293.064 236.868 293.315 237.12 293.625 237.12C293.934 237.12 294.185 236.868 294.185 236.559Z" fill="#FFFF36"/>
<path d="M339.984 226.786C339.675 226.786 339.424 226.536 339.424 226.226C339.424 225.916 339.675 225.665 339.984 225.665C340.294 225.665 340.545 225.916 340.545 226.226C340.545 226.536 340.294 226.786 339.984 226.786Z" fill="#FFFF36"/>
<path d="M506.712 171.77C506.403 171.77 506.152 171.519 506.152 171.209C506.152 170.9 506.403 170.649 506.712 170.649C507.022 170.649 507.273 170.9 507.273 171.209C507.273 171.519 507.022 171.77 506.712 171.77Z" fill="#FFFF36"/>
<path d="M546.676 226.178C546.367 226.178 546.116 225.928 546.116 225.618C546.116 225.308 546.367 225.057 546.676 225.057C546.986 225.057 547.237 225.308 547.237 225.618C547.237 225.928 546.986 226.178 546.676 226.178Z" fill="#FFFF36"/>
<path d="M431.386 195.639C431.386 195.33 431.135 195.079 430.825 195.079C430.516 195.079 430.265 195.329 430.265 195.639C430.265 195.949 430.515 196.2 430.825 196.2C431.134 196.2 431.386 195.949 431.386 195.639Z" fill="white"/>
<path d="M449.387 228.699C449.387 228.39 449.136 228.139 448.826 228.139C448.517 228.139 448.266 228.389 448.266 228.699C448.266 229.009 448.516 229.26 448.826 229.26C449.135 229.26 449.387 229.009 449.387 228.699Z" fill="white"/>
<path d="M593.29 179.307C592.98 179.307 592.729 179.056 592.729 178.747C592.729 178.437 592.98 178.186 593.29 178.186C593.599 178.186 593.85 178.437 593.85 178.747C593.85 179.056 593.599 179.307 593.29 179.307Z" fill="#FFFF36"/>
<path d="M814.46 347.67C815.354 347.67 816.079 346.888 816.079 345.924C816.079 344.96 815.354 344.178 814.46 344.178C813.566 344.178 812.841 344.96 812.841 345.924C812.841 346.888 813.566 347.67 814.46 347.67Z" fill="white"/>
<path d="M761.807 314.409C762.701 314.409 763.426 313.627 763.426 312.663C763.426 311.698 762.701 310.917 761.807 310.917C760.913 310.917 760.188 311.698 760.188 312.663C760.188 313.627 760.913 314.409 761.807 314.409Z" fill="#009EE0"/>
<path d="M771.425 289.397C772.32 289.397 773.044 288.616 773.044 287.651C773.044 286.687 772.32 285.905 771.425 285.905C770.531 285.905 769.807 286.687 769.807 287.651C769.807 288.616 770.531 289.397 771.425 289.397Z" fill="#FFFF36"/>
<path d="M861.51 345.071C862.404 345.071 863.129 344.29 863.129 343.325C863.129 342.361 862.404 341.579 861.51 341.579C860.616 341.579 859.892 342.361 859.892 343.325C859.892 344.29 860.616 345.071 861.51 345.071Z" fill="white"/>
<path d="M663.125 319.95C664.019 319.95 664.744 319.169 664.744 318.204C664.744 317.24 664.019 316.458 663.125 316.458C662.231 316.458 661.506 317.24 661.506 318.204C661.506 319.169 662.231 319.95 663.125 319.95Z" fill="white"/>
<path d="M701.98 316.07C702.874 316.07 703.599 315.288 703.599 314.324C703.599 313.36 702.874 312.578 701.98 312.578C701.086 312.578 700.361 313.36 700.361 314.324C700.361 315.288 701.086 316.07 701.98 316.07Z" fill="white"/>
<path d="M718.11 341.614C719.468 341.614 720.569 340.427 720.569 338.963C720.569 337.498 719.468 336.311 718.11 336.311C716.752 336.311 715.651 337.498 715.651 338.963C715.651 340.427 716.752 341.614 718.11 341.614Z" fill="white"/>
<path d="M799.637 301.648C800.995 301.648 802.096 300.461 802.096 298.997C802.096 297.532 800.995 296.345 799.637 296.345C798.279 296.345 797.178 297.532 797.178 298.997C797.178 300.461 798.279 301.648 799.637 301.648Z" fill="#E1FFFF"/>
<path d="M799.637 300.06C800.182 300.06 800.623 299.584 800.623 298.997C800.623 298.409 800.182 297.933 799.637 297.933C799.092 297.933 798.651 298.409 798.651 298.997C798.651 299.584 799.092 300.06 799.637 300.06Z" fill="#FFFF36"/>
<path d="M830.658 345.602C831.054 345.602 831.375 345.255 831.375 344.828C831.375 344.401 831.054 344.055 830.658 344.055C830.262 344.055 829.94 344.401 829.94 344.828C829.94 345.255 830.262 345.602 830.658 345.602Z" fill="#E1FFFF"/>
<path d="M830.37 344.827C830.37 344.657 830.499 344.518 830.658 344.518C830.817 344.518 830.945 344.657 830.945 344.827C830.945 344.999 830.816 345.137 830.658 345.137C830.499 345.137 830.37 344.999 830.37 344.827Z" fill="#FFFF36"/>
<path d="M772.023 353.337C772.518 353.337 772.919 352.904 772.919 352.37C772.919 351.836 772.518 351.403 772.023 351.403C771.527 351.403 771.126 351.836 771.126 352.37C771.126 352.904 771.527 353.337 772.023 353.337Z" fill="#E1FFFF"/>
<path d="M771.664 352.37C771.664 352.156 771.825 351.983 772.023 351.983C772.222 351.983 772.383 352.157 772.383 352.37C772.383 352.585 772.222 352.758 772.023 352.758C771.824 352.758 771.664 352.585 771.664 352.37Z" fill="#FFFF36"/>
<path d="M691.893 337.866C691.893 337.132 692.445 336.537 693.126 336.537C693.807 336.537 694.359 337.132 694.359 337.866C694.359 338.601 693.807 339.196 693.126 339.196C692.445 339.196 691.893 338.601 691.893 337.866Z" fill="#E1FFFF"/>
<path d="M692.631 337.867C692.631 337.572 692.853 337.334 693.126 337.334C693.398 337.334 693.62 337.573 693.62 337.867C693.62 338.161 693.398 338.4 693.126 338.4C692.853 338.4 692.631 338.161 692.631 337.867Z" fill="#FFFF36"/>
<path d="M732.214 303.809C732.742 303.809 733.169 303.349 733.169 302.78C733.169 302.211 732.742 301.75 732.214 301.75C731.687 301.75 731.26 302.211 731.26 302.78C731.26 303.349 731.687 303.809 732.214 303.809Z" fill="white"/>
<path d="M744.733 330.814C745.627 330.814 746.352 330.032 746.352 329.068C746.352 328.104 745.627 327.322 744.733 327.322C743.839 327.322 743.114 328.104 743.114 329.068C743.114 330.032 743.839 330.814 744.733 330.814Z" fill="white"/>
<path d="M734.66 350.085C734.925 350.085 735.139 349.853 735.139 349.568C735.139 349.282 734.925 349.05 734.66 349.05C734.395 349.05 734.18 349.282 734.18 349.568C734.18 349.853 734.395 350.085 734.66 350.085Z" fill="#FFFF36"/>
<path d="M839.802 327.359C840.067 327.359 840.282 327.128 840.282 326.842C840.282 326.556 840.067 326.324 839.802 326.324C839.537 326.324 839.322 326.556 839.322 326.842C839.322 327.128 839.537 327.359 839.802 327.359Z" fill="#FFFF36"/>
<path d="M838.128 355.982C838.393 355.982 838.608 355.75 838.608 355.464C838.608 355.178 838.393 354.947 838.128 354.947C837.863 354.947 837.648 355.178 837.648 355.464C837.648 355.75 837.863 355.982 838.128 355.982Z" fill="#FFFF36"/>
<path d="M707.591 295.132C707.856 295.132 708.071 294.901 708.071 294.615C708.071 294.329 707.856 294.097 707.591 294.097C707.326 294.097 707.111 294.329 707.111 294.615C707.111 294.901 707.326 295.132 707.591 295.132Z" fill="#FFFF36"/>
<path d="M673.379 345.364C673.644 345.364 673.859 345.133 673.859 344.847C673.859 344.561 673.644 344.329 673.379 344.329C673.114 344.329 672.899 344.561 672.899 344.847C672.899 345.133 673.114 345.364 673.379 345.364Z" fill="#FFFF36"/>
<path d="M772.556 317.687C772.821 317.687 773.035 317.455 773.035 317.169C773.035 316.883 772.821 316.652 772.556 316.652C772.291 316.652 772.076 316.883 772.076 317.169C772.076 317.455 772.291 317.687 772.556 317.687Z" fill="white"/>
<path d="M757.145 348.21C757.41 348.21 757.625 347.978 757.625 347.693C757.625 347.407 757.41 347.175 757.145 347.175C756.88 347.175 756.665 347.407 756.665 347.693C756.665 347.978 756.88 348.21 757.145 348.21Z" fill="white"/>
<path d="M633.475 302.091C633.74 302.091 633.955 301.859 633.955 301.573C633.955 301.288 633.74 301.056 633.475 301.056C633.21 301.056 632.995 301.288 632.995 301.573C632.995 301.859 633.21 302.091 633.475 302.091Z" fill="#FFFF36"/>
<path d="M745.106 240.422C746 240.422 746.724 239.641 746.724 238.676C746.724 237.712 746 236.93 745.106 236.93C744.212 236.93 743.487 237.712 743.487 238.676C743.487 239.641 744.212 240.422 745.106 240.422Z" fill="white"/>
<path d="M790.107 252.025C791.001 252.025 791.726 251.243 791.726 250.279C791.726 249.315 791.001 248.533 790.107 248.533C789.213 248.533 788.488 249.315 788.488 250.279C788.488 251.243 789.213 252.025 790.107 252.025Z" fill="#009EE0"/>
<path d="M673.381 282.51C674.275 282.51 675 281.728 675 280.764C675 279.8 674.275 279.018 673.381 279.018C672.487 279.018 671.762 279.8 671.762 280.764C671.762 281.728 672.487 282.51 673.381 282.51Z" fill="#009EE0"/>
<path d="M646.788 262.081C647.682 262.081 648.407 261.299 648.407 260.335C648.407 259.371 647.682 258.589 646.788 258.589C645.894 258.589 645.169 259.371 645.169 260.335C645.169 261.299 645.894 262.081 646.788 262.081Z" fill="white"/>
<path d="M713.547 267.437C714.441 267.437 715.165 266.655 715.165 265.691C715.165 264.727 714.441 263.945 713.547 263.945C712.653 263.945 711.928 264.727 711.928 265.691C711.928 266.655 712.653 267.437 713.547 267.437Z" fill="white"/>
<path d="M873.254 275.806C874.148 275.806 874.872 275.024 874.872 274.06C874.872 273.096 874.148 272.314 873.254 272.314C872.36 272.314 871.635 273.096 871.635 274.06C871.635 275.024 872.36 275.806 873.254 275.806Z" fill="white"/>
<path d="M836.367 223.795C837.725 223.795 838.826 222.608 838.826 221.143C838.826 219.679 837.725 218.492 836.367 218.492C835.009 218.492 833.908 219.679 833.908 221.143C833.908 222.608 835.009 223.795 836.367 223.795Z" fill="white"/>
<path d="M752.278 266.597C753.636 266.597 754.737 265.409 754.737 263.945C754.737 262.481 753.636 261.293 752.278 261.293C750.92 261.293 749.819 262.481 749.819 263.945C749.819 265.409 750.92 266.597 752.278 266.597Z" fill="#E1FFFF"/>
<path d="M752.278 265.008C752.823 265.008 753.264 264.532 753.264 263.945C753.264 263.357 752.823 262.881 752.278 262.881C751.734 262.881 751.292 263.357 751.292 263.945C751.292 264.532 751.734 265.008 752.278 265.008Z" fill="#FFFF36"/>
<path d="M874.209 150.547C874.606 150.547 874.927 150.201 874.927 149.774C874.927 149.346 874.606 149 874.209 149C873.813 149 873.492 149.346 873.492 149.774C873.492 150.201 873.813 150.547 874.209 150.547Z" fill="#E1FFFF"/>
<path d="M874.497 149.773C874.497 149.944 874.368 150.083 874.209 150.083C874.051 150.083 873.922 149.944 873.922 149.773C873.922 149.602 874.051 149.463 874.209 149.463C874.369 149.463 874.497 149.602 874.497 149.773Z" fill="#FFFF36"/>
<path d="M779.892 211.539C780.387 211.539 780.788 211.106 780.788 210.572C780.788 210.038 780.387 209.605 779.892 209.605C779.397 209.605 778.995 210.038 778.995 210.572C778.995 211.106 779.397 211.539 779.892 211.539Z" fill="#E1FFFF"/>
<path d="M780.251 210.572C780.251 210.786 780.091 210.959 779.892 210.959C779.693 210.959 779.533 210.785 779.533 210.572C779.533 210.358 779.694 210.184 779.892 210.184C780.091 210.184 780.251 210.358 780.251 210.572Z" fill="#FFFF36"/>
<path d="M860.022 225.075C860.022 225.809 859.47 226.405 858.789 226.405C858.108 226.405 857.556 225.809 857.556 225.075C857.556 224.341 858.108 223.746 858.789 223.746C859.47 223.746 860.022 224.341 860.022 225.075Z" fill="#E1FFFF"/>
<path d="M859.284 225.076C859.284 225.37 859.062 225.609 858.789 225.609C858.516 225.609 858.294 225.369 858.294 225.076C858.294 224.781 858.516 224.542 858.789 224.542C859.062 224.542 859.284 224.781 859.284 225.076Z" fill="#FFFF36"/>
<path d="M672.425 249.579C673.783 249.579 674.884 248.392 674.884 246.928C674.884 245.463 673.783 244.276 672.425 244.276C671.067 244.276 669.966 245.463 669.966 246.928C669.966 248.392 671.067 249.579 672.425 249.579Z" fill="white"/>
<path d="M818.743 252.082C819.27 252.082 819.698 251.621 819.698 251.053C819.698 250.484 819.27 250.023 818.743 250.023C818.216 250.023 817.789 250.484 817.789 251.053C817.789 251.621 818.216 252.082 818.743 252.082Z" fill="white"/>
<path d="M807.181 235.619C808.075 235.619 808.8 234.838 808.8 233.874C808.8 232.909 808.075 232.128 807.181 232.128C806.287 232.128 805.562 232.909 805.562 233.874C805.562 234.838 806.287 235.619 807.181 235.619Z" fill="white"/>
<path d="M857.835 185.951C857.835 186.451 857.459 186.856 856.995 186.856C856.532 186.856 856.156 186.451 856.156 185.951C856.156 185.452 856.532 185.046 856.995 185.046C857.459 185.046 857.835 185.451 857.835 185.951Z" fill="#FFFF36"/>
<path d="M820.177 219.6C820.442 219.6 820.657 219.368 820.657 219.082C820.657 218.796 820.442 218.565 820.177 218.565C819.912 218.565 819.697 218.796 819.697 219.082C819.697 219.368 819.912 219.6 820.177 219.6Z" fill="#FFFF36"/>
<path d="M712.592 236.1C712.592 236.385 712.378 236.617 712.112 236.617C711.848 236.617 711.632 236.386 711.632 236.1C711.632 235.814 711.847 235.582 712.112 235.582C712.377 235.582 712.592 235.814 712.592 236.1Z" fill="#FFFF36"/>
<path d="M616.48 245.385C616.745 245.385 616.96 245.153 616.96 244.867C616.96 244.581 616.745 244.35 616.48 244.35C616.215 244.35 616 244.581 616 244.867C616 245.153 616.215 245.385 616.48 245.385Z" fill="#FFFF36"/>
<path d="M661.907 208.511C662.172 208.511 662.386 208.279 662.386 207.994C662.386 207.708 662.172 207.476 661.907 207.476C661.642 207.476 661.427 207.708 661.427 207.994C661.427 208.279 661.642 208.511 661.907 208.511Z" fill="#FFFF36"/>
<path d="M701.594 218.051C701.859 218.051 702.074 217.819 702.074 217.534C702.074 217.248 701.859 217.016 701.594 217.016C701.329 217.016 701.114 217.248 701.114 217.534C701.114 217.819 701.329 218.051 701.594 218.051Z" fill="#FFFF36"/>
<path d="M844.325 268.845C844.59 268.845 844.804 268.613 844.804 268.327C844.804 268.041 844.59 267.81 844.325 267.81C844.06 267.81 843.845 268.041 843.845 268.327C843.845 268.613 844.06 268.845 844.325 268.845Z" fill="#FFFF36"/>
<path d="M779.36 246.29C779.625 246.29 779.84 246.059 779.84 245.773C779.84 245.487 779.625 245.255 779.36 245.255C779.095 245.255 778.88 245.487 778.88 245.773C778.88 246.059 779.095 246.29 779.36 246.29Z" fill="white"/>
<path d="M794.77 215.768C795.035 215.768 795.25 215.536 795.25 215.25C795.25 214.964 795.035 214.733 794.77 214.733C794.505 214.733 794.29 214.964 794.29 215.25C794.29 215.536 794.505 215.768 794.77 215.768Z" fill="white"/>
</g>
<path d="M79.1544 209.467C92.7924 227.653 89.1054 253.451 70.9194 267.088C52.7344 280.726 26.9364 277.039 13.2984 258.853C-0.339577 240.668 3.3474 214.87 21.5324 201.232C39.7194 187.595 65.5164 191.282 79.1544 209.467Z" fill="url(#paint5_linear_6977_21090)"/>
<path d="M26.9079 197.814C25.0589 198.799 23.2619 199.937 21.5339 201.233C3.34889 214.871 -0.338122 240.668 13.2999 258.854C20.6559 268.664 31.5509 274.245 42.8809 275.174C44.7289 274.189 46.5269 273.051 48.2549 271.755C66.4409 258.117 70.1269 232.319 56.4899 214.134C49.1319 204.325 38.2369 198.743 26.9079 197.814Z" fill="url(#paint6_linear_6977_21090)"/>
<path d="M81.1687 212.301C81.4937 212.957 82.0806 213.979 82.7406 215.213C104.044 209.49 119.103 207.245 120.109 210.183C121.632 214.63 90.9237 229.172 51.5217 242.662C12.1197 256.153 -21.0563 263.484 -22.5793 259.036C-23.5153 256.302 -12.2593 249.751 5.69868 241.976L5.69267 241.963L5.24968 238.633C-24.4233 251.335 -43.7663 263.297 -41.8723 268.827C-39.2243 276.56 3.93869 268.786 54.5357 251.463C105.133 234.14 144.003 213.827 141.356 206.094C139.373 200.306 114.684 203.208 81.1687 212.301Z" fill="url(#paint7_linear_6977_21090)"/>
<path d="M468.154 62.4672C481.792 80.6532 478.105 106.451 459.919 120.088C441.734 133.726 415.936 130.039 402.298 111.853C388.66 93.6682 392.347 67.8702 410.532 54.2322C428.719 40.5952 454.516 44.2822 468.154 62.4672Z" fill="url(#paint8_linear_6977_21090)"/>
<path d="M415.908 50.8142C414.059 51.7992 412.262 52.9372 410.534 54.2332C392.349 67.8712 388.662 93.6682 402.3 111.854C409.656 121.664 420.551 127.245 431.881 128.174C433.729 127.189 435.527 126.051 437.255 124.755C455.441 111.117 459.127 85.3192 445.49 67.1342C438.132 57.3252 427.237 51.7432 415.908 50.8142Z" fill="url(#paint9_linear_6977_21090)"/>
<path d="M470.169 65.3013C470.494 65.9573 471.081 66.9793 471.741 68.2133C493.044 62.4903 508.103 60.2453 509.109 63.1833C510.632 67.6303 479.924 82.1723 440.522 95.6623C401.12 109.153 367.944 116.484 366.421 112.036C365.485 109.302 376.741 102.751 394.699 94.9763L394.693 94.9633L394.25 91.6333C364.577 104.335 345.234 116.297 347.128 121.827C349.776 129.56 392.939 121.786 443.536 104.463C494.133 87.1403 533.003 66.8273 530.356 59.0943C528.373 53.3063 503.684 56.2083 470.169 65.3013Z" fill="url(#paint10_linear_6977_21090)"/>
<path d="M621.253 243C651.216 243 675.506 267.29 675.506 297.253C675.506 327.216 651.216 351.506 621.253 351.506C591.29 351.506 567 327.216 567 297.253C567 267.29 591.29 243 621.253 243Z" fill="url(#paint11_linear_6977_21090)"/>
<path d="M661.709 333.389C656.466 329.375 649.515 325.58 638.391 321.061C617.058 312.394 623.724 314.394 603.724 311.728C583.724 309.061 592.391 310.395 577.057 317.061C575.158 317.887 573.362 318.62 571.671 319.271C568.678 312.54 567.001 305.095 567.001 297.253C567.001 291.364 567.952 285.701 569.687 280.392C578.229 280.524 587.543 281.691 597.725 283.728C617.725 287.728 618.392 285.728 639.058 293.728C659.725 301.728 656.391 305.728 671.058 317.728C671.169 317.819 671.277 317.914 671.387 318.006C669.033 323.685 665.743 328.876 661.709 333.389Z" fill="url(#paint12_linear_6977_21090)"/>
<path d="M675.436 300.009C673.973 297.774 671.929 295.394 669.057 293.061C658.39 284.394 655.724 277.061 645.057 273.728C634.39 270.395 627.724 267.728 611.724 266.395C600.171 265.432 589.321 263.085 580.162 261.852C582.814 258.777 585.798 255.997 589.071 253.582C591.34 253.88 593.595 254.159 595.724 254.396C607.724 255.729 602.391 254.396 620.391 257.729C638.391 261.062 639.058 259.729 652.391 267.729C665.724 275.729 667.724 280.396 672.391 287.062C673.263 288.308 674.229 289.904 675.222 291.675C675.409 293.51 675.506 295.371 675.506 297.255C675.506 298.178 675.482 299.096 675.436 300.009Z" fill="url(#paint13_linear_6977_21090)"/>
<defs>
<linearGradient id="paint0_linear_6977_21090" x1="732.658" y1="127.522" x2="744.657" y2="154.463" gradientUnits="userSpaceOnUse">
<stop stop-color="#FDBA74"/>
<stop offset="1" stop-color="#00C4D0"/>
</linearGradient>
<linearGradient id="paint1_linear_6977_21090" x1="782.235" y1="104.573" x2="756.193" y2="139.703" gradientUnits="userSpaceOnUse">
<stop stop-color="#00C4D0"/>
<stop offset="1" stop-color="#FED7AA"/>
</linearGradient>
<linearGradient id="paint2_linear_6977_21090" x1="699.792" y1="99.1189" x2="718.682" y2="141.529" gradientUnits="userSpaceOnUse">
<stop stop-color="#FDBA74"/>
<stop offset="1" stop-color="#00C4D0"/>
</linearGradient>
<linearGradient id="paint3_linear_6977_21090" x1="726.711" y1="47.3" x2="746.93" y2="85.9979" gradientUnits="userSpaceOnUse">
<stop stop-color="#FED7AA"/>
<stop offset="1" stop-color="#00C4D0"/>
</linearGradient>
<linearGradient id="paint4_linear_6977_21090" x1="731.522" y1="75.828" x2="755.007" y2="133.335" gradientUnits="userSpaceOnUse">
<stop stop-color="#FDBA74"/>
<stop offset="1" stop-color="#00C4D0"/>
</linearGradient>
<linearGradient id="paint5_linear_6977_21090" x1="48.5933" y1="99.6871" x2="48.5933" y2="258.717" gradientUnits="userSpaceOnUse">
<stop stop-color="#06A5FF"/>
<stop offset="1" stop-color="#06A5FF" stop-opacity="0"/>
</linearGradient>
<linearGradient id="paint6_linear_6977_21090" x1="36.6098" y1="110.125" x2="36.6098" y2="259.57" gradientUnits="userSpaceOnUse">
<stop stop-color="#06A5FF"/>
<stop offset="1" stop-color="#06A5FF" stop-opacity="0"/>
</linearGradient>
<linearGradient id="paint7_linear_6977_21090" x1="55.0171" y1="125.212" x2="55.0171" y2="257.959" gradientUnits="userSpaceOnUse">
<stop stop-color="#06A5FF"/>
<stop offset="1" stop-color="#06A5FF" stop-opacity="0"/>
</linearGradient>
<linearGradient id="paint8_linear_6977_21090" x1="437.593" y1="-47.3129" x2="437.593" y2="111.717" gradientUnits="userSpaceOnUse">
<stop stop-color="#06A5FF"/>
<stop offset="1" stop-color="#06A5FF" stop-opacity="0"/>
</linearGradient>
<linearGradient id="paint9_linear_6977_21090" x1="425.61" y1="-36.8751" x2="425.61" y2="112.57" gradientUnits="userSpaceOnUse">
<stop stop-color="#06A5FF"/>
<stop offset="1" stop-color="#06A5FF" stop-opacity="0"/>
</linearGradient>
<linearGradient id="paint10_linear_6977_21090" x1="444.017" y1="-21.7878" x2="444.017" y2="110.959" gradientUnits="userSpaceOnUse">
<stop stop-color="#06A5FF"/>
<stop offset="1" stop-color="#06A5FF" stop-opacity="0"/>
</linearGradient>
<linearGradient id="paint11_linear_6977_21090" x1="624.373" y1="474.5" x2="624.373" y2="264.886" gradientUnits="userSpaceOnUse">
<stop stop-color="#06A5FF"/>
<stop offset="1" stop-color="#06A5FF" stop-opacity="0"/>
</linearGradient>
<linearGradient id="paint12_linear_6977_21090" x1="622.195" y1="393.462" x2="622.195" y2="291.082" gradientUnits="userSpaceOnUse">
<stop stop-color="#06A5FF"/>
<stop offset="1" stop-color="#06A5FF" stop-opacity="0"/>
</linearGradient>
<linearGradient id="paint13_linear_6977_21090" x1="630.575" y1="352.635" x2="630.575" y2="262.946" gradientUnits="userSpaceOnUse">
<stop stop-color="#06A5FF"/>
<stop offset="1" stop-color="#06A5FF" stop-opacity="0"/>
</linearGradient>
<clipPath id="clip0_6977_21090">
<rect width="865" height="364" fill="white" transform="translate(20 -5)"/>
</clipPath>
</defs>
</svg>
