<svg width="375" height="615" viewBox="0 0 375 615" fill="none" xmlns="http://www.w3.org/2000/svg">
<rect width="375" height="615" fill="url(#paint0_linear_250_431)"/>
<g clip-path="url(#clip0_250_431)">
<path d="M51.5621 51.7689C91.5322 62.6516 115.162 103.695 104.34 143.442C93.5176 183.189 52.3425 206.588 12.3724 195.705C-27.5978 184.822 -51.2271 143.779 -40.4051 104.032C-29.5832 64.2851 11.5919 40.8862 51.5621 51.7689Z" fill="url(#paint1_linear_250_431)"/>
<g style="mix-blend-mode:multiply" opacity="0.24">
<path d="M80.6258 180.897L-40.751 107.652C-44.3896 123.757 -42.4782 139.929 -36.2184 154.086C-9.55584 163.933 34.6569 180.34 64.4123 191.383C70.237 188.605 75.692 185.082 80.6258 180.897Z" fill="#082D42"/>
</g>
<g style="mix-blend-mode:multiply" opacity="0.24">
<path d="M104.271 143.692C106.535 135.379 107.296 127.016 106.721 118.883L-29.4852 81.7976C-31.7162 85.0441 -33.7044 88.4912 -35.4245 92.1289L100.956 153.27C102.259 150.197 103.37 147.004 104.271 143.692Z" fill="#082D42"/>
</g>
<g style="mix-blend-mode:multiply" opacity="0.24">
<path d="M105.325 108.862C104.447 104.685 103.211 100.607 101.645 96.6682L31.0056 49.449C18.2836 49.6262 6.00873 53.0678 -4.75584 59.1668C24.4278 72.2886 84.2957 99.3498 105.325 108.862Z" fill="#082D42"/>
</g>
</g>
<g clip-path="url(#clip1_250_431)">
<path d="M326.134 542.754C347.63 537.845 367.189 532.007 382.745 526.125C382.448 528.353 382.031 530.553 381.502 532.714C380.662 536.122 379.536 539.436 378.146 542.622C370.703 559.69 355.678 573.068 336.318 577.489C330.636 578.786 324.952 579.229 319.406 578.894C309.092 578.275 299.239 574.984 290.693 569.56C283.576 565.05 277.369 559.059 272.554 551.901C288.184 550.285 306.608 547.213 326.134 542.754Z" fill="url(#paint2_linear_250_431)"/>
<path d="M381.709 503.984C382.62 507.976 383.125 511.965 383.255 515.907C368.395 521.327 347.385 527.378 323.851 532.752C302.487 537.631 282.758 541.102 267.524 542.874C267.281 542.343 267.046 541.807 266.82 541.268C265.45 537.994 264.34 534.555 263.522 530.972C263.318 530.076 263.135 529.18 262.971 528.284C262.927 528.051 262.889 527.822 262.85 527.593C262.58 526.035 262.374 524.485 262.228 522.936C261.117 511.381 263.287 500.11 268.062 490.203C275.797 474.157 290.366 461.702 308.912 457.468C323.664 454.099 338.405 456.502 350.828 463.219C355.468 465.723 359.786 468.828 363.661 472.459C370.457 478.822 375.892 486.801 379.311 495.971C379.413 496.241 379.511 496.511 379.605 496.783C380.12 498.211 380.585 499.675 380.992 501.16C381.253 502.089 381.491 503.032 381.709 503.984Z" fill="url(#paint3_linear_250_431)"/>
<path d="M381.709 503.984C382.62 507.976 383.125 511.965 383.255 515.907C368.395 521.327 347.385 527.378 323.851 532.752C302.487 537.631 282.758 541.102 267.524 542.874C267.281 542.343 267.046 541.807 266.82 541.268C265.45 537.994 264.34 534.555 263.522 530.972C263.318 530.076 263.135 529.18 262.971 528.284C262.927 528.051 262.889 527.822 262.85 527.593C262.58 526.035 262.374 524.485 262.228 522.936C261.117 511.381 263.287 500.11 268.062 490.203C275.797 474.157 290.366 461.702 308.912 457.468C323.664 454.099 338.405 456.502 350.828 463.219C355.468 465.723 359.786 468.828 363.661 472.459C370.457 478.822 375.892 486.801 379.311 495.971C379.413 496.241 379.511 496.511 379.605 496.783C380.12 498.211 380.585 499.675 380.992 501.16C381.253 502.089 381.491 503.032 381.709 503.984Z" fill="url(#paint4_linear_250_431)"/>
<path style="mix-blend-mode:lighten" opacity="0.3" d="M330.084 555.12C348.369 550.945 365.198 545.446 379.49 539.277C372.621 557.93 356.928 572.782 336.318 577.489C315.709 582.195 295.493 575.743 281.225 562.173C296.144 561.388 312.78 559.072 330.084 555.12Z" fill="url(#paint5_radial_250_431)"/>
<path style="mix-blend-mode:lighten" opacity="0.3" d="M381.709 503.984C382.423 507.111 382.889 510.239 383.12 513.343C368.404 520.163 348.473 526.814 326.137 531.914C303.802 537.015 282.56 539.724 266.278 539.923C265.155 537.055 264.229 534.068 263.522 530.972C261.688 522.94 261.492 514.919 262.715 507.273C262.979 505.607 263.311 503.962 263.706 502.339C269.019 480.623 285.904 462.721 308.912 457.468C331.92 452.214 355.267 461.153 369.453 478.686C370.37 479.821 371.256 480.996 372.095 482.205C376.542 488.578 379.867 495.918 381.709 503.984Z" fill="url(#paint6_radial_250_431)"/>
<g style="mix-blend-mode:multiply" opacity="0.24">
<path d="M363.661 472.459L262.971 528.284C260.51 514.882 262.553 501.632 268.062 490.203C289.99 483.082 326.354 471.209 350.828 463.219C355.468 465.724 359.786 468.828 363.661 472.459Z" fill="#082D42"/>
</g>
<g style="mix-blend-mode:multiply" opacity="0.24">
<path d="M381.709 503.984C383.291 510.916 383.654 517.833 382.94 524.512L271.323 549.999C269.612 547.242 268.104 544.329 266.819 541.268L379.311 495.971C380.274 498.551 381.078 501.223 381.709 503.984Z" fill="#082D42"/>
</g>
<g style="mix-blend-mode:multiply" opacity="0.24">
<path d="M381.502 532.714C380.663 536.122 379.536 539.436 378.146 542.622L319.406 578.894C309.092 578.275 299.239 574.984 290.693 569.56C314.766 559.836 364.154 539.769 381.502 532.714Z" fill="#082D42"/>
</g>
<path d="M426.031 496.837C429.001 509.844 410.019 526.097 379.491 539.277C382.475 531.174 383.79 522.355 383.12 513.343C400.274 505.4 409.681 498.512 406.661 492.906C403.642 487.299 396.011 485.528 374.968 486.307C374.129 485.098 370.37 479.821 369.453 478.686C400.723 477.928 423.175 484.331 426.031 496.837Z" fill="url(#paint7_linear_250_431)"/>
<path d="M383.12 513.343C383.79 522.355 382.475 531.174 379.491 539.277C365.198 545.446 348.369 550.945 330.084 555.12C312.78 559.072 296.144 561.388 281.225 562.173C274.82 556.082 269.652 548.546 266.278 539.923C282.56 539.724 303.587 537.063 326.137 531.914C348.687 526.765 368.404 520.163 383.12 513.343Z" fill="url(#paint8_linear_250_431)"/>
<path d="M281.225 562.173C246.7 563.986 221.393 557.594 218.349 544.261C215.304 530.928 233.867 515.425 263.706 502.339C263.31 503.962 262.513 509.922 262.25 511.589C243.221 519.965 230.523 528.519 231.523 532.898C233.088 539.752 247.634 540.159 266.278 539.923C269.652 548.546 274.82 556.082 281.225 562.173Z" fill="url(#paint9_linear_250_431)"/>
</g>
<defs>
<linearGradient id="paint0_linear_250_431" x1="291.081" y1="110.7" x2="399.704" y2="-35.6937" gradientUnits="userSpaceOnUse">
<stop stop-color="#2C3D5B"/>
<stop offset="1" stop-color="#FB923C"/>
</linearGradient>
<linearGradient id="paint1_linear_250_431" x1="166.749" y1="48.5325" x2="-19.5761" y2="178.674" gradientUnits="userSpaceOnUse">
<stop stop-color="#292EA6" stop-opacity="0"/>
<stop offset="1" stop-color="#3E6AAB"/>
</linearGradient>
<linearGradient id="paint2_linear_250_431" x1="301.394" y1="509.485" x2="361.636" y2="576.339" gradientUnits="userSpaceOnUse">
<stop stop-color="#10659C" stop-opacity="0"/>
<stop offset="1" stop-color="#1DADFF"/>
</linearGradient>
<linearGradient id="paint3_linear_250_431" x1="271.428" y1="457.137" x2="359.051" y2="554.367" gradientUnits="userSpaceOnUse">
<stop stop-color="#10659C" stop-opacity="0"/>
<stop offset="1" stop-color="#1DADFF"/>
</linearGradient>
<linearGradient id="paint4_linear_250_431" x1="271.428" y1="457.137" x2="359.051" y2="554.367" gradientUnits="userSpaceOnUse">
<stop stop-color="#10659C" stop-opacity="0"/>
<stop offset="1" stop-color="#1DADFF"/>
</linearGradient>
<radialGradient id="paint5_radial_250_431" cx="0" cy="0" r="1" gradientUnits="userSpaceOnUse" gradientTransform="translate(302.515 561.411) rotate(-12.8629) scale(72.5658 73.6923)">
<stop stop-color="#FFDB82" stop-opacity="0"/>
<stop offset="0.19" stop-color="#FFDB82" stop-opacity="0.01"/>
<stop offset="0.33" stop-color="#FFDB82" stop-opacity="0.05"/>
<stop offset="0.44" stop-color="#FFDB82" stop-opacity="0.11"/>
<stop offset="0.55" stop-color="#FFDB82" stop-opacity="0.19"/>
<stop offset="0.65" stop-color="#FFDB82" stop-opacity="0.3"/>
<stop offset="0.74" stop-color="#FFDB82" stop-opacity="0.44"/>
<stop offset="0.83" stop-color="#FFDB82" stop-opacity="0.6"/>
<stop offset="0.92" stop-color="#FFDB82" stop-opacity="0.78"/>
<stop offset="1" stop-color="#FFDB82"/>
</radialGradient>
<radialGradient id="paint6_radial_250_431" cx="0" cy="0" r="1" gradientUnits="userSpaceOnUse" gradientTransform="translate(277.063 477.336) rotate(-12.8629) scale(100.317 101.874)">
<stop stop-color="#FFDB82" stop-opacity="0"/>
<stop offset="0.19" stop-color="#FFDB82" stop-opacity="0.01"/>
<stop offset="0.33" stop-color="#FFDB82" stop-opacity="0.05"/>
<stop offset="0.44" stop-color="#FFDB82" stop-opacity="0.11"/>
<stop offset="0.55" stop-color="#FFDB82" stop-opacity="0.19"/>
<stop offset="0.65" stop-color="#FFDB82" stop-opacity="0.3"/>
<stop offset="0.74" stop-color="#FFDB82" stop-opacity="0.44"/>
<stop offset="0.83" stop-color="#FFDB82" stop-opacity="0.6"/>
<stop offset="0.92" stop-color="#FFDB82" stop-opacity="0.78"/>
<stop offset="1" stop-color="#FFDB82"/>
</radialGradient>
<linearGradient id="paint7_linear_250_431" x1="296.237" y1="419.106" x2="410.507" y2="520.57" gradientUnits="userSpaceOnUse">
<stop stop-color="#1E529D" stop-opacity="0"/>
<stop offset="0.13" stop-color="#1E529D" stop-opacity="0.16"/>
<stop offset="0.55" stop-color="#1E529D" stop-opacity="0.61"/>
<stop offset="0.85" stop-color="#1E529D" stop-opacity="0.89"/>
<stop offset="1" stop-color="#1E529D"/>
</linearGradient>
<linearGradient id="paint8_linear_250_431" x1="254.185" y1="466.464" x2="368.459" y2="567.927" gradientUnits="userSpaceOnUse">
<stop stop-color="#1E529D" stop-opacity="0"/>
<stop offset="0.13" stop-color="#1E529D" stop-opacity="0.16"/>
<stop offset="0.55" stop-color="#1E529D" stop-opacity="0.61"/>
<stop offset="0.85" stop-color="#1E529D" stop-opacity="0.89"/>
<stop offset="1" stop-color="#1E529D"/>
</linearGradient>
<linearGradient id="paint9_linear_250_431" x1="219.667" y1="505.344" x2="333.936" y2="606.804" gradientUnits="userSpaceOnUse">
<stop stop-color="#1E529D" stop-opacity="0"/>
<stop offset="0.13" stop-color="#1E529D" stop-opacity="0.16"/>
<stop offset="0.55" stop-color="#1E529D" stop-opacity="0.61"/>
<stop offset="0.85" stop-color="#1E529D" stop-opacity="0.89"/>
<stop offset="1" stop-color="#1E529D"/>
</linearGradient>
<clipPath id="clip0_250_431">
<rect width="150.014" height="149.176" fill="white" transform="matrix(0.964875 0.262708 0.262708 -0.964875 -60 176)"/>
</clipPath>
<clipPath id="clip1_250_431">
<rect width="213.028" height="123.11" fill="white" transform="translate(204 481.424) rotate(-12.8629)"/>
</clipPath>
</defs>
</svg>
