<svg width="130" height="113" viewBox="0 0 130 113" fill="none" xmlns="http://www.w3.org/2000/svg">
<g clip-path="url(#clip0_147_1165)">
<path d="M46.5065 72.8993C60.7154 76.2733 74.0467 78.5202 85.0141 79.5658C84.1826 80.8138 83.2885 82.0102 82.339 83.1505C80.8389 84.9472 79.196 86.6027 77.434 88.1044C67.9975 96.1502 55.1424 99.7553 42.3459 96.7166C38.5899 95.8247 35.0843 94.4196 31.8891 92.589C25.9454 89.1871 21.0615 84.3188 17.5801 78.5556C14.6793 73.7601 12.7539 68.3449 11.9981 62.6378C21.7551 66.2624 33.5997 69.8344 46.5065 72.8993Z" fill="url(#paint0_linear_147_1165)"/>
<path d="M90.9056 65.9867C90.2737 68.6479 89.4015 71.1877 88.32 73.5891C77.9018 72.4718 63.6458 69.9257 48.0897 66.2318C33.9685 62.8786 21.2314 59.1619 11.6636 55.7477C11.6753 55.3585 11.6934 54.9677 11.7171 54.5783C11.8661 52.2128 12.2179 49.825 12.7851 47.4363C12.9269 46.8391 13.0822 46.2482 13.2481 45.6629C13.2902 45.5106 13.3345 45.3618 13.3788 45.2131C13.6763 44.1996 14.0099 43.2101 14.3783 42.238C17.1145 34.9837 21.7161 28.8645 27.4638 24.3281C36.7732 16.981 49.0862 13.7954 61.3449 16.7064C71.0959 19.0218 79.1437 24.7945 84.5476 32.472C86.5673 35.3371 88.2191 38.4671 89.453 41.7827C91.6191 47.595 92.502 53.9754 91.8369 60.4781C91.8184 60.6697 91.797 60.8606 91.7727 61.0508C91.6589 62.0589 91.5049 63.0727 91.3099 64.0829C91.1923 64.7165 91.0564 65.3518 90.9056 65.9867Z" fill="url(#paint1_linear_147_1165)"/>
<path d="M90.9056 65.9867C90.2737 68.6479 89.4015 71.1877 88.32 73.5891C77.9018 72.4718 63.6458 69.9257 48.0897 66.2318C33.9685 62.8786 21.2314 59.1619 11.6636 55.7477C11.6753 55.3585 11.6934 54.9677 11.7171 54.5783C11.8661 52.2128 12.2179 49.825 12.7851 47.4363C12.9269 46.8391 13.0822 46.2482 13.2481 45.6629C13.2902 45.5106 13.3345 45.3618 13.3788 45.2131C13.6763 44.1996 14.0099 43.2101 14.3783 42.238C17.1145 34.9837 21.7161 28.8645 27.4638 24.3281C36.7732 16.981 49.0862 13.7954 61.3449 16.7064C71.0959 19.0218 79.1437 24.7945 84.5476 32.472C86.5673 35.3371 88.2191 38.4671 89.453 41.7827C91.6191 47.595 92.502 53.9754 91.8369 60.4781C91.8184 60.6697 91.797 60.8606 91.7727 61.0508C91.6589 62.0589 91.5049 63.0727 91.3099 64.0829C91.1923 64.7165 91.0564 65.3518 90.9056 65.9867Z" fill="url(#paint2_linear_147_1165)"/>
<path style="mix-blend-mode:lighten" opacity="0.3" d="M45.2177 81.4742C57.3037 84.3441 68.9144 85.9926 79.2156 86.4941C69.654 95.6586 55.9687 99.9515 42.3458 96.7166C28.7228 93.4817 18.6133 83.6732 14.1284 71.3448C23.2188 75.2582 33.7798 78.7582 45.2177 81.4742Z" fill="url(#paint3_radial_147_1165)"/>
<path style="mix-blend-mode:lighten" opacity="0.3" d="M90.9056 65.9867C90.4107 68.071 89.7683 70.0836 88.9933 72.0126C78.2493 71.7765 64.4576 69.9072 49.6939 66.4014C34.9303 62.8956 21.5191 58.2778 11.7909 53.6128C11.9666 51.563 12.295 49.5003 12.7851 47.4363C14.0565 42.082 16.2976 37.2151 19.2711 32.9908C19.9175 32.0694 20.598 31.1806 21.3098 30.3237C30.8478 18.8661 46.1369 13.0951 61.3449 16.7064C76.553 20.3176 87.7911 32.5378 91.0628 47.2179C91.2736 48.1683 91.4542 49.133 91.5974 50.1041C92.365 55.2321 92.1826 60.6092 90.9056 65.9867Z" fill="url(#paint4_radial_147_1165)"/>
<g style="mix-blend-mode:multiply" opacity="0.24">
<path d="M89.4531 41.7827L13.2482 45.6628C15.7256 36.9047 20.8331 29.5613 27.4639 24.3281C42.5795 26.5026 67.665 30.0708 84.5477 32.472C86.5674 35.3371 88.2192 38.4671 89.4531 41.7827Z" fill="#082D42"/>
</g>
<g style="mix-blend-mode:multiply" opacity="0.24">
<path d="M90.9057 65.9867C89.8084 70.6076 87.991 74.8615 85.604 78.6555L11.8254 61.1361C11.6197 58.9803 11.5805 56.7906 11.7171 54.5783L91.837 60.4781C91.6506 62.3081 91.3428 64.1459 90.9057 65.9867Z" fill="#082D42"/>
</g>
<g style="mix-blend-mode:multiply" opacity="0.24">
<path d="M82.339 83.1505C80.8389 84.9472 79.196 86.6027 77.434 88.1044L31.8891 92.5891C25.9454 89.1871 21.0615 84.3188 17.5801 78.5556C34.7347 79.7995 69.9631 82.2819 82.339 83.1505Z" fill="#082D42"/>
</g>
<path d="M119.329 74.7266C117.27 83.3973 101.22 87.5635 79.2157 86.4941C83.3694 82.5133 86.7428 77.6122 88.9934 72.0127C101.515 72.2912 109.126 70.9259 108.981 66.6775C108.836 62.4292 104.824 59.1247 92.0986 53.408C91.9555 52.4369 91.2737 48.1684 91.0628 47.218C109.856 55.9527 121.309 66.3893 119.329 74.7266Z" fill="url(#paint5_linear_147_1165)"/>
<path d="M88.9935 72.0126C86.7429 77.6121 83.3694 82.5132 79.2158 86.4941C68.9146 85.9926 57.3039 84.3441 45.2179 81.4742C33.78 78.7581 23.219 75.2581 14.1286 71.3448C12.1148 65.8106 11.2609 59.774 11.791 53.6128C21.5192 58.2778 34.7889 62.862 49.6941 66.4014C64.5992 69.9407 78.2495 71.7765 88.9935 72.0126Z" fill="url(#paint6_linear_147_1165)"/>
<path d="M14.1288 71.3448C-6.90787 62.2857 -20.0584 51.017 -17.9478 42.1289C-15.8373 33.2408 -0.256284 29.4011 21.3102 30.3237C20.5984 31.1806 18.3732 34.52 17.7268 35.4414C3.9644 34.8714 -6.09107 36.2687 -6.78427 39.1879C-7.86914 43.7566 0.649927 48.2754 11.7912 53.6128C11.2611 59.774 12.115 65.8106 14.1288 71.3448Z" fill="url(#paint7_linear_147_1165)"/>
</g>
<defs>
<linearGradient id="paint0_linear_147_1165" x1="41.592" y1="45.6837" x2="58.1364" y2="103.347" gradientUnits="userSpaceOnUse">
<stop stop-color="#10659C" stop-opacity="0"/>
<stop offset="1" stop-color="#1DADFF"/>
</linearGradient>
<linearGradient id="paint1_linear_147_1165" x1="39.1812" y1="5.49317" x2="63.248" y2="89.3607" gradientUnits="userSpaceOnUse">
<stop stop-color="#10659C" stop-opacity="0"/>
<stop offset="1" stop-color="#1DADFF"/>
</linearGradient>
<linearGradient id="paint2_linear_147_1165" x1="39.1812" y1="5.49317" x2="63.248" y2="89.3607" gradientUnits="userSpaceOnUse">
<stop stop-color="#10659C" stop-opacity="0"/>
<stop offset="1" stop-color="#1DADFF"/>
</linearGradient>
<radialGradient id="paint3_radial_147_1165" cx="0" cy="0" r="1" gradientUnits="userSpaceOnUse" gradientTransform="translate(26.9959 77.1442) rotate(13.358) scale(48.0622 49.2248)">
<stop stop-color="#FFDB82" stop-opacity="0"/>
<stop offset="0.19" stop-color="#FFDB82" stop-opacity="0.01"/>
<stop offset="0.33" stop-color="#FFDB82" stop-opacity="0.05"/>
<stop offset="0.44" stop-color="#FFDB82" stop-opacity="0.11"/>
<stop offset="0.55" stop-color="#FFDB82" stop-opacity="0.19"/>
<stop offset="0.65" stop-color="#FFDB82" stop-opacity="0.3"/>
<stop offset="0.74" stop-color="#FFDB82" stop-opacity="0.44"/>
<stop offset="0.83" stop-color="#FFDB82" stop-opacity="0.6"/>
<stop offset="0.92" stop-color="#FFDB82" stop-opacity="0.78"/>
<stop offset="1" stop-color="#FFDB82"/>
</radialGradient>
<radialGradient id="paint4_radial_147_1165" cx="0" cy="0" r="1" gradientUnits="userSpaceOnUse" gradientTransform="translate(36.5911 19.2591) rotate(13.358) scale(66.4423 68.0495)">
<stop stop-color="#FFDB82" stop-opacity="0"/>
<stop offset="0.19" stop-color="#FFDB82" stop-opacity="0.01"/>
<stop offset="0.33" stop-color="#FFDB82" stop-opacity="0.05"/>
<stop offset="0.44" stop-color="#FFDB82" stop-opacity="0.11"/>
<stop offset="0.55" stop-color="#FFDB82" stop-opacity="0.19"/>
<stop offset="0.65" stop-color="#FFDB82" stop-opacity="0.3"/>
<stop offset="0.74" stop-color="#FFDB82" stop-opacity="0.44"/>
<stop offset="0.83" stop-color="#FFDB82" stop-opacity="0.6"/>
<stop offset="0.92" stop-color="#FFDB82" stop-opacity="0.78"/>
<stop offset="1" stop-color="#FFDB82"/>
</radialGradient>
<linearGradient id="paint5_linear_147_1165" x1="65.0924" y1="-10.0172" x2="103.89" y2="84.0814" gradientUnits="userSpaceOnUse">
<stop stop-color="#1E529D" stop-opacity="0"/>
<stop offset="0.13" stop-color="#1E529D" stop-opacity="0.16"/>
<stop offset="0.55" stop-color="#1E529D" stop-opacity="0.61"/>
<stop offset="0.85" stop-color="#1E529D" stop-opacity="0.89"/>
<stop offset="1" stop-color="#1E529D"/>
</linearGradient>
<linearGradient id="paint6_linear_147_1165" x1="26.1995" y1="6.01798" x2="65.0004" y2="100.117" gradientUnits="userSpaceOnUse">
<stop stop-color="#1E529D" stop-opacity="0"/>
<stop offset="0.13" stop-color="#1E529D" stop-opacity="0.16"/>
<stop offset="0.55" stop-color="#1E529D" stop-opacity="0.61"/>
<stop offset="0.85" stop-color="#1E529D" stop-opacity="0.89"/>
<stop offset="1" stop-color="#1E529D"/>
</linearGradient>
<linearGradient id="paint7_linear_147_1165" x1="-5.72697" y1="19.1844" x2="33.0717" y2="113.28" gradientUnits="userSpaceOnUse">
<stop stop-color="#1E529D" stop-opacity="0"/>
<stop offset="0.13" stop-color="#1E529D" stop-opacity="0.16"/>
<stop offset="0.55" stop-color="#1E529D" stop-opacity="0.61"/>
<stop offset="0.85" stop-color="#1E529D" stop-opacity="0.89"/>
<stop offset="1" stop-color="#1E529D"/>
</linearGradient>
<clipPath id="clip0_147_1165">
<rect width="141.094" height="82.2351" fill="white" transform="translate(-8.00098 0.239502) rotate(13.358)"/>
</clipPath>
</defs>
</svg>
