<svg width="364" height="331" viewBox="0 0 364 331" fill="none" xmlns="http://www.w3.org/2000/svg">
<g clip-path="url(#clip0_250_430)">
<path d="M46.5065 290.899C60.7154 294.273 74.0467 296.52 85.0141 297.566C84.1826 298.814 83.2885 300.01 82.339 301.151C80.8389 302.947 79.196 304.603 77.434 306.104C67.9975 314.15 55.1424 317.755 42.3459 314.717C38.5899 313.825 35.0843 312.42 31.8891 310.589C25.9454 307.187 21.0615 302.319 17.5801 296.556C14.6793 291.76 12.7539 286.345 11.9981 280.638C21.7551 284.262 33.5997 287.834 46.5065 290.899Z" fill="url(#paint0_linear_250_430)"/>
<path d="M90.9056 283.987C90.2737 286.648 89.4015 289.188 88.32 291.589C77.9018 290.472 63.6458 287.926 48.0897 284.232C33.9685 280.879 21.2314 277.162 11.6636 273.748C11.6753 273.358 11.6934 272.968 11.7171 272.578C11.8661 270.213 12.2179 267.825 12.7851 265.436C12.9269 264.839 13.0822 264.248 13.2481 263.663C13.2902 263.511 13.3345 263.362 13.3788 263.213C13.6763 262.2 14.0099 261.21 14.3783 260.238C17.1145 252.984 21.7161 246.865 27.4638 242.328C36.7732 234.981 49.0862 231.795 61.3449 234.706C71.0959 237.022 79.1437 242.795 84.5476 250.472C86.5673 253.337 88.2191 256.467 89.453 259.783C91.6191 265.595 92.502 271.975 91.8369 278.478C91.8184 278.67 91.797 278.861 91.7727 279.051C91.6589 280.059 91.5049 281.073 91.3099 282.083C91.1923 282.717 91.0564 283.352 90.9056 283.987Z" fill="url(#paint1_linear_250_430)"/>
<path d="M90.9056 283.987C90.2737 286.648 89.4015 289.188 88.32 291.589C77.9018 290.472 63.6458 287.926 48.0897 284.232C33.9685 280.879 21.2314 277.162 11.6636 273.748C11.6753 273.358 11.6934 272.968 11.7171 272.578C11.8661 270.213 12.2179 267.825 12.7851 265.436C12.9269 264.839 13.0822 264.248 13.2481 263.663C13.2902 263.511 13.3345 263.362 13.3788 263.213C13.6763 262.2 14.0099 261.21 14.3783 260.238C17.1145 252.984 21.7161 246.865 27.4638 242.328C36.7732 234.981 49.0862 231.795 61.3449 234.706C71.0959 237.022 79.1437 242.795 84.5476 250.472C86.5673 253.337 88.2191 256.467 89.453 259.783C91.6191 265.595 92.502 271.975 91.8369 278.478C91.8184 278.67 91.797 278.861 91.7727 279.051C91.6589 280.059 91.5049 281.073 91.3099 282.083C91.1923 282.717 91.0564 283.352 90.9056 283.987Z" fill="url(#paint2_linear_250_430)"/>
<path style="mix-blend-mode:lighten" opacity="0.3" d="M45.2177 299.474C57.3037 302.344 68.9144 303.993 79.2156 304.494C69.654 313.659 55.9687 317.952 42.3458 314.717C28.7228 311.482 18.6133 301.673 14.1284 289.345C23.2188 293.258 33.7798 296.758 45.2177 299.474Z" fill="url(#paint3_radial_250_430)"/>
<path style="mix-blend-mode:lighten" opacity="0.3" d="M90.9056 283.987C90.4107 286.071 89.7683 288.084 88.9933 290.013C78.2493 289.777 64.4576 287.907 49.6939 284.401C34.9303 280.896 21.5191 276.278 11.7909 271.613C11.9666 269.563 12.295 267.5 12.7851 265.436C14.0565 260.082 16.2976 255.215 19.2711 250.991C19.9175 250.069 20.598 249.181 21.3098 248.324C30.8478 236.866 46.1369 231.095 61.3449 234.706C76.553 238.318 87.7911 250.538 91.0627 265.218C91.2736 266.168 91.4542 267.133 91.5974 268.104C92.3651 273.232 92.1826 278.609 90.9056 283.987Z" fill="url(#paint4_radial_250_430)"/>
<g style="mix-blend-mode:multiply" opacity="0.24">
<path d="M89.4531 259.783L13.2482 263.663C15.7256 254.905 20.8331 247.561 27.4639 242.328C42.5795 244.503 67.665 248.071 84.5477 250.472C86.5674 253.337 88.2192 256.467 89.4531 259.783Z" fill="#082D42"/>
</g>
<g style="mix-blend-mode:multiply" opacity="0.24">
<path d="M90.9057 283.987C89.8084 288.608 87.991 292.861 85.604 296.655L11.8254 279.136C11.6197 276.98 11.5805 274.791 11.7171 272.578L91.837 278.478C91.6506 280.308 91.3428 282.146 90.9057 283.987Z" fill="#082D42"/>
</g>
<g style="mix-blend-mode:multiply" opacity="0.24">
<path d="M82.339 301.151C80.8389 302.947 79.196 304.603 77.434 306.104L31.8891 310.589C25.9454 307.187 21.0615 302.319 17.5801 296.556C34.7347 297.799 69.9631 300.282 82.339 301.151Z" fill="#082D42"/>
</g>
<path d="M119.329 292.727C117.27 301.397 101.22 305.564 79.2157 304.494C83.3694 300.513 86.7428 295.612 88.9934 290.013C101.515 290.291 109.126 288.926 108.981 284.678C108.836 280.429 104.824 277.125 92.0986 271.408C91.9555 270.437 91.2737 266.168 91.0628 265.218C109.856 273.953 121.309 284.389 119.329 292.727Z" fill="url(#paint5_linear_250_430)"/>
<path d="M88.9935 290.013C86.7429 295.612 83.3694 300.513 79.2158 304.494C68.9146 303.993 57.3039 302.344 45.2179 299.474C33.78 296.758 23.219 293.258 14.1286 289.345C12.1148 283.811 11.2609 277.774 11.791 271.613C21.5192 276.278 34.7889 280.862 49.6941 284.401C64.5992 287.941 78.2495 289.776 88.9935 290.013Z" fill="url(#paint6_linear_250_430)"/>
<path d="M14.1288 289.345C-6.90787 280.286 -20.0584 269.017 -17.9478 260.129C-15.8373 251.241 -0.256284 247.401 21.3102 248.324C20.5984 249.181 18.3732 252.52 17.7268 253.441C3.9644 252.871 -6.09107 254.269 -6.78427 257.188C-7.86914 261.757 0.649928 266.275 11.7912 271.613C11.2611 277.774 12.115 283.811 14.1288 289.345Z" fill="url(#paint7_linear_250_430)"/>
</g>
<g clip-path="url(#clip1_250_430)">
<path d="M332.247 66.5848C349.473 64.0695 361.409 48.1444 358.908 31.0152C356.406 13.886 340.415 2.03914 323.189 4.55447C305.964 7.06981 294.028 22.9948 296.529 40.124C299.03 57.2532 315.022 69.1001 332.247 66.5848Z" fill="url(#paint8_linear_250_430)"/>
<path style="mix-blend-mode:lighten" opacity="0.3" d="M330.074 54.8558C339.69 53.4516 348.611 51.3181 356.25 48.745C351.914 57.9493 343.183 64.8777 332.344 66.4604C321.505 68.0431 311.343 63.9745 304.554 56.5235C312.288 56.7093 320.974 56.1846 330.074 54.8558Z" fill="url(#paint9_radial_250_430)"/>
<g style="mix-blend-mode:multiply" opacity="0.24">
<path d="M350.912 14.1891L296.568 38.5965C295.866 31.6935 297.482 25.0441 300.811 19.4554C312.432 16.6979 331.707 12.0928 344.68 8.99349C346.969 10.4473 349.066 12.1932 350.912 14.1891Z" fill="#082D42"/>
</g>
<g style="mix-blend-mode:multiply" opacity="0.24">
<path d="M358.892 30.9074C359.415 34.4898 359.309 38.0173 358.657 41.3811L299.958 49.9526C299.192 48.4853 298.537 46.9466 298.004 45.3419L357.994 26.7438C358.382 28.0919 358.684 29.4802 358.892 30.9074Z" fill="#082D42"/>
</g>
<g style="mix-blend-mode:multiply" opacity="0.24">
<path d="M357.567 45.4907C356.989 47.1887 356.267 48.8274 355.415 50.3912L323.554 66.5114C318.256 65.793 313.31 63.7356 309.128 60.646C321.967 56.6503 348.313 48.3937 357.567 45.4907Z" fill="#082D42"/>
</g>
</g>
<defs>
<linearGradient id="paint0_linear_250_430" x1="41.592" y1="263.684" x2="58.1364" y2="321.347" gradientUnits="userSpaceOnUse">
<stop stop-color="#10659C" stop-opacity="0"/>
<stop offset="1" stop-color="#1DADFF"/>
</linearGradient>
<linearGradient id="paint1_linear_250_430" x1="39.1812" y1="223.493" x2="63.248" y2="307.361" gradientUnits="userSpaceOnUse">
<stop stop-color="#10659C" stop-opacity="0"/>
<stop offset="1" stop-color="#1DADFF"/>
</linearGradient>
<linearGradient id="paint2_linear_250_430" x1="39.1812" y1="223.493" x2="63.248" y2="307.361" gradientUnits="userSpaceOnUse">
<stop stop-color="#10659C" stop-opacity="0"/>
<stop offset="1" stop-color="#1DADFF"/>
</linearGradient>
<radialGradient id="paint3_radial_250_430" cx="0" cy="0" r="1" gradientUnits="userSpaceOnUse" gradientTransform="translate(26.9959 295.144) rotate(13.358) scale(48.0622 49.2248)">
<stop stop-color="#FFDB82" stop-opacity="0"/>
<stop offset="0.19" stop-color="#FFDB82" stop-opacity="0.01"/>
<stop offset="0.33" stop-color="#FFDB82" stop-opacity="0.05"/>
<stop offset="0.44" stop-color="#FFDB82" stop-opacity="0.11"/>
<stop offset="0.55" stop-color="#FFDB82" stop-opacity="0.19"/>
<stop offset="0.65" stop-color="#FFDB82" stop-opacity="0.3"/>
<stop offset="0.74" stop-color="#FFDB82" stop-opacity="0.44"/>
<stop offset="0.83" stop-color="#FFDB82" stop-opacity="0.6"/>
<stop offset="0.92" stop-color="#FFDB82" stop-opacity="0.78"/>
<stop offset="1" stop-color="#FFDB82"/>
</radialGradient>
<radialGradient id="paint4_radial_250_430" cx="0" cy="0" r="1" gradientUnits="userSpaceOnUse" gradientTransform="translate(36.5911 237.259) rotate(13.358) scale(66.4423 68.0495)">
<stop stop-color="#FFDB82" stop-opacity="0"/>
<stop offset="0.19" stop-color="#FFDB82" stop-opacity="0.01"/>
<stop offset="0.33" stop-color="#FFDB82" stop-opacity="0.05"/>
<stop offset="0.44" stop-color="#FFDB82" stop-opacity="0.11"/>
<stop offset="0.55" stop-color="#FFDB82" stop-opacity="0.19"/>
<stop offset="0.65" stop-color="#FFDB82" stop-opacity="0.3"/>
<stop offset="0.74" stop-color="#FFDB82" stop-opacity="0.44"/>
<stop offset="0.83" stop-color="#FFDB82" stop-opacity="0.6"/>
<stop offset="0.92" stop-color="#FFDB82" stop-opacity="0.78"/>
<stop offset="1" stop-color="#FFDB82"/>
</radialGradient>
<linearGradient id="paint5_linear_250_430" x1="65.0924" y1="207.983" x2="103.89" y2="302.081" gradientUnits="userSpaceOnUse">
<stop stop-color="#1E529D" stop-opacity="0"/>
<stop offset="0.13" stop-color="#1E529D" stop-opacity="0.16"/>
<stop offset="0.55" stop-color="#1E529D" stop-opacity="0.61"/>
<stop offset="0.85" stop-color="#1E529D" stop-opacity="0.89"/>
<stop offset="1" stop-color="#1E529D"/>
</linearGradient>
<linearGradient id="paint6_linear_250_430" x1="26.1995" y1="224.018" x2="65.0004" y2="318.117" gradientUnits="userSpaceOnUse">
<stop stop-color="#1E529D" stop-opacity="0"/>
<stop offset="0.13" stop-color="#1E529D" stop-opacity="0.16"/>
<stop offset="0.55" stop-color="#1E529D" stop-opacity="0.61"/>
<stop offset="0.85" stop-color="#1E529D" stop-opacity="0.89"/>
<stop offset="1" stop-color="#1E529D"/>
</linearGradient>
<linearGradient id="paint7_linear_250_430" x1="-5.72697" y1="237.184" x2="33.0717" y2="331.28" gradientUnits="userSpaceOnUse">
<stop stop-color="#1E529D" stop-opacity="0"/>
<stop offset="0.13" stop-color="#1E529D" stop-opacity="0.16"/>
<stop offset="0.55" stop-color="#1E529D" stop-opacity="0.61"/>
<stop offset="0.85" stop-color="#1E529D" stop-opacity="0.89"/>
<stop offset="1" stop-color="#1E529D"/>
</linearGradient>
<linearGradient id="paint8_linear_250_430" x1="301.755" y1="8.39362" x2="338.657" y2="47.1651" gradientUnits="userSpaceOnUse">
<stop stop-color="#81335F" stop-opacity="0"/>
<stop offset="1" stop-color="#3FAAE7"/>
</linearGradient>
<radialGradient id="paint9_radial_250_430" cx="0" cy="0" r="1" gradientUnits="userSpaceOnUse" gradientTransform="translate(315.576 56.9706) rotate(-8.30787) scale(37.5989 37.5243)">
<stop stop-color="#FFDB82" stop-opacity="0"/>
<stop offset="0.19" stop-color="#FFDB82" stop-opacity="0.01"/>
<stop offset="0.33" stop-color="#FFDB82" stop-opacity="0.05"/>
<stop offset="0.44" stop-color="#FFDB82" stop-opacity="0.11"/>
<stop offset="0.55" stop-color="#FFDB82" stop-opacity="0.19"/>
<stop offset="0.65" stop-color="#FFDB82" stop-opacity="0.3"/>
<stop offset="0.74" stop-color="#FFDB82" stop-opacity="0.44"/>
<stop offset="0.83" stop-color="#FFDB82" stop-opacity="0.6"/>
<stop offset="0.92" stop-color="#FFDB82" stop-opacity="0.78"/>
<stop offset="1" stop-color="#FFDB82"/>
</radialGradient>
<clipPath id="clip0_250_430">
<rect width="141.094" height="82.2351" fill="white" transform="translate(-8.00098 218.24) rotate(13.358)"/>
</clipPath>
<clipPath id="clip1_250_430">
<rect width="63.0404" height="62.6882" fill="white" transform="translate(292 9.10889) rotate(-8.30787)"/>
</clipPath>
</defs>
</svg>
