<svg width="16" height="17" viewBox="0 0 16 17" fill="none" xmlns="http://www.w3.org/2000/svg">
<path d="M2.97129 0.0804252C3.52008 -0.00611604 4.07819 -0.00663426 4.63268 0.00580281L4.585 0.0498508C3.85951 0.525051 3.25786 1.17748 2.82309 1.92629C1.95145 3.42548 1.63379 5.19828 1.70582 6.91667C1.77734 8.31584 2.11314 9.72278 2.82516 10.939C2.94435 11.1567 3.14282 11.3489 3.14593 11.6132C3.16821 12.1801 2.88786 12.7144 2.50853 13.1197C2.53341 13.1456 2.55776 13.1715 2.58264 13.1974C2.93761 13.585 3.31642 13.9493 3.6771 14.3318C4.18961 14.9111 4.77363 15.4241 5.27578 16.0139C4.44042 16.0263 3.59522 16.0652 2.76971 15.9092C1.7307 15.7076 0.80828 14.9873 0.3678 14.0245C0.100922 13.4679 0.0211171 12.8455 0.000388658 12.2356C-0.000129553 9.41963 -0.000129553 6.60419 0.000388658 3.78875C0.0117893 2.84767 0.261049 1.86307 0.923323 1.16504C1.44775 0.573762 2.19035 0.18925 2.97129 0.0804252Z" fill="#E2E8F0"/>
<path d="M10.5799 5.25098C10.8022 5.25098 11.0245 5.25098 11.2474 5.25098C11.2437 6.55324 11.2437 7.85602 11.2474 9.15829C11.0297 9.12772 10.6675 9.26711 10.5856 8.97743C10.5721 7.7358 10.5846 6.49313 10.5799 5.25098Z" fill="#E2E8F0"/>
<path d="M3.77861 5.2973C4.81296 5.29626 5.84627 5.28952 6.8801 5.29678C6.87285 5.4994 6.86144 5.72016 6.72567 5.88391C6.01883 6.76383 5.32702 7.65516 4.6207 8.53508C5.37159 8.53974 6.12248 8.53664 6.87336 8.53664C6.85937 8.71231 6.92104 8.917 6.80703 9.06936C6.73552 9.16782 6.60597 9.15901 6.4987 9.16004C5.55918 9.15486 4.61966 9.16471 3.68066 9.15486C3.68326 8.95639 3.68533 8.73667 3.82421 8.57861C4.52276 7.70232 5.2296 6.83224 5.92504 5.95387C5.21042 5.95491 4.49529 5.94921 3.78068 5.95698C3.77601 5.73726 3.77757 5.51702 3.77861 5.2973Z" fill="#E2E8F0"/>
<path d="M12.9017 6.15953C13.6459 5.99319 14.4533 6.48186 14.6569 7.21461C14.9124 7.9769 14.446 8.88325 13.6754 9.11541C13.0209 9.34601 12.2374 9.04493 11.898 8.44174C11.6316 7.99607 11.6155 7.41257 11.8575 6.95395C12.0627 6.54923 12.4592 6.25333 12.9017 6.15953ZM12.8893 6.81973C12.4353 6.97986 12.1907 7.53227 12.368 7.97845C12.5146 8.40028 13.0085 8.65835 13.4376 8.52879C13.9273 8.41168 14.2232 7.83802 14.0496 7.368C13.9045 6.90265 13.3422 6.63421 12.8893 6.81973Z" fill="#E2E8F0"/>
<path d="M7.38901 6.70193C7.7471 6.25835 8.37413 6.03966 8.92654 6.19771C9.10895 6.24384 9.27426 6.33504 9.43387 6.43195C9.43232 6.38323 9.42869 6.28633 9.42714 6.23762C9.63598 6.23658 9.8443 6.2371 10.0531 6.23606C10.0521 7.2103 10.0511 8.18454 10.0537 9.15929C9.90026 9.15515 9.74428 9.17328 9.59348 9.14219C9.48777 9.09918 9.45512 8.98362 9.41314 8.8893C8.83689 9.33704 7.93158 9.23547 7.45275 8.69031C6.94231 8.16225 6.91588 7.26264 7.38901 6.70193ZM8.23266 6.83252C7.7528 7.00146 7.52012 7.61969 7.76316 8.06535C7.97044 8.49961 8.55395 8.68202 8.97111 8.44261C9.35821 8.23947 9.537 7.73525 9.37065 7.33208C9.20949 6.89367 8.66588 6.64804 8.23266 6.83252Z" fill="#E2E8F0"/>
<path d="M4.58484 0.0500869C4.70092 0.0169214 4.82218 0.00655717 4.94241 0.00292969C7.01474 0.0107029 9.08706 0.00189326 11.1594 0.00552074C11.7134 0.0122575 12.2704 -0.0250537 12.8203 0.0594147C13.5815 0.117454 14.3143 0.439782 14.8807 0.949183C15.5917 1.62856 15.971 2.60694 15.9829 3.58273C15.9834 6.32977 15.9819 9.07888 15.9845 11.8249C15.9772 11.8409 15.9632 11.8741 15.956 11.8907C15.2175 12.7167 14.2246 13.2759 13.1866 13.6376C11.788 14.1143 10.2898 14.2677 8.81967 14.1558C7.3495 14.0294 5.86793 13.6454 4.62112 12.8328C3.98372 13.1163 3.2805 13.2551 2.58247 13.1976C2.5576 13.1717 2.53324 13.1458 2.50837 13.1199C2.8877 12.7147 3.16805 12.1804 3.14577 11.6135C3.14266 11.3492 2.94419 11.1569 2.825 10.9393C2.11297 9.72302 1.77717 8.31608 1.70566 6.9169C1.63363 5.19852 1.95129 3.42572 2.82292 1.92653C3.2577 1.17771 3.85935 0.525287 4.58484 0.0500869ZM10.5795 5.25137C10.5842 6.49353 10.5717 7.7362 10.5852 8.97783C10.6671 9.26751 11.0293 9.12811 11.247 9.15869C11.2433 7.85642 11.2433 6.55364 11.247 5.25137C11.0241 5.25137 10.8018 5.25137 10.5795 5.25137ZM3.77851 5.29749C3.77747 5.51722 3.77591 5.73746 3.78058 5.95718C4.49519 5.9494 5.21032 5.9551 5.92494 5.95407C5.2295 6.83244 4.52266 7.70251 3.82411 8.57881C3.68523 8.73686 3.68315 8.95658 3.68056 9.15506C4.61956 9.1649 5.55908 9.15506 6.4986 9.16024C6.60587 9.1592 6.73542 9.16801 6.80693 9.06955C6.92094 8.9172 6.85927 8.71251 6.87326 8.53683C6.12238 8.53683 5.37149 8.53994 4.6206 8.53528C5.32692 7.65536 6.01873 6.76403 6.72557 5.88411C6.86134 5.72035 6.87275 5.4996 6.88 5.29698C5.84617 5.28972 4.81286 5.29646 3.77851 5.29749ZM12.9016 6.1598C12.4591 6.25359 12.0626 6.54949 11.8574 6.95422C11.6154 7.41283 11.6315 7.99634 11.8978 8.442C12.2373 9.0452 13.0208 9.34628 13.6753 9.11567C14.4459 8.88352 14.9123 7.97716 14.6568 7.21488C14.4531 6.48213 13.6458 5.99345 12.9016 6.1598ZM7.38888 6.70236C6.91576 7.26307 6.94219 8.16268 7.45262 8.69074C7.93145 9.2359 8.83677 9.33747 9.41302 8.88974C9.45499 8.98405 9.48764 9.09961 9.59336 9.14262C9.74415 9.17371 9.90014 9.15558 10.0535 9.15972C10.0509 8.18497 10.052 7.21073 10.053 6.23649C9.84417 6.23753 9.63585 6.23701 9.42701 6.23805C9.42856 6.28676 9.43219 6.38367 9.43375 6.43238C9.27414 6.33547 9.10883 6.24427 8.92642 6.19815C8.374 6.04009 7.74697 6.25878 7.38888 6.70236Z" fill="#1E293B"/>
<path d="M8.23236 6.83292C8.66559 6.64844 9.20919 6.89407 9.37036 7.33247C9.5367 7.73564 9.35792 8.23986 8.97081 8.443C8.55365 8.68241 7.97015 8.5 7.76286 8.06574C7.51982 7.62008 7.7525 7.00186 8.23236 6.83292Z" fill="#1E293B"/>
<path d="M12.8894 6.82001C13.3423 6.63449 13.9045 6.90293 14.0496 7.36828C14.2232 7.8383 13.9273 8.41196 13.4376 8.52907C13.0086 8.65863 12.5147 8.40056 12.3681 7.97873C12.1908 7.53255 12.4354 6.98014 12.8894 6.82001Z" fill="#1E293B"/>
<path d="M15.956 11.8903L15.9969 11.8457C16.0182 12.6557 15.9306 13.5009 15.5331 14.2217C15.0709 15.0674 14.2324 15.6955 13.2893 15.8966C12.7602 16.0059 12.2176 16.0303 11.6787 16.0235C10.0209 16.024 8.36317 16.0235 6.70541 16.024C6.22865 16.0163 5.75086 16.0386 5.27566 16.0137C4.77352 15.424 4.18949 14.9109 3.67698 14.3316C3.31631 13.9491 2.93749 13.5848 2.58252 13.1972C3.28055 13.2547 3.98376 13.1158 4.62116 12.8324C5.86798 13.6449 7.34955 14.0289 8.81971 14.1554C10.2899 14.2673 11.788 14.1139 13.1867 13.6372C14.2247 13.2754 15.2175 12.7163 15.956 11.8903Z" fill="#E2E8F0"/>
</svg>
