<svg width="16" height="16" viewBox="0 0 16 16" fill="none" xmlns="http://www.w3.org/2000/svg">
<path d="M15.6706 4.15133C15.4861 3.46599 14.9457 2.92562 14.2603 2.74111C13.0083 2.39844 8.00003 2.39844 8.00003 2.39844C8.00003 2.39844 2.99177 2.39844 1.73971 2.72793C1.06755 2.91244 0.514005 3.46599 0.329491 4.15133C0 5.40339 0 7.99978 0 7.99978C0 7.99978 0 10.6093 0.329491 11.8482C0.514005 12.5336 1.05437 13.0739 1.73971 13.2584C3.00495 13.6011 8.00003 13.6011 8.00003 13.6011C8.00003 13.6011 13.0083 13.6011 14.2603 13.2716C14.9457 13.0871 15.4861 12.5467 15.6706 11.8614C16.0001 10.6093 16.0001 8.01296 16.0001 8.01296C16.0001 8.01296 16.0132 5.40339 15.6706 4.15133Z" fill="#E2E8F0"/>
<path d="M10.57 7.99977L6.40527 5.60107V10.3985L10.57 7.99977Z" fill="#1E293B"/>
</svg>
