<svg width="99" height="32" viewBox="0 0 99 32" fill="none" xmlns="http://www.w3.org/2000/svg">
<g clip-path="url(#clip0_121_285)">
<path d="M18.3399 19.2944C16.5529 19.2944 15.1001 17.8172 15.1001 16C15.1001 14.1827 16.5529 12.7056 18.3399 12.7056C20.1268 12.7056 21.5796 14.1827 21.5796 16C21.5796 17.8172 20.1268 19.2944 18.3399 19.2944ZM18.3399 13.4289C16.9415 13.4289 15.803 14.5812 15.803 16C15.803 17.4188 16.9415 18.571 18.3399 18.571C19.7382 18.571 20.8767 17.4188 20.8767 16C20.8767 14.5812 19.7382 13.4289 18.3399 13.4289Z" fill="white"/>
<path d="M23.9555 22.2614C23.5076 22.2614 23.0522 22.1777 22.6116 21.9975C21.7058 21.6295 20.9979 20.9239 20.6168 20.0127C20.2406 19.1092 20.2282 18.1092 20.5895 17.198C20.6613 17.0127 20.8667 16.9239 21.0474 16.9975C21.2281 17.0711 21.3147 17.2817 21.2429 17.467C20.9534 18.198 20.9633 19 21.2652 19.7259C21.5721 20.4594 22.1414 21.0279 22.8715 21.3249C24.3713 21.934 26.0791 21.1929 26.678 19.6701C27.3141 18.0533 27.2943 16.0229 27.2943 16.0026C27.2943 9.90865 22.4136 4.95433 16.4142 4.95433C11.484 4.95433 7.16019 8.32743 5.89794 13.1574C5.84844 13.3503 5.65539 13.4645 5.46729 13.4137C5.27919 13.363 5.16782 13.165 5.21732 12.9721C6.56124 7.82743 11.1672 4.23352 16.4142 4.23352C22.8022 4.23352 27.9972 9.51017 27.9972 15.9975C27.9972 16.0812 28.022 18.1853 27.3314 19.9391C26.7647 21.3782 25.3985 22.2564 23.9555 22.2564V22.2614Z" fill="white"/>
<path d="M24.4383 16.3604C24.2428 16.3604 24.0869 16.198 24.0869 16C24.0869 12.2462 21.0773 9.19289 17.3796 9.19289C14.1299 9.19289 11.4792 11.4188 10.7887 14.731C10.7491 14.9264 10.561 15.0482 10.3704 15.0076C10.1798 14.967 10.0586 14.7741 10.1006 14.5787C10.8654 10.9239 13.7909 8.46954 17.3821 8.46954C21.4683 8.46954 24.7922 11.8477 24.7922 15.9975C24.7922 16.198 24.6338 16.3579 24.4408 16.3579L24.4383 16.3604Z" fill="white"/>
<path d="M15.5974 32C13.0506 32 10.979 29.8858 10.979 27.2893C10.979 24.6929 13.0506 22.5787 15.5974 22.5787C18.1441 22.5787 20.2157 24.6929 20.2157 27.2893C20.2157 29.8858 18.1441 32 15.5974 32ZM15.5974 23.2995C13.4392 23.2995 11.6819 25.0888 11.6819 27.2893C11.6819 29.4898 13.4367 31.2792 15.5974 31.2792C17.758 31.2792 19.5103 29.4898 19.5103 27.2893C19.5103 25.0888 17.7556 23.2995 15.5974 23.2995Z" fill="white"/>
<path d="M12.9716 18.0304C12.8181 18.0304 12.6647 18.0177 12.5088 17.9924C11.7366 17.8655 11.0584 17.4416 10.603 16.7944C10.1526 16.1548 9.97189 15.3756 10.0956 14.599C10.1253 14.401 10.3085 14.2665 10.4991 14.2995C10.6921 14.3325 10.8208 14.5177 10.7911 14.7132C10.6995 15.2995 10.8357 15.8883 11.1747 16.3705C11.5212 16.8604 12.0336 17.1827 12.6201 17.2792C13.8255 17.4771 14.959 16.6421 15.1521 15.4238C15.1818 15.2259 15.3649 15.0914 15.5555 15.1243C15.7485 15.1573 15.8772 15.3426 15.8475 15.5381C15.6174 16.9924 14.3774 18.0279 12.9741 18.0279L12.9716 18.0304Z" fill="white"/>
<path d="M28.4776 22.5508C28.2127 22.5508 27.9454 22.4975 27.688 22.3833C27.198 22.1675 26.8218 21.769 26.6263 21.264C26.4332 20.7614 26.4431 20.2132 26.6535 19.7183C26.7327 19.5355 26.9381 19.4518 27.1163 19.533C27.2945 19.6142 27.3762 19.8249 27.297 20.0076C27.1609 20.3249 27.1559 20.6751 27.2797 20.9975C27.4059 21.3223 27.6484 21.5787 27.9628 21.7183C28.6087 22.0025 29.3636 21.7056 29.6507 21.0533C30.3511 19.0381 30.4972 17.1904 30.4972 15.9975C30.4972 7.5736 23.7454 0.718274 15.4467 0.718274C8.52412 0.720812 2.50987 5.50508 0.831822 12.3553C0.544722 13.599 0.747672 14.8858 1.4085 15.9772C2.07675 17.0838 3.1311 17.8579 4.37602 18.1548C6.9327 18.764 9.49927 17.1523 10.1007 14.5584C10.1452 14.3655 10.3358 14.2437 10.5239 14.2919C10.712 14.3376 10.8308 14.533 10.7838 14.7259C10.0933 17.7056 7.14802 19.5584 4.21515 18.8579C2.78707 18.5152 1.5768 17.6294 0.809547 16.3579C0.0497219 15.1015 -0.185403 13.6193 0.148722 12.1853C1.90597 5.00761 8.1999 0 15.4516 0C24.1389 0 31.205 7.17767 31.205 16C31.205 17.2538 31.0491 19.1929 30.3115 21.3122C30.3091 21.3198 30.3066 21.3274 30.3016 21.335C29.9774 22.0964 29.2423 22.5508 28.4751 22.5508H28.4776Z" fill="white"/>
<path d="M38.4271 19.9694C38.2316 19.9694 38.0757 19.8069 38.0757 19.609V12.3932C38.0757 12.1927 38.2341 12.0328 38.4271 12.0328C38.6202 12.0328 38.7786 12.1953 38.7786 12.3932V19.609C38.7786 19.8095 38.6202 19.9694 38.4271 19.9694Z" fill="white"/>
<path d="M44.2677 19.9695C44.1984 19.9695 44.1266 19.9492 44.0648 19.9035L39.1123 16.3274C38.9539 16.2132 38.9143 15.9873 39.0281 15.8248C39.1395 15.6624 39.3598 15.6218 39.5182 15.7385L44.4707 19.3147C44.6291 19.4289 44.6687 19.6548 44.5548 19.8172C44.4855 19.9162 44.3766 19.9695 44.2677 19.9695Z" fill="white"/>
<path d="M38.4269 17.0431C38.318 17.0431 38.2091 16.9898 38.1398 16.8908C38.026 16.7284 38.0631 16.5025 38.2215 16.3883L44.0848 12.099C44.2432 11.9822 44.4634 12.0203 44.5748 12.1827C44.6887 12.3451 44.6515 12.571 44.4931 12.6852L38.6299 16.9746C38.568 17.0203 38.4962 17.0406 38.4269 17.0406V17.0431Z" fill="white"/>
<path d="M54.9476 19.9695C54.7521 19.9695 54.5962 19.8071 54.5962 19.6091V16.9289C54.5962 16.7284 54.7546 16.5685 54.9476 16.5685C55.1407 16.5685 55.2991 16.7309 55.2991 16.9289V19.6091C55.2991 19.8096 55.1407 19.9695 54.9476 19.9695Z" fill="white"/>
<path d="M54.9475 17.2893C54.8337 17.2893 54.7223 17.2335 54.653 17.1269L51.7201 12.5913C51.6137 12.4264 51.6558 12.2005 51.8191 12.0913C51.98 11.9822 52.2003 12.0253 52.3067 12.1928L55.2396 16.7284C55.346 16.8934 55.3039 17.1192 55.1406 17.2284C55.0812 17.269 55.0144 17.2893 54.9451 17.2893H54.9475Z" fill="white"/>
<path d="M54.9476 17.2893C54.8808 17.2893 54.814 17.269 54.7521 17.2284C54.5912 17.1192 54.5467 16.8934 54.6531 16.7284L57.586 12.1928C57.6924 12.0253 57.9127 11.9822 58.0735 12.0913C58.2344 12.2005 58.279 12.4264 58.1725 12.5913L55.2397 17.1269C55.1728 17.2309 55.059 17.2893 54.9451 17.2893H54.9476Z" fill="white"/>
<path d="M70.295 19.9695H66.778C65.9365 19.9695 65.2534 19.269 65.2534 18.4061V13.5964C65.2534 12.7335 65.9365 12.033 66.778 12.033H70.295C71.1365 12.033 71.8196 12.7335 71.8196 13.5964V18.4061C71.8196 19.269 71.1365 19.9695 70.295 19.9695ZM66.778 12.7538C66.3251 12.7538 65.9563 13.1319 65.9563 13.5964V18.4061C65.9563 18.8705 66.3251 19.2487 66.778 19.2487H70.295C70.7479 19.2487 71.1167 18.8705 71.1167 18.4061V13.5964C71.1167 13.1319 70.7479 12.7538 70.295 12.7538H66.778Z" fill="white"/>
<path d="M97.4757 19.9695H93.9562C93.1147 19.9695 92.4316 19.269 92.4316 18.4061V17.8781C92.4316 17.6776 92.59 17.5177 92.7831 17.5177C92.9761 17.5177 93.1345 17.6802 93.1345 17.8781V18.4061C93.1345 18.8705 93.5033 19.2487 93.9562 19.2487H97.4757C97.9286 19.2487 98.2974 18.8705 98.2974 18.4061V17.203C98.2974 16.7386 97.9286 16.3604 97.4757 16.3604H93.9562C93.1147 16.3604 92.4316 15.6573 92.4316 14.7944V13.5913C92.4316 12.7284 93.1147 12.0279 93.9562 12.0279H97.4757C98.3172 12.0279 99.0003 12.7284 99.0003 13.5913V14.0685C99.0003 14.269 98.8419 14.4289 98.6488 14.4289C98.4558 14.4289 98.2974 14.2665 98.2974 14.0685V13.5913C98.2974 13.1269 97.9286 12.7487 97.4757 12.7487H93.9562C93.5033 12.7487 93.1345 13.1269 93.1345 13.5913V14.7944C93.1345 15.2589 93.5033 15.637 93.9562 15.637H97.4757C98.3172 15.637 99.0003 16.3401 99.0003 17.203V18.4061C99.0003 19.269 98.3172 19.9695 97.4757 19.9695Z" fill="white"/>
<path d="M85.0585 19.9695C84.957 19.9695 84.8555 19.9238 84.7887 19.8401L79.5466 13.3909V19.6091C79.5466 19.8096 79.3883 19.9695 79.1952 19.9695C79.0022 19.9695 78.8438 19.8071 78.8438 19.6091V12.3934C78.8438 12.2411 78.9353 12.1066 79.0764 12.0533C79.2175 12 79.3709 12.0457 79.4674 12.1624L84.7095 18.6117V12.3934C84.7095 12.1929 84.8679 12.033 85.0609 12.033C85.254 12.033 85.4124 12.1954 85.4124 12.3934V19.6091C85.4124 19.7614 85.3208 19.8959 85.1798 19.9492C85.1402 19.9645 85.1005 19.9721 85.0609 19.9721L85.0585 19.9695Z" fill="white"/>
</g>
<defs>
<clipPath id="clip0_121_285">
<rect width="99" height="32" fill="white"/>
</clipPath>
</defs>
</svg>
