<svg width="333" height="240" viewBox="0 0 333 240" fill="none" xmlns="http://www.w3.org/2000/svg">
<g clip-path="url(#clip0_229_683)">
<path d="M156.48 154.677C186.728 161.859 215.107 166.642 238.455 168.868C236.684 171.525 234.781 174.072 232.76 176.499C229.566 180.324 226.069 183.848 222.318 187.045C202.23 204.173 174.864 211.847 147.623 205.378C139.628 203.48 132.165 200.489 125.363 196.592C112.71 189.35 102.313 178.986 94.9024 166.718C88.7272 156.509 84.6284 144.981 83.0195 132.832C103.79 140.548 129.004 148.152 156.48 154.677Z" fill="url(#paint0_linear_229_683)"/>
<path d="M250.996 139.961C249.651 145.626 247.794 151.033 245.492 156.145C223.314 153.767 192.966 148.346 159.85 140.483C129.789 133.345 102.675 125.433 82.3072 118.165C82.332 117.336 82.3704 116.504 82.4209 115.675C82.7383 110.64 83.487 105.556 84.6945 100.471C84.9964 99.2002 85.3269 97.9422 85.6801 96.6962C85.7698 96.372 85.8641 96.0554 85.9583 95.7388C86.5916 93.5814 87.3018 91.4748 88.086 89.4054C93.9108 73.9627 103.707 60.9362 115.942 51.2793C135.76 35.6389 161.972 28.8575 188.068 35.0542C208.825 39.9833 225.957 52.2721 237.461 68.6157C241.761 74.715 245.277 81.3781 247.904 88.4363C252.515 100.809 254.394 114.392 252.978 128.235C252.939 128.642 252.893 129.049 252.842 129.454C252.6 131.6 252.272 133.758 251.856 135.909C251.606 137.257 251.317 138.61 250.996 139.961Z" fill="url(#paint1_linear_229_683)"/>
<path d="M250.996 139.961C249.651 145.626 247.794 151.033 245.492 156.145C223.314 153.767 192.966 148.346 159.85 140.483C129.789 133.345 102.675 125.433 82.3072 118.165C82.332 117.336 82.3704 116.504 82.4209 115.675C82.7383 110.64 83.487 105.556 84.6945 100.471C84.9964 99.2002 85.3269 97.9422 85.6801 96.6962C85.7698 96.372 85.8641 96.0554 85.9583 95.7388C86.5916 93.5814 87.3018 91.4748 88.086 89.4054C93.9108 73.9627 103.707 60.9362 115.942 51.2793C135.76 35.6389 161.972 28.8575 188.068 35.0542C208.825 39.9833 225.957 52.2721 237.461 68.6157C241.761 74.715 245.277 81.3781 247.904 88.4363C252.515 100.809 254.394 114.392 252.978 128.235C252.939 128.642 252.893 129.049 252.842 129.454C252.6 131.6 252.272 133.758 251.856 135.909C251.606 137.257 251.317 138.61 250.996 139.961Z" fill="url(#paint2_linear_229_683)"/>
<path style="mix-blend-mode:lighten" opacity="0.3" d="M153.737 172.931C179.465 179.04 204.182 182.55 226.111 183.617C205.756 203.126 176.623 212.265 147.623 205.379C118.623 198.492 97.1019 177.612 87.5546 151.368C106.906 159.698 129.388 167.149 153.737 172.931Z" fill="url(#paint3_radial_229_683)"/>
<path style="mix-blend-mode:lighten" opacity="0.3" d="M250.996 139.961C249.942 144.398 248.575 148.683 246.925 152.789C224.053 152.286 194.694 148.307 163.265 140.844C131.837 133.381 103.287 123.551 82.578 113.62C82.9522 109.256 83.6511 104.865 84.6945 100.471C87.4011 89.0733 92.1718 78.7129 98.5018 69.7202C99.8778 67.7587 101.326 65.8666 102.842 64.0425C123.146 39.6517 155.693 27.3666 188.068 35.0542C220.442 42.7418 244.366 68.7559 251.33 100.007C251.779 102.03 252.164 104.083 252.468 106.151C254.103 117.067 253.714 128.514 250.996 139.961Z" fill="url(#paint4_radial_229_683)"/>
<g style="mix-blend-mode:multiply" opacity="0.24">
<path d="M247.904 88.4363L85.6801 96.6962C90.9539 78.0521 101.827 62.4195 115.942 51.2792C148.12 55.9083 201.521 63.504 237.461 68.6157C241.761 74.715 245.277 81.3781 247.904 88.4363Z" fill="#082D42"/>
</g>
<g style="mix-blend-mode:multiply" opacity="0.24">
<path d="M250.996 139.961C248.661 149.798 244.792 158.854 239.71 166.93L82.6519 129.635C82.214 125.046 82.1306 120.385 82.4215 115.675L252.979 128.235C252.582 132.13 251.927 136.043 250.996 139.961Z" fill="#082D42"/>
</g>
<g style="mix-blend-mode:multiply" opacity="0.24">
<path d="M232.759 176.499C229.566 180.324 226.068 183.848 222.318 187.045L125.362 196.592C112.71 189.35 102.313 178.986 94.9019 166.718C131.42 169.366 206.414 174.65 232.759 176.499Z" fill="#082D42"/>
</g>
<path d="M311.503 158.567C307.12 177.025 272.952 185.894 226.111 183.617C234.953 175.143 242.134 164.709 246.925 152.789C273.582 153.382 289.784 150.476 289.474 141.432C289.165 132.388 280.626 125.354 253.535 113.184C253.231 111.117 251.779 102.03 251.33 100.007C291.338 118.601 315.717 140.818 311.503 158.567Z" fill="url(#paint5_linear_229_683)"/>
<path d="M246.925 152.789C242.134 164.709 234.953 175.143 226.111 183.617C204.182 182.55 179.465 179.04 153.737 172.931C129.388 167.149 106.906 159.698 87.5544 151.368C83.2674 139.587 81.4496 126.736 82.5781 113.62C103.287 123.551 131.536 133.31 163.265 140.844C194.995 148.379 224.054 152.287 246.925 152.789Z" fill="url(#paint6_linear_229_683)"/>
<path d="M87.5542 151.367C42.7717 132.083 14.7772 108.094 19.2701 89.1733C23.763 70.2525 56.9315 62.0785 102.842 64.0426C101.326 65.8667 96.5895 72.9755 95.2135 74.937C65.9164 73.7235 44.5105 76.6981 43.0349 82.9125C40.7254 92.6382 58.8606 102.258 82.578 113.62C81.4495 126.736 83.2673 139.586 87.5542 151.367Z" fill="url(#paint7_linear_229_683)"/>
</g>
<defs>
<linearGradient id="paint0_linear_229_683" x1="146.018" y1="96.7406" x2="181.238" y2="219.494" gradientUnits="userSpaceOnUse">
<stop stop-color="#10659C" stop-opacity="0"/>
<stop offset="1" stop-color="#1DADFF"/>
</linearGradient>
<linearGradient id="paint1_linear_229_683" x1="140.886" y1="11.1838" x2="192.119" y2="189.719" gradientUnits="userSpaceOnUse">
<stop stop-color="#10659C" stop-opacity="0"/>
<stop offset="1" stop-color="#1DADFF"/>
</linearGradient>
<linearGradient id="paint2_linear_229_683" x1="140.886" y1="11.1838" x2="192.119" y2="189.719" gradientUnits="userSpaceOnUse">
<stop stop-color="#10659C" stop-opacity="0"/>
<stop offset="1" stop-color="#1DADFF"/>
</linearGradient>
<radialGradient id="paint3_radial_229_683" cx="0" cy="0" r="1" gradientUnits="userSpaceOnUse" gradientTransform="translate(114.947 163.713) rotate(13.358) scale(102.314 104.789)">
<stop stop-color="#FFDB82" stop-opacity="0"/>
<stop offset="0.19" stop-color="#FFDB82" stop-opacity="0.01"/>
<stop offset="0.33" stop-color="#FFDB82" stop-opacity="0.05"/>
<stop offset="0.44" stop-color="#FFDB82" stop-opacity="0.11"/>
<stop offset="0.55" stop-color="#FFDB82" stop-opacity="0.19"/>
<stop offset="0.65" stop-color="#FFDB82" stop-opacity="0.3"/>
<stop offset="0.74" stop-color="#FFDB82" stop-opacity="0.44"/>
<stop offset="0.83" stop-color="#FFDB82" stop-opacity="0.6"/>
<stop offset="0.92" stop-color="#FFDB82" stop-opacity="0.78"/>
<stop offset="1" stop-color="#FFDB82"/>
</radialGradient>
<radialGradient id="paint4_radial_229_683" cx="0" cy="0" r="1" gradientUnits="userSpaceOnUse" gradientTransform="translate(135.372 40.4884) rotate(13.358) scale(141.441 144.862)">
<stop stop-color="#FFDB82" stop-opacity="0"/>
<stop offset="0.19" stop-color="#FFDB82" stop-opacity="0.01"/>
<stop offset="0.33" stop-color="#FFDB82" stop-opacity="0.05"/>
<stop offset="0.44" stop-color="#FFDB82" stop-opacity="0.11"/>
<stop offset="0.55" stop-color="#FFDB82" stop-opacity="0.19"/>
<stop offset="0.65" stop-color="#FFDB82" stop-opacity="0.3"/>
<stop offset="0.74" stop-color="#FFDB82" stop-opacity="0.44"/>
<stop offset="0.83" stop-color="#FFDB82" stop-opacity="0.6"/>
<stop offset="0.92" stop-color="#FFDB82" stop-opacity="0.78"/>
<stop offset="1" stop-color="#FFDB82"/>
</radialGradient>
<linearGradient id="paint5_linear_229_683" x1="196.045" y1="-21.8344" x2="278.638" y2="178.481" gradientUnits="userSpaceOnUse">
<stop stop-color="#1E529D" stop-opacity="0"/>
<stop offset="0.13" stop-color="#1E529D" stop-opacity="0.16"/>
<stop offset="0.55" stop-color="#1E529D" stop-opacity="0.61"/>
<stop offset="0.85" stop-color="#1E529D" stop-opacity="0.89"/>
<stop offset="1" stop-color="#1E529D"/>
</linearGradient>
<linearGradient id="paint6_linear_229_683" x1="113.251" y1="12.3013" x2="195.849" y2="212.618" gradientUnits="userSpaceOnUse">
<stop stop-color="#1E529D" stop-opacity="0"/>
<stop offset="0.13" stop-color="#1E529D" stop-opacity="0.16"/>
<stop offset="0.55" stop-color="#1E529D" stop-opacity="0.61"/>
<stop offset="0.85" stop-color="#1E529D" stop-opacity="0.89"/>
<stop offset="1" stop-color="#1E529D"/>
</linearGradient>
<linearGradient id="paint7_linear_229_683" x1="45.2856" y1="40.3294" x2="127.879" y2="240.638" gradientUnits="userSpaceOnUse">
<stop stop-color="#1E529D" stop-opacity="0"/>
<stop offset="0.13" stop-color="#1E529D" stop-opacity="0.16"/>
<stop offset="0.55" stop-color="#1E529D" stop-opacity="0.61"/>
<stop offset="0.85" stop-color="#1E529D" stop-opacity="0.89"/>
<stop offset="1" stop-color="#1E529D"/>
</linearGradient>
<clipPath id="clip0_229_683">
<rect width="300.359" height="175.06" fill="white" transform="translate(40.4453) rotate(13.358)"/>
</clipPath>
</defs>
</svg>
