<svg width="59" height="59" viewBox="0 0 59 59" fill="none" xmlns="http://www.w3.org/2000/svg">
<rect width="59" height="59" rx="29.5" fill="#FB923C"/>
<g clip-path="url(#clip0_1602_6931)">
<path d="M38.8712 25.7685C39.108 26.4403 38.4766 30.7473 36.6221 29.6409L37.0561 25.3734H37.0956C37.5691 24.5831 37.9637 24.5436 38.3188 24.8202C38.595 25.0573 38.7923 25.4524 38.8712 25.7685Z" fill="white"/>
<path d="M37.0955 24.9386L37.056 25.3733L36.622 29.6408L35.6355 39.4008C35.5566 40.1516 34.9647 40.7048 34.215 40.7048H31.808L24.6265 40.7443H22.7325C21.9827 40.7443 21.3909 40.1911 21.3119 39.4403L20.2465 29.5618L19.8125 26.2426V26.045L19.852 21.8565C20.8384 19.9598 20.9963 17.2333 22.0222 15.2576C26.5205 16.0874 35.8723 13.9932 35.8723 13.9932L37.0955 24.9386Z" fill="white"/>
<path d="M31.2557 25.0176C31.7292 25.0176 32.1633 25.5708 32.1633 26.2425C32.1633 26.9143 31.7687 27.4675 31.2557 27.4675C30.7427 27.4675 30.3481 26.9143 30.3481 26.2425C30.3481 25.5708 30.7822 25.0176 31.2557 25.0176Z" fill="#2C3D5B"/>
<path d="M31.7689 40.7446V44.5775L28.1782 47.7781L24.5874 44.5775V40.7446L31.7689 40.7051V40.7446Z" fill="white"/>
<path d="M27.0339 42.5228C28.1387 43.1945 29.1646 43.4711 30.4273 43.6687C30.8614 43.7477 31.3349 43.7872 31.7689 43.8663V40.7446L24.5874 40.7841V41.1793C25.4555 41.5349 26.2447 42.0091 27.0339 42.5228Z" fill="#AACFFA"/>
<path d="M31.7687 46.1577L28.0991 47.7778L24.5872 46.1182H24.4294L17.2873 49.0422C15.9457 49.6349 15.0776 50.9389 15.0776 52.4009V58.9998H41.3178V52.4009C41.3178 50.9389 40.4102 49.5954 39.0686 49.0422L31.7687 46.1577Z" fill="#FDBA74"/>
<path d="M25.4157 26.2425C25.4157 26.9143 25.0211 27.4675 24.5081 27.4675C23.9952 27.4675 23.6006 26.9143 23.6006 26.2425C23.6006 25.5708 23.9952 25.0176 24.5081 25.0176C25.0211 25.0176 25.4157 25.5708 25.4157 26.2425Z" fill="#2C3D5B"/>
<path d="M19.8521 21.8564C19.4969 23.0814 19.8521 24.741 19.8126 26.0449H19.7337C19.2207 25.2151 18.8656 25.0176 18.5499 25.1361C17.8791 20.1178 15.3932 15.139 17.6424 10.1207C18.1159 9.05382 18.7867 8.02645 19.6153 7.19665C20.2861 6.52491 20.8385 6.56442 21.7066 6.40637C22.3774 6.24831 22.7326 5.69511 23.3639 5.379C25.2185 4.43065 27.9017 4.50968 29.9141 4.8258C31.6108 5.14191 33.1102 5.77414 34.6491 6.4854C35.9513 7.11762 37.1745 7.71034 38.2794 8.65868C39.4631 9.64653 40.7653 10.4368 41.7912 11.6222C42.8171 12.8077 43.5668 14.1907 43.9614 15.7317C42.6198 14.8624 41.1204 14.3487 39.542 14.2302C40.2128 15.7317 40.8836 17.2333 41.5544 18.7348C40.9626 18.0631 40.1734 17.5889 39.2658 17.3913C39.8577 17.5099 39.2658 21.3427 39.2658 21.8959C39.2264 22.8443 39.108 24.2273 38.3188 24.899C37.8059 24.4249 37.4507 25.0966 37.0561 25.3337C37.0956 25.4522 36.9772 22.133 36.188 20.0388C35.3989 17.9445 31.2162 15.8108 28.6908 15.9293C28.6908 16.4825 29.2433 17.2333 29.5195 17.6679C29.7168 17.984 30.5849 19.4066 30.9795 19.4856C29.2433 19.0509 27.6649 18.6558 26.0471 17.8655C25.3368 17.5099 24.666 17.1542 23.9952 16.7591C23.5217 16.4825 23.0482 15.9688 22.4958 15.8108C22.1012 16.522 21.825 17.3913 21.6277 18.1816C21.4699 18.8534 21.1937 19.5251 20.878 20.1573C20.6018 20.75 20.0099 21.3032 19.8521 21.8959C19.8521 21.8564 19.8521 21.8564 19.8521 21.8564Z" fill="#2C3D5B"/>
<path d="M19.8127 26.2429L20.1679 29.6016C18.2738 30.708 17.8792 26.4405 18.0765 25.7687C18.1554 25.4921 18.3133 25.2155 18.55 25.1365C18.8262 25.0179 19.2208 25.2155 19.7338 26.0453H19.8127V26.2429Z" fill="white"/>
<path d="M28.2569 56.1153L35.2017 47.5407L31.7687 46.1577L28.1385 47.8173L24.5872 46.1577H24.4688L21.1543 47.5012L28.2569 56.1153Z" fill="#FFEDD5"/>
<path d="M28.1782 47.7778L26.7182 48.0939L24.5874 48.4891V46.1577V44.5771L28.1782 47.7778Z" fill="#FB7200"/>
<path d="M31.769 46.1577V48.4891L29.796 48.0939L28.1782 47.7778L31.769 44.5771V46.1577Z" fill="#FB7200"/>
<path d="M22.0222 12.5708C21.3514 15.3368 20.4044 18.0238 19.1812 20.5527" stroke="#ABB9CA" stroke-width="0.5" stroke-miterlimit="10" stroke-linecap="round"/>
<path d="M22.8906 12.5312C23.9955 14.2304 25.3371 15.7714 26.876 17.0754" stroke="#ABB9CA" stroke-width="0.5" stroke-miterlimit="10" stroke-linecap="round"/>
<path d="M24.0347 11.7014C27.0335 9.33054 37.4507 13.4005 36.7404 17.431" stroke="#ABB9CA" stroke-width="0.5" stroke-miterlimit="10" stroke-linecap="round"/>
<path d="M22.4961 10.7532C28.6911 6.60416 35.8332 10.1209 38.911 15.3368" stroke="#ABB9CA" stroke-width="0.5" stroke-miterlimit="10" stroke-linecap="round"/>
<path d="M22.4961 9.72551C23.6404 7.11757 26.5998 6.48534 31.256 7.07806C35.9121 7.67077 39.7396 10.6739 41.318 13.1237" stroke="#ABB9CA" stroke-width="0.5" stroke-miterlimit="10" stroke-linecap="round"/>
<path d="M20.9177 11.3062C20.5625 13.2424 19.8917 15.139 18.9053 16.8381" stroke="#ABB9CA" stroke-width="0.5" stroke-miterlimit="10" stroke-linecap="round"/>
<path d="M20.6808 8.61914C20.0494 10.7924 19.063 12.8472 17.8003 14.7043" stroke="#ABB9CA" stroke-width="0.5" stroke-miterlimit="10" stroke-linecap="round"/>
</g>
<defs>
<clipPath id="clip0_1602_6931">
<rect width="28.8444" height="54.4111" fill="white" transform="translate(15.0776 4.58887)"/>
</clipPath>
</defs>
</svg>
