<svg width="228" height="100" viewBox="0 0 228 100" fill="none" xmlns="http://www.w3.org/2000/svg">
<g clip-path="url(#clip0_4280_4654)">
<path opacity="0.2" d="M219.066 10.8579H159.862L140.847 0.896973H46.5737L27.5584 10.8579H8.91057C4.47826 10.8579 0.89566 14.4465 0.89566 18.8864V91.0511C0.89566 95.4909 4.47826 99.0796 8.91057 99.0796H219.066C223.499 99.0796 227.081 95.4909 227.081 91.0511V18.8864C227.081 14.4465 223.499 10.8579 219.066 10.8579Z" fill="#00C4D0"/>
<g opacity="0.3">
<path d="M20.5999 91.4652H13.9629L6.38437 78.6978H13.0214L20.5999 91.4652Z" fill="#00C4D0"/>
<path d="M34.9073 91.4652H28.2703L20.6918 78.6978H27.3288L34.9073 91.4652Z" fill="#00C4D0"/>
<path d="M49.2148 91.4652H42.5778L34.9992 78.6978H41.6362L49.2148 91.4652Z" fill="#00C4D0"/>
<path d="M63.5222 91.4652H56.8852L49.3066 78.6978H55.9436L63.5222 91.4652Z" fill="#00C4D0"/>
<path d="M77.8296 91.4652H71.1926L63.614 78.6978H70.251L77.8296 91.4652Z" fill="#00C4D0"/>
<path d="M92.137 91.4652H85.5L77.9214 78.6978H84.5584L92.137 91.4652Z" fill="#00C4D0"/>
<path d="M106.444 91.4652H99.8074L92.2289 78.6978H98.8658L106.444 91.4652Z" fill="#00C4D0"/>
<path d="M120.752 91.4652H114.115L106.536 78.6978H113.173L120.752 91.4652Z" fill="#00C4D0"/>
<path d="M135.059 91.4652H128.422L120.844 78.6978H127.481L135.059 91.4652Z" fill="#00C4D0"/>
<path d="M149.367 91.4652H142.73L135.151 78.6978H141.788L149.367 91.4652Z" fill="#00C4D0"/>
<path d="M163.674 91.4652H157.037L149.458 78.6978H156.095L163.674 91.4652Z" fill="#00C4D0"/>
<path d="M177.981 91.4652H171.345L163.766 78.6978H170.403L177.981 91.4652Z" fill="#00C4D0"/>
<path d="M192.289 91.4652H185.652L178.073 78.6978H184.71L192.289 91.4652Z" fill="#00C4D0"/>
<path d="M206.596 91.4652H199.959L192.381 78.6978H199.018L206.596 91.4652Z" fill="#00C4D0"/>
<path d="M220.904 91.4652H214.267L206.688 78.6978H213.325L220.904 91.4652Z" fill="#00C4D0"/>
</g>
<path d="M92.8719 23.4644H86.9927V29.6295" stroke="#62EDF5" stroke-width="0.39" stroke-miterlimit="10"/>
<path d="M92.8719 66.7125H86.9927V60.5474" stroke="#62EDF5" stroke-width="0.39" stroke-miterlimit="10"/>
<path d="M137.7 23.4644H143.579V29.6295" stroke="#62EDF5" stroke-width="0.39" stroke-miterlimit="10"/>
<path d="M137.7 66.7125H143.579V60.5474" stroke="#62EDF5" stroke-width="0.39" stroke-miterlimit="10"/>
<!-- <path d="M110.28 28.5254H123.163L117.376 38.0492H124.357L101.254 64.3432L110.05 44.5594H103.666L110.28 28.5254Z" fill="#00C4D0"/> -->
<path d="M24.0447 23.4644H18.1656V29.6295" stroke="#62EDF5" stroke-width="0.39" stroke-miterlimit="10"/>
<path d="M24.0447 66.7125H18.1656V60.5474" stroke="#62EDF5" stroke-width="0.39" stroke-miterlimit="10"/>
<path d="M68.8731 23.4644H74.7522V29.6295" stroke="#62EDF5" stroke-width="0.39" stroke-miterlimit="10"/>
<path d="M68.8731 66.7125H74.7522V60.5474" stroke="#62EDF5" stroke-width="0.39" stroke-miterlimit="10"/>
<!-- <path d="M26.8006 36.1167V54.7962H63.4992V36.1167H26.8006ZM60.6056 52.9099H29.1201V38.0031H60.6056V52.9099Z" fill="#00C4D0"/> -->
<!-- <path d="M67.633 39.0845H63.4992V51.2078H67.633V39.0845Z" fill="#00C4D0"/> -->
<!-- <path id='battery' d="M47.4235 39.3833H30.5669V51.5066H47.4235V39.3833Z" fill="#00C4D0"/> -->
<!-- <path id='' d="M51.9017 39.3833H49.9726V51.5066H51.9017V39.3833Z" fill="#00C4D0"/> -->
<path d="M219.066 10.8579H159.862L140.847 0.896973H46.5737L27.5584 10.8579H8.91057C4.47826 10.8579 0.89566 14.4465 0.89566 18.8864V91.0511C0.89566 95.4909 4.47826 99.0796 8.91057 99.0796H219.066C223.499 99.0796 227.081 95.4909 227.081 91.0511V18.8864C227.081 14.4465 223.499 10.8579 219.066 10.8579Z" stroke="#00C4D0" stroke-width="0.78" stroke-miterlimit="10"/>
<path d="M159.127 23.4644H153.248V29.6295" stroke="#62EDF5" stroke-width="0.39" stroke-miterlimit="10"/>
<path d="M159.127 66.7125H153.248V60.5474" stroke="#62EDF5" stroke-width="0.39" stroke-miterlimit="10"/>
<path d="M203.955 23.4644H209.834V29.6295" stroke="#62EDF5" stroke-width="0.39" stroke-miterlimit="10"/>
<path d="M203.955 66.7125H209.834V60.5474" stroke="#62EDF5" stroke-width="0.39" stroke-miterlimit="10"/>
<!-- <path d="M163.123 41.0166C163.123 39.9354 163.536 39.0153 164.386 38.2561C165.213 37.497 166.407 37.1289 167.969 37.1289C169.53 37.1289 170.701 37.52 171.551 38.2791C172.378 39.0383 172.791 39.9584 172.791 41.0627C172.791 42.4889 172.148 43.5241 170.839 44.2143C172.378 44.8814 173.136 46.0776 173.136 47.8029C173.136 49.1602 172.653 50.2414 171.689 51.0696C170.724 51.8747 169.484 52.2888 167.969 52.2888C166.453 52.2888 165.213 51.8747 164.248 51.0696C163.284 50.2644 162.778 49.1832 162.778 47.8029C162.778 46.9518 162.985 46.2156 163.375 45.5945C163.789 44.9734 164.34 44.5133 165.075 44.1912C163.766 43.5011 163.123 42.4429 163.123 41.0166ZM169.737 45.9856C169.301 45.5715 168.703 45.3645 167.946 45.3645C167.188 45.3645 166.568 45.5715 166.131 45.9626C165.695 46.3537 165.442 46.9058 165.442 47.6189C165.442 48.332 165.672 48.8841 166.108 49.3212C166.545 49.7583 167.165 49.9653 167.946 49.9653C168.726 49.9653 169.324 49.7583 169.76 49.3212C170.196 48.8841 170.403 48.332 170.403 47.6419C170.403 46.9518 170.196 46.3997 169.76 46.0086L169.737 45.9856ZM170.104 41.3847C170.104 40.7636 169.921 40.3035 169.53 39.9354C169.14 39.5904 168.635 39.4063 167.969 39.4063C167.303 39.4063 166.797 39.5904 166.407 39.9354C166.017 40.2805 165.81 40.7636 165.81 41.3847C165.81 42.0058 166.017 42.4889 166.43 42.857C166.843 43.2251 167.348 43.4091 167.969 43.4091C168.589 43.4091 169.094 43.2251 169.507 42.857C169.921 42.4889 170.127 42.0058 170.127 41.3847H170.104Z" fill="#00C4D0"/>
<path d="M176.787 44.7661C176.787 40.0042 178.556 37.6348 182.069 37.6348C185.583 37.6348 187.351 40.0042 187.351 44.7661C187.351 49.528 185.583 51.8975 182.069 51.8975C178.556 51.8975 176.787 49.528 176.787 44.7661ZM183.24 40.4413C182.919 40.2803 182.529 40.1882 182.092 40.1882C181.656 40.1882 181.265 40.2803 180.944 40.4413C180.622 40.6023 180.37 40.8324 180.186 41.0854C180.002 41.3385 179.865 41.6835 179.773 42.1206C179.658 42.5577 179.589 42.9488 179.566 43.3398C179.543 43.7309 179.52 44.191 179.52 44.7431C179.52 45.2952 179.52 45.7553 179.566 46.1464C179.589 46.5375 179.658 46.9515 179.773 47.3656C179.888 47.8027 180.025 48.1478 180.186 48.4008C180.37 48.6769 180.622 48.8839 180.944 49.0679C181.265 49.229 181.656 49.321 182.092 49.321C182.529 49.321 182.919 49.229 183.24 49.0679C183.562 48.9069 183.815 48.6769 183.998 48.4008C184.182 48.1248 184.32 47.7797 184.412 47.3656C184.527 46.9515 184.595 46.5375 184.618 46.1464C184.641 45.7553 184.664 45.2952 184.664 44.7431C184.664 44.191 184.664 43.7309 184.618 43.3398C184.595 42.9488 184.527 42.5347 184.412 42.1206C184.297 41.6835 184.159 41.3615 183.998 41.0854C183.815 40.8324 183.562 40.6023 183.24 40.4413Z" fill="#00C4D0"/> -->
<!-- <path d="M191.485 43.432C190.911 42.8569 190.612 42.0978 190.612 41.1086C190.612 40.1194 190.911 39.3602 191.485 38.8081C192.059 38.256 192.817 37.98 193.713 37.98C194.608 37.98 195.366 38.256 195.94 38.8081C196.514 39.3602 196.813 40.1424 196.813 41.1086C196.813 42.0748 196.514 42.8569 195.94 43.432C195.366 44.0071 194.608 44.2832 193.713 44.2832C192.817 44.2832 192.036 44.0071 191.462 43.432H191.485ZM192.22 51.9206L199.913 38.164H202.6L194.884 51.9206H192.22ZM194.838 41.1086C194.838 40.0964 194.471 39.6133 193.736 39.6133C193.001 39.6133 192.633 40.1194 192.633 41.1086C192.633 42.0978 193.001 42.6039 193.736 42.6039C194.471 42.6039 194.838 42.0978 194.838 41.1086ZM201.13 52.1047C200.212 52.1047 199.454 51.8286 198.88 51.2765C198.306 50.7244 198.007 49.9423 198.007 48.9531C198.007 47.9639 198.306 47.1817 198.88 46.6296C199.454 46.0775 200.212 45.8015 201.108 45.8015C202.003 45.8015 202.761 46.0775 203.335 46.6296C203.909 47.1817 204.208 47.9639 204.208 48.9531C204.208 49.9423 203.909 50.7244 203.335 51.2765C202.761 51.8286 202.003 52.1047 201.108 52.1047H201.13ZM202.21 48.9531C202.21 47.9409 201.842 47.4578 201.108 47.4578C200.373 47.4578 200.005 47.9639 200.005 48.9531C200.005 49.9423 200.373 50.4483 201.108 50.4483C201.842 50.4483 202.21 49.9423 202.21 48.9531Z" fill="#00C4D0"/> -->
</g>
<defs>
<clipPath id="clip0_4280_4654">
<rect width="228" height="100" fill="white"/>
</clipPath>
</defs>
</svg>
