<svg width="1440" height="27" viewBox="0 0 1440 27" fill="none" xmlns="http://www.w3.org/2000/svg">
<path d="M138.579 32.418L0 32.1897V0L108.973 0.228301L138.579 32.418Z" fill="#27B1FF"/>
<path d="M120.177 0.228516L242.107 0.456806V32.8748L149.784 32.6465L120.177 0.228516Z" fill="#27B1FF"/>
<path d="M253.437 0.457031H245.174V30.8204H253.437V0.457031Z" fill="#27B1FF"/>
<path d="M263.764 0.68457H255.502V31.0479H263.764V0.68457Z" fill="#27B1FF"/>
<path d="M274.029 0.68457H265.767V31.0479H274.029V0.68457Z" fill="#27B1FF"/>
<path d="M284.357 0.68457H276.095V31.0479H284.357V0.68457Z" fill="#27B1FF"/>
<path d="M294.622 0.68457H286.36V31.0479H294.622V0.68457Z" fill="#27B1FF"/>
<path d="M304.95 0.68457H296.688V31.0479H304.95V0.68457Z" fill="#27B1FF"/>
<path d="M315.215 0.68457H306.953V31.0479H315.215V0.68457Z" fill="#27B1FF"/>
<path d="M325.543 0.68457H317.281V31.0479H325.543V0.68457Z" fill="#27B1FF"/>
<path d="M335.808 0.68457H327.546V31.0479H335.808V0.68457Z" fill="#27B1FF"/>
<path d="M346.136 0.68457H337.874V31.0479H346.136V0.68457Z" fill="#27B1FF"/>
<path d="M356.401 0.913086H348.139V31.2764H356.401V0.913086Z" fill="#27B1FF"/>
<path d="M366.729 0.913086H358.466V31.2764H366.729V0.913086Z" fill="#27B1FF"/>
<path d="M376.994 0.913086H368.732V31.2764H376.994V0.913086Z" fill="#27B1FF"/>
<path d="M387.322 0.913086H379.059V31.2764H387.322V0.913086Z" fill="#27B1FF"/>
<path d="M397.587 0.913086H389.325V31.2764H397.587V0.913086Z" fill="#27B1FF"/>
<path d="M407.914 0.913086H399.652V31.2764H407.914V0.913086Z" fill="#27B1FF"/>
<path d="M418.18 0.913086H409.917V31.2764H418.18V0.913086Z" fill="#27B1FF"/>
<path d="M428.507 0.913086H420.245V31.2764H428.507V0.913086Z" fill="#27B1FF"/>
<path d="M438.773 1.1416H430.51V31.5049H438.773V1.1416Z" fill="#27B1FF"/>
<path d="M449.1 1.1416H440.838V31.5049H449.1V1.1416Z" fill="#27B1FF"/>
<path d="M459.365 1.1416H451.103V31.5049H459.365V1.1416Z" fill="#27B1FF"/>
<path d="M469.693 1.1416H461.431V31.5049H469.693V1.1416Z" fill="#27B1FF"/>
<path d="M479.958 1.1416H471.696V31.5049H479.958V1.1416Z" fill="#27B1FF"/>
<path d="M618.6 33.7879L480.021 33.3313V1.1416L588.932 1.36989L618.6 33.7879Z" fill="#27B1FF"/>
<path d="M600.136 1.37012L722.128 1.82672V34.0164L629.804 33.7881L600.136 1.37012Z" fill="#27B1FF"/>
<path d="M733.457 1.82617H725.195V32.1895H733.457V1.82617Z" fill="#27B1FF"/>
<path d="M743.723 1.82617H735.46V32.1895H743.723V1.82617Z" fill="#27B1FF"/>
<path d="M754.05 1.82617H745.788V32.1895H754.05V1.82617Z" fill="#27B1FF"/>
<path d="M764.315 1.82617H756.053V32.1895H764.315V1.82617Z" fill="#27B1FF"/>
<path d="M774.643 1.82617H766.381V32.1895H774.643V1.82617Z" fill="#27B1FF"/>
<path d="M784.908 1.82617H776.646V32.1895H784.908V1.82617Z" fill="#27B1FF"/>
<path d="M795.236 2.05469H786.974V32.418H795.236V2.05469Z" fill="#27B1FF"/>
<path d="M805.501 2.05469H797.239V32.418H805.501V2.05469Z" fill="#27B1FF"/>
<path d="M815.829 2.05469H807.567V32.418H815.829V2.05469Z" fill="#27B1FF"/>
<path d="M826.094 2.05469H817.832V32.418H826.094V2.05469Z" fill="#27B1FF"/>
<path d="M836.422 2.05469H828.16V32.418H836.422V2.05469Z" fill="#27B1FF"/>
<path d="M846.687 2.05469H838.425V32.418H846.687V2.05469Z" fill="#27B1FF"/>
<path d="M857.015 2.05469H848.753V32.418H857.015V2.05469Z" fill="#27B1FF"/>
<path d="M867.28 2.05469H859.018V32.418H867.28V2.05469Z" fill="#27B1FF"/>
<path d="M877.608 2.05469H869.345V32.418H877.608V2.05469Z" fill="#27B1FF"/>
<path d="M887.873 2.2832H879.611V32.6465H887.873V2.2832Z" fill="#27B1FF"/>
<path d="M898.2 2.2832H889.938V32.6465H898.2V2.2832Z" fill="#27B1FF"/>
<path d="M908.466 2.2832H900.203V32.6465H908.466V2.2832Z" fill="#27B1FF"/>
<path d="M918.793 2.2832H910.531V32.6465H918.793V2.2832Z" fill="#27B1FF"/>
<path d="M929.058 2.2832H920.796V32.6465H929.058V2.2832Z" fill="#27B1FF"/>
<path d="M939.386 2.2832H931.124V32.6465H939.386V2.2832Z" fill="#27B1FF"/>
<path d="M949.651 2.2832H941.389V32.6465H949.651V2.2832Z" fill="#27B1FF"/>
<path d="M959.979 2.2832H951.717V32.6465H959.979V2.2832Z" fill="#27B1FF"/>
<path d="M1098.56 34.9295L959.979 34.7012V2.2832L1068.95 2.73979L1098.56 34.9295Z" fill="#27B1FF"/>
<path d="M1080.16 2.74023L1202.09 2.96852V35.1582L1109.76 34.9299L1080.16 2.74023Z" fill="#27B1FF"/>
<path d="M1213.42 2.96777H1205.15V33.3311H1213.42V2.96777Z" fill="#27B1FF"/>
<path d="M1223.68 2.96777H1215.42V33.3311H1223.68V2.96777Z" fill="#27B1FF"/>
<path d="M1234.01 3.19629H1225.75V33.5596H1234.01V3.19629Z" fill="#27B1FF"/>
<path d="M1244.27 3.19629H1236.01V33.5596H1244.27V3.19629Z" fill="#27B1FF"/>
<path d="M1254.6 3.19629H1246.34V33.5596H1254.6V3.19629Z" fill="#27B1FF"/>
<path d="M1264.87 3.19629H1256.6V33.5596H1264.87V3.19629Z" fill="#27B1FF"/>
<path d="M1275.19 3.19629H1266.93V33.5596H1275.19V3.19629Z" fill="#27B1FF"/>
<path d="M1285.46 3.19629H1277.2V33.5596H1285.46V3.19629Z" fill="#27B1FF"/>
<path d="M1295.79 3.19629H1287.52V33.5596H1295.79V3.19629Z" fill="#27B1FF"/>
<path d="M1306.05 3.19629H1297.79V33.5596H1306.05V3.19629Z" fill="#27B1FF"/>
<path d="M1316.38 3.19629H1308.12V33.5596H1316.38V3.19629Z" fill="#27B1FF"/>
<path d="M1326.65 3.4248H1318.38V33.7881H1326.65V3.4248Z" fill="#27B1FF"/>
<path d="M1336.97 3.4248H1328.71V33.7881H1336.97V3.4248Z" fill="#27B1FF"/>
<path d="M1347.3 3.4248H1339.04V33.7881H1347.3V3.4248Z" fill="#27B1FF"/>
<path d="M1357.57 3.4248H1349.3V33.7881H1357.57V3.4248Z" fill="#27B1FF"/>
<path d="M1367.89 3.4248H1359.63V33.7881H1367.89V3.4248Z" fill="#27B1FF"/>
<path d="M1378.16 3.4248H1369.9V33.7881H1378.16V3.4248Z" fill="#27B1FF"/>
<path d="M1388.49 3.4248H1380.22V33.7881H1388.49V3.4248Z" fill="#27B1FF"/>
<path d="M1398.75 3.4248H1390.49V33.7881H1398.75V3.4248Z" fill="#27B1FF"/>
<path d="M1409.08 3.4248H1400.82V33.7881H1409.08V3.4248Z" fill="#27B1FF"/>
<path d="M1419.34 3.65332H1411.08V34.0167H1419.34V3.65332Z" fill="#27B1FF"/>
<path d="M1429.67 3.65332H1421.41V34.0167H1429.67V3.65332Z" fill="#27B1FF"/>
<path d="M1439.94 3.65332H1431.68V34.0167H1439.94V3.65332Z" fill="#27B1FF"/>
</svg>
