<svg width="194" height="194" viewBox="0 0 194 194" fill="none" xmlns="http://www.w3.org/2000/svg">
<g filter="url(#filter0_d_6154_16513)">
<path d="M97 163C138.441 163 172 129.441 172 88C172 46.5593 138.441 13 97 13C55.5593 13 22 46.5593 22 88C22 129.441 55.5593 163 97 163Z" fill="url(#paint0_radial_6154_16513)"/>
<mask id="mask0_6154_16513" style="mask-type:alpha" maskUnits="userSpaceOnUse" x="28" y="19" width="138" height="138">
<path d="M97.0001 156.135C134.627 156.135 165.136 125.627 165.136 87.9998C165.136 50.3726 134.627 19.8642 97.0001 19.8642C59.373 19.8642 28.8645 50.3726 28.8645 87.9998C28.8645 125.627 59.373 156.135 97.0001 156.135Z" fill="#1E293B"/>
</mask>
<g mask="url(#mask0_6154_16513)">
<g filter="url(#filter1_d_6154_16513)">
<path d="M86.0863 63.6046C99.2243 63.64 109.713 52.9682 109.514 39.7685C109.314 26.5688 98.5019 15.8396 85.3639 15.8042C72.2259 15.7687 61.7372 26.4405 61.9367 39.6403C62.1361 52.84 72.9483 63.5692 86.0863 63.6046Z" fill="#315D93"/>
</g>
<g filter="url(#filter2_d_6154_16513)">
<path d="M115.786 58.4192C123.536 58.4401 129.724 52.1445 129.606 44.3576C129.488 36.5707 123.11 30.2413 115.359 30.2204C107.609 30.1995 101.421 36.4951 101.539 44.282C101.657 52.0688 108.035 58.3983 115.786 58.4192Z" fill="#315D93"/>
</g>
<path d="M161.827 111.967C161.47 124.534 158.862 138.278 153.707 150.74C153.321 151.674 152.921 152.597 152.507 153.517C142.647 175.335 124.64 192.519 96.7698 191.217C71.2409 190.025 52.078 177.295 41.4875 153.034C40.9986 151.919 40.5299 150.777 40.0813 149.61C35.1479 136.864 32.4177 121.191 32.1643 102.598C32.0276 100.793 32.0019 98.638 32.1365 96.2258C32.1747 95.5832 32.2194 94.92 32.2776 94.2431C34.0787 73.5205 47.1152 37.5308 95.1232 38.6424C151.631 39.952 162.693 81.6358 161.827 111.967Z" fill="#EAEAEA"/>
<path d="M161.827 111.967C161.47 124.534 158.862 138.278 153.707 150.74C153.321 151.674 152.921 152.597 152.507 153.517C142.647 175.335 124.64 192.519 96.7698 191.217C71.2409 190.025 52.078 177.295 41.4875 153.034C40.9986 151.919 40.5299 150.777 40.0813 149.61C35.1479 136.864 32.4177 121.191 32.1643 102.598C32.0276 100.793 32.0019 98.638 32.1365 96.2258C32.1747 95.5832 32.2194 94.92 32.2776 94.2431C34.0787 73.5205 47.1152 37.5308 95.1232 38.6424C151.631 39.952 162.693 81.6358 161.827 111.967Z" fill="url(#paint1_radial_6154_16513)"/>
<path d="M46.4139 94.7342L46.3075 96.4616C41.2977 97.5787 36.4449 97.6367 31.7679 96.497C31.807 95.8496 31.8527 95.1815 31.9119 94.4996C36.6901 95.5009 41.5207 95.5814 46.4139 94.7342Z" fill="#90A3B9"/>
<path d="M161.485 96.578C156.074 97.7041 150.757 97.4736 145.542 95.6927L145.518 93.9621C150.799 95.3139 156.061 95.5651 161.307 94.7121C161.378 95.3318 161.435 95.9549 161.485 96.578Z" fill="#90A3B9"/>
<path d="M153.935 150.389C153.545 151.333 153.141 152.267 152.723 153.197C117.254 159.825 79.7878 158.82 41.0429 152.92C40.5532 151.795 40.0838 150.641 39.6348 149.464C81.7127 155.519 123.032 158.063 153.935 150.389Z" fill="#90A3B9"/>
<path d="M60.8465 46.4667C59.8462 48.0778 57.3312 62.7209 58.3937 69.5323L57.2472 70.3969C57.2472 70.3969 56.2503 59.0012 59.3235 47.3752L60.8465 46.4667Z" fill="#90A3B9"/>
<path d="M56.32 118.655C56.32 118.655 54.7841 139.644 59.4968 152.118L61.5348 152.853C61.5348 152.853 56.615 142.621 58.3617 119.414L56.3234 118.655L56.32 118.655Z" fill="#90A3B9"/>
<path d="M96.5861 171.711C106.788 171.741 114.931 163.447 114.774 153.186C114.616 142.924 106.218 134.581 96.0153 134.552C85.8129 134.522 77.67 142.816 77.8276 153.077C77.9853 163.339 86.3837 171.681 96.5861 171.711Z" fill="#90A3B9"/>
<path d="M96.5653 170.002C106.768 170.032 114.911 161.737 114.753 151.476C114.595 141.215 106.197 132.872 95.9945 132.842C85.7921 132.812 77.6493 141.106 77.8069 151.368C77.9645 161.629 86.363 169.972 96.5653 170.002Z" fill="#11304E"/>
<g filter="url(#filter3_d_6154_16513)">
<path d="M96.5334 167.942C87.4799 167.915 80.0015 160.483 79.8608 151.374C79.7202 142.265 86.9696 134.878 96.0231 134.905C105.077 134.932 112.555 142.364 112.696 151.473C112.836 160.582 105.587 167.969 96.5334 167.942ZM96.0338 135.593C87.3599 135.567 80.4101 142.649 80.5449 151.376C80.6797 160.103 87.8489 167.228 96.5228 167.254C105.197 167.28 112.146 160.198 112.012 151.471C111.877 142.744 104.708 135.62 96.0338 135.593Z" fill="url(#paint2_linear_6154_16513)"/>
</g>
<path d="M99.4021 154.598C98.082 154.828 96.8028 153.94 96.5498 152.617C96.2968 151.295 97.1699 150.031 98.49 149.801C99.8101 149.571 101.089 150.46 101.342 151.782C101.595 153.104 100.722 154.368 99.4021 154.598ZM98.5905 150.328C97.5569 150.508 96.8745 151.497 97.0717 152.526C97.2689 153.559 98.268 154.25 99.3016 154.071C100.335 153.892 101.018 152.903 100.82 151.873C100.623 150.84 99.6241 150.149 98.5905 150.328Z" fill="white"/>
<path d="M103.972 156.059C103.64 156.117 103.291 156.116 102.941 156.039C102.219 155.889 101.596 155.467 101.189 154.848C100.786 154.237 100.638 153.51 100.778 152.8C100.806 152.655 100.945 152.566 101.09 152.594C101.234 152.626 101.329 152.767 101.3 152.912C101.189 153.484 101.304 154.066 101.63 154.557C101.96 155.051 102.461 155.393 103.042 155.516C104.238 155.767 105.397 155.006 105.633 153.817C105.88 152.557 105.584 151.081 105.58 151.063C104.734 146.618 100.435 143.638 95.9909 144.415C92.3396 145.052 89.605 148.07 89.3398 151.757C89.3283 151.905 89.2033 152.011 89.0558 151.997C88.9083 151.983 88.8002 151.855 88.8116 151.707C89.0937 147.782 92.0067 144.565 95.8938 143.887C100.624 143.06 105.204 146.237 106.102 150.968C106.114 151.031 106.425 152.562 106.155 153.929C105.932 155.052 105.044 155.87 103.975 156.056L103.972 156.059Z" fill="white"/>
<path d="M103.521 151.7C103.378 151.723 103.239 151.626 103.209 151.481C102.688 148.739 100.034 146.899 97.2948 147.378C94.8842 147.8 93.2309 149.769 93.1764 152.278C93.1718 152.427 93.0536 152.54 92.9061 152.536C92.7585 152.529 92.6435 152.404 92.6447 152.26C92.7055 149.492 94.5342 147.322 97.1944 146.857C100.224 146.327 103.159 148.365 103.733 151.393C103.759 151.538 103.665 151.676 103.521 151.703L103.521 151.7Z" fill="white"/>
<path d="M95.2263 154.376C95.1135 154.396 94.9972 154.406 94.8773 154.409C94.2879 154.418 93.7258 154.196 93.2979 153.781C92.877 153.372 92.6321 152.827 92.6164 152.243C92.6141 152.095 92.7288 151.975 92.8728 151.975C93.0202 151.975 93.1419 152.093 93.1441 152.238C93.1577 152.676 93.3388 153.091 93.6588 153.399C93.9823 153.71 94.4065 153.88 94.8554 153.875C95.7738 153.863 96.4991 153.107 96.4749 152.192C96.4726 152.044 96.5873 151.924 96.7313 151.924C96.8786 151.924 97.0004 152.042 97.0026 152.187C97.033 153.277 96.2587 154.196 95.2161 154.376L95.2263 154.376Z" fill="white"/>
<path d="M107.362 155.702C107.168 155.736 106.962 155.732 106.756 155.683C106.364 155.588 106.028 155.346 105.814 155.004C105.599 154.662 105.532 154.262 105.621 153.873C105.654 153.728 105.796 153.642 105.94 153.677C106.085 153.712 106.173 153.857 106.141 154.002C106.083 154.25 106.128 154.509 106.265 154.726C106.402 154.947 106.617 155.103 106.871 155.162C107.39 155.288 107.906 154.972 108.029 154.459C108.268 152.898 108.121 151.532 107.957 150.659C106.79 144.516 100.838 140.388 94.691 141.46C89.5591 142.355 85.7671 146.623 85.4702 151.835C85.4298 152.78 85.759 153.691 86.4003 154.403C87.0485 155.125 87.9355 155.552 88.899 155.607C90.8775 155.723 92.5571 154.214 92.6399 152.246C92.6445 152.097 92.7695 151.984 92.917 151.995C93.0645 152.005 93.176 152.13 93.1714 152.278C93.0725 154.54 91.1463 156.272 88.8798 156.141C87.7723 156.076 86.7542 155.587 86.0083 154.757C85.2729 153.938 84.8936 152.888 84.942 151.799C85.2522 146.339 89.2194 141.872 94.5904 140.932C101.028 139.81 107.257 144.131 108.479 150.564C108.654 151.479 108.807 152.913 108.554 154.554C108.554 154.561 108.554 154.567 108.551 154.571C108.416 155.167 107.936 155.593 107.366 155.695L107.362 155.702Z" fill="white"/>
<g filter="url(#filter4_d_6154_16513)">
<path d="M147.592 110.684C144.025 118.964 135.438 124.28 119.616 126.26C114.444 126.908 108.498 127.199 101.704 127.122C90.7761 126.997 81.6392 126.333 74.106 124.97C59.3112 122.296 50.7206 116.936 46.9661 107.71C45.0515 103.007 44.3933 97.2987 44.8076 90.4324C46.3837 64.4068 72.395 56.0647 95.0161 56.124C114.895 56.176 142.858 63.3887 148.033 86.9144C150.127 96.4322 150.301 104.409 147.592 110.684Z" fill="#12304E"/>
</g>
<path d="M75.1787 101.346C78.6581 99.7349 82.4764 99.0183 87.2167 101.361" stroke="#11304E" stroke-width="14" stroke-miterlimit="10" stroke-linecap="round"/>
<path d="M75.1475 118.335C75.1828 120.672 74.723 122.89 73.866 124.891C59.0795 122.219 50.4935 116.861 46.7406 107.641C49.6386 104.242 53.9565 102.103 58.8036 102.115C67.6962 102.139 75.0127 109.4 75.1475 118.335Z" fill="url(#paint3_linear_6154_16513)"/>
<path d="M147.69 110.423C144.126 118.698 135.543 124.01 119.73 125.988C118.451 123.686 117.703 121.051 117.66 118.252C117.526 109.317 124.624 102.094 133.517 102.118C139.55 102.134 144.858 105.483 147.69 110.423Z" fill="url(#paint4_linear_6154_16513)"/>
<g style="mix-blend-mode:screen">
<path d="M49.6008 93.8539C49.6008 93.8539 51.226 118.925 84.6715 122.311C84.6715 122.311 48.5154 127.231 49.6008 93.8539Z" fill="url(#paint5_linear_6154_16513)"/>
</g>
<g style="mix-blend-mode:screen" opacity="0.71">
<path d="M112.788 62.0913C112.788 62.0913 135.457 65.5944 142.575 83.1739C142.575 83.1739 129.694 69.7111 112.788 62.0913Z" fill="url(#paint6_linear_6154_16513)"/>
</g>
<path d="M41.3501 91.3073C41.3501 91.3073 34.1816 124.564 81.6244 128.743C129.067 132.922 151.802 126.237 151.11 101.369" stroke="url(#paint7_linear_6154_16513)" stroke-miterlimit="10"/>
<g filter="url(#filter5_d_6154_16513)">
<path d="M80.9973 106.011C78.0555 106.004 75.5501 103.431 75.1962 100.048L73.8138 86.9009C73.4008 82.9819 76.0088 79.578 79.4181 79.5862L80.6057 79.5891C83.7795 79.5967 86.3933 82.5741 86.4477 86.2418L86.6425 99.3858C86.6968 103.05 84.1677 106.018 80.9973 106.011Z" fill="#EAEAEA"/>
</g>
<g filter="url(#filter6_d_6154_16513)">
<path d="M111.545 106.009C114.487 106.016 116.916 103.456 117.17 100.074L118.163 86.9325C118.46 83.0152 115.751 79.5984 112.341 79.5902L111.154 79.5873C107.98 79.5797 105.454 82.5447 105.509 86.2123L105.703 99.3563C105.758 103.021 108.375 106.001 111.545 106.009Z" fill="#EAEAEA"/>
</g>
<path d="M17.45 173.953C16.5825 174.641 15.7209 175.27 14.8756 175.838C14.8519 175.855 14.8282 175.868 14.8045 175.886C13.8949 176.494 13.0046 177.028 12.1438 177.478C10.7442 178.213 9.42672 178.731 8.22501 178.996C8.22501 178.996 7.00688 112.14 33.0464 125.385C33.9413 125.844 34.7448 126.354 35.4567 126.915C35.4948 126.946 35.5362 126.977 35.5743 127.012C35.8197 127.204 36.055 127.411 36.2836 127.624C36.3772 127.71 36.4672 127.796 36.554 127.886C47.2572 138.561 31.1658 163.164 17.45 173.953Z" fill="#EAEAEA"/>
<g filter="url(#filter7_d_6154_16513)">
<path d="M35.0957 140.343C33.0275 148.248 27.8124 160.593 14.8189 175.873C13.9104 176.481 13.0212 177.014 12.1615 177.465C20.4606 168.083 30.4164 154.525 34.2125 140.138C35.9297 133.625 35.7937 129.105 35.561 127.011L35.5608 126.994C35.902 127.232 36.223 127.48 36.5306 127.741C36.5347 127.789 36.5354 127.837 36.5395 127.885C36.7025 130.333 36.6089 134.557 35.0957 140.343Z" fill="white"/>
</g>
<path d="M178.467 173.987C179.356 174.679 180.236 175.313 181.098 175.885C181.123 175.902 181.147 175.916 181.171 175.933C182.099 176.547 183.005 177.084 183.88 177.54C185.301 178.281 186.634 178.807 187.844 179.077C187.844 179.077 187.063 112.223 161.418 125.336C160.536 125.79 159.748 126.296 159.053 126.854C159.016 126.885 158.975 126.916 158.938 126.95C158.698 127.142 158.469 127.347 158.247 127.559C158.156 127.645 158.069 127.73 157.985 127.819C147.6 138.441 164.428 163.128 178.467 173.987Z" fill="#EAEAEA"/>
<g filter="url(#filter8_d_6154_16513)">
<path d="M159.813 140.284C162.118 148.201 167.704 160.574 181.157 175.922C182.084 176.535 182.989 177.073 183.862 177.528C175.281 168.102 164.918 154.492 160.69 140.084C158.778 133.562 158.778 129.042 158.948 126.949L158.948 126.932C158.613 127.168 158.3 127.414 158 127.674C157.997 127.722 157.998 127.77 157.995 127.818C157.906 130.265 158.126 134.49 159.813 140.284Z" fill="white"/>
</g>
<path d="M88.2478 108.475L94.267 102.397C95.2877 101.367 96.9788 101.377 98.038 102.42L104.284 108.571L98.265 114.649C97.2443 115.68 95.5532 115.67 94.494 114.627L88.2478 108.475Z" fill="url(#paint8_linear_6154_16513)"/>
<path d="M34.9729 79.6015L36.0648 79.6041L36.491 108.421L35.3991 108.419C28.6567 108.403 23.1022 102.887 23.0019 96.1079L22.939 91.8573C22.8388 85.0785 28.2305 79.5888 34.9729 79.6049L34.9729 79.6015Z" fill="url(#paint9_linear_6154_16513)"/>
<path d="M158.924 108.392L157.832 108.39L157.406 79.5725L158.498 79.5751C165.24 79.5912 170.795 85.1069 170.895 91.8858L170.958 96.1363C171.058 102.915 165.666 108.405 158.924 108.389L158.924 108.392Z" fill="url(#paint10_linear_6154_16513)"/>
<path d="M130.666 153.228L129.308 153.376C128.804 153.429 128.355 153.031 128.347 152.519L128.267 147.046C128.26 146.607 128.582 146.24 129.015 146.193L130.373 146.046C130.877 145.992 131.326 146.391 131.333 146.902L131.414 152.376C131.42 152.815 131.098 153.181 130.666 153.228Z" fill="#90A3B9"/>
<path d="M134.791 152.888L133.433 153.036C132.929 153.089 132.48 152.69 132.473 152.179L132.392 146.705C132.386 146.266 132.708 145.9 133.14 145.853L134.498 145.705C135.002 145.652 135.451 146.051 135.459 146.562L135.539 152.036C135.546 152.475 135.224 152.841 134.791 152.888Z" fill="#90A3B9"/>
<path d="M138.92 152.545L137.561 152.693C137.057 152.747 136.608 152.348 136.601 151.837L136.52 146.363C136.514 145.924 136.836 145.558 137.268 145.511L138.626 145.363C139.13 145.309 139.579 145.708 139.587 146.219L139.667 151.693C139.674 152.132 139.352 152.498 138.92 152.545Z" fill="#90A3B9"/>
</g>
</g>
<defs>
<filter id="filter0_d_6154_16513" x="0" y="0" width="194" height="194" filterUnits="userSpaceOnUse" color-interpolation-filters="sRGB">
<feFlood flood-opacity="0" result="BackgroundImageFix"/>
<feColorMatrix in="SourceAlpha" type="matrix" values="0 0 0 0 0 0 0 0 0 0 0 0 0 0 0 0 0 0 127 0" result="hardAlpha"/>
<feOffset dy="9"/>
<feGaussianBlur stdDeviation="11"/>
<feComposite in2="hardAlpha" operator="out"/>
<feColorMatrix type="matrix" values="0 0 0 0 0.984314 0 0 0 0 0.572549 0 0 0 0 0.235294 0 0 0 0.5 0"/>
<feBlend mode="normal" in2="BackgroundImageFix" result="effect1_dropShadow_6154_16513"/>
<feBlend mode="normal" in="SourceGraphic" in2="effect1_dropShadow_6154_16513" result="shape"/>
</filter>
<filter id="filter1_d_6154_16513" x="38.9338" y="1.80408" width="93.5825" height="93.8006" filterUnits="userSpaceOnUse" color-interpolation-filters="sRGB">
<feFlood flood-opacity="0" result="BackgroundImageFix"/>
<feColorMatrix in="SourceAlpha" type="matrix" values="0 0 0 0 0 0 0 0 0 0 0 0 0 0 0 0 0 0 127 0" result="hardAlpha"/>
<feMorphology radius="1" operator="dilate" in="SourceAlpha" result="effect1_dropShadow_6154_16513"/>
<feOffset dy="9"/>
<feGaussianBlur stdDeviation="11"/>
<feComposite in2="hardAlpha" operator="out"/>
<feColorMatrix type="matrix" values="0 0 0 0 0.0235294 0 0 0 0 0.647059 0 0 0 0 1 0 0 0 0.7 0"/>
<feBlend mode="normal" in2="BackgroundImageFix" result="effect1_dropShadow_6154_16513"/>
<feBlend mode="normal" in="SourceGraphic" in2="effect1_dropShadow_6154_16513" result="shape"/>
</filter>
<filter id="filter2_d_6154_16513" x="78.5374" y="16.2203" width="74.0703" height="74.1989" filterUnits="userSpaceOnUse" color-interpolation-filters="sRGB">
<feFlood flood-opacity="0" result="BackgroundImageFix"/>
<feColorMatrix in="SourceAlpha" type="matrix" values="0 0 0 0 0 0 0 0 0 0 0 0 0 0 0 0 0 0 127 0" result="hardAlpha"/>
<feMorphology radius="1" operator="dilate" in="SourceAlpha" result="effect1_dropShadow_6154_16513"/>
<feOffset dy="9"/>
<feGaussianBlur stdDeviation="11"/>
<feComposite in2="hardAlpha" operator="out"/>
<feColorMatrix type="matrix" values="0 0 0 0 0.0235294 0 0 0 0 0.647059 0 0 0 0 1 0 0 0 0.7 0"/>
<feBlend mode="normal" in2="BackgroundImageFix" result="effect1_dropShadow_6154_16513"/>
<feBlend mode="normal" in="SourceGraphic" in2="effect1_dropShadow_6154_16513" result="shape"/>
</filter>
<filter id="filter3_d_6154_16513" x="74.1989" y="129.245" width="44.1589" height="44.357" filterUnits="userSpaceOnUse" color-interpolation-filters="sRGB">
<feFlood flood-opacity="0" result="BackgroundImageFix"/>
<feColorMatrix in="SourceAlpha" type="matrix" values="0 0 0 0 0 0 0 0 0 0 0 0 0 0 0 0 0 0 127 0" result="hardAlpha"/>
<feOffset/>
<feGaussianBlur stdDeviation="2.83"/>
<feColorMatrix type="matrix" values="0 0 0 0 0.133333 0 0 0 0 0.607843 0 0 0 0 1 0 0 0 1 0"/>
<feBlend mode="normal" in2="BackgroundImageFix" result="effect1_dropShadow_6154_16513"/>
<feBlend mode="normal" in="SourceGraphic" in2="effect1_dropShadow_6154_16513" result="shape"/>
</filter>
<filter id="filter4_d_6154_16513" x="27.689" y="39.1237" width="138.926" height="105.01" filterUnits="userSpaceOnUse" color-interpolation-filters="sRGB">
<feFlood flood-opacity="0" result="BackgroundImageFix"/>
<feColorMatrix in="SourceAlpha" type="matrix" values="0 0 0 0 0 0 0 0 0 0 0 0 0 0 0 0 0 0 127 0" result="hardAlpha"/>
<feOffset/>
<feGaussianBlur stdDeviation="8.5"/>
<feColorMatrix type="matrix" values="0 0 0 0 0.133333 0 0 0 0 0.607843 0 0 0 0 1 0 0 0 1 0"/>
<feBlend mode="normal" in2="BackgroundImageFix" result="effect1_dropShadow_6154_16513"/>
<feBlend mode="normal" in="SourceGraphic" in2="effect1_dropShadow_6154_16513" result="shape"/>
</filter>
<filter id="filter5_d_6154_16513" x="68.1108" y="73.9262" width="24.1926" height="37.7447" filterUnits="userSpaceOnUse" color-interpolation-filters="sRGB">
<feFlood flood-opacity="0" result="BackgroundImageFix"/>
<feColorMatrix in="SourceAlpha" type="matrix" values="0 0 0 0 0 0 0 0 0 0 0 0 0 0 0 0 0 0 127 0" result="hardAlpha"/>
<feOffset/>
<feGaussianBlur stdDeviation="2.83"/>
<feColorMatrix type="matrix" values="0 0 0 0 0.133333 0 0 0 0 0.607843 0 0 0 0 1 0 0 0 1 0"/>
<feBlend mode="normal" in2="BackgroundImageFix" result="effect1_dropShadow_6154_16513"/>
<feBlend mode="normal" in="SourceGraphic" in2="effect1_dropShadow_6154_16513" result="shape"/>
</filter>
<filter id="filter6_d_6154_16513" x="99.8476" y="73.9273" width="23.9977" height="37.7418" filterUnits="userSpaceOnUse" color-interpolation-filters="sRGB">
<feFlood flood-opacity="0" result="BackgroundImageFix"/>
<feColorMatrix in="SourceAlpha" type="matrix" values="0 0 0 0 0 0 0 0 0 0 0 0 0 0 0 0 0 0 127 0" result="hardAlpha"/>
<feOffset/>
<feGaussianBlur stdDeviation="2.83"/>
<feColorMatrix type="matrix" values="0 0 0 0 0.133333 0 0 0 0 0.607843 0 0 0 0 1 0 0 0 1 0"/>
<feBlend mode="normal" in2="BackgroundImageFix" result="effect1_dropShadow_6154_16513"/>
<feBlend mode="normal" in="SourceGraphic" in2="effect1_dropShadow_6154_16513" result="shape"/>
</filter>
<filter id="filter7_d_6154_16513" x="1.58138" y="116.414" width="45.596" height="71.6312" filterUnits="userSpaceOnUse" color-interpolation-filters="sRGB">
<feFlood flood-opacity="0" result="BackgroundImageFix"/>
<feColorMatrix in="SourceAlpha" type="matrix" values="0 0 0 0 0 0 0 0 0 0 0 0 0 0 0 0 0 0 127 0" result="hardAlpha"/>
<feOffset/>
<feGaussianBlur stdDeviation="5.29"/>
<feColorMatrix type="matrix" values="0 0 0 0 0.133333 0 0 0 0 0.607843 0 0 0 0 1 0 0 0 1 0"/>
<feBlend mode="normal" in2="BackgroundImageFix" result="effect1_dropShadow_6154_16513"/>
<feBlend mode="normal" in="SourceGraphic" in2="effect1_dropShadow_6154_16513" result="shape"/>
</filter>
<filter id="filter8_d_6154_16513" x="147.399" y="116.352" width="47.0438" height="71.7559" filterUnits="userSpaceOnUse" color-interpolation-filters="sRGB">
<feFlood flood-opacity="0" result="BackgroundImageFix"/>
<feColorMatrix in="SourceAlpha" type="matrix" values="0 0 0 0 0 0 0 0 0 0 0 0 0 0 0 0 0 0 127 0" result="hardAlpha"/>
<feOffset/>
<feGaussianBlur stdDeviation="5.29"/>
<feColorMatrix type="matrix" values="0 0 0 0 0.133333 0 0 0 0 0.607843 0 0 0 0 1 0 0 0 1 0"/>
<feBlend mode="normal" in2="BackgroundImageFix" result="effect1_dropShadow_6154_16513"/>
<feBlend mode="normal" in="SourceGraphic" in2="effect1_dropShadow_6154_16513" result="shape"/>
</filter>
<radialGradient id="paint0_radial_6154_16513" cx="0" cy="0" r="1" gradientUnits="userSpaceOnUse" gradientTransform="translate(71.624 -21.375) rotate(82.3355) scale(186.037 217.82)">
<stop stop-color="#FDBA74"/>
<stop offset="0.672951" stop-color="#FB7200"/>
</radialGradient>
<radialGradient id="paint1_radial_6154_16513" cx="0" cy="0" r="1" gradientUnits="userSpaceOnUse" gradientTransform="translate(97.5391 77.4366) rotate(89.6028) scale(28.1683 57.7546)">
<stop stop-color="#06A5FF"/>
<stop offset="0.62" stop-color="#06A5FF" stop-opacity="0.38"/>
<stop offset="1" stop-color="#06A5FF" stop-opacity="0"/>
</radialGradient>
<linearGradient id="paint2_linear_6154_16513" x1="96.3888" y1="97.46" x2="96.1965" y2="161.278" gradientUnits="userSpaceOnUse">
<stop stop-color="#06A5FF"/>
<stop offset="1" stop-color="#06A5FF" stop-opacity="0"/>
</linearGradient>
<linearGradient id="paint3_linear_6154_16513" x1="61.2034" y1="76.3509" x2="61.086" y2="120.271" gradientUnits="userSpaceOnUse">
<stop stop-color="#06A5FF"/>
<stop offset="1" stop-color="#06A5FF" stop-opacity="0"/>
</linearGradient>
<linearGradient id="paint4_linear_6154_16513" x1="132.949" y1="75.0176" x2="132.826" y2="121.201" gradientUnits="userSpaceOnUse">
<stop stop-color="#06A5FF"/>
<stop offset="1" stop-color="#06A5FF" stop-opacity="0"/>
</linearGradient>
<linearGradient id="paint5_linear_6154_16513" x1="67.4044" y1="61.4476" x2="67.2563" y2="116.757" gradientUnits="userSpaceOnUse">
<stop stop-color="#06A5FF"/>
<stop offset="1" stop-color="#06A5FF" stop-opacity="0"/>
</linearGradient>
<linearGradient id="paint6_linear_6154_16513" x1="128.012" y1="38.323" x2="127.905" y2="78.8986" gradientUnits="userSpaceOnUse">
<stop stop-color="#06A5FF"/>
<stop offset="1" stop-color="#06A5FF" stop-opacity="0"/>
</linearGradient>
<linearGradient id="paint7_linear_6154_16513" x1="98.4617" y1="47.8417" x2="98.2997" y2="122.13" gradientUnits="userSpaceOnUse">
<stop stop-color="#06A5FF"/>
<stop offset="1" stop-color="#06A5FF" stop-opacity="0"/>
</linearGradient>
<linearGradient id="paint8_linear_6154_16513" x1="83.1519" y1="95.157" x2="98.885" y2="110.738" gradientUnits="userSpaceOnUse">
<stop stop-color="#06A5FF"/>
<stop offset="1" stop-color="#06A5FF" stop-opacity="0"/>
</linearGradient>
<linearGradient id="paint9_linear_6154_16513" x1="29.3105" y1="46.9243" x2="29.1776" y2="102.591" gradientUnits="userSpaceOnUse">
<stop stop-color="#06A5FF"/>
<stop offset="1" stop-color="#06A5FF" stop-opacity="0"/>
</linearGradient>
<linearGradient id="paint10_linear_6154_16513" x1="164.586" y1="141.069" x2="164.719" y2="85.4023" gradientUnits="userSpaceOnUse">
<stop stop-color="#06A5FF"/>
<stop offset="1" stop-color="#06A5FF" stop-opacity="0"/>
</linearGradient>
</defs>
</svg>
