<svg width="1440" height="811" viewBox="0 0 1440 811" fill="none" xmlns="http://www.w3.org/2000/svg">
<g clip-path="url(#clip0_4278_2003)">
<rect width="1440" height="811" fill="url(#paint0_linear_4278_2003)"/>
<g filter="url(#filter0_f_4278_2003)">
<circle cx="128.5" cy="19.5" r="429.5" fill="#1A2E4B"/>
</g>
<g clip-path="url(#clip1_4278_2003)">
<g style="mix-blend-mode:screen">
<path d="M964.977 739.891C964.977 742.403 967.023 744.449 969.536 744.449C972.05 744.449 974.096 742.403 974.096 739.891C974.096 737.378 972.05 735.333 969.536 735.333C967.023 735.333 964.977 737.378 964.977 739.891Z" fill="#6579AD"/>
</g>
<g style="mix-blend-mode:color-dodge">
<path d="M967.257 739.891C967.257 741.177 968.309 742.17 969.536 742.17C970.764 742.17 971.816 741.118 971.816 739.891C971.816 738.664 970.764 737.612 969.536 737.612C968.309 737.612 967.257 738.664 967.257 739.891Z" fill="#6579AD"/>
</g>
<g style="mix-blend-mode:screen">
<path d="M1226.39 28.235C1226.39 33.3187 1230.48 37.409 1235.56 37.409C1240.65 37.409 1244.74 33.3187 1244.74 28.235C1244.74 23.1514 1240.65 19.061 1235.56 19.061C1230.48 19.061 1226.39 23.1514 1226.39 28.235Z" fill="#6579AD"/>
</g>
<g style="mix-blend-mode:color-dodge">
<path d="M1230.95 28.235C1230.95 30.7476 1232.99 32.7928 1235.5 32.7928C1238.02 32.7928 1240.06 30.7476 1240.06 28.235C1240.06 25.7224 1238.02 23.6772 1235.5 23.6772C1232.99 23.6772 1230.95 25.7224 1230.95 28.235Z" fill="#6579AD"/>
</g>
<g style="mix-blend-mode:screen">
<path d="M827.199 392.623C829.556 392.623 831.466 390.713 831.466 388.357C831.466 386.002 829.556 384.092 827.199 384.092C824.843 384.092 822.932 386.002 822.932 388.357C822.932 390.713 824.843 392.623 827.199 392.623Z" fill="#6579AD"/>
</g>
<g style="mix-blend-mode:color-dodge">
<path d="M825.095 388.357C825.095 389.526 826.03 390.519 827.258 390.519C828.485 390.519 829.421 389.584 829.421 388.357C829.421 387.13 828.485 386.195 827.258 386.195C826.03 386.195 825.095 387.13 825.095 388.357Z" fill="#6579AD"/>
</g>
<g style="mix-blend-mode:screen">
<path d="M379.554 138.265C380.716 138.265 381.659 137.323 381.659 136.161C381.659 134.999 380.716 134.058 379.554 134.058C378.392 134.058 377.45 134.999 377.45 136.161C377.45 137.323 378.392 138.265 379.554 138.265Z" fill="#6579AD"/>
</g>
<g style="mix-blend-mode:color-dodge">
<path d="M378.502 136.161C378.502 136.745 378.97 137.213 379.554 137.213C380.139 137.213 380.606 136.745 380.606 136.161C380.606 135.577 380.139 135.109 379.554 135.109C378.97 135.109 378.502 135.577 378.502 136.161Z" fill="#6579AD"/>
</g>
<g style="mix-blend-mode:screen">
<path d="M106.476 326.946C111.157 326.946 114.952 323.152 114.952 318.473C114.952 313.793 111.157 310 106.476 310C101.795 310 98 313.793 98 318.473C98 323.152 101.795 326.946 106.476 326.946Z" fill="#6579AD"/>
</g>
<g style="mix-blend-mode:color-dodge">
<path d="M102.209 318.473C102.209 320.81 104.079 322.738 106.476 322.738C108.873 322.738 110.685 320.868 110.685 318.473C110.685 316.077 108.814 314.207 106.476 314.207C104.138 314.207 102.209 316.077 102.209 318.473Z" fill="#6579AD"/>
</g>
<g style="mix-blend-mode:color-dodge">
<path d="M574.091 789.559C574.091 791.312 575.494 792.714 577.248 792.714C579.001 792.714 580.404 791.312 580.404 789.559C580.404 787.806 579.001 786.403 577.248 786.403C575.494 786.403 574.091 787.806 574.091 789.559Z" fill="#6579AD"/>
</g>
<g style="mix-blend-mode:color-dodge">
<path d="M625.999 511.594C625.999 513.23 627.285 514.515 628.921 514.515C630.558 514.515 631.844 513.23 631.844 511.594C631.844 509.957 630.558 508.672 628.921 508.672C627.285 508.672 625.999 509.957 625.999 511.594Z" fill="#6579AD"/>
</g>
<g style="mix-blend-mode:color-dodge">
<path d="M852.393 647.567C852.393 649.379 853.855 650.839 855.667 650.839C857.479 650.839 858.94 649.379 858.94 647.567C858.94 645.756 857.479 644.295 855.667 644.295C853.855 644.295 852.393 645.756 852.393 647.567Z" fill="#6579AD"/>
</g>
<g style="mix-blend-mode:color-dodge">
<path d="M1381 736.272C1381 738.084 1382.46 739.544 1384.27 739.544C1386.09 739.544 1387.55 738.084 1387.55 736.272C1387.55 734.461 1386.09 733 1384.27 733C1382.46 733 1381 734.461 1381 736.272Z" fill="#6579AD"/>
</g>
<g style="mix-blend-mode:color-dodge">
<path d="M409 411.74C409 413.843 410.695 415.479 412.741 415.479C414.787 415.479 416.482 413.785 416.482 411.74C416.482 409.695 414.787 408 412.741 408C410.695 408 409 409.695 409 411.74Z" fill="#6579AD"/>
</g>
<g style="mix-blend-mode:color-dodge">
<path d="M334.135 584.225C334.135 586.329 335.83 587.965 337.876 587.965C339.922 587.965 341.617 586.27 341.617 584.225C341.617 582.18 339.922 580.485 337.876 580.485C335.83 580.485 334.135 582.18 334.135 584.225Z" fill="#6579AD"/>
</g>
<g style="mix-blend-mode:color-dodge">
<path d="M370 321.74C370 323.843 371.695 325.479 373.741 325.479C375.787 325.479 377.482 323.785 377.482 321.74C377.482 319.695 375.787 318 373.741 318C371.695 318 370 319.695 370 321.74Z" fill="#6579AD"/>
</g>
<g style="mix-blend-mode:color-dodge">
<path d="M272 498.636C272 499.513 272.701 500.272 273.637 500.272C274.572 500.272 275.273 499.571 275.273 498.636C275.273 497.701 274.572 497 273.637 497C272.701 497 272 497.701 272 498.636Z" fill="#6579AD"/>
</g>
<g style="mix-blend-mode:color-dodge">
<path d="M105 737.636C105 738.513 105.701 739.272 106.637 739.272C107.572 739.272 108.273 738.571 108.273 737.636C108.273 736.701 107.572 736 106.637 736C105.701 736 105 736.701 105 737.636Z" fill="#6579AD"/>
</g>
<g style="mix-blend-mode:color-dodge">
<path d="M131 495.636C131 496.513 131.701 497.272 132.637 497.272C133.572 497.272 134.273 496.571 134.273 495.636C134.273 494.701 133.572 494 132.637 494C131.701 494 131 494.701 131 495.636Z" fill="#6579AD"/>
</g>
<g style="mix-blend-mode:color-dodge">
<path d="M1339.61 476.592C1337.51 476.592 1335.87 478.286 1335.87 480.332C1335.87 482.377 1337.57 484.071 1339.61 484.071C1341.66 484.071 1343.35 482.377 1343.35 480.332C1343.35 478.286 1341.66 476.592 1339.61 476.592Z" fill="#6579AD"/>
</g>
<g style="mix-blend-mode:color-dodge">
<path d="M1239.3 575.052C1237.2 575.052 1235.56 576.746 1235.56 578.791C1235.56 580.837 1237.26 582.531 1239.3 582.531C1241.35 582.531 1243.05 580.837 1243.05 578.791C1243.05 576.746 1241.35 575.052 1239.3 575.052Z" fill="#6579AD"/>
</g>
<g style="mix-blend-mode:color-dodge">
<path d="M1425.6 219.253C1423.49 219.253 1421.86 220.947 1421.86 222.993C1421.86 225.038 1423.55 226.732 1425.6 226.732C1427.64 226.732 1429.34 225.038 1429.34 222.993C1429.34 220.947 1427.64 219.253 1425.6 219.253Z" fill="#6579AD"/>
</g>
<g style="mix-blend-mode:color-dodge">
<path d="M1109.24 598.366C1108.37 598.366 1107.61 599.067 1107.61 600.002C1107.61 600.937 1108.31 601.638 1109.24 601.638C1110.18 601.638 1110.88 600.937 1110.88 600.002C1110.88 599.067 1110.18 598.366 1109.24 598.366Z" fill="#6579AD"/>
</g>
<g style="mix-blend-mode:color-dodge">
<path d="M1152.5 580.953C1151.62 580.953 1150.86 581.654 1150.86 582.589C1150.86 583.524 1151.56 584.225 1152.5 584.225C1153.43 584.225 1154.14 583.524 1154.14 582.589C1154.14 581.654 1153.43 580.953 1152.5 580.953Z" fill="#6579AD"/>
</g>
<g style="mix-blend-mode:color-dodge">
<path d="M1141.8 376.555C1140.93 376.555 1140.17 377.256 1140.17 378.191C1140.17 379.126 1140.87 379.827 1141.8 379.827C1142.74 379.827 1143.44 379.126 1143.44 378.191C1143.44 377.256 1142.74 376.555 1141.8 376.555Z" fill="#6579AD"/>
</g>
<g style="mix-blend-mode:color-dodge">
<path d="M1030.68 105.893C1030.68 107.996 1032.37 109.632 1034.42 109.632C1036.47 109.632 1038.16 107.938 1038.16 105.893C1038.16 103.847 1036.47 102.153 1034.42 102.153C1032.37 102.153 1030.68 103.847 1030.68 105.893Z" fill="#6579AD"/>
</g>
<g style="mix-blend-mode:color-dodge">
<path d="M1054 235.906C1054 236.782 1054.7 237.542 1055.64 237.542C1056.58 237.542 1057.28 236.841 1057.28 235.906C1057.28 234.971 1056.58 234.27 1055.64 234.27C1054.7 234.27 1054 234.971 1054 235.906Z" fill="#6579AD"/>
</g>
<g style="mix-blend-mode:color-dodge">
<path d="M1036.58 192.666C1036.58 193.542 1037.29 194.302 1038.22 194.302C1039.16 194.302 1039.86 193.601 1039.86 192.666C1039.86 191.731 1039.16 191.03 1038.22 191.03C1037.29 191.03 1036.58 191.731 1036.58 192.666Z" fill="#6579AD"/>
</g>
<g style="mix-blend-mode:color-dodge">
<path d="M991.983 174.434C991.983 175.311 992.684 176.071 993.62 176.071C994.555 176.071 995.256 175.369 995.256 174.434C995.256 173.5 994.555 172.798 993.62 172.798C992.684 172.798 991.983 173.5 991.983 174.434Z" fill="#6579AD"/>
</g>
<g style="mix-blend-mode:color-dodge">
<path d="M752.728 115.534C754.794 115.534 756.469 113.86 756.469 111.794C756.469 109.729 754.794 108.055 752.728 108.055C750.662 108.055 748.987 109.729 748.987 111.794C748.987 113.86 750.662 115.534 752.728 115.534Z" fill="#6579AD"/>
</g>
<g style="mix-blend-mode:color-dodge">
<path d="M803.116 2.34955C805.182 2.34955 806.857 0.675217 806.857 -1.39017C806.857 -3.45556 805.182 -5.12988 803.116 -5.12988C801.05 -5.12988 799.375 -3.45556 799.375 -1.39017C799.375 0.675217 801.05 2.34955 803.116 2.34955Z" fill="#6579AD"/>
</g>
<g filter="url(#filter1_d_4278_2003)">
<path d="M155.513 594.136C155.693 593.015 157.307 593.015 157.487 594.136L159.919 609.252C159.988 609.678 160.322 610.012 160.748 610.081L175.864 612.513C176.985 612.693 176.985 614.307 175.864 614.487L160.748 616.919C160.322 616.988 159.988 617.322 159.919 617.748L157.487 632.864C157.307 633.985 155.693 633.985 155.513 632.864L153.081 617.748C153.012 617.322 152.678 616.988 152.252 616.919L137.136 614.487C136.015 614.307 136.015 612.693 137.136 612.513L152.252 610.081C152.678 610.012 153.012 609.678 153.081 609.252L155.513 594.136Z" fill="white"/>
</g>
<g filter="url(#filter2_d_4278_2003)">
<path d="M431.013 21.1365C431.193 20.0149 432.807 20.0149 432.987 21.1365L433.548 24.6232C433.617 25.0492 433.951 25.3832 434.377 25.4517L437.864 26.0127C438.985 26.1931 438.985 27.8069 437.864 27.9873L434.377 28.5483C433.951 28.6168 433.617 28.9508 433.548 29.3768L432.987 32.8635C432.807 33.9851 431.193 33.9851 431.013 32.8635L430.452 29.3768C430.383 28.9508 430.049 28.6168 429.623 28.5483L426.136 27.9873C425.015 27.8069 425.015 26.1931 426.136 26.0127L429.623 25.4517C430.049 25.3832 430.383 25.0492 430.452 24.6232L431.013 21.1365Z" fill="white"/>
</g>
<g filter="url(#filter3_d_4278_2003)">
<path d="M1234.51 324.136C1234.69 323.015 1236.31 323.015 1236.49 324.136L1237.81 332.361C1237.88 332.787 1238.21 333.121 1238.64 333.189L1246.86 334.513C1247.99 334.693 1247.99 336.307 1246.86 336.487L1238.64 337.811C1238.21 337.879 1237.88 338.213 1237.81 338.639L1236.49 346.864C1236.31 347.985 1234.69 347.985 1234.51 346.864L1233.19 338.639C1233.12 338.213 1232.79 337.879 1232.36 337.811L1224.14 336.487C1223.01 336.307 1223.01 334.693 1224.14 334.513L1232.36 333.189C1232.79 333.121 1233.12 332.787 1233.19 332.361L1234.51 324.136Z" fill="white"/>
</g>
</g>
</g>
<defs>
<filter id="filter0_f_4278_2003" x="-801" y="-910" width="1859" height="1859" filterUnits="userSpaceOnUse" color-interpolation-filters="sRGB">
<feFlood flood-opacity="0" result="BackgroundImageFix"/>
<feBlend mode="normal" in="SourceGraphic" in2="BackgroundImageFix" result="shape"/>
<feGaussianBlur stdDeviation="250" result="effect1_foregroundBlur_4278_2003"/>
</filter>
<filter id="filter1_d_4278_2003" x="128.295" y="585.295" width="56.4094" height="56.4102" filterUnits="userSpaceOnUse" color-interpolation-filters="sRGB">
<feFlood flood-opacity="0" result="BackgroundImageFix"/>
<feColorMatrix in="SourceAlpha" type="matrix" values="0 0 0 0 0 0 0 0 0 0 0 0 0 0 0 0 0 0 127 0" result="hardAlpha"/>
<feOffset/>
<feGaussianBlur stdDeviation="4"/>
<feComposite in2="hardAlpha" operator="out"/>
<feColorMatrix type="matrix" values="0 0 0 0 1 0 0 0 0 1 0 0 0 0 1 0 0 0 0.9 0"/>
<feBlend mode="normal" in2="BackgroundImageFix" result="effect1_dropShadow_4278_2003"/>
<feBlend mode="normal" in="SourceGraphic" in2="effect1_dropShadow_4278_2003" result="shape"/>
</filter>
<filter id="filter2_d_4278_2003" x="417.295" y="12.2954" width="29.4094" height="29.4092" filterUnits="userSpaceOnUse" color-interpolation-filters="sRGB">
<feFlood flood-opacity="0" result="BackgroundImageFix"/>
<feColorMatrix in="SourceAlpha" type="matrix" values="0 0 0 0 0 0 0 0 0 0 0 0 0 0 0 0 0 0 127 0" result="hardAlpha"/>
<feOffset/>
<feGaussianBlur stdDeviation="4"/>
<feComposite in2="hardAlpha" operator="out"/>
<feColorMatrix type="matrix" values="0 0 0 0 1 0 0 0 0 1 0 0 0 0 1 0 0 0 1 0"/>
<feBlend mode="normal" in2="BackgroundImageFix" result="effect1_dropShadow_4278_2003"/>
<feBlend mode="normal" in="SourceGraphic" in2="effect1_dropShadow_4278_2003" result="shape"/>
</filter>
<filter id="filter3_d_4278_2003" x="1215.3" y="315.295" width="40.4094" height="40.4102" filterUnits="userSpaceOnUse" color-interpolation-filters="sRGB">
<feFlood flood-opacity="0" result="BackgroundImageFix"/>
<feColorMatrix in="SourceAlpha" type="matrix" values="0 0 0 0 0 0 0 0 0 0 0 0 0 0 0 0 0 0 127 0" result="hardAlpha"/>
<feOffset/>
<feGaussianBlur stdDeviation="4"/>
<feComposite in2="hardAlpha" operator="out"/>
<feColorMatrix type="matrix" values="0 0 0 0 1 0 0 0 0 1 0 0 0 0 1 0 0 0 1 0"/>
<feBlend mode="normal" in2="BackgroundImageFix" result="effect1_dropShadow_4278_2003"/>
<feBlend mode="normal" in="SourceGraphic" in2="effect1_dropShadow_4278_2003" result="shape"/>
</filter>
<linearGradient id="paint0_linear_4278_2003" x1="720" y1="0" x2="720" y2="811" gradientUnits="userSpaceOnUse">
<stop stop-color="#090D13"/>
<stop offset="1" stop-color="#1D283A"/>
</linearGradient>
<clipPath id="clip0_4278_2003">
<rect width="1440" height="811" fill="white"/>
</clipPath>
<clipPath id="clip1_4278_2003">
<rect width="1836" height="933" fill="white" transform="translate(-213 -51)"/>
</clipPath>
</defs>
</svg>
