<svg width="24" height="25" viewBox="0 0 24 25" fill="none" xmlns="http://www.w3.org/2000/svg">
<g clip-path="url(#clip0_4276_10190)">
<path d="M19.4844 23.3672L19.4846 23.368C19.6166 24.0248 18.941 24.4262 18.4679 24.1118C18.4675 24.1115 18.4671 24.1113 18.4667 24.111L12.9232 20.3639L12.9229 20.3637C12.3604 19.9841 11.6397 19.9841 11.0772 20.3637L11.0769 20.3639L5.53164 24.1121C5.53161 24.1122 5.53158 24.1122 5.53155 24.1122C5.06687 24.4249 4.38325 24.0259 4.51544 23.368L4.51546 23.3679L5.86978 16.6203C5.86979 16.6202 5.8698 16.6202 5.86981 16.6201C5.98578 16.043 5.79957 15.4289 5.36666 15.0252L1.3282 11.1845L1.32645 11.1828L0.723092 10.6145C0.722824 10.6143 0.722556 10.614 0.722288 10.6137C0.246094 10.1591 0.591922 9.38357 1.17278 9.38357H6.96849C7.6388 9.38357 8.22971 8.97518 8.49425 8.36354L8.49459 8.36274L11.3924 1.63056L11.3927 1.62992C11.6281 1.08104 12.372 1.08104 12.6073 1.62992L12.6076 1.63056L15.5055 8.36274L15.5058 8.36354C15.7703 8.97518 16.3612 9.38357 17.0315 9.38357H22.8273C23.4148 9.38357 23.7558 10.163 23.2787 10.6129L23.2777 10.6138L18.632 15.0186L18.4761 15.1665V15.1945C18.1557 15.593 18.0381 16.1239 18.1378 16.62C18.1378 16.6201 18.1378 16.6202 18.1378 16.6203L18.584 18.8452L18.5842 18.8459L19.4844 23.3672Z" stroke="#94A3B8"/>
</g>
<defs>
<clipPath id="clip0_4276_10190">
<rect width="24" height="24" fill="white" transform="translate(0 0.722168)"/>
</clipPath>
</defs>
</svg>
