<svg width="30" height="30" viewBox="0 0 30 30" fill="none" xmlns="http://www.w3.org/2000/svg">
<g id="Group 1491">
<path id="Vector" d="M15 27.5C21.9036 27.5 27.5 21.9036 27.5 15C27.5 8.09644 21.9036 2.5 15 2.5C8.09644 2.5 2.5 8.09644 2.5 15C2.5 21.9036 8.09644 27.5 15 27.5Z" fill="#2C3D5B" stroke="white" stroke-width="5"/>
<path id="Vector_2" fill-rule="evenodd" clip-rule="evenodd" d="M14.9999 15.4001C16.5199 15.4001 17.7199 14.2001 17.7199 12.6801C17.7199 11.1601 16.5199 9.9601 14.9999 9.9601C13.4799 9.9601 12.2799 11.1601 12.2799 12.6801C12.2799 14.2001 13.4799 15.4001 14.9999 15.4001ZM14.9999 16.8401C17.2399 16.8401 19.0799 15.0001 19.0799 12.7601C19.0799 10.4401 17.2399 8.6001 14.9999 8.6001C12.7599 8.6001 10.9199 10.4401 10.9199 12.6801C10.9199 15.0001 12.7599 16.8401 14.9999 16.8401Z" fill="white"/>
<path id="Vector_3" fill-rule="evenodd" clip-rule="evenodd" d="M19.8002 20.2V24.2L18.4402 25V20.2C18.4402 20.04 18.3602 19.88 18.2802 19.8C17.7202 19.4 16.6002 18.84 15.0002 18.84C13.4002 18.84 12.2802 19.4 11.7202 19.8C11.6402 19.88 11.5602 19.96 11.5602 20.2V25L10.2002 24.2V20.2C10.2002 19.64 10.4402 19.08 10.9202 18.68C11.6402 18.2 13.0002 17.48 15.0002 17.48C17.0002 17.48 18.3602 18.2 19.0802 18.68C19.5602 19.08 19.8002 19.72 19.8002 20.2Z" fill="white"/>
<path id="Vector_4" d="M15 3C8.36 3 3 8.36 3 15C3 21.64 8.36 27 15 27C21.64 27 27 21.64 27 15C27 8.36 21.64 3 15 3ZM15 25C9.48 25 5 20.52 5 15C5 9.48 9.48 5 15 5C20.52 5 25 9.48 25 15C25 20.52 20.52 25 15 25Z" fill="url(#paint0_linear_2412_900)"/>
</g>
<defs>
<linearGradient id="paint0_linear_2412_900" x1="15" y1="3" x2="15" y2="27" gradientUnits="userSpaceOnUse">
<stop stop-color="#7AA3D7"/>
<stop offset="1" stop-color="#1E293B"/>
</linearGradient>
</defs>
</svg>
