<svg width="90" height="90" viewBox="0 0 90 90" fill="none" xmlns="http://www.w3.org/2000/svg">
<g clip-path="url(#clip0_114_181)">
<mask id="mask0_114_181" style="mask-type:alpha" maskUnits="userSpaceOnUse" x="0" y="0" width="90" height="90">
<path d="M90 0H0V90H90V0Z" fill="white"/>
</mask>
<g mask="url(#mask0_114_181)">
<path d="M56.4401 61.7999C63.9512 61.7999 70.0401 56.1453 70.0401 49.1699C70.0401 42.1946 63.9512 36.5399 56.4401 36.5399C48.929 36.5399 42.8401 42.1946 42.8401 49.1699C42.8401 56.1453 48.929 61.7999 56.4401 61.7999Z" fill="#27B1FF"/>
<path d="M31.8001 58.7099C35.3126 58.7099 38.1601 56.0684 38.1601 52.8099C38.1601 49.5514 35.3126 46.9099 31.8001 46.9099C28.2875 46.9099 25.4401 49.5514 25.4401 52.8099C25.4401 56.0684 28.2875 58.7099 31.8001 58.7099Z" stroke="#98D6FA" stroke-linecap="round"/>
<path d="M5.47003 34.1399L10.2 35.0099L13.65 31.8799L14.23 36.3199L18.5 38.3899L14.13 40.2699L13.32 44.6799L10.05 41.3999L5.28003 42.0499L7.63003 38.1399L5.49003 34.1299L5.47003 34.1399Z" fill="#FDBA74"/>
<path d="M25 5.86L27.56 5.27L28.47 3L29.89 5.05L32.53 5.15L30.85 7.01L31.57 9.35L29.11 8.44L26.92 9.78L27.09 7.36L25.01 5.85L25 5.86Z" fill="#FDBA74"/>
<path d="M42.87 5.71994L45.55 4.21994L45.92 1.18994L48.07 3.24994L51.03 2.56994L49.68 5.33994L51.14 7.94994L48.16 7.59994L46.1 9.89994L45.61 6.91994L42.88 5.72994L42.87 5.71994Z" fill="#FB7200"/>
<path d="M16.8201 56.36L18.6701 55.33L18.9301 53.23L20.4201 54.65L22.4701 54.18L21.5401 56.09L22.5501 57.89L20.4901 57.65L19.0701 59.24L18.7301 57.18L16.8401 56.36H16.8201Z" fill="#FB7200"/>
<path d="M42.2201 34.6999L45.8701 34.5299L48.5801 32.2599L49.8801 35.4299L53.0401 37.1199L50.2001 39.2499L49.4401 42.5699L46.3801 40.7199L42.7501 41.0699L43.7001 37.7999L42.2101 34.6999H42.2201Z" stroke="#DE6501" stroke-width="0.75" stroke-linecap="round" stroke-linejoin="round"/>
<path d="M66.0488 30.5049C65.6923 30.4226 65.354 30.322 65.0158 30.2215C57.6382 27.9177 56.7332 21.2898 60.4631 19.4705C61.3499 19.0317 62.5018 18.8763 63.8822 19.1049C71.8814 20.4487 66.0397 30.5049 66.0397 30.5049H66.0488Z" fill="#FDBA74"/>
<path d="M78.8019 32.4888C76.6353 33.8235 73.0425 34.1617 68.9469 32.1505C68.764 32.0591 68.5812 31.9677 68.3892 31.8671C68.1515 31.7391 67.9138 31.6111 67.6761 31.4649C67.6761 31.4649 71.8083 20.3756 79.067 25.8243C80.3469 26.7842 80.9411 27.9086 80.9686 28.9965C81.0143 30.3404 80.2006 31.6294 78.8019 32.4888Z" fill="#FDBA74"/>
<path d="M78.8019 32.4887C76.6353 33.8235 73.0425 34.1617 68.9469 32.1505C70.7296 32.0317 73.9841 31.0992 75.9039 29.2251C77.2752 27.8812 80.0452 27.3601 80.9777 28.9965C81.0234 30.3404 80.2098 31.6294 78.8111 32.4887H78.8019Z" fill="#FB7200"/>
<path d="M65.025 30.2214C57.6474 27.9176 56.7423 21.2897 60.4723 19.4705C61.7247 19.9824 62.6115 21.8382 62.2275 23.3832C61.551 26.0801 65.0158 30.2214 65.0158 30.2214H65.025Z" fill="#FB7200"/>
<path d="M68.8189 29.609C68.6909 29.0605 67.3744 27.9269 66.3323 28.5028C65.3449 29.0422 65.2078 29.7918 65.5643 30.3952C65.9209 30.9986 67.0636 31.4648 67.7584 31.4374C68.4532 31.4099 68.9834 30.3312 68.8189 29.6181V29.609Z" fill="#FED7AA"/>
<path d="M76.6119 44.4134L33.3341 44.2623L33.2611 65.179L76.5389 65.3301L76.6119 44.4134Z" fill="#FB923C"/>
<path d="M76.6117 44.4043L64.7913 44.363L64.7182 65.2797L76.5387 65.321L76.6117 44.4043Z" fill="#FB7200"/>
<path d="M50.7403 44.3139L47.3944 44.3022L47.3214 65.2189L50.6673 65.2306L50.7403 44.3139Z" fill="#FDBA74"/>
<path d="M53.8992 63.7451L64.2388 57.4829C66.1038 56.3584 68.5904 56.779 69.8885 58.4611C71.1867 60.1249 70.8484 62.447 69.1297 63.736L63.7634 75.0355C61.7065 80.155 54.9597 83.7569 52.1623 83.7478L36.2461 83.6929L36.3284 63.9097L40.7348 54.9414C41.6307 53.113 43.8888 52.1988 45.9457 52.8296C48.0941 53.4878 49.31 55.5905 48.7066 57.6109L46.9422 63.6171L53.9358 63.7451H53.9084H53.8992Z" fill="#D0EEFF"/>
<path d="M30.9255 63.032L36.301 63.0503L36.2095 84.927L30.8341 84.9088C29.2616 84.9088 27.9909 83.7112 28 82.2576L28.064 65.6649C28.064 64.2114 29.3531 63.0229 30.9255 63.032Z" fill="#34D399"/>
<path d="M69.1298 63.7268L54.4661 72.0277L67.9596 66.186L69.1298 63.7268Z" fill="#94A3B8"/>
<path d="M83.9032 44.8487L45.7994 25.7968L48.4963 21.1527L86.6 40.2046L83.9032 44.8487Z" fill="#FB923C"/>
<path d="M86.6 40.2045L76.1233 34.9662L73.4264 39.6103L83.9031 44.8487L86.6 40.2045Z" fill="#FB7200"/>
<path d="M63.7361 28.7771L60.8838 27.3418L58.1869 31.9859L61.0483 33.4212L63.7361 28.7771Z" fill="#FDBA74"/>
<path d="M42.85 11.6299C42.85 11.6299 41.99 13.5199 41.69 16.1499C41.23 20.1199 42.05 25.7799 49.04 29.1799C49.04 29.1799 49.04 29.1799 49.03 29.1799C48.8 29.1399 44.94 28.4399 41.77 25.9099C40.05 24.5299 38.53 22.6199 37.91 19.9699C36.66 14.6199 42.86 11.6299 42.86 11.6299H42.85Z" fill="#D0EEFF"/>
<path d="M49.04 29.1799C49.04 29.1799 49.04 29.1799 49.03 29.1799C48.8 29.1399 44.94 28.4399 41.77 25.9099C40.43 23.9899 39.94 20.9599 41.69 16.1499C41.23 20.1199 42.05 25.7699 49.04 29.1799Z" fill="#27B1FF"/>
<path d="M15.63 54.24C15.63 54.24 15.01 53.2 14.66 51.68C14.14 49.4 14.26 46.05 18.12 43.62C17.99 43.66 15.78 44.31 14.1 45.99C13.18 46.9 12.42 48.12 12.23 49.7C11.84 52.9 15.65 54.24 15.65 54.24H15.63Z" fill="#D0EEFF"/>
<path d="M18.1201 43.62C17.9901 43.66 15.7801 44.31 14.1001 45.99C13.4401 47.19 13.3501 48.99 14.6801 51.68C14.1601 49.4 14.2801 46.05 18.1401 43.62H18.1201Z" fill="#27B1FF"/>
<path d="M38.48 38.33C28.75 39.89 24.85 42.9 23.29 45.19C22.12 46.92 22.28 48.25 22.28 48.25C20.77 47.01 17.62 44.14 22.53 39.95C25.16 37.71 29.55 37.4 33.06 37.61C36.1 37.79 38.48 38.34 38.48 38.34V38.33Z" fill="#D0EEFF"/>
<path d="M38.48 38.33C28.75 39.89 24.85 42.9 23.29 45.19C24.96 39.92 29.25 38.1 33.06 37.6C36.1 37.78 38.48 38.33 38.48 38.33Z" fill="#27B1FF"/>
<path d="M16.88 10L25.13 15.18L34.0801 11.33L31.7001 20.75L38.14 28.04L28.41 28.7L23.43 37.05L19.81 28.03L10.3 25.9L17.79 19.67L16.88 10Z" fill="#FB7200"/>
<path d="M19.26 12.75L21.74 15.22L22.7 14.61L19.26 12.75Z" fill="#FDBA74"/>
<path d="M26.38 15.53L29.95 13.99L27 16.14L26.38 15.53Z" fill="#FDBA74"/>
<path d="M44.74 18.01C47.45 13.78 49.62 12.58 50.99 12.32C52.02 12.13 52.59 12.47 52.59 12.47C52.34 11.51 51.67 9.44999 48.75 10.88C47.19 11.65 46.14 13.64 45.52 15.32C44.98 16.78 44.74 18 44.74 18V18.01Z" fill="#D0EEFF"/>
<path d="M44.74 18.01C47.45 13.78 49.62 12.58 50.99 12.32C48.24 12.02 46.53 13.65 45.52 15.33C44.98 16.79 44.74 18.01 44.74 18.01Z" fill="#27B1FF"/>
</g>
</g>
<defs>
<clipPath id="clip0_114_181">
<rect width="90" height="90" fill="white"/>
</clipPath>
</defs>
</svg>
