<svg width="60" height="60" viewBox="0 0 60 60" fill="none" xmlns="http://www.w3.org/2000/svg">
<g clip-path="url(#clip0_7140_25442)">
<path d="M30 60C46.5763 60 60 46.5763 60 30C60 13.4237 46.5763 0 30 0C13.4237 0 0 13.4237 0 30C0 46.5763 13.4237 60 30 60Z" fill="white"/>
<path d="M29.9998 57.2543C45.0507 57.2543 57.2541 45.0509 57.2541 30.0001C57.2541 14.9492 45.0507 2.74585 29.9998 2.74585C14.949 2.74585 2.74561 14.9492 2.74561 30.0001C2.74561 45.0509 14.949 57.2543 29.9998 57.2543Z" fill="#1E293B"/>
<mask id="mask0_7140_25442" style="mask-type:luminance" maskUnits="userSpaceOnUse" x="2" y="2" width="56" height="56">
<path d="M29.9998 57.2543C45.0507 57.2543 57.2541 45.0509 57.2541 30.0001C57.2541 14.9492 45.0507 2.74585 29.9998 2.74585C14.949 2.74585 2.74561 14.9492 2.74561 30.0001C2.74561 45.0509 14.949 57.2543 29.9998 57.2543Z" fill="white"/>
</mask>
<g mask="url(#mask0_7140_25442)">
<g filter="url(#filter0_d_7140_25442)">
<path d="M25.8195 19.1701C31.0709 19.1845 35.2603 14.9161 35.1767 9.6364C35.0932 4.35671 30.7683 0.0650243 25.5169 0.0506625C20.2654 0.0363007 16.076 4.3047 16.1596 9.58439C16.2431 14.8641 20.568 19.1558 25.8195 19.1701Z" fill="#06A5FF"/>
</g>
<g filter="url(#filter1_d_7140_25442)">
<path d="M37.6961 17.096C40.7941 17.1044 43.2655 14.5864 43.2162 11.4718C43.1669 8.35711 40.6156 5.82533 37.5176 5.81685C34.4196 5.80838 31.9482 8.32643 31.9975 11.4411C32.0467 14.5557 34.5981 17.0875 37.6961 17.096Z" fill="#06A5FF"/>
</g>
<path d="M56.0863 38.5164C55.947 43.5432 54.9088 49.0404 52.8522 54.0249C52.6981 54.3984 52.5385 54.7678 52.3735 55.1357C48.4388 63.8625 41.2471 70.7356 30.1079 70.2145C19.9046 69.7373 12.2421 64.6452 8.0025 54.9409C7.8068 54.4949 7.61912 54.038 7.43949 53.5715C5.46411 48.473 4.36841 42.2042 4.2618 34.7669C4.20665 34.0451 4.19576 33.1831 4.24886 32.2182C4.26394 31.9612 4.28162 31.6959 4.30468 31.4252C5.01855 23.1365 10.2184 8.74123 29.4059 9.18656C51.9905 9.71123 56.4236 26.3844 56.0863 38.5164Z" fill="#EAEAEA"/>
<path d="M56.0863 38.5164C55.947 43.5432 54.9088 49.0404 52.8522 54.0249C52.6981 54.3984 52.5385 54.7678 52.3735 55.1357C48.4388 63.8625 41.2471 70.7356 30.1079 70.2145C19.9046 69.7373 12.2421 64.6452 8.0025 54.9409C7.8068 54.4949 7.61912 54.038 7.43949 53.5715C5.46411 48.473 4.36841 42.2042 4.2618 34.7669C4.20665 34.0451 4.19576 33.1831 4.24886 32.2182C4.26394 31.9612 4.28162 31.6959 4.30468 31.4252C5.01855 23.1365 10.2184 8.74123 29.4059 9.18656C51.9905 9.71123 56.4236 26.3844 56.0863 38.5164Z" fill="url(#paint0_radial_7140_25442)"/>
<path d="M9.94304 31.6225L9.90097 32.3133C7.89766 32.76 5.95685 32.7831 4.08598 32.3272C4.10141 32.0684 4.11948 31.8012 4.14296 31.5284C6.05426 31.929 7.98626 31.9612 9.94304 31.6225Z" fill="#90A3B9"/>
<path d="M55.9716 32.3599C53.8078 32.8102 51.6813 32.7179 49.5952 32.0056L49.585 31.3135C51.6974 31.8542 53.802 31.9547 55.9001 31.6137C55.9285 31.8615 55.9514 32.1107 55.9716 32.3599Z" fill="#90A3B9"/>
<path d="M52.9501 53.8858C52.7943 54.2633 52.6329 54.6366 52.466 55.0085C38.2809 57.6578 23.295 57.2551 7.79614 54.8959C7.59996 54.446 7.41189 53.9849 7.23193 53.5142C24.064 55.9355 40.5916 56.9531 52.9501 53.8858Z" fill="#90A3B9"/>
<path d="M15.7106 12.3154C15.3123 12.9598 14.3139 18.817 14.7391 21.5416L14.2824 21.8874C14.2824 21.8874 13.8821 17.3291 15.1038 12.6788L15.7106 12.3154Z" fill="#90A3B9"/>
<path d="M13.9054 41.1904C13.9054 41.1904 13.2991 49.5859 15.1798 54.5755L15.9919 54.8696C15.9919 54.8696 14.0293 50.7769 14.719 41.4941L13.9068 41.1904L13.9054 41.1904Z" fill="#90A3B9"/>
<path d="M30.023 62.4122C34.0979 62.4247 37.3453 59.1078 37.2762 55.0038C37.2072 50.8997 33.8478 47.5626 29.7729 47.5502C25.6979 47.5377 22.4505 50.8546 22.5196 54.9586C22.5886 59.0627 25.948 62.3998 30.023 62.4122Z" fill="#90A3B9"/>
<path d="M30.0147 61.7284C34.0896 61.7409 37.337 58.424 37.2679 54.3199C37.1989 50.2159 33.8395 46.8788 29.7646 46.8663C25.6896 46.8539 22.4422 50.1707 22.5113 54.2748C22.5803 58.3788 25.9397 61.7159 30.0147 61.7284Z" fill="#11304E"/>
<g filter="url(#filter2_d_7140_25442)">
<path d="M30.0076 60.9037C26.3952 60.8918 23.4039 57.9193 23.3386 54.2765C23.2733 50.6338 26.1584 47.6806 29.7708 47.6924C33.3833 47.7043 36.3746 50.6768 36.4399 54.3196C36.5052 57.9623 33.62 60.9156 30.0076 60.9037ZM29.7758 47.9677C26.3149 47.9563 23.549 50.7875 23.6116 54.2774C23.6741 57.7674 26.5418 60.6171 30.0027 60.6285C33.4636 60.6398 36.2295 57.8087 36.1669 54.3187C36.1044 50.8287 33.2367 47.979 29.7758 47.9677Z" fill="#06A5FF"/>
</g>
<path d="M31.1406 55.5674C30.6141 55.6593 30.1028 55.3039 30.0005 54.7752C29.8983 54.2464 30.2454 53.7411 30.7719 53.6493C31.2984 53.5574 31.8097 53.9128 31.912 54.4415C32.0142 54.9703 31.6671 55.4756 31.1406 55.5674ZM30.8125 53.8599C30.4003 53.9315 30.129 54.327 30.2087 54.7387C30.2884 55.1518 30.6878 55.4283 31.1 55.3567C31.5122 55.2852 31.7835 54.8897 31.7038 54.478C31.6241 54.0649 31.2247 53.7884 30.8125 53.8599Z" fill="white"/>
<path d="M32.9682 56.1521C32.836 56.1751 32.6965 56.1747 32.5565 56.1439C32.2682 56.0837 32.019 55.9148 31.856 55.6676C31.6944 55.4232 31.6345 55.1322 31.6896 54.8485C31.7008 54.7907 31.7563 54.755 31.8139 54.7662C31.8716 54.7788 31.9095 54.8354 31.8982 54.8933C31.8544 55.1219 31.901 55.3549 32.0317 55.551C32.1638 55.7485 32.3645 55.8856 32.5965 55.9346C33.0742 56.0353 33.5364 55.7309 33.6291 55.2557C33.7268 54.7517 33.6068 54.1615 33.6053 54.1546C33.2631 52.3772 31.5434 51.1852 29.7698 51.4951C28.3125 51.7495 27.2237 52.9559 27.1215 54.43C27.1171 54.4893 27.0672 54.5318 27.0083 54.5261C26.9494 54.5204 26.9061 54.4693 26.9105 54.4101C27.0192 52.8408 28.1791 51.5547 29.7305 51.2841C31.6186 50.9539 33.4505 52.2249 33.8139 54.1167C33.8184 54.1415 33.9442 54.7538 33.8378 55.3005C33.7501 55.7495 33.3963 56.0763 32.9696 56.1507L32.9682 56.1521Z" fill="white"/>
<path d="M32.7852 54.4086C32.7279 54.4181 32.6724 54.3793 32.6604 54.3213C32.4492 53.2251 31.3871 52.4891 30.2935 52.6804C29.331 52.8485 28.6725 53.6358 28.6533 54.6389C28.6516 54.6982 28.6045 54.7436 28.5455 54.742C28.4866 54.7391 28.4405 54.6893 28.4409 54.6313C28.4623 53.5248 29.1906 52.6577 30.2529 52.4719C31.4625 52.2603 32.637 53.0752 32.8693 54.286C32.8799 54.344 32.8426 54.3991 32.7852 54.41L32.7852 54.4086Z" fill="white"/>
<path d="M29.9637 59.4772C29.1981 59.4747 28.5646 58.8478 28.5508 58.0813C28.5371 57.3147 29.1482 56.692 29.9138 56.6945C30.6795 56.697 31.313 57.3239 31.3268 58.0904C31.3405 58.857 30.7294 59.4797 29.9637 59.4772ZM29.9176 56.9064C29.2694 56.9043 28.7507 57.431 28.7623 58.0806C28.774 58.7302 29.3116 59.2604 29.9599 59.2625C30.6081 59.2646 31.1268 58.7379 31.1152 58.0883C31.1035 57.4388 30.5659 56.9086 29.9176 56.9064Z" fill="white"/>
<path d="M29.4694 55.4787C29.4243 55.4869 29.3779 55.4909 29.33 55.4921C29.0946 55.4955 28.8698 55.4065 28.6985 55.2405C28.5299 55.0772 28.4316 54.859 28.4247 54.6258C28.4237 54.5665 28.4694 54.5184 28.5269 54.5186C28.5857 54.5187 28.6345 54.5658 28.6355 54.6237C28.6414 54.7989 28.7141 54.9647 28.8423 55.0878C28.9718 55.2123 29.1414 55.2805 29.3207 55.2783C29.6875 55.2739 29.9765 54.9713 29.9659 54.6058C29.9648 54.5465 30.0105 54.4983 30.068 54.4985C30.1269 54.4987 30.1756 54.5457 30.1766 54.6037C30.1899 55.0396 29.8815 55.4069 29.4653 55.4787L29.4694 55.4787Z" fill="white"/>
<path d="M34.3232 56.0094C34.2455 56.0229 34.1633 56.0213 34.0809 56.0017C33.9243 55.964 33.7898 55.8671 33.7039 55.7303C33.6181 55.5936 33.5906 55.4336 33.6261 55.2779C33.6387 55.2201 33.6956 55.1858 33.7533 55.1997C33.811 55.2137 33.8463 55.2717 33.8336 55.3296C33.8107 55.4288 33.829 55.5322 33.8839 55.6192C33.9389 55.7076 34.0248 55.7699 34.1264 55.7937C34.3339 55.844 34.5396 55.7178 34.588 55.5126C34.6822 54.8884 34.6218 54.3423 34.5554 53.9933C34.0833 51.5367 31.7021 49.8859 29.2485 50.3137C27.2 50.6711 25.69 52.3771 25.5767 54.461C25.5615 54.8387 25.6939 55.2031 25.9507 55.4879C26.2103 55.7768 26.565 55.9475 26.9498 55.9694C27.74 56.016 28.4092 55.413 28.4403 54.6259C28.442 54.5667 28.4918 54.5213 28.5507 54.5256C28.6096 54.53 28.6543 54.5797 28.6526 54.639C28.6154 55.5432 27.8479 56.2355 26.9427 56.183C26.5003 56.1568 26.0932 55.9611 25.7945 55.6293C25.5 55.3017 25.3475 54.8821 25.3657 54.4466C25.4841 52.2634 27.0638 50.4777 29.2078 50.1027C31.7773 49.6545 34.2694 51.3829 34.764 53.9554C34.8348 54.3209 34.8971 54.8946 34.798 55.5505C34.798 55.5532 34.798 55.556 34.7967 55.5573C34.7435 55.7957 34.5523 55.966 34.3245 56.0066L34.3232 56.0094Z" fill="white"/>
<g filter="url(#filter3_d_7140_25442)">
<path d="M50.4104 38.0023C48.9868 41.3142 45.5549 43.4402 39.23 44.232C37.1623 44.491 34.7853 44.6073 32.069 44.5767C27.6999 44.5265 24.0467 44.2606 21.0345 43.7153C15.1188 42.6458 11.6826 40.5015 10.1789 36.8113C9.41202 34.9303 9.14721 32.6471 9.31084 29.9007C9.93331 19.4911 20.3303 16.1548 29.3743 16.1788C37.3221 16.2 48.5036 19.0853 50.5798 28.4951C51.4195 32.3021 51.4917 35.4926 50.4104 38.0023Z" fill="#12304E"/>
</g>
<path d="M21.45 34.267C22.8411 33.6227 24.3681 33.3362 26.2647 34.2731" stroke="#11304E" stroke-width="14" stroke-miterlimit="10" stroke-linecap="round"/>
<path d="M21.4349 41.0626C21.4497 41.9973 21.2666 42.8847 20.9246 43.685C15.0126 42.6158 11.5787 40.4728 10.0757 36.785C11.2332 35.4254 12.9587 34.5697 14.8964 34.5749C18.4514 34.5846 21.3784 37.4888 21.4349 41.0626Z" fill="#06A5FF"/>
<path d="M50.4494 37.8981C49.0268 41.2079 45.5971 43.3324 39.276 44.1234C38.7644 43.2024 38.4642 42.1484 38.4465 41.0292C38.39 37.4552 41.2256 34.5664 44.7808 34.576C47.1925 34.5825 49.3157 35.9223 50.4494 37.8981Z" fill="#06A5FF"/>
<path d="M45.5307 61.0433L41.9486 61.4754C41.0178 61.5875 40.1835 60.8532 40.1687 59.9087C40.1563 59.113 40.7355 58.4444 41.5198 58.3499L45.1019 57.9177C46.0327 57.8056 46.867 58.5399 46.8818 59.4845C46.8942 60.2801 46.315 60.9488 45.5307 61.0433Z" stroke="#90A3B9" stroke-width="3" stroke-miterlimit="10"/>
<g style="mix-blend-mode:screen">
<path d="M11.2181 31.2701C11.2181 31.2701 11.8751 41.2979 25.2463 42.6528C25.2463 42.6528 10.7939 44.6205 11.2181 31.2701Z" fill="#06A5FF"/>
</g>
<g style="mix-blend-mode:screen" opacity="0.71">
<path d="M36.4932 18.5652C36.4932 18.5652 45.5572 19.9667 48.4081 26.9982C48.4081 26.9982 43.2542 21.6132 36.4932 18.5652Z" fill="#06A5FF"/>
</g>
<path d="M7.91782 30.2516C7.91782 30.2516 5.06096 43.5529 24.0344 45.225C43.0079 46.897 52.0976 44.2236 51.8135 34.2775" stroke="#06A5FF" stroke-miterlimit="10"/>
<g filter="url(#filter4_d_7140_25442)">
<path d="M23.7801 36.1329C22.6051 36.13 21.6036 35.1011 21.4613 33.7477L20.9054 28.489C20.7393 26.9214 21.78 25.5599 23.1417 25.5632L23.6161 25.5644C24.8838 25.5675 25.9287 26.7585 25.9514 28.2256L26.033 33.4831C26.0557 34.9487 25.0464 36.136 23.7801 36.1329Z" fill="#EAEAEA"/>
</g>
<g filter="url(#filter5_d_7140_25442)">
<path d="M36.0001 36.132C37.1751 36.1349 38.1447 35.1108 38.245 33.7579L38.6378 28.5016C38.7553 26.9347 37.6722 25.568 36.3105 25.5647L35.8361 25.5635C34.5684 25.5604 33.5604 26.7463 33.5832 28.2134L33.6648 33.4709C33.6875 34.9365 34.7337 36.1289 36.0001 36.132Z" fill="#EAEAEA"/>
</g>
<path d="M-1.6326 63.3093C-1.97898 63.5844 -2.323 63.8362 -2.66059 64.0632C-2.67003 64.0701 -2.6795 64.0755 -2.68894 64.0824C-3.0522 64.3258 -3.40773 64.5391 -3.75151 64.7195C-4.31047 65.0132 -4.83667 65.2206 -5.3167 65.3265C-5.3167 65.3265 -5.82263 38.5848 4.5845 43.8828C4.94216 44.0664 5.26329 44.2704 5.54791 44.4949C5.56311 44.5073 5.57968 44.5197 5.5949 44.5335C5.693 44.6107 5.78708 44.6933 5.87847 44.7786C5.91586 44.8131 5.95187 44.8475 5.98655 44.8833C10.2658 49.1536 3.84403 58.9942 -1.6326 63.3093Z" fill="#EAEAEA"/>
<g filter="url(#filter6_d_7140_25442)">
<path d="M5.39743 49.8665C4.57698 53.0283 2.5038 57.9658 -2.67035 64.0767C-3.0324 64.32 -3.38679 64.5332 -3.72946 64.7135C-0.424441 60.9613 3.53904 55.5389 5.04502 49.7846C5.72626 47.1797 5.66943 45.3717 5.57543 44.5341L5.57532 44.5273C5.71159 44.6224 5.83976 44.7215 5.96258 44.8262C5.96426 44.8454 5.96457 44.8646 5.96625 44.8839C6.03263 45.8628 5.99771 47.5524 5.39743 49.8665Z" fill="white"/>
</g>
<path d="M62.7679 63.3231C63.1229 63.6 63.4748 63.8535 63.8195 64.0824C63.8292 64.0893 63.8388 64.0948 63.8485 64.1017C64.2194 64.347 64.5817 64.5622 64.9311 64.7443C65.4993 65.041 66.032 65.2511 66.5154 65.3594C66.5154 65.3594 66.1842 38.6182 55.9421 43.863C55.5901 44.0447 55.2753 44.2471 54.9977 44.4702C54.9829 44.4825 54.9667 44.4948 54.9519 44.5085C54.8563 44.5851 54.7648 44.6673 54.676 44.7522C54.6397 44.7864 54.6048 44.8207 54.5712 44.8563C50.4254 49.1048 57.1557 58.9794 62.7679 63.3231Z" fill="#EAEAEA"/>
<g filter="url(#filter7_d_7140_25442)">
<path d="M55.3087 49.8422C56.2328 53.0088 58.4679 57.9578 63.8427 64.0973C64.2128 64.3426 64.5742 64.5577 64.9228 64.7399C61.4946 60.9695 57.3531 55.5252 55.6584 49.7622C54.8918 47.1534 54.8894 45.3456 54.956 44.5084L54.9559 44.5016C54.8227 44.5959 54.6978 44.6944 54.5783 44.7984C54.5773 44.8176 54.5776 44.8369 54.5766 44.8561C54.5423 45.8347 54.6325 47.5247 55.3087 49.8422Z" fill="white"/>
</g>
<path d="M26.6772 37.1187L29.0831 34.6875C29.4911 34.2753 30.1675 34.2793 30.5915 34.6966L33.0918 37.1572L30.6859 39.5884C30.278 40.0006 29.6015 39.9966 29.1775 39.5793L26.6772 37.1187Z" fill="#06A5FF"/>
<path d="M5.35985 25.5695L5.79596 25.5705L5.97444 37.0972L5.53834 37.0961C2.84541 37.0896 0.625361 34.8832 0.583374 32.1717L0.557048 30.4715C0.515061 27.76 2.66694 25.5643 5.35988 25.5708L5.35985 25.5695Z" fill="#06A5FF"/>
<path d="M54.9551 37.0853L54.519 37.0843L54.3405 25.5576L54.7766 25.5587C57.4695 25.5652 59.6896 27.7716 59.7316 30.4831L59.7579 32.1832C59.7999 34.8948 57.648 37.0905 54.9551 37.084L54.9551 37.0853Z" fill="#06A5FF"/>
<path d="M43.6448 55.0197L43.1025 55.0788C42.9013 55.1003 42.7218 54.9407 42.7187 54.7363L42.6849 52.5468C42.6822 52.3712 42.8107 52.2247 42.9833 52.2059L43.5257 52.1468C43.7269 52.1254 43.9064 52.2849 43.9095 52.4893L43.9432 54.6788C43.9459 54.8544 43.8175 55.0009 43.6448 55.0197Z" fill="#90A3B9"/>
<path d="M45.2947 54.8837L44.7524 54.9428C44.5512 54.9643 44.3717 54.8048 44.3686 54.6003L44.3348 52.4108C44.3321 52.2352 44.4606 52.0887 44.6332 52.0699L45.1756 52.0109C45.3768 51.9894 45.5563 52.1489 45.5594 52.3533L45.5931 54.5429C45.5958 54.7185 45.4674 54.8649 45.2947 54.8837Z" fill="#90A3B9"/>
<path d="M46.9461 54.7468L46.4037 54.8059C46.2025 54.8273 46.0231 54.6678 46.0199 54.4634L45.9862 52.2739C45.9835 52.0983 46.112 51.9518 46.2846 51.933L46.827 51.8739C47.0282 51.8524 47.2076 52.012 47.2108 52.2164L47.2445 54.4059C47.2472 54.5815 47.1187 54.728 46.9461 54.7468Z" fill="#90A3B9"/>
</g>
</g>
<defs>
<filter id="filter0_d_7140_25442" x="-6.8418" y="-13.9495" width="65.0195" height="65.1196" filterUnits="userSpaceOnUse" color-interpolation-filters="sRGB">
<feFlood flood-opacity="0" result="BackgroundImageFix"/>
<feColorMatrix in="SourceAlpha" type="matrix" values="0 0 0 0 0 0 0 0 0 0 0 0 0 0 0 0 0 0 127 0" result="hardAlpha"/>
<feMorphology radius="1" operator="dilate" in="SourceAlpha" result="effect1_dropShadow_7140_25442"/>
<feOffset dy="9"/>
<feGaussianBlur stdDeviation="11"/>
<feComposite in2="hardAlpha" operator="out"/>
<feColorMatrix type="matrix" values="0 0 0 0 0.0235294 0 0 0 0 0.647059 0 0 0 0 1 0 0 0 0.7 0"/>
<feBlend mode="normal" in2="BackgroundImageFix" result="effect1_dropShadow_7140_25442"/>
<feBlend mode="normal" in="SourceGraphic" in2="effect1_dropShadow_7140_25442" result="shape"/>
</filter>
<filter id="filter1_d_7140_25442" x="8.99658" y="-8.18311" width="57.2202" height="57.2791" filterUnits="userSpaceOnUse" color-interpolation-filters="sRGB">
<feFlood flood-opacity="0" result="BackgroundImageFix"/>
<feColorMatrix in="SourceAlpha" type="matrix" values="0 0 0 0 0 0 0 0 0 0 0 0 0 0 0 0 0 0 127 0" result="hardAlpha"/>
<feMorphology radius="1" operator="dilate" in="SourceAlpha" result="effect1_dropShadow_7140_25442"/>
<feOffset dy="9"/>
<feGaussianBlur stdDeviation="11"/>
<feComposite in2="hardAlpha" operator="out"/>
<feColorMatrix type="matrix" values="0 0 0 0 0.0235294 0 0 0 0 0.647059 0 0 0 0 1 0 0 0 0.7 0"/>
<feBlend mode="normal" in2="BackgroundImageFix" result="effect1_dropShadow_7140_25442"/>
<feBlend mode="normal" in="SourceGraphic" in2="effect1_dropShadow_7140_25442" result="shape"/>
</filter>
<filter id="filter2_d_7140_25442" x="17.6774" y="42.0324" width="24.4235" height="24.5314" filterUnits="userSpaceOnUse" color-interpolation-filters="sRGB">
<feFlood flood-opacity="0" result="BackgroundImageFix"/>
<feColorMatrix in="SourceAlpha" type="matrix" values="0 0 0 0 0 0 0 0 0 0 0 0 0 0 0 0 0 0 127 0" result="hardAlpha"/>
<feOffset/>
<feGaussianBlur stdDeviation="2.83"/>
<feColorMatrix type="matrix" values="0 0 0 0 0.133333 0 0 0 0 0.607843 0 0 0 0 1 0 0 0 1 0"/>
<feBlend mode="normal" in2="BackgroundImageFix" result="effect1_dropShadow_7140_25442"/>
<feBlend mode="normal" in="SourceGraphic" in2="effect1_dropShadow_7140_25442" result="shape"/>
</filter>
<filter id="filter3_d_7140_25442" x="-7.73535" y="-0.821289" width="75.9512" height="62.4028" filterUnits="userSpaceOnUse" color-interpolation-filters="sRGB">
<feFlood flood-opacity="0" result="BackgroundImageFix"/>
<feColorMatrix in="SourceAlpha" type="matrix" values="0 0 0 0 0 0 0 0 0 0 0 0 0 0 0 0 0 0 127 0" result="hardAlpha"/>
<feOffset/>
<feGaussianBlur stdDeviation="8.5"/>
<feColorMatrix type="matrix" values="0 0 0 0 0.133333 0 0 0 0 0.607843 0 0 0 0 1 0 0 0 1 0"/>
<feBlend mode="normal" in2="BackgroundImageFix" result="effect1_dropShadow_7140_25442"/>
<feBlend mode="normal" in="SourceGraphic" in2="effect1_dropShadow_7140_25442" result="shape"/>
</filter>
<filter id="filter4_d_7140_25442" x="15.2277" y="19.9032" width="16.4655" height="21.8898" filterUnits="userSpaceOnUse" color-interpolation-filters="sRGB">
<feFlood flood-opacity="0" result="BackgroundImageFix"/>
<feColorMatrix in="SourceAlpha" type="matrix" values="0 0 0 0 0 0 0 0 0 0 0 0 0 0 0 0 0 0 127 0" result="hardAlpha"/>
<feOffset/>
<feGaussianBlur stdDeviation="2.83"/>
<feColorMatrix type="matrix" values="0 0 0 0 0.133333 0 0 0 0 0.607843 0 0 0 0 1 0 0 0 1 0"/>
<feBlend mode="normal" in2="BackgroundImageFix" result="effect1_dropShadow_7140_25442"/>
<feBlend mode="normal" in="SourceGraphic" in2="effect1_dropShadow_7140_25442" result="shape"/>
</filter>
<filter id="filter5_d_7140_25442" x="27.923" y="19.9035" width="16.3835" height="21.8886" filterUnits="userSpaceOnUse" color-interpolation-filters="sRGB">
<feFlood flood-opacity="0" result="BackgroundImageFix"/>
<feColorMatrix in="SourceAlpha" type="matrix" values="0 0 0 0 0 0 0 0 0 0 0 0 0 0 0 0 0 0 127 0" result="hardAlpha"/>
<feOffset/>
<feGaussianBlur stdDeviation="2.83"/>
<feColorMatrix type="matrix" values="0 0 0 0 0.133333 0 0 0 0 0.607843 0 0 0 0 1 0 0 0 1 0"/>
<feBlend mode="normal" in2="BackgroundImageFix" result="effect1_dropShadow_7140_25442"/>
<feBlend mode="normal" in="SourceGraphic" in2="effect1_dropShadow_7140_25442" result="shape"/>
</filter>
<filter id="filter6_d_7140_25442" x="-14.3095" y="33.9473" width="30.8797" height="41.346" filterUnits="userSpaceOnUse" color-interpolation-filters="sRGB">
<feFlood flood-opacity="0" result="BackgroundImageFix"/>
<feColorMatrix in="SourceAlpha" type="matrix" values="0 0 0 0 0 0 0 0 0 0 0 0 0 0 0 0 0 0 127 0" result="hardAlpha"/>
<feOffset/>
<feGaussianBlur stdDeviation="5.29"/>
<feColorMatrix type="matrix" values="0 0 0 0 0.133333 0 0 0 0 0.607843 0 0 0 0 1 0 0 0 1 0"/>
<feBlend mode="normal" in2="BackgroundImageFix" result="effect1_dropShadow_7140_25442"/>
<feBlend mode="normal" in="SourceGraphic" in2="effect1_dropShadow_7140_25442" result="shape"/>
</filter>
<filter id="filter7_d_7140_25442" x="43.9903" y="33.9215" width="31.5125" height="41.3985" filterUnits="userSpaceOnUse" color-interpolation-filters="sRGB">
<feFlood flood-opacity="0" result="BackgroundImageFix"/>
<feColorMatrix in="SourceAlpha" type="matrix" values="0 0 0 0 0 0 0 0 0 0 0 0 0 0 0 0 0 0 127 0" result="hardAlpha"/>
<feOffset/>
<feGaussianBlur stdDeviation="5.29"/>
<feColorMatrix type="matrix" values="0 0 0 0 0.133333 0 0 0 0 0.607843 0 0 0 0 1 0 0 0 1 0"/>
<feBlend mode="normal" in2="BackgroundImageFix" result="effect1_dropShadow_7140_25442"/>
<feBlend mode="normal" in="SourceGraphic" in2="effect1_dropShadow_7140_25442" result="shape"/>
</filter>
<radialGradient id="paint0_radial_7140_25442" cx="0" cy="0" r="1" gradientUnits="userSpaceOnUse" gradientTransform="translate(30.3826 24.7038) rotate(89.5619) scale(11.267 23.0824)">
<stop stop-color="#06A5FF"/>
<stop offset="0.62" stop-color="#06A5FF" stop-opacity="0.38"/>
<stop offset="1" stop-color="#06A5FF" stop-opacity="0"/>
</radialGradient>
<clipPath id="clip0_7140_25442">
<rect width="60" height="60" fill="white"/>
</clipPath>
</defs>
</svg>
