<svg width="40" height="40" viewBox="0 0 40 40" fill="none" xmlns="http://www.w3.org/2000/svg">
<g clip-path="url(#clip0_489_3197)">
<path d="M20 40C31.0508 40 40 31.0508 40 20C40 8.94915 31.0508 0 20 0C8.94915 0 0 8.94915 0 20C0 31.0508 8.94915 40 20 40Z" fill="white"/>
<path d="M20.0001 38.1695C30.034 38.1695 38.1695 30.034 38.1695 20.0001C38.1695 9.96616 30.034 1.83057 20.0001 1.83057C9.96616 1.83057 1.83057 9.96616 1.83057 20.0001C1.83057 30.034 9.96616 38.1695 20.0001 38.1695Z" fill="#1E293B"/>
<mask id="mask0_489_3197" style="mask-type:luminance" maskUnits="userSpaceOnUse" x="1" y="1" width="38" height="38">
<path d="M20.0001 38.1695C30.034 38.1695 38.1695 30.034 38.1695 20.0001C38.1695 9.96616 30.034 1.83057 20.0001 1.83057C9.96616 1.83057 1.83057 9.96616 1.83057 20.0001C1.83057 30.034 9.96616 38.1695 20.0001 38.1695Z" fill="white"/>
</mask>
<g mask="url(#mask0_489_3197)">
<g filter="url(#filter0_d_489_3197)">
</g>
<g filter="url(#filter1_d_489_3197)">
<path d="M17.2084 12.7802C20.7118 12.7897 23.5088 9.94388 23.4556 6.42395C23.4024 2.90403 20.5192 0.0429052 17.0157 0.0334598C13.5122 0.0240144 10.7152 2.86982 10.7684 6.38975C10.8216 9.90967 13.7049 12.7708 17.2084 12.7802Z" fill="#06A5FF"/>
</g>
<g filter="url(#filter2_d_489_3197)">
<path d="M25.1281 11.3974C27.1949 11.403 28.8449 9.7242 28.8136 7.6477C28.7822 5.57119 27.0813 3.88334 25.0145 3.87776C22.9477 3.87219 21.2977 5.55101 21.329 7.62752C21.3604 9.70402 23.0613 11.3919 25.1281 11.3974Z" fill="#06A5FF"/>
</g>
<path d="M37.4059 25.6769C37.3106 29.0282 36.6152 32.6932 35.2406 36.0164C35.1376 36.2654 35.031 36.5116 34.9206 36.7569C32.2911 42.5751 27.4894 47.1574 20.0573 46.8103C13.2496 46.4924 8.1395 43.0978 5.31537 36.6281C5.18501 36.3308 5.06 36.0262 4.94037 35.7152C3.6248 32.3161 2.89674 28.1368 2.82919 23.1785C2.79273 22.6972 2.78588 22.1226 2.82178 21.4793C2.83196 21.3079 2.84389 21.1311 2.8594 20.9506C3.3397 15.4246 6.8161 5.82732 19.6182 6.12374C34.6869 6.47298 37.6368 17.5887 37.4059 25.6769Z" fill="#EAEAEA"/>
<path d="M37.4059 25.6769C37.3106 29.0282 36.6152 32.6932 35.2406 36.0164C35.1376 36.2654 35.031 36.5116 34.9206 36.7569C32.2911 42.5751 27.4894 47.1574 20.0573 46.8103C13.2496 46.4924 8.1395 43.0978 5.31537 36.6281C5.18501 36.3308 5.06 36.0262 4.94037 35.7152C3.6248 32.3161 2.89674 28.1368 2.82919 23.1785C2.79273 22.6972 2.78588 22.1226 2.82178 21.4793C2.83196 21.3079 2.84389 21.1311 2.8594 20.9506C3.3397 15.4246 6.8161 5.82732 19.6182 6.12374C34.6869 6.47298 37.6368 17.5887 37.4059 25.6769Z" fill="url(#paint0_radial_489_3197)"/>
<path d="M6.62912 21.0814L6.60073 21.5421C5.26478 21.84 3.97072 21.8554 2.72352 21.5515C2.73393 21.3789 2.74611 21.2007 2.7619 21.0189C4.03608 21.2859 5.32425 21.3074 6.62912 21.0814Z" fill="#90A3B9"/>
<path d="M37.3145 21.5732C35.8716 21.8735 34.4538 21.812 33.0631 21.3371L33.0566 20.8756C34.4649 21.2361 35.8681 21.3031 37.2672 21.0756C37.286 21.2409 37.3012 21.407 37.3145 21.5732Z" fill="#90A3B9"/>
<path d="M35.3015 35.9229C35.1974 36.1747 35.0897 36.4237 34.9782 36.6718C25.5197 38.4392 15.5288 38.171 5.19679 36.5978C5.06621 36.2977 4.94104 35.9901 4.82129 35.6761C16.0421 37.2908 27.0606 37.9691 35.3015 35.9229Z" fill="#90A3B9"/>
<path d="M10.4776 8.2102C10.2109 8.63983 9.5402 12.5447 9.82353 14.361L9.5178 14.5916C9.5178 14.5916 9.25197 11.5527 10.0715 8.45246L10.4776 8.2102Z" fill="#90A3B9"/>
<path d="M9.2706 27.4603C9.2706 27.4603 8.86102 33.0574 10.1178 36.3837L10.6612 36.5798C10.6612 36.5798 9.34928 33.8513 9.81504 27.6628L9.2715 27.4603L9.2706 27.4603Z" fill="#90A3B9"/>
<path d="M20.0081 41.6088C22.7287 41.6167 24.9001 39.4049 24.8581 36.6686C24.8161 33.9322 22.5765 31.7075 19.8558 31.6995C17.1352 31.6915 14.9638 33.9033 15.0058 36.6397C15.0478 39.376 17.2874 41.6008 20.0081 41.6088Z" fill="#90A3B9"/>
<path d="M20.0027 41.1528C22.7233 41.1608 24.8947 38.949 24.8527 36.2126C24.8107 33.4763 22.5711 31.2516 19.8505 31.2436C17.1298 31.2356 14.9584 33.4474 15.0004 36.1838C15.0425 38.9201 17.282 41.1448 20.0027 41.1528Z" fill="#11304E"/>
<g filter="url(#filter3_d_489_3197)">
<path d="M19.994 40.6037C17.5798 40.5964 15.5855 38.6147 15.548 36.1855C15.5105 33.7564 17.4437 31.7866 19.858 31.7938C22.2722 31.8011 24.2665 33.7828 24.304 36.2119C24.3415 38.6411 22.4083 40.6109 19.994 40.6037ZM19.8608 31.9774C17.5478 31.9704 15.6945 33.8588 15.7304 36.1861C15.7664 38.5134 17.6782 40.4131 19.9912 40.4201C22.3042 40.4271 24.1575 38.5386 24.1216 36.2114C24.0856 33.8841 22.1738 31.9843 19.8608 31.9774Z" fill="#06A5FF"/>
</g>
<path d="M20.759 37.0452C20.407 37.1066 20.0659 36.8697 19.9984 36.5171C19.9309 36.1645 20.1638 35.8275 20.5158 35.7662C20.8678 35.7048 21.209 35.9417 21.2764 36.2943C21.3439 36.6469 21.1111 36.9839 20.759 37.0452ZM20.5426 35.9066C20.267 35.9544 20.085 36.2182 20.1376 36.4927C20.1902 36.7682 20.4566 36.9525 20.7322 36.9047C21.0079 36.8569 21.1898 36.5932 21.1373 36.3186C21.0847 36.0432 20.8182 35.8588 20.5426 35.9066Z" fill="white"/>
<path d="M21.9778 37.435C21.8895 37.4503 21.7963 37.4501 21.7028 37.4296C21.5104 37.3895 21.3443 37.2769 21.2358 37.112C21.1283 36.9491 21.0888 36.755 21.1261 36.5658C21.1337 36.5272 21.1708 36.5034 21.2092 36.5109C21.2477 36.5193 21.273 36.557 21.2653 36.5956C21.2357 36.7481 21.2664 36.9035 21.3534 37.0343C21.4412 37.166 21.5751 37.2573 21.7299 37.29C22.0488 37.3571 22.358 37.1539 22.4207 36.8371C22.4868 36.5009 22.4077 36.1073 22.4067 36.1027C22.1811 34.9174 21.0346 34.1227 19.8496 34.3297C18.8759 34.4996 18.1467 35.3044 18.076 36.2875C18.0729 36.327 18.0396 36.3554 18.0002 36.3516C17.9609 36.3479 17.9321 36.3138 17.9351 36.2743C18.0104 35.2277 18.7872 34.3697 19.8237 34.189C21.0852 33.9685 22.3065 34.8157 22.546 36.0774C22.549 36.0939 22.632 36.5022 22.56 36.8669C22.5007 37.1663 22.2638 37.3844 21.9787 37.4341L21.9778 37.435Z" fill="white"/>
<path d="M21.8576 36.2723C21.8193 36.2787 21.7823 36.2528 21.7744 36.2141C21.6353 35.483 20.9275 34.9923 20.1972 35.12C19.5543 35.2324 19.1134 35.7576 19.0989 36.4267C19.0977 36.4662 19.0662 36.4965 19.0268 36.4955C18.9875 36.4935 18.9568 36.4603 18.9571 36.4217C18.9733 35.6836 19.461 35.1051 20.1704 34.981C20.9782 34.8397 21.7608 35.383 21.9139 36.1906C21.9209 36.2293 21.8959 36.266 21.8576 36.2733L21.8576 36.2723Z" fill="white"/>
<path d="M19.9736 39.6519C19.4619 39.6503 19.0396 39.2324 19.0317 38.7213C19.0238 38.2101 19.4333 37.7947 19.9449 37.7963C20.4566 37.7978 20.879 38.2157 20.8869 38.7269C20.8948 39.238 20.4853 39.6534 19.9736 39.6519ZM19.9471 37.9376C19.5139 37.9363 19.1663 38.2876 19.173 38.7208C19.1797 39.1539 19.5381 39.5074 19.9714 39.5087C20.4046 39.51 20.7522 39.1587 20.7455 38.7255C20.7388 38.2924 20.3804 37.9389 19.9471 37.9376Z" fill="white"/>
<path d="M19.6456 36.9861C19.6155 36.9915 19.5845 36.9942 19.5525 36.995C19.3953 36.9974 19.2454 36.938 19.1313 36.8273C19.0191 36.7185 18.9538 36.5729 18.9496 36.4174C18.949 36.3779 18.9796 36.3457 19.018 36.3459C19.0573 36.346 19.0897 36.3773 19.0903 36.416C19.0939 36.5328 19.1422 36.6434 19.2276 36.7255C19.3138 36.8085 19.427 36.8539 19.5467 36.8524C19.7916 36.8494 19.985 36.6476 19.9785 36.4038C19.9779 36.3642 20.0085 36.3321 20.0469 36.3322C20.0862 36.3323 20.1187 36.3637 20.1193 36.4023C20.1273 36.6931 19.9209 36.9381 19.6428 36.9861L19.6456 36.9861Z" fill="white"/>
<path d="M22.882 37.3397C22.8301 37.3487 22.7753 37.3476 22.7203 37.3346C22.6157 37.3095 22.5261 37.2448 22.469 37.1537C22.4119 37.0625 22.3938 36.9558 22.4178 36.8519C22.4263 36.8134 22.4643 36.7905 22.5029 36.7998C22.5414 36.8091 22.5648 36.8478 22.5563 36.8864C22.5408 36.9525 22.5528 37.0215 22.5894 37.0795C22.6259 37.1385 22.6832 37.18 22.751 37.1959C22.8895 37.2294 23.0271 37.1452 23.0597 37.0083C23.1236 36.592 23.0842 36.2278 23.0405 35.995C22.7294 34.3567 21.1421 33.2561 19.503 33.5419C18.1345 33.7806 17.1233 34.9187 17.0441 36.3086C17.0333 36.5605 17.1211 36.8034 17.2921 36.9933C17.465 37.186 17.7015 37.2998 17.9585 37.3143C18.4861 37.3453 18.9339 36.9429 18.956 36.418C18.9572 36.3785 18.9906 36.3483 19.0299 36.3511C19.0692 36.354 19.099 36.3872 19.0978 36.4267C19.0714 37.0298 18.5577 37.4916 17.9533 37.4568C17.658 37.4394 17.3865 37.309 17.1876 37.0877C16.9915 36.8693 16.8904 36.5895 16.9033 36.299C16.986 34.8429 18.0439 33.6517 19.4762 33.4011C21.1927 33.1018 22.8539 34.2541 23.1799 35.9697C23.2265 36.2135 23.2671 36.5961 23.1998 37.0335C23.1999 37.0353 23.1999 37.0372 23.199 37.0381C23.1631 37.1971 23.0351 37.3107 22.8829 37.3378L22.882 37.3397Z" fill="white"/>
<g filter="url(#filter4_d_489_3197)">
<path d="M33.61 25.3347C32.6589 27.5428 30.3688 28.9603 26.1497 29.4884C24.7704 29.6611 23.1849 29.7387 21.3732 29.7183C18.459 29.685 16.0225 29.5077 14.0137 29.1443C10.0684 28.4314 7.77755 27.0019 6.77634 24.5416C6.26578 23.2876 6.09027 21.7654 6.20075 19.9344C6.62103 12.9942 13.5574 10.7696 19.5897 10.7854C24.8908 10.7993 32.3474 12.7227 33.7276 18.9962C34.2858 21.5343 34.3324 23.6614 33.61 25.3347Z" fill="#12304E"/>
</g>
<path d="M14.2996 22.8448C15.2274 22.4151 16.2456 22.224 17.5097 22.8487" stroke="#11304E" stroke-width="14" stroke-miterlimit="10" stroke-linecap="round"/>
<path d="M14.2914 27.3749C14.3008 27.9981 14.1782 28.5897 13.9497 29.1233C10.0066 28.4106 7.71698 26.982 6.71621 24.5234C7.489 23.6169 8.64045 23.0463 9.933 23.0498C12.3044 23.0561 14.2554 24.9923 14.2914 27.3749Z" fill="#06A5FF"/>
<path d="M33.6361 25.2652C32.6856 27.4719 30.3967 28.8884 26.1799 29.4159C25.839 28.8019 25.6393 28.0992 25.6281 27.353C25.5921 24.9702 27.485 23.0442 29.8565 23.0505C31.4652 23.0548 32.8809 23.948 33.6361 25.2652Z" fill="#06A5FF"/>
<path d="M30.3538 40.6955L27.9646 40.9837C27.3438 41.0584 26.7877 40.5689 26.7783 39.9391C26.7704 39.4087 27.1571 38.9629 27.6802 38.8998L30.0694 38.6116C30.6902 38.5369 31.2463 39.0264 31.2557 39.6561C31.2636 40.1866 30.8769 40.6324 30.3538 40.6955Z" stroke="#90A3B9" stroke-width="3" stroke-miterlimit="10"/>
<g style="mix-blend-mode:screen">
<path d="M7.47888 20.8467C7.47888 20.8467 7.91225 27.5322 16.8311 28.4352C16.8311 28.4352 7.18943 29.7474 7.47888 20.8467Z" fill="#06A5FF"/>
</g>
<g style="mix-blend-mode:screen" opacity="0.71">
<path d="M24.3286 12.3767C24.3286 12.3767 30.3738 13.3109 32.2719 17.9987C32.2719 17.9987 28.8368 14.4087 24.3286 12.3767Z" fill="#06A5FF"/>
</g>
<path d="M5.27866 20.1676C5.27866 20.1676 3.36707 29.0362 16.0185 30.1505C28.6699 31.2649 34.7326 29.4822 34.548 22.8507" stroke="#06A5FF" stroke-miterlimit="10"/>
<g filter="url(#filter5_d_489_3197)">
<path d="M15.8512 24.0886C15.0668 24.0867 14.3987 23.4008 14.3043 22.4984L13.9356 18.9926C13.8255 17.9476 14.521 17.0398 15.4301 17.042L15.7468 17.0428C16.5932 17.0448 17.2902 17.8388 17.3047 18.8169L17.3566 22.3219C17.3711 23.2991 16.6967 24.0906 15.8512 24.0886Z" fill="#EAEAEA"/>
</g>
<g filter="url(#filter6_d_489_3197)">
<path d="M23.9974 24.0882C24.7819 24.0901 25.4297 23.4073 25.4973 22.5054L25.7621 19.0011C25.8412 17.9565 25.1188 17.0454 24.2097 17.0432L23.893 17.0424C23.0466 17.0404 22.3731 17.831 22.3876 18.8091L22.4395 22.3141C22.454 23.2913 23.1519 24.0862 23.9974 24.0882Z" fill="#EAEAEA"/>
</g>
<path d="M-1.09477 42.2064C-1.3261 42.3898 -1.55585 42.5577 -1.78128 42.709C-1.78759 42.7136 -1.79391 42.7173 -1.80022 42.7218C-2.0428 42.8841 -2.28021 43.0263 -2.50975 43.1466C-2.88298 43.3424 -3.2343 43.4807 -3.55476 43.5513C-3.55476 43.5513 -3.87959 25.7231 3.06429 29.255C3.30292 29.3773 3.51717 29.5134 3.70703 29.663C3.71718 29.6713 3.72823 29.6796 3.73839 29.6888C3.80382 29.7402 3.86658 29.7953 3.92754 29.8522C3.95248 29.8751 3.9765 29.8981 3.99963 29.9219C6.85381 32.7687 2.56278 39.3295 -1.09477 42.2064Z" fill="#EAEAEA"/>
<g filter="url(#filter7_d_489_3197)">
<path d="M3.6108 33.2438C3.05929 35.3519 1.66858 38.6439 -1.79633 42.7184C-2.03861 42.8807 -2.27573 43.0229 -2.50499 43.1431C-0.291899 40.6412 2.36299 37.0258 3.37528 33.1892C3.8332 31.4525 3.79693 30.2471 3.73489 29.6887L3.73482 29.6841C3.82583 29.7475 3.91142 29.8136 3.99343 29.8834C3.99454 29.8962 3.99473 29.909 3.99583 29.9218C4.03927 30.5744 4.01432 31.701 3.6108 33.2438Z" fill="white"/>
</g>
<path d="M41.8431 42.2155C42.08 42.4001 42.3148 42.5692 42.5447 42.7217C42.5512 42.7263 42.5576 42.73 42.5641 42.7346C42.8115 42.8981 43.0532 43.0416 43.2863 43.163C43.6655 43.3608 44.0209 43.5008 44.3435 43.573C44.3435 43.573 44.1353 25.7452 37.2965 29.242C37.0615 29.3631 36.8513 29.4981 36.6659 29.6468C36.656 29.655 36.6452 29.6633 36.6353 29.6724C36.5714 29.7235 36.5103 29.7783 36.451 29.8349C36.4268 29.8577 36.4034 29.8805 36.381 29.9043C33.6117 32.7368 38.0993 39.3198 41.8431 42.2155Z" fill="#EAEAEA"/>
<g filter="url(#filter8_d_489_3197)">
<path d="M36.8687 33.2282C37.4834 35.3393 38.973 38.6387 42.5603 42.7315C42.8075 42.895 43.0489 43.0384 43.2818 43.1598C40.9935 40.6463 38.23 37.0169 37.1026 33.1748C36.5925 31.4356 36.5927 30.2303 36.638 29.6721L36.6379 29.6676C36.5488 29.7305 36.4652 29.7962 36.3852 29.8655C36.3845 29.8783 36.3847 29.8911 36.384 29.9039C36.3601 30.5564 36.4189 31.6831 36.8687 33.2282Z" fill="white"/>
</g>
<path d="M17.7847 24.7458L19.3898 23.125C19.662 22.8502 20.1129 22.8529 20.3954 23.131L22.061 24.7714L20.4559 26.3922C20.1837 26.6671 19.7328 26.6644 19.4503 26.3862L17.7847 24.7458Z" fill="#06A5FF"/>
<path d="M3.57804 17.0461L3.86921 17.0468L3.98288 24.7314L3.69171 24.7307C1.89372 24.7264 0.41252 23.2555 0.385781 21.4478L0.369015 20.3143C0.342276 18.5066 1.78007 17.0427 3.57805 17.047L3.57804 17.0461Z" fill="#06A5FF"/>
<path d="M36.6317 24.7237L36.3405 24.723L36.2268 17.0384L36.518 17.0391C38.316 17.0434 39.7972 18.5143 39.8239 20.322L39.8407 21.4554C39.8674 23.2631 38.4296 24.727 36.6317 24.7228L36.6317 24.7237Z" fill="#06A5FF"/>
<path d="M29.0962 36.6798L28.734 36.7192C28.5996 36.7335 28.4798 36.6271 28.4778 36.4909L28.4564 35.0312C28.4546 34.9141 28.5405 34.8164 28.6558 34.8039L29.018 34.7645C29.1523 34.7502 29.2721 34.8565 29.2741 34.9928L29.2956 36.4525C29.2973 36.5696 29.2115 36.6672 29.0962 36.6798Z" fill="#90A3B9"/>
<path d="M30.1963 36.5891L29.8341 36.6285C29.6997 36.6428 29.5799 36.5364 29.5779 36.4002L29.5565 34.9405C29.5547 34.8234 29.6406 34.7257 29.7559 34.7132L30.1181 34.6738C30.2524 34.6595 30.3722 34.7658 30.3742 34.9021L30.3957 36.3618C30.3974 36.4789 30.3116 36.5765 30.1963 36.5891Z" fill="#90A3B9"/>
<path d="M31.2971 36.4978L30.9349 36.5372C30.8005 36.5515 30.6808 36.4451 30.6788 36.3089L30.6573 34.8492C30.6556 34.7321 30.7414 34.6344 30.8567 34.6219L31.2189 34.5825C31.3533 34.5682 31.473 34.6745 31.475 34.8108L31.4965 36.2705C31.4982 36.3876 31.4124 36.4852 31.2971 36.4978Z" fill="#90A3B9"/>
</g>
</g>
<defs>
<filter id="filter0_d_489_3197" x="2.69076" y="36.854" width="35.7132" height="23.9022" filterUnits="userSpaceOnUse" color-interpolation-filters="sRGB">
<feFlood flood-opacity="0" result="BackgroundImageFix"/>
<feColorMatrix in="SourceAlpha" type="matrix" values="0 0 0 0 0 0 0 0 0 0 0 0 0 0 0 0 0 0 127 0" result="hardAlpha"/>
<feOffset/>
<feGaussianBlur stdDeviation="5.67"/>
<feColorMatrix type="matrix" values="0 0 0 0 0.133333 0 0 0 0 0.607843 0 0 0 0 1 0 0 0 1 0"/>
<feBlend mode="normal" in2="BackgroundImageFix" result="effect1_dropShadow_489_3197"/>
<feBlend mode="normal" in="SourceGraphic" in2="effect1_dropShadow_489_3197" result="shape"/>
</filter>
<filter id="filter1_d_489_3197" x="-12.2324" y="-13.9666" width="58.6887" height="58.7468" filterUnits="userSpaceOnUse" color-interpolation-filters="sRGB">
<feFlood flood-opacity="0" result="BackgroundImageFix"/>
<feColorMatrix in="SourceAlpha" type="matrix" values="0 0 0 0 0 0 0 0 0 0 0 0 0 0 0 0 0 0 127 0" result="hardAlpha"/>
<feMorphology radius="1" operator="dilate" in="SourceAlpha" result="effect1_dropShadow_489_3197"/>
<feOffset dy="9"/>
<feGaussianBlur stdDeviation="11"/>
<feComposite in2="hardAlpha" operator="out"/>
<feColorMatrix type="matrix" values="0 0 0 0 0.0235294 0 0 0 0 0.647059 0 0 0 0 1 0 0 0 0.7 0"/>
<feBlend mode="normal" in2="BackgroundImageFix" result="effect1_dropShadow_489_3197"/>
<feBlend mode="normal" in="SourceGraphic" in2="effect1_dropShadow_489_3197" result="shape"/>
</filter>
<filter id="filter2_d_489_3197" x="-1.67139" y="-10.1222" width="53.4854" height="53.5197" filterUnits="userSpaceOnUse" color-interpolation-filters="sRGB">
<feFlood flood-opacity="0" result="BackgroundImageFix"/>
<feColorMatrix in="SourceAlpha" type="matrix" values="0 0 0 0 0 0 0 0 0 0 0 0 0 0 0 0 0 0 127 0" result="hardAlpha"/>
<feMorphology radius="1" operator="dilate" in="SourceAlpha" result="effect1_dropShadow_489_3197"/>
<feOffset dy="9"/>
<feGaussianBlur stdDeviation="11"/>
<feComposite in2="hardAlpha" operator="out"/>
<feColorMatrix type="matrix" values="0 0 0 0 0.0235294 0 0 0 0 0.647059 0 0 0 0 1 0 0 0 0.7 0"/>
<feBlend mode="normal" in2="BackgroundImageFix" result="effect1_dropShadow_489_3197"/>
<feBlend mode="normal" in="SourceGraphic" in2="effect1_dropShadow_489_3197" result="shape"/>
</filter>
<filter id="filter3_d_489_3197" x="9.88736" y="26.1338" width="20.0771" height="20.1298" filterUnits="userSpaceOnUse" color-interpolation-filters="sRGB">
<feFlood flood-opacity="0" result="BackgroundImageFix"/>
<feColorMatrix in="SourceAlpha" type="matrix" values="0 0 0 0 0 0 0 0 0 0 0 0 0 0 0 0 0 0 127 0" result="hardAlpha"/>
<feOffset/>
<feGaussianBlur stdDeviation="2.83"/>
<feColorMatrix type="matrix" values="0 0 0 0 0.133333 0 0 0 0 0.607843 0 0 0 0 1 0 0 0 1 0"/>
<feBlend mode="normal" in2="BackgroundImageFix" result="effect1_dropShadow_489_3197"/>
<feBlend mode="normal" in="SourceGraphic" in2="effect1_dropShadow_489_3197" result="shape"/>
</filter>
<filter id="filter4_d_489_3197" x="-10.8308" y="-6.2146" width="61.9802" height="52.936" filterUnits="userSpaceOnUse" color-interpolation-filters="sRGB">
<feFlood flood-opacity="0" result="BackgroundImageFix"/>
<feColorMatrix in="SourceAlpha" type="matrix" values="0 0 0 0 0 0 0 0 0 0 0 0 0 0 0 0 0 0 127 0" result="hardAlpha"/>
<feOffset/>
<feGaussianBlur stdDeviation="8.5"/>
<feColorMatrix type="matrix" values="0 0 0 0 0.133333 0 0 0 0 0.607843 0 0 0 0 1 0 0 0 1 0"/>
<feBlend mode="normal" in2="BackgroundImageFix" result="effect1_dropShadow_489_3197"/>
<feBlend mode="normal" in="SourceGraphic" in2="effect1_dropShadow_489_3197" result="shape"/>
</filter>
<filter id="filter5_d_489_3197" x="8.26407" y="11.382" width="14.7529" height="18.3666" filterUnits="userSpaceOnUse" color-interpolation-filters="sRGB">
<feFlood flood-opacity="0" result="BackgroundImageFix"/>
<feColorMatrix in="SourceAlpha" type="matrix" values="0 0 0 0 0 0 0 0 0 0 0 0 0 0 0 0 0 0 127 0" result="hardAlpha"/>
<feOffset/>
<feGaussianBlur stdDeviation="2.83"/>
<feColorMatrix type="matrix" values="0 0 0 0 0.133333 0 0 0 0 0.607843 0 0 0 0 1 0 0 0 1 0"/>
<feBlend mode="normal" in2="BackgroundImageFix" result="effect1_dropShadow_489_3197"/>
<feBlend mode="normal" in="SourceGraphic" in2="effect1_dropShadow_489_3197" result="shape"/>
</filter>
<filter id="filter6_d_489_3197" x="16.7275" y="11.3824" width="14.7006" height="18.3659" filterUnits="userSpaceOnUse" color-interpolation-filters="sRGB">
<feFlood flood-opacity="0" result="BackgroundImageFix"/>
<feColorMatrix in="SourceAlpha" type="matrix" values="0 0 0 0 0 0 0 0 0 0 0 0 0 0 0 0 0 0 127 0" result="hardAlpha"/>
<feOffset/>
<feGaussianBlur stdDeviation="2.83"/>
<feColorMatrix type="matrix" values="0 0 0 0 0.133333 0 0 0 0 0.607843 0 0 0 0 1 0 0 0 1 0"/>
<feBlend mode="normal" in2="BackgroundImageFix" result="effect1_dropShadow_489_3197"/>
<feBlend mode="normal" in="SourceGraphic" in2="effect1_dropShadow_489_3197" result="shape"/>
</filter>
<filter id="filter7_d_489_3197" x="-13.0849" y="19.1041" width="27.6761" height="34.619" filterUnits="userSpaceOnUse" color-interpolation-filters="sRGB">
<feFlood flood-opacity="0" result="BackgroundImageFix"/>
<feColorMatrix in="SourceAlpha" type="matrix" values="0 0 0 0 0 0 0 0 0 0 0 0 0 0 0 0 0 0 127 0" result="hardAlpha"/>
<feOffset/>
<feGaussianBlur stdDeviation="5.29"/>
<feColorMatrix type="matrix" values="0 0 0 0 0.133333 0 0 0 0 0.607843 0 0 0 0 1 0 0 0 1 0"/>
<feBlend mode="normal" in2="BackgroundImageFix" result="effect1_dropShadow_489_3197"/>
<feBlend mode="normal" in="SourceGraphic" in2="effect1_dropShadow_489_3197" result="shape"/>
</filter>
<filter id="filter8_d_489_3197" x="25.7994" y="19.0876" width="28.0623" height="34.6522" filterUnits="userSpaceOnUse" color-interpolation-filters="sRGB">
<feFlood flood-opacity="0" result="BackgroundImageFix"/>
<feColorMatrix in="SourceAlpha" type="matrix" values="0 0 0 0 0 0 0 0 0 0 0 0 0 0 0 0 0 0 127 0" result="hardAlpha"/>
<feOffset/>
<feGaussianBlur stdDeviation="5.29"/>
<feColorMatrix type="matrix" values="0 0 0 0 0.133333 0 0 0 0 0.607843 0 0 0 0 1 0 0 0 1 0"/>
<feBlend mode="normal" in2="BackgroundImageFix" result="effect1_dropShadow_489_3197"/>
<feBlend mode="normal" in="SourceGraphic" in2="effect1_dropShadow_489_3197" result="shape"/>
</filter>
<radialGradient id="paint0_radial_489_3197" cx="0" cy="0" r="1" gradientUnits="userSpaceOnUse" gradientTransform="translate(20.2625 16.4689) rotate(89.6028) scale(7.51156 15.4012)">
<stop stop-color="#06A5FF"/>
<stop offset="0.62" stop-color="#06A5FF" stop-opacity="0.38"/>
<stop offset="1" stop-color="#06A5FF" stop-opacity="0"/>
</radialGradient>
<clipPath id="clip0_489_3197">
<rect width="40" height="40" fill="white"/>
</clipPath>
</defs>
</svg>
