<svg width="102" height="32" viewBox="0 0 102 32" fill="none" xmlns="http://www.w3.org/2000/svg">
<g clip-path="url(#clip0_4526_18286)">
<path d="M18.8072 19.2944C16.9747 19.2944 15.4849 17.8172 15.4849 16C15.4849 14.1827 16.9747 12.7056 18.8072 12.7056C20.6397 12.7056 22.1295 14.1827 22.1295 16C22.1295 17.8172 20.6397 19.2944 18.8072 19.2944ZM18.8072 13.4289C17.3732 13.4289 16.2057 14.5812 16.2057 16C16.2057 17.4188 17.3732 18.571 18.8072 18.571C20.2412 18.571 21.4087 17.4188 21.4087 16C21.4087 14.5812 20.2412 13.4289 18.8072 13.4289Z" fill="white"/>
<path d="M24.5659 22.2613C24.1065 22.2613 23.6395 22.1776 23.1877 21.9974C22.2588 21.6293 21.5329 20.9238 21.1421 20.0126C20.7563 19.109 20.7436 18.109 21.1141 17.1979C21.1877 17.0126 21.3984 16.9238 21.5837 16.9974C21.769 17.071 21.8578 17.2816 21.7842 17.4669C21.4872 18.1979 21.4974 18.9999 21.807 19.7258C22.1218 20.4593 22.7055 21.0278 23.4542 21.3248C24.9923 21.9339 26.7436 21.1928 27.3578 19.6699C28.0101 18.0532 27.9898 16.0227 27.9898 16.0024C27.9898 9.90852 22.9847 4.95421 16.8324 4.95421C11.7766 4.95421 7.34257 8.32731 6.04815 13.1573C5.99739 13.3501 5.79942 13.4644 5.60653 13.4136C5.41364 13.3628 5.29942 13.1649 5.35018 12.972C6.72836 7.82731 11.4517 4.2334 16.8324 4.2334C23.3832 4.2334 28.7106 9.51005 28.7106 15.9974C28.7106 16.0811 28.736 18.1852 28.0278 19.939C27.4466 21.3781 26.0456 22.2562 24.5659 22.2562V22.2613Z" fill="white"/>
<path d="M25.061 16.3606C24.8605 16.3606 24.7006 16.1982 24.7006 16.0002C24.7006 12.2464 21.6143 9.19308 17.8224 9.19308C14.4899 9.19308 11.7716 11.419 11.0635 14.7311C11.0229 14.9266 10.83 15.0484 10.6346 15.0078C10.4391 14.9672 10.3148 14.7743 10.3579 14.5789C11.1422 10.924 14.1422 8.46973 17.8249 8.46973C22.0153 8.46973 25.4239 11.8479 25.4239 15.9976C25.4239 16.1982 25.2615 16.3581 25.0635 16.3581L25.061 16.3606Z" fill="white"/>
<path d="M15.9951 31.9999C13.3834 31.9999 11.259 29.8857 11.259 27.2893C11.259 24.6928 13.3834 22.5786 15.9951 22.5786C18.6067 22.5786 20.7311 24.6928 20.7311 27.2893C20.7311 29.8857 18.6067 31.9999 15.9951 31.9999ZM15.9951 23.2994C13.7819 23.2994 11.9798 25.0888 11.9798 27.2893C11.9798 29.4898 13.7793 31.2791 15.9951 31.2791C18.2108 31.2791 20.0078 29.4898 20.0078 27.2893C20.0078 25.0888 18.2083 23.2994 15.9951 23.2994Z" fill="white"/>
<path d="M13.3022 18.0304C13.1448 18.0304 12.9875 18.0177 12.8276 17.9923C12.0357 17.8654 11.3403 17.4415 10.8733 16.7943C10.4113 16.1547 10.2261 15.3756 10.353 14.5989C10.3834 14.4009 10.5712 14.2664 10.7667 14.2994C10.9646 14.3324 11.0966 14.5177 11.0662 14.7131C10.9722 15.2994 11.1118 15.8882 11.4596 16.3705C11.8149 16.8603 12.3403 17.1827 12.9418 17.2791C14.1778 17.4771 15.3403 16.6421 15.5382 15.4238C15.5687 15.2258 15.7565 15.0913 15.9519 15.1243C16.1499 15.1573 16.2819 15.3426 16.2514 15.538C16.0154 16.9923 14.7438 18.0278 13.3047 18.0278L13.3022 18.0304Z" fill="white"/>
<path d="M29.2035 22.5508C28.9319 22.5508 28.6578 22.4975 28.3939 22.3833C27.8913 22.1675 27.5055 21.769 27.305 21.264C27.1071 20.7614 27.1172 20.2132 27.3329 19.7183C27.4142 19.5355 27.6248 19.4518 27.8076 19.533C27.9903 19.6142 28.0741 19.8249 27.9928 20.0076C27.8533 20.3249 27.8482 20.6751 27.9751 20.9975C28.1045 21.3223 28.3533 21.5787 28.6756 21.7183C29.338 22.0025 30.1121 21.7056 30.4066 21.0533C31.1248 19.0381 31.2746 17.1904 31.2746 15.9975C31.2746 7.5736 24.3507 0.718274 15.8406 0.718274C8.74158 0.720812 2.57406 5.50508 0.853251 12.3553C0.558835 13.599 0.766957 14.8858 1.44462 15.9772C2.1299 17.0838 3.21112 17.8579 4.48777 18.1548C7.1096 18.764 9.74158 17.1523 10.3583 14.5584C10.404 14.3655 10.5994 14.2437 10.7923 14.2919C10.9852 14.3376 11.1071 14.533 11.0588 14.7259C10.3507 17.7056 7.33041 19.5584 4.32279 18.8579C2.85833 18.5152 1.61721 17.6294 0.830408 16.3579C0.0512206 15.1015 -0.189896 13.6193 0.152743 12.1853C1.95477 5.00761 8.40909 0 15.8456 0C24.7543 0 32.0005 7.17767 32.0005 16C32.0005 17.2538 31.8406 19.1929 31.0842 21.3122C31.0817 21.3198 31.0791 21.3274 31.0741 21.335C30.7416 22.0964 29.9878 22.5508 29.201 22.5508H29.2035Z" fill="white"/>
<path d="M39.4061 19.9693C39.2056 19.9693 39.0457 19.8068 39.0457 19.6089V12.3931C39.0457 12.1926 39.2081 12.0327 39.4061 12.0327C39.604 12.0327 39.7665 12.1952 39.7665 12.3931V19.6089C39.7665 19.8094 39.604 19.9693 39.4061 19.9693Z" fill="white"/>
<path d="M45.3961 19.9697C45.325 19.9697 45.2514 19.9494 45.1879 19.9038L40.1093 16.3276C39.9468 16.2134 39.9062 15.9875 40.023 15.8251C40.1372 15.6626 40.3631 15.622 40.5255 15.7388L45.6042 19.3149C45.7666 19.4291 45.8072 19.655 45.6905 19.8175C45.6194 19.9164 45.5077 19.9697 45.3961 19.9697Z" fill="white"/>
<path d="M39.4061 17.0432C39.2944 17.0432 39.1828 16.9899 39.1117 16.8909C38.995 16.7285 39.033 16.5026 39.1955 16.3884L45.2082 12.099C45.3706 11.9823 45.5965 12.0203 45.7107 12.1828C45.8274 12.3452 45.7894 12.5711 45.6269 12.6853L39.6142 16.9746C39.5508 17.0203 39.4772 17.0406 39.4061 17.0406V17.0432Z" fill="white"/>
<path d="M56.3477 19.9694C56.1472 19.9694 55.9873 19.8069 55.9873 19.609V16.9288C55.9873 16.7283 56.1497 16.5684 56.3477 16.5684C56.5457 16.5684 56.7081 16.7308 56.7081 16.9288V19.609C56.7081 19.8095 56.5457 19.9694 56.3477 19.9694Z" fill="white"/>
<path d="M56.3477 17.2892C56.2309 17.2892 56.1167 17.2334 56.0457 17.1268L53.038 12.5913C52.9289 12.4263 52.972 12.2004 53.1396 12.0913C53.3045 11.9821 53.5304 12.0253 53.6396 12.1928L56.6472 16.7283C56.7563 16.8933 56.7132 17.1192 56.5457 17.2283C56.4847 17.2689 56.4162 17.2892 56.3451 17.2892H56.3477Z" fill="white"/>
<path d="M56.3477 17.2892C56.2792 17.2892 56.2107 17.2689 56.1472 17.2283C55.9822 17.1192 55.9365 16.8933 56.0457 16.7283L59.0533 12.1928C59.1624 12.0253 59.3883 11.9821 59.5533 12.0913C59.7183 12.2004 59.764 12.4263 59.6548 12.5913L56.6472 17.1268C56.5787 17.2309 56.4619 17.2892 56.3452 17.2892H56.3477Z" fill="white"/>
<path d="M72.0863 19.9693H68.4797C67.6168 19.9693 66.9163 19.2688 66.9163 18.4058V13.5962C66.9163 12.7332 67.6168 12.0327 68.4797 12.0327H72.0863C72.9493 12.0327 73.6498 12.7332 73.6498 13.5962V18.4058C73.6498 19.2688 72.9493 19.9693 72.0863 19.9693ZM68.4797 12.7535C68.0152 12.7535 67.6371 13.1317 67.6371 13.5962V18.4058C67.6371 18.8703 68.0152 19.2484 68.4797 19.2484H72.0863C72.5508 19.2484 72.9289 18.8703 72.9289 18.4058V13.5962C72.9289 13.1317 72.5508 12.7535 72.0863 12.7535H68.4797Z" fill="white"/>
<path d="M99.9595 19.9695H96.3503C95.4874 19.9695 94.7869 19.2689 94.7869 18.406V17.8781C94.7869 17.6776 94.9493 17.5177 95.1473 17.5177C95.3452 17.5177 95.5077 17.6801 95.5077 17.8781V18.406C95.5077 18.8705 95.8859 19.2486 96.3503 19.2486H99.9595C100.424 19.2486 100.802 18.8705 100.802 18.406V17.203C100.802 16.7385 100.424 16.3603 99.9595 16.3603H96.3503C95.4874 16.3603 94.7869 15.6573 94.7869 14.7943V13.5913C94.7869 12.7283 95.4874 12.0278 96.3503 12.0278H99.9595C100.822 12.0278 101.523 12.7283 101.523 13.5913V14.0684C101.523 14.2689 101.36 14.4288 101.162 14.4288C100.965 14.4288 100.802 14.2664 100.802 14.0684V13.5913C100.802 13.1268 100.424 12.7486 99.9595 12.7486H96.3503C95.8859 12.7486 95.5077 13.1268 95.5077 13.5913V14.7943C95.5077 15.2588 95.8859 15.637 96.3503 15.637H99.9595C100.822 15.637 101.523 16.34 101.523 17.203V18.406C101.523 19.2689 100.822 19.9695 99.9595 19.9695Z" fill="white"/>
<path d="M87.2259 19.9696C87.1218 19.9696 87.0178 19.9239 86.9492 19.8402L81.5736 13.3909V19.6092C81.5736 19.8097 81.4112 19.9696 81.2132 19.9696C81.0152 19.9696 80.8528 19.8072 80.8528 19.6092V12.3935C80.8528 12.2412 80.9467 12.1067 81.0914 12.0534C81.236 12.0001 81.3934 12.0457 81.4924 12.1625L86.868 18.6117V12.3935C86.868 12.1929 87.0304 12.033 87.2284 12.033C87.4264 12.033 87.5888 12.1955 87.5888 12.3935V19.6092C87.5888 19.7615 87.4949 19.896 87.3502 19.9493C87.3096 19.9645 87.269 19.9721 87.2284 19.9721L87.2259 19.9696Z" fill="white"/>
</g>
<defs>
<clipPath id="clip0_4526_18286">
<rect width="101.523" height="32" fill="white"/>
</clipPath>
</defs>
</svg>
