<svg width="24" height="25" viewBox="0 0 24 25" fill="none" xmlns="http://www.w3.org/2000/svg">
<g clip-path="url(#clip0_4276_10210)">
<path d="M18.9761 15.3155C18.6734 15.5967 18.5448 16.0341 18.628 16.448L19.0744 18.6738L19.9748 23.1958C20.1867 24.2501 19.0669 25.0389 18.1892 24.4532L12.6431 20.7044C12.2497 20.4389 11.7503 20.4389 11.3569 20.7044L5.81086 24.4532C4.94075 25.0389 3.81339 24.2501 4.02524 23.1958L5.37959 16.448C5.46282 16.0341 5.32663 15.5967 5.02398 15.3155L0.983625 11.473L0.378329 10.9029C-0.40099 10.161 0.105945 8.80984 1.17278 8.80984H6.96849C7.43003 8.80984 7.84617 8.52868 8.03533 8.09133L10.9332 1.35914C11.3418 0.406328 12.6583 0.406328 13.0669 1.35914L15.9647 8.09133C16.1539 8.52868 16.57 8.80984 17.0315 8.80984H22.8273C23.8941 8.80984 24.4086 10.161 23.6217 10.9029L18.9761 15.3077V15.3155Z" fill="#FFCB45"/>
<path d="M18.1892 24.4533L12.6432 20.7045C12.2497 20.439 11.7504 20.439 11.3569 20.7045L5.81088 24.4533C4.94077 25.039 3.8134 24.2502 4.02526 23.1959L5.37961 16.4481C5.46284 16.0342 5.32664 15.5968 5.024 15.3156L0.983643 11.4731C5.16775 13.0898 13.135 16.2763 19.0744 18.6661L19.9748 23.1881C20.1867 24.2424 19.0669 25.0312 18.1892 24.4455V24.4533Z" fill="#FB923C"/>
<path d="M18.9155 18.6112L1.13489 11.5823L19.2938 20.5637L18.9155 18.6112Z" fill="#FB7200"/>
<path d="M12.8625 2.99146L13.7322 9.23942H15.1324L12.8625 2.99146Z" fill="white"/>
<path d="M21.1854 10.0205H15.889L16.9483 11.5825L21.1854 10.0205Z" fill="white"/>
</g>
<defs>
<clipPath id="clip0_4276_10210">
<rect width="24" height="24" fill="white" transform="translate(0 0.648438)"/>
</clipPath>
</defs>
</svg>
