<svg width="90" height="90" viewBox="0 0 90 90" fill="none" xmlns="http://www.w3.org/2000/svg">
<g clip-path="url(#clip0_128_132)">
<path d="M44.6475 10L47.6962 16.1875L54.525 17.1775L49.5863 21.9925L50.7563 28.7875L44.6475 25.5813L38.5388 28.7875L39.7088 21.9925L34.77 17.1775L41.5988 16.1875L44.6475 10Z" fill="#FB923C"/>
<path d="M28.5037 19.45L30.8212 24.1525L35.9963 24.9062L32.25 28.5625L33.1388 33.715L28.5037 31.285L23.8688 33.715L24.7462 28.5625L21 24.9062L26.1863 24.1525L28.5037 19.45Z" fill="#FDBA74"/>
<path d="M60.7912 19.45L63.1087 24.1525L68.295 24.9062L64.5487 28.5625L65.4263 33.715L60.7912 31.285L56.1562 33.715L57.045 28.5625L53.2987 24.9062L58.4738 24.1525L60.7912 19.45Z" fill="#FDBA74"/>
<path d="M46.4361 42.3551C41.0361 35.3014 30.3599 34.5026 30.3599 46.0676C30.3599 57.6326 46.4361 65.5526 46.4361 65.5526C46.4361 65.5526 62.5124 57.6326 62.5124 46.0676C62.5124 34.5026 51.2961 34.8064 46.4361 42.3551Z" fill="#27B1FF"/>
<path d="M46.7624 62.155L54.7499 56.9012C56.1899 55.9562 58.1136 56.305 59.1261 57.7C60.1386 59.0837 59.8799 61.0187 58.5524 62.0987L51.0149 68.1962L49.8336 75.16C49.4736 77.2862 47.6399 78.8387 45.4799 78.8387H33.1611V62.335L36.5474 54.8425C37.2336 53.3125 38.9774 52.5475 40.5749 53.065C42.2399 53.605 43.1849 55.36 42.7236 57.0475L41.3736 62.065L46.7849 62.155H46.7624Z" fill="#D0EEFF"/>
<path d="M28.9762 61.6265H33.1387V79.874H28.9762C27.7612 79.874 26.7712 78.884 26.7712 77.669V63.8315C26.7712 62.6165 27.7612 61.6265 28.9762 61.6265Z" fill="#34D399"/>
<circle cx="16.5" cy="50.5" r="4.5" stroke="#27B1FF" stroke-linecap="round" stroke-dasharray="1 3"/>
<circle cx="75.5" cy="13.5" r="4.5" transform="rotate(62.4276 75.5 13.5)" stroke="#27B1FF" stroke-linecap="round" stroke-dasharray="1 3"/>
<circle cx="73.5" cy="42.5" r="2.5" fill="#109867"/>
<circle cx="13" cy="32" r="4" fill="#5BC3FE"/>
<circle cx="7" cy="66" r="6" fill="#6EE7B7"/>
<path d="M12.5386 3.69063L16.3911 5.23913L20.3564 4.00764L20.0741 8.15011L22.4707 11.5407L18.4438 12.5524L15.9597 15.8794L13.7531 12.3622L9.8213 11.0278L12.4845 7.84235L12.5386 3.69063Z" stroke="#34D399" stroke-linecap="round" stroke-linejoin="round" stroke-dasharray="2 3"/>
<path d="M79.1902 54.5292L81.2712 59.253L85.8674 61.6025L82.0178 65.0413L81.2037 70.1387L76.7435 67.5401L71.6441 68.341L72.7372 63.2962L70.3997 58.6938L75.5354 58.1744L79.1902 54.5292Z" fill="#98D6FA"/>
</g>
<defs>
<clipPath id="clip0_128_132">
<rect width="90" height="90" fill="white"/>
</clipPath>
</defs>
</svg>
