<svg width="382" height="393" viewBox="0 0 382 393" fill="none" xmlns="http://www.w3.org/2000/svg">
<g opacity="0.4">
<path d="M210.556 247.216C209.181 247.741 207.768 246.563 207.403 244.584C207.038 242.606 207.858 240.577 209.234 240.052C210.61 239.527 212.022 240.704 212.387 242.683C212.752 244.662 211.932 246.691 210.556 247.216Z" [fill]="lineColor"/>
<path d="M288.905 84.7061C287.529 85.2317 286.118 84.0535 285.752 82.0746C285.387 80.0967 286.206 78.0666 287.583 77.542C288.959 77.0164 290.371 78.1946 290.736 80.1735C291.101 82.1514 290.282 84.1815 288.905 84.7061Z" [fill]="lineColor"/>
<path d="M367.903 130.268C366.527 130.792 365.115 129.615 364.75 127.636C364.385 125.658 365.204 123.629 366.58 123.104C367.956 122.579 369.368 123.756 369.734 125.735C370.099 127.714 369.279 129.742 367.903 130.268Z" [fill]="lineColor"/>
<path d="M287.937 80.8326L208.698 245.189L209.261 245.75L288.499 81.3931L287.937 80.8326Z" [fill]="lineColor"/>
<path d="M288.403 80.5963L288.149 81.5087L368.334 127.759L368.589 126.846L288.403 80.5963Z" [fill]="lineColor"/>
<path d="M361.324 -10.1896L360.641 -10.1128L368.13 127.487L368.812 127.41L361.324 -10.1896Z" [fill]="lineColor"/>
<path d="M35.7495 270.416C37.5865 270.219 39.1875 272.2 39.3247 274.843C39.462 277.483 38.0837 279.785 36.2467 279.982C34.4096 280.179 32.8087 278.198 32.6714 275.557C32.5342 272.914 33.9124 270.614 35.7495 270.416Z" [fill]="lineColor"/>
<path d="M91.8008 207.258C93.6378 207.061 95.2388 209.042 95.376 211.683C95.5133 214.324 94.135 216.625 92.2979 216.822C90.4609 217.02 88.8599 215.038 88.7227 212.398C88.5854 209.757 89.9637 207.456 91.8008 207.258Z" [fill]="lineColor"/>
<path d="M77.9393 354.249C79.7764 354.052 81.3773 356.033 81.5146 358.674C81.6518 361.315 80.2735 363.616 78.4365 363.813C76.5994 364.011 74.9985 362.029 74.8612 359.389C74.723 356.746 76.1013 354.447 77.9393 354.249Z" [fill]="lineColor"/>
<path d="M-10.0448 136.637L-10.4462 137.771L91.8616 212.624L92.263 211.49L-10.0448 136.637Z" [fill]="lineColor"/>
<path d="M91.7703 211.534L35.7235 274.705L36.2701 275.708L92.3168 212.537L91.7703 211.534Z" [fill]="lineColor"/>
<path d="M36.3489 274.826L35.6327 275.57L78.0391 359.836L78.7553 359.092L36.3489 274.826Z" [fill]="lineColor"/>
<path d="M209.207 650.835C195.566 638.118 182.106 624.996 168.838 611.487C80.3827 521.424 0.454003 414.088 -68.0666 293.353C-75.43 280.379 -82.9298 267.358 -91.0167 258.37C-96.09 252.732 -98.7872 260.516 -101.724 243.449C-105.199 223.259 -98.2829 205.433 -87.3414 193.447C-66.585 170.711 -30.4856 164.311 -6.23512 175.57C24.1939 189.698 49.5411 219.804 77.277 242.677C105.016 265.553 139.059 281.398 168.679 264.049C199.761 245.844 220.171 194.354 253.576 189.698C285.55 185.241 315.018 227.022 346.589 218.479C388.708 207.085 401.012 117.69 442.39 101.628C459.598 94.9451 478.282 103.282 492.93 117.877C507.579 132.471 518.93 152.771 530.067 172.778C413.307 317.677 305.76 477.913 209.207 650.835Z" [fill]="#FB923C" fill-opacity="0.2"/>
</g>
</svg>
