<svg width="48" height="48" viewBox="0 0 48 48" fill="none" xmlns="http://www.w3.org/2000/svg">
<path d="M28.2105 28.8856C25.4617 28.8856 23.2269 26.6741 23.2269 23.9535C23.2269 21.2329 25.4617 19.0215 28.2105 19.0215C30.9592 19.0215 33.194 21.2329 33.194 23.9535C33.194 26.6741 30.9592 28.8856 28.2105 28.8856ZM28.2105 20.1044C26.0594 20.1044 24.3082 21.8295 24.3082 23.9535C24.3082 26.0776 26.0594 27.8026 28.2105 27.8026C30.3615 27.8026 32.1128 26.0776 32.1128 23.9535C32.1128 21.8295 30.3615 20.1044 28.2105 20.1044Z" fill="white"/>
<path d="M36.8489 33.3273C36.1598 33.3273 35.4593 33.2019 34.7816 32.9321C33.3882 32.3812 32.2993 31.3249 31.7131 29.9608C31.1344 28.6081 31.1153 27.111 31.6712 25.7469C31.7816 25.4695 32.0976 25.3365 32.3755 25.4467C32.6534 25.5569 32.7867 25.8723 32.6763 26.1496C32.2308 27.244 32.246 28.4447 32.7105 29.5314C33.1826 30.6295 34.0582 31.4807 35.1814 31.9252C37.4885 32.8372 40.1154 31.7276 41.0367 29.4478C42.0152 27.0274 41.9847 23.9876 41.9847 23.9572C41.9847 14.8341 34.477 7.41701 25.2485 7.41701C17.6647 7.41701 11.0136 12.4668 9.07199 19.6977C8.99585 19.9865 8.6989 20.1575 8.40955 20.0815C8.12021 20.0055 7.94889 19.7091 8.02503 19.4203C10.0923 11.7183 17.1774 6.33789 25.2485 6.33789C35.0748 6.33789 43.0659 14.2375 43.0659 23.9496C43.0659 24.075 43.104 27.225 42.0418 29.8506C41.17 32.005 39.0684 33.3197 36.8489 33.3197V33.3273Z" fill="white"/>
<path d="M37.5913 24.493C37.2905 24.493 37.0507 24.2498 37.0507 23.9535C37.0507 18.3337 32.4212 13.7626 26.7333 13.7626C21.7345 13.7626 17.6571 17.095 16.5949 22.0536C16.534 22.3462 16.2446 22.5286 15.9515 22.4678C15.6583 22.407 15.4718 22.1182 15.5365 21.8256C16.7129 16.354 21.213 12.6797 26.7371 12.6797C33.0227 12.6797 38.1357 17.7371 38.1357 23.9497C38.1357 24.2498 37.892 24.4892 37.5951 24.4892L37.5913 24.493Z" fill="white"/>
<path d="M23.9922 47.9068C20.0746 47.9068 16.8881 44.7416 16.8881 40.8545C16.8881 36.9674 20.0746 33.8022 23.9922 33.8022C27.9097 33.8022 31.0963 36.9674 31.0963 40.8545C31.0963 44.7416 27.9097 47.9068 23.9922 47.9068ZM23.9922 34.8814C20.6724 34.8814 17.9693 37.5602 17.9693 40.8545C17.9693 44.1489 20.6686 46.8277 23.9922 46.8277C27.3158 46.8277 30.0113 44.1489 30.0113 40.8545C30.0113 37.5602 27.312 34.8814 23.9922 34.8814Z" fill="white"/>
<path d="M19.9528 26.9932C19.7167 26.9932 19.4807 26.9742 19.2408 26.9362C18.053 26.7462 17.0099 26.1117 16.3094 25.1427C15.6165 24.1852 15.3385 23.0187 15.5289 21.856C15.5746 21.5596 15.8563 21.3582 16.1495 21.4076C16.4464 21.457 16.6444 21.7344 16.5987 22.027C16.4578 22.9047 16.6672 23.7862 17.1888 24.5082C17.7218 25.2415 18.5099 25.7241 19.4122 25.8685C21.2662 26.1649 23.0099 24.9147 23.3069 23.0909C23.3526 22.7945 23.6343 22.5931 23.9274 22.6425C24.2244 22.6919 24.4224 22.9693 24.3767 23.2619C24.0226 25.4391 22.1152 26.9894 19.9566 26.9894L19.9528 26.9932Z" fill="white"/>
<path d="M43.8045 33.7605C43.3972 33.7605 42.986 33.6807 42.5901 33.5098C41.8362 33.1868 41.2576 32.5902 40.9568 31.8341C40.6598 31.0817 40.6751 30.261 40.9987 29.52C41.1205 29.2465 41.4365 29.1211 41.7106 29.2427C41.9847 29.3643 42.1104 29.6796 41.9885 29.9532C41.7791 30.4282 41.7715 30.9525 41.9619 31.4351C42.156 31.9215 42.5291 32.3052 43.0126 32.5142C44.0063 32.9398 45.1675 32.4952 45.6091 31.5187C46.6865 28.5017 46.9112 25.7355 46.9112 23.9497C46.9112 11.3384 36.5253 1.07532 23.7599 1.07532C13.1114 1.07912 3.86003 8.2416 1.27879 18.4971C0.837161 20.3589 1.14935 22.2854 2.16585 23.9193C3.19378 25.5759 4.81562 26.7348 6.73061 27.1794C10.6634 28.0914 14.6114 25.6785 15.5365 21.7952C15.6051 21.5064 15.8982 21.324 16.1875 21.3962C16.4769 21.4646 16.6596 21.7572 16.5873 22.046C15.5251 26.5069 10.9946 29.2807 6.48315 28.2319C4.28643 27.719 2.42474 26.3929 1.24452 24.4892C0.075733 22.6083 -0.285945 20.3893 0.228019 18.2425C2.93109 7.49685 12.6126 0 23.7676 0C37.1306 0 48 10.7456 48 23.9535C48 25.8305 47.7602 28.7335 46.6256 31.9063C46.6218 31.9177 46.618 31.9291 46.6104 31.9405C46.1117 33.0804 44.9809 33.7605 43.8007 33.7605H43.8045Z" fill="white"/>
</svg>
