<svg width="24" height="24" viewBox="0 0 24 24" fill="none" xmlns="http://www.w3.org/2000/svg">
<path d="M12.3291 0.797974H12.0728V7.45768H12.3291V0.797974Z" fill="#FB923C"/>
<path d="M12.3181 1.07805C12.3181 1.07805 14.6863 0.835123 14.5245 1.29754C14.3627 1.75997 16.0333 1.80429 16.8246 1.58264C16.8246 1.58264 16.6487 2.29192 16.4729 3.26717C16.297 4.24242 13.6154 3.66611 13.8352 3.26717C14.055 2.86819 12.3291 3.04552 12.3291 3.04552L12.3181 1.07805Z" fill="#FB7200"/>
<path d="M17.4495 11.671L11.6902 23.2019H23.2088L17.4495 11.671Z" fill="#315D93"/>
<path opacity="0.14" d="M23.2088 23.2019L17.4495 11.671V23.2019H23.2088Z" fill="#FB7200"/>
<path d="M6.55079 11.671L0.791504 23.2019H12.3101L6.55079 11.671Z" fill="#315D93"/>
<path opacity="0.14" d="M12.3101 23.2019L6.55078 11.671V23.2019H12.3101Z" fill="#FB7200"/>
<path d="M12.2046 6.48389L5.18823 23.1962H12.2235V6.52904L12.2046 6.48389Z" fill="#315D93"/>
<path d="M12.2234 6.52905V23.1962H19.2208L12.2234 6.52905Z" fill="#315D93"/>
<path opacity="0.14" d="M12.2234 6.52905V23.1962H19.2208L12.2234 6.52905Z" fill="#FB7200"/>
</svg>
