<svg width="24" height="24" viewBox="0 0 24 24" fill="none" xmlns="http://www.w3.org/2000/svg">
<path d="M19.2727 22H4.72727C3.22727 22 2 20.7727 2 19.2727V4.72727C2 3.22727 3.22727 2 4.72727 2H19.2727C20.7727 2 22 3.22727 22 4.72727V19.2727C22 20.7727 20.7727 22 19.2727 22Z" fill="#315D93"/>
<path d="M16 8.74312V9.25688C16 11.3119 14.1961 13 12 13C9.80392 13 8 11.3119 8 9.25688V8.74312C8 6.68807 9.80392 5 12 5C13.098 5 14.1176 5.40367 14.8235 6.10092C15.5294 6.76147 16 7.7156 16 8.74312Z" fill="#FED7AA"/>
<path d="M16 8.74312V9.25688C16 11.3119 14.1961 13 12 13V5C13.098 5 14.1176 5.40367 14.8235 6.10092C15.5294 6.76147 16 7.7156 16 8.74312Z" fill="#FDBA74"/>
<path d="M19 19.3809V22H5V19.3809C5 16.9425 6.925 15.0008 9.24375 15.0008C9.725 15.0008 10.1625 15.2265 10.4688 15.6329L11.0375 16.4006C11.2562 16.7167 11.65 16.8973 12 16.8973C12.35 16.8973 12.7 16.7167 12.9625 16.4006L13.5312 15.6329C13.8375 15.2265 14.275 15.0008 14.7125 15.0008H14.8C17.1187 14.9556 19 16.9425 19 19.3809Z" fill="#06A5FF"/>
<path d="M19 19.3974V22H12V16.8846C12.3478 16.8846 12.6957 16.7051 12.9565 16.391L13.5217 15.6282C13.8261 15.2244 14.2609 15 14.6957 15H14.7826C17.1304 15 19 16.9744 19 19.3974Z" fill="#2C3D5B"/>
<path d="M5.99998 21.0002C5.49999 19.5 6 17.5 6.99998 17.0004M8.99998 9.50038C8.99998 8.61149 9.49998 6.50038 11.7273 5.94482" stroke="white" stroke-linecap="round"/>
</svg>
