<svg width="25" height="24" viewBox="0 0 25 24" fill="none" xmlns="http://www.w3.org/2000/svg">
<path d="M3.14648 11.7148H22.6465V21.1498C22.6465 21.7348 22.1665 22.2148 21.5815 22.2148H4.21148C3.62648 22.2148 3.14648 21.7348 3.14648 21.1498V11.7148Z" fill="#315D93"/>
<path d="M12.8662 11.7148H7.61621L9.37121 1.21484H12.8662V11.7148Z" fill="#EF4444"/>
<path d="M7.61627 11.7148L2.42627 11.9548L5.41127 2.62484C5.68127 1.78484 6.46127 1.21484 7.34627 1.21484H9.35627L7.60127 11.7148H7.61627Z" fill="#EF4444"/>
<path d="M8.24627 11.5347L2.42627 11.9547C2.65127 13.2747 3.91127 14.8947 5.26127 14.8947C6.52127 14.8947 7.63127 14.0397 7.93127 12.8097L8.24627 11.5347Z" fill="#EF4444"/>
<path d="M13.2863 11.5347H7.40625L7.58625 12.5997C7.81125 13.9197 8.95125 14.8947 10.3012 14.8947C11.5612 14.8947 12.6712 14.0397 12.9713 12.8097L13.2863 11.5347Z" fill="#EF4444"/>
<path d="M18.3263 11.5347H12.4463L12.6263 12.5997C12.8513 13.9197 13.9913 14.8947 15.3413 14.8947C16.6013 14.8947 17.7113 14.0397 18.0113 12.8097L18.3263 11.5347Z" fill="#EF4444"/>
<path d="M23.3663 11.6247L17.4863 11.5347L17.6663 12.5997C17.8913 13.9197 19.0313 14.8947 20.3813 14.8947C21.6413 14.8947 22.7513 14.0397 23.0513 12.8097L23.3663 11.6247Z" fill="#EF4444"/>
<path d="M18.1163 11.7148L23.3663 11.6248L20.3363 2.59484C20.0513 1.76984 19.2863 1.21484 18.4013 1.21484H16.3613L18.1163 11.7148Z" fill="#EF4444"/>
<path d="M18.1162 11.7148H12.8662V1.21484H16.3612L18.1162 11.7148Z" fill="#EF4444"/>
<path d="M6.14627 11.7151C6.14627 11.7151 6.01127 11.7151 5.93627 11.6851C5.53127 11.5651 5.30627 11.1601 5.42627 10.7551L6.92627 5.50512C7.04627 5.10012 7.45127 4.87512 7.85627 4.99512C8.26127 5.11512 8.48627 5.52012 8.36627 5.92512L6.86627 11.1751C6.77627 11.5051 6.47627 11.7151 6.14627 11.7151Z" fill="#FDBA74"/>
<path d="M19.6461 11.7149C19.3161 11.7149 19.0161 11.5049 18.9261 11.1749L17.4261 5.92492C17.3061 5.51992 17.5461 5.11492 17.9361 4.99492C18.3411 4.87492 18.7461 5.11492 18.8661 5.50492L20.3661 10.7549C20.4861 11.1599 20.2461 11.5649 19.8561 11.6849C19.7811 11.6999 19.7211 11.7149 19.6461 11.7149Z" fill="#FDBA74"/>
<path d="M12.8965 11.7148C12.4765 11.7148 12.1465 11.3848 12.1465 10.9648V5.71484C12.1465 5.29484 12.4765 4.96484 12.8965 4.96484C13.3165 4.96484 13.6465 5.29484 13.6465 5.71484V10.9648C13.6465 11.3848 13.3165 11.7148 12.8965 11.7148Z" fill="#FDBA74"/>
<path d="M14.2763 16.2148H19.4663C20.3963 16.2148 21.1463 16.9648 21.1463 17.8948V22.2148H12.6113V17.8948C12.6113 16.9648 13.3613 16.2148 14.2913 16.2148H14.2763Z" fill="#FDBA74"/>
<path d="M9.77633 16.2148H5.98133C5.50084 16.2148 5.11133 16.6044 5.11133 17.0848V18.3448C5.11133 18.8253 5.50084 19.2148 5.98133 19.2148H9.77633C10.2568 19.2148 10.6463 18.8253 10.6463 18.3448V17.0848C10.6463 16.6044 10.2568 16.2148 9.77633 16.2148Z" fill="#FDBA74"/>
</svg>
