<svg width="127" height="30" viewBox="0 0 127 30" fill="none" xmlns="http://www.w3.org/2000/svg">
<path d="M49.9251 0.964844H46.0869V4.98977" stroke="#62EDF5" stroke-width="0.254611" stroke-miterlimit="10"/>
<path d="M49.9251 29.2007H46.0869V25.1758" stroke="#62EDF5" stroke-width="0.254611" stroke-miterlimit="10"/>
<path d="M79.1909 0.964844H83.0291V4.98977" stroke="#62EDF5" stroke-width="0.254611" stroke-miterlimit="10"/>
<path d="M79.1909 29.2007H83.0291V25.1758" stroke="#62EDF5" stroke-width="0.254611" stroke-miterlimit="10"/>
<path d="M61.2897 4.26758H69.7007L65.9225 10.4852H70.4803L55.3975 27.6512L61.1397 14.7354H56.9717L61.2897 4.26758Z" fill="#00C4D0"/>
<path d="M4.99102 0.964844H1.15283V4.98977" stroke="#62EDF5" stroke-width="0.254611" stroke-miterlimit="10"/>
<path d="M4.99102 29.2007H1.15283V25.1758" stroke="#62EDF5" stroke-width="0.254611" stroke-miterlimit="10"/>
<path d="M34.2573 0.964844H38.0955V4.98977" stroke="#62EDF5" stroke-width="0.254611" stroke-miterlimit="10"/>
<path d="M34.2573 29.2007H38.0955V25.1758" stroke="#62EDF5" stroke-width="0.254611" stroke-miterlimit="10"/>
<path d="M6.79004 9.22266V21.4176H30.7487V9.22266H6.79004ZM28.8596 20.1861H8.30432V10.4542H28.8596V20.1861Z" fill="#00C4D0"/>
<path d="M33.4478 11.1602H30.749V19.0749H33.4478V11.1602Z" fill="#00C4D0"/>
<path d="M93.179 0.964844H89.3408V4.98977" stroke="#62EDF5" stroke-width="0.254611" stroke-miterlimit="10"/>
<path d="M93.179 29.2007H89.3408V25.1758" stroke="#62EDF5" stroke-width="0.254611" stroke-miterlimit="10"/>
<path d="M122.446 0.964844H126.284V4.98977" stroke="#62EDF5" stroke-width="0.254611" stroke-miterlimit="10"/>
<path d="M122.446 29.2007H126.284V25.1758" stroke="#62EDF5" stroke-width="0.254611" stroke-miterlimit="10"/>
<path d="M114.304 13.9988C113.929 13.6234 113.734 13.1277 113.734 12.482C113.734 11.8362 113.929 11.3406 114.304 10.9801C114.679 10.6197 115.174 10.4395 115.758 10.4395C116.343 10.4395 116.838 10.6197 117.213 10.9801C117.588 11.3406 117.782 11.8512 117.782 12.482C117.782 13.1127 117.588 13.6234 117.213 13.9988C116.838 14.3743 116.343 14.5545 115.758 14.5545C115.174 14.5545 114.664 14.3743 114.289 13.9988H114.304ZM114.784 19.5406L119.807 10.5596H121.561L116.523 19.5406H114.784ZM116.493 12.482C116.493 11.8211 116.253 11.5058 115.773 11.5058C115.294 11.5058 115.054 11.8362 115.054 12.482C115.054 13.1277 115.294 13.4582 115.773 13.4582C116.253 13.4582 116.493 13.1277 116.493 12.482ZM120.601 19.6607C120.001 19.6607 119.507 19.4805 119.132 19.1201C118.757 18.7596 118.562 18.249 118.562 17.6032C118.562 16.9574 118.757 16.4468 119.132 16.0864C119.507 15.7259 120.001 15.5457 120.586 15.5457C121.171 15.5457 121.666 15.7259 122.04 16.0864C122.415 16.4468 122.61 16.9574 122.61 17.6032C122.61 18.249 122.415 18.7596 122.04 19.1201C121.666 19.4805 121.171 19.6607 120.586 19.6607H120.601ZM121.306 17.6032C121.306 16.9424 121.066 16.627 120.586 16.627C120.106 16.627 119.866 16.9574 119.866 17.6032C119.866 18.249 120.106 18.5794 120.586 18.5794C121.066 18.5794 121.306 18.249 121.306 17.6032Z" fill="#00C4D0"/>
</svg>
