<svg width="32" height="36" viewBox="0 0 32 36" fill="none" xmlns="http://www.w3.org/2000/svg">
<path d="M35.9268 16.795C35.9268 26.9414 27.9422 35.1627 18.0878 35.1627C17.4239 35.1627 16.7691 35.1255 16.1278 35.0511C12.6909 34.6651 9.54766 33.2748 6.98245 31.1683C4.53015 29.1548 2.60172 26.495 1.44557 23.426C0.6733 21.3706 0.248779 19.1339 0.248779 16.795C0.248779 16.3439 0.262331 15.8929 0.293944 15.4465C0.962343 5.93244 8.67151 -1.57275 18.0878 -1.57275C20.6711 -1.57275 23.1234 -1.0101 25.3408 0.00826263C26.6505 0.60812 27.8789 1.37073 28.999 2.26354C30.2861 3.28656 31.4332 4.48627 32.4042 5.83478C34.1429 8.23886 35.3262 11.0986 35.7507 14.2049C35.8681 15.0512 35.9268 15.9161 35.9268 16.795Z" fill="#64748B"/>
<path d="M31.0132 4.59765C30.5661 5.49976 30.0603 6.33211 29.6177 6.88082C27.5583 9.43835 18.0743 19.1291 0.750096 21.3704C0.28041 19.2221 0.176538 16.9435 0.510737 14.6325C0.573964 14.1861 0.655256 13.7443 0.750096 13.3072C6.75214 11.9866 20.084 8.52694 26.7002 2.68182C27.0615 2.36096 27.4048 2.07267 27.7209 1.80762C28.9312 2.59813 30.0377 3.53743 31.0177 4.593L31.0132 4.59765Z" fill="#CBD5E1"/>
<path d="M35.7507 14.2046C32.4629 18.4919 27.8609 22.5793 25.3725 23.8209C19.2801 26.862 12.0993 25.3368 19.7724 20.431C29.1887 14.4092 31.7945 9.06626 32.4042 5.83447C34.1429 8.23855 35.3262 11.0983 35.7507 14.2046Z" fill="#CBD5E1"/>
<path d="M20.9149 33.3121C19.9936 34.084 16.9542 34.8001 13.6167 35.0884C10.2702 34.1863 7.36174 32.3356 5.1217 29.8664C7.70949 30.364 13.707 31.1731 18.8058 29.2433C23.042 27.639 23.5614 31.094 20.9104 33.3167L20.9149 33.3121Z" fill="#CBD5E1"/>
</svg>
