<svg width="40" height="40" viewBox="0 0 40 40" fill="none" xmlns="http://www.w3.org/2000/svg">
<rect width="40" height="40" rx="4" fill="white"/>
<path fill-rule="evenodd" clip-rule="evenodd" d="M13 11C12.0641 11 11 11.9904 11 13.6364V26.3636C11 28.0096 12.0641 29 13 29H22C22.5523 29 23 29.4477 23 30C23 30.5523 22.5523 31 22 31H13C10.6159 31 9 28.7358 9 26.3636V13.6364C9 11.2642 10.6159 9 13 9H22C22.5523 9 23 9.44772 23 10C23 10.5523 22.5523 11 22 11H13Z" fill="#2C3D5B"/>
<path fill-rule="evenodd" clip-rule="evenodd" d="M16 20C16 19.4477 16.4477 19 17 19L28 19C28.5523 19 29 19.4477 29 20C29 20.5523 28.5523 21 28 21L17 21C16.4477 21 16 20.5523 16 20Z" fill="#2C3D5B"/>
<path fill-rule="evenodd" clip-rule="evenodd" d="M23.2929 14.2929C23.6834 13.9024 24.3166 13.9024 24.7071 14.2929L29.7071 19.2929C30.0976 19.6834 30.0976 20.3166 29.7071 20.7071L24.7071 25.7071C24.3166 26.0976 23.6834 26.0976 23.2929 25.7071C22.9024 25.3166 22.9024 24.6834 23.2929 24.2929L27.5858 20L23.2929 15.7071C22.9024 15.3166 22.9024 14.6834 23.2929 14.2929Z" fill="#2C3D5B"/>
</svg>
