<svg width="40" height="40" viewBox="0 0 40 40" fill="none" xmlns="http://www.w3.org/2000/svg">
<rect width="40" height="40" rx="4" fill="white"/>
<mask id="mask0_1215_6876" style="mask-type:alpha" maskUnits="userSpaceOnUse" x="8" y="8" width="24" height="24">
<rect x="8" y="8" width="24" height="24" fill="#D9D9D9"/>
</mask>
<g mask="url(#mask0_1215_6876)">
<path d="M21.6645 31C20.4688 31 19.329 30.8044 18.2452 30.4132C17.1606 30.0221 16.1623 29.4662 15.2503 28.7456C15.0274 28.5809 14.9111 28.3598 14.9014 28.0822C14.8908 27.8039 14.9869 27.5618 15.1895 27.3559C15.3719 27.1706 15.5746 27.0779 15.7975 27.0779C16.0204 27.0779 16.2332 27.1603 16.4359 27.325C17.1857 27.8809 17.9915 28.3235 18.8532 28.6529C19.7141 28.9824 20.6512 29.1471 21.6645 29.1471C24.0153 29.1471 26.0216 28.3029 27.6834 26.6147C29.3452 24.9265 30.1761 22.8882 30.1761 20.5C30.1761 18.1118 29.3452 16.0735 27.6834 14.3853C26.0216 12.6971 24.0153 11.8529 21.6645 11.8529C19.3136 11.8529 17.3073 12.6971 15.6455 14.3853C13.9837 16.0735 13.1528 18.1118 13.1528 20.5V21.4574L14.916 19.6353C15.0983 19.4706 15.3164 19.3882 15.5701 19.3882C15.823 19.3882 16.0407 19.4706 16.2231 19.6353C16.4055 19.8206 16.4967 20.0417 16.4967 20.2986C16.4967 20.5564 16.4055 20.7779 16.2231 20.9632L13.0008 24.2059C12.8995 24.3294 12.7832 24.4171 12.6519 24.469C12.5197 24.5201 12.3827 24.5456 12.2409 24.5456C12.099 24.5456 11.962 24.5201 11.8299 24.469C11.6986 24.4171 11.5822 24.3294 11.4809 24.2059L8.25864 20.9632C8.07625 20.7779 7.99033 20.5515 8.00086 20.2838C8.01059 20.0162 8.09652 19.8 8.25864 19.6353C8.44104 19.45 8.6591 19.3623 8.91282 19.3722C9.16574 19.3829 9.37326 19.4809 9.53539 19.6662L11.3289 21.4882V20.5C11.3289 19.0382 11.6025 17.6745 12.1497 16.4087C12.6968 15.1421 13.4365 14.0353 14.3688 13.0882C15.301 12.1412 16.3905 11.3897 17.6372 10.8338C18.8832 10.2779 20.2256 10 21.6645 10C23.1033 10 24.4457 10.2779 25.6917 10.8338C26.9384 11.3897 28.0279 12.1412 28.9601 13.0882C29.8924 14.0353 30.6321 15.1421 31.1792 16.4087C31.7264 17.6745 32 19.0382 32 20.5C32 23.4235 30.9968 25.9044 28.9905 27.9426C26.9842 29.9809 24.5422 31 21.6645 31ZM19.2326 25.2868C18.9083 25.2868 18.6347 25.1789 18.4118 24.9631C18.1889 24.7465 18.0774 24.4735 18.0774 24.1441V20.4382C18.0774 20.1088 18.1941 19.8309 18.4276 19.6044C18.6603 19.3779 18.9488 19.2647 19.2934 19.2647V17.9676C19.2934 17.3088 19.5264 16.7426 19.9925 16.2691C20.4586 15.7956 21.0159 15.5588 21.6645 15.5588C22.313 15.5588 22.8703 15.7956 23.3364 16.2691C23.8025 16.7426 24.0355 17.3088 24.0355 17.9676V19.2647C24.3801 19.2647 24.6691 19.3779 24.9025 19.6044C25.1352 19.8309 25.2515 20.1088 25.2515 20.4382V24.1441C25.2515 24.4735 25.14 24.7465 24.9171 24.9631C24.6942 25.1789 24.4206 25.2868 24.0963 25.2868H19.2326ZM20.3877 19.2647H22.9412V17.9676C22.9412 17.5971 22.8196 17.2833 22.5764 17.0264C22.3332 16.7686 22.0292 16.6397 21.6645 16.6397C21.2997 16.6397 20.9957 16.7686 20.7525 17.0264C20.5093 17.2833 20.3877 17.5971 20.3877 17.9676V19.2647Z" fill="#2C3D5B"/>
</g>
</svg>
