<svg width="40" height="40" viewBox="0 0 40 40" fill="none" xmlns="http://www.w3.org/2000/svg">
<rect width="40" height="40" rx="4" fill="white"/>
<path fill-rule="evenodd" clip-rule="evenodd" d="M15.0755 18.9137C17.2608 18.9137 19.0324 17.1422 19.0324 14.9569C19.0324 12.7715 17.2608 11 15.0755 11C12.8902 11 11.1187 12.7715 11.1187 14.9569C11.1187 17.1422 12.8902 18.9137 15.0755 18.9137ZM15.0755 20.9137C18.3654 20.9137 21.0324 18.2467 21.0324 14.9569C21.0324 11.667 18.3654 9 15.0755 9C11.7856 9 9.11866 11.667 9.11866 14.9569C9.11866 18.2467 11.7856 20.9137 15.0755 20.9137Z" fill="#2C3D5B"/>
<path fill-rule="evenodd" clip-rule="evenodd" d="M15.0755 23.9389C12.6753 23.9389 11.0254 24.7974 10.2269 25.3346C10.1122 25.4118 10 25.5831 10 25.8694V31.0396H8V25.8694C8 25.0723 8.32628 24.2028 9.11051 23.6752C10.1459 22.9786 12.1785 21.9389 15.0755 21.9389C17.9726 21.9389 20.0051 22.9786 21.0405 23.6752C21.8247 24.2028 22.151 25.0723 22.151 25.8694V31.0396H20.151V25.8694C20.151 25.5831 20.0388 25.4118 19.9241 25.3346C19.1256 24.7974 17.4757 23.9389 15.0755 23.9389Z" fill="#2C3D5B"/>
<path fill-rule="evenodd" clip-rule="evenodd" d="M22.8993 17.8885C22.8993 17.3362 23.347 16.8885 23.8993 16.8885H30C30.5523 16.8885 31 17.3362 31 17.8885C31 18.4408 30.5523 18.8885 30 18.8885H23.8993C23.347 18.8885 22.8993 18.4408 22.8993 17.8885Z" fill="#2C3D5B"/>
<path fill-rule="evenodd" clip-rule="evenodd" d="M22.8993 21.9389C22.8993 21.3866 23.347 20.9389 23.8993 20.9389H27.9748C28.5271 20.9389 28.9748 21.3866 28.9748 21.9389C28.9748 22.4912 28.5271 22.9389 27.9748 22.9389H23.8993C23.347 22.9389 22.8993 22.4912 22.8993 21.9389Z" fill="#2C3D5B"/>
<path fill-rule="evenodd" clip-rule="evenodd" d="M22.8993 13.8382C22.8993 13.2859 23.347 12.8382 23.8993 12.8382H27.9748C28.5271 12.8382 28.9748 13.2859 28.9748 13.8382C28.9748 14.3905 28.5271 14.8382 27.9748 14.8382H23.8993C23.347 14.8382 22.8993 14.3905 22.8993 13.8382Z" fill="#2C3D5B"/>
</svg>
