<svg width="375" height="378" viewBox="0 0 375 378" fill="none" xmlns="http://www.w3.org/2000/svg">
<path fill-rule="evenodd" clip-rule="evenodd" d="M185.626 378C290.03 378 374.626 293.405 374.626 189C374.626 179.957 374.004 171.057 372.76 162.349C368.262 130.386 355.726 100.959 337.304 76.222C333.964 71.7171 330.428 67.3735 326.708 63.2012C322.05 72.0951 316.894 80.2172 312.35 85.6811C290.108 112.468 188.491 213.209 3.10206 238.253C4.84239 244.725 6.91692 251.058 9.30542 257.231C19.2486 282.866 34.5832 305.726 53.9017 324.507C83.7017 329.564 142.643 335.685 193.234 317.089C238.115 300.582 243.618 336.133 215.531 359.004L215.579 358.956C207.376 365.631 183.326 371.9 154.872 375.492C158.173 376.032 161.503 376.486 164.86 376.852C171.654 377.617 178.592 378 185.626 378ZM0 153.117C66.6802 138.738 209.277 102.284 280.517 41.2502C284.325 37.9704 287.949 35.0121 291.301 32.2865C282.221 26.1454 272.574 20.7629 262.47 16.2683C238.976 5.78959 212.995 0 185.626 0C93.4691 0 16.7461 65.8992 0 153.117ZM372.759 162.349C337.926 206.465 289.169 248.524 262.805 261.299C198.257 292.592 122.179 276.898 203.473 226.418C303.236 164.455 330.845 109.477 337.304 76.2227C355.726 100.96 368.262 130.387 372.759 162.349Z" fill="#CBD5E1"/>
</svg>
